<svg class="main-svg" xmlns="http://www.w3.org/2000/svg" xmlns:xlink="http://www.w3.org/1999/xlink" width="700" height="500" style="" viewBox="0 0 700 500"><rect x="0" y="0" width="700" height="500" style="fill: rgb(255, 255, 255); fill-opacity: 1;"/><defs id="defs-1abfca"><g class="clips"/><g class="gradients"/><g class="patterns"/></defs><g class="bglayer"/><g class="layer-below"><g class="imagelayer"/><g class="shapelayer"/></g><g class="cartesianlayer"/><g class="polarlayer"/><g class="smithlayer"/><g class="ternarylayer"/><g class="geolayer"/><g class="funnelarealayer"/><g class="pielayer"/><g class="iciclelayer"/><g class="treemaplayer"/><g class="sunburstlayer"><g class="trace sunburst" stroke-linejoin="round" style="opacity: 1;"><g class="slice cursor-pointer"><path class="surface" d="M350,240L440,240A90,90 0,1,0 319.42054615184554,324.6457146130186L350,240A0,0 0,1,1 350,240Z" style="pointer-events: none; stroke-width: 1; fill: rgb(99, 110, 250); fill-opacity: 1; stroke: rgb(255, 255, 255); stroke-opacity: 1;"/><g class="slicetext"><text data-notex="1" class="slicetext" text-anchor="middle" x="0" y="0" style="font-family: 'Open Sans', verdana, arial, sans-serif; font-size: 12px; fill: rgb(255, 255, 255); fill-opacity: 1; white-space: pre;" transform="translate(350,190.27829943864322)"><tspan class="line" dy="0em" x="0" y="0">2019</tspan><tspan class="line" dy="1.3em" x="0" y="0">11.76 ms</tspan><tspan class="line" dy="2.6em" x="0" y="0">69%</tspan></text></g></g><g class="slice cursor-pointer"><path class="surface" d="M350,240L319.42054615184554,324.6457146130186A90,90 0,0,0 411.45465782298453,305.75199640969L350,240A0,0 0,0,1 350,240Z" style="pointer-events: none; stroke-width: 1; fill: rgb(239, 85, 59); fill-opacity: 1; stroke: rgb(255, 255, 255); stroke-opacity: 1;"/><g class="slicetext"><text data-notex="1" class="slicetext" text-anchor="middle" x="0" y="0" style="font-family: 'Open Sans', verdana, arial, sans-serif; font-size: 12px; fill: rgb(68, 68, 68); fill-opacity: 1; white-space: pre;" transform="translate(361.89167297495874,287.97289108742547)scale(0.9172150806103945)"><tspan class="line" dy="0em" x="0" y="0">2018</tspan><tspan class="line" dy="1.3em" x="0" y="0">2.96 ms</tspan><tspan class="line" dy="2.6em" x="0" y="0">17%</tspan></text></g></g><g class="slice cursor-pointer"><path class="surface" d="M350,240L411.45465782298453,305.75199640969A90,90 0,0,0 421.49724522216746,294.66391794997185L350,240A0,0 0,0,1 350,240Z" style="pointer-events: none; stroke-width: 1; fill: rgb(0, 204, 150); fill-opacity: 1; stroke: rgb(255, 255, 255); stroke-opacity: 1;"/><g class="slicetext"><text data-notex="1" class="slicetext" text-anchor="middle" x="0" y="0" style="font-family: 'Open Sans', verdana, arial, sans-serif; font-size: 12px; fill: rgb(68, 68, 68); fill-opacity: 1; white-space: pre;" transform="translate(411.5881081663783,293.5540325914876)scale(0.20521968903276352)"><tspan class="line" dy="0em" x="0" y="0">2015</tspan><tspan class="line" dy="1.3em" x="0" y="0">0.45 ms</tspan><tspan class="line" dy="2.6em" x="0" y="0">3%</tspan></text></g></g><g class="slice cursor-pointer"><path class="surface" d="M350,240L421.49724522216746,294.66391794997185A90,90 0,0,0 429.24533625410646,282.6635287098196L350,240A0,0 0,0,1 350,240Z" style="pointer-events: none; stroke-width: 1; fill: rgb(171, 99, 250); fill-opacity: 1; stroke: rgb(255, 255, 255); stroke-opacity: 1;"/><g class="slicetext"><text data-notex="1" class="slicetext" text-anchor="middle" x="0" y="0" style="font-family: 'Open Sans', verdana, arial, sans-serif; font-size: 12px; fill: rgb(68, 68, 68); fill-opacity: 1; white-space: pre;" transform="translate(420.0507034720152,283.0946878465538)scale(0.1966334990768098)"><tspan class="line" dy="0em" x="0" y="0">2023</tspan><tspan class="line" dy="1.3em" x="0" y="0">0.43 ms</tspan><tspan class="line" dy="2.6em" x="0" y="0">3%</tspan></text></g></g><g class="slice cursor-pointer"><path class="surface" d="M350,240L429.24533625410646,282.6635287098196A90,90 0,0,0 433.96161233355457,272.4106102125507L350,240A0,0 0,0,1 350,240Z" style="pointer-events: none; stroke-width: 1; fill: rgb(255, 161, 90); fill-opacity: 1; stroke: rgb(255, 255, 255); stroke-opacity: 1;"/><g class="slicetext"><text data-notex="1" class="slicetext" text-anchor="middle" x="0" y="0" style="font-family: 'Open Sans', verdana, arial, sans-serif; font-size: 12px; fill: rgb(68, 68, 68); fill-opacity: 1; white-space: pre;" transform="translate(426.94033793300906,273.67979099850834)scale(0.15778980671668275)"><tspan class="line" dy="0em" x="0" y="0">2024</tspan><tspan class="line" dy="1.3em" x="0" y="0">0.34 ms</tspan><tspan class="line" dy="2.6em" x="0" y="0">2%</tspan></text></g></g><g class="slice cursor-pointer"><path class="surface" d="M350,240L433.96161233355457,272.4106102125507A90,90 0,0,0 436.64042271590944,264.36056550264226L350,240A0,0 0,0,1 350,240Z" style="pointer-events: none; stroke-width: 1; fill: rgb(25, 211, 243); fill-opacity: 1; stroke: rgb(255, 255, 255); stroke-opacity: 1;"/><g class="slicetext"><text data-notex="1" class="slicetext" text-anchor="middle" x="0" y="0" style="font-family: 'Open Sans', verdana, arial, sans-serif; font-size: 12px; fill: rgb(68, 68, 68); fill-opacity: 1; white-space: pre;" transform="translate(431.55207952527127,265.8317142335946)scale(0.12038274866494002)"><tspan class="line" dy="0em" x="0" y="0">2017</tspan><tspan class="line" dy="1.3em" x="0" y="0">0.25 ms</tspan><tspan class="line" dy="2.6em" x="0" y="0">2%</tspan></text></g></g><g class="slice cursor-pointer"><path class="surface" d="M350,240L436.64042271590944,264.36056550264226A90,90 0,0,0 438.48847578239685,256.4252748442199L350,240A0,0 0,0,1 350,240Z" style="pointer-events: none; stroke-width: 1; fill: rgb(255, 102, 146); fill-opacity: 1; stroke: rgb(255, 255, 255); stroke-opacity: 1;"/><g class="slicetext"><text data-notex="1" class="slicetext" text-anchor="middle" x="0" y="0" style="font-family: 'Open Sans', verdana, arial, sans-serif; font-size: 12px; fill: rgb(68, 68, 68); fill-opacity: 1; white-space: pre;" transform="translate(433.8584641353576,258.2730471002858)scale(0.11581601210085876)"><tspan class="line" dy="0em" x="0" y="0">2021</tspan><tspan class="line" dy="1.3em" x="0" y="0">0.24 ms</tspan><tspan class="line" dy="2.6em" x="0" y="0">1%</tspan></text></g></g><g class="slice cursor-pointer"><path class="surface" d="M350,240L438.48847578239685,256.4252748442199A90,90 0,0,0 439.42837747206477,250.12745292331223L350,240A0,0 0,0,1 350,240Z" style="pointer-events: none; stroke-width: 1; fill: rgb(182, 232, 128); fill-opacity: 1; stroke: rgb(255, 255, 255); stroke-opacity: 1;"/><g class="slicetext"><text data-notex="1" class="slicetext" text-anchor="middle" x="0" y="0" style="font-family: 'Open Sans', verdana, arial, sans-serif; font-size: 12px; fill: rgb(68, 68, 68); fill-opacity: 1; white-space: pre;" transform="translate(435.9728181166762,251.83919717611684)scale(0.0913773940671553)"><tspan class="line" dy="0em" x="0" y="0">2022</tspan><tspan class="line" dy="1.3em" x="0" y="0">0.19 ms</tspan><tspan class="line" dy="2.6em" x="0" y="0">1%</tspan></text></g></g><g class="slice cursor-pointer"><path class="surface" d="M350,240L439.42837747206477,250.12745292331223A90,90 0,0,0 439.8621871687311,244.97868629780388L350,240A0,0 0,0,1 350,240Z" style="pointer-events: none; stroke-width: 1; fill: rgb(255, 151, 255); fill-opacity: 1; stroke: rgb(255, 255, 255); stroke-opacity: 1;"/><g class="slicetext"><text data-notex="1" class="slicetext" text-anchor="middle" x="0" y="0" style="font-family: 'Open Sans', verdana, arial, sans-serif; font-size: 12px; fill: rgb(68, 68, 68); fill-opacity: 1; white-space: pre;" transform="translate(437.17969335604,246.53548387731854)scale(0.07462956237272325)"><tspan class="line" dy="0em" x="0" y="0">2020</tspan><tspan class="line" dy="1.3em" x="0" y="0">0.15 ms</tspan><tspan class="line" dy="2.6em" x="0" y="0">1%</tspan></text></g></g><g class="slice cursor-pointer"><path class="surface" d="M350,240L439.8621871687311,244.97868629780388A90,90 0,0,0 440,240.00000000000003L350,240A0,0 0,0,1 350,240Z" style="pointer-events: none; stroke-width: 1; fill: rgb(254, 203, 82); fill-opacity: 1; stroke: rgb(255, 255, 255); stroke-opacity: 1;"/><g class="slicetext"><text data-notex="1" class="slicetext" text-anchor="middle" x="0" y="0" style="font-family: 'Open Sans', verdana, arial, sans-serif; font-size: 12px; fill: rgb(68, 68, 68); fill-opacity: 1; white-space: pre;" transform="translate(437.54322248700964,241.64182931203632)scale(0.07200955849210121)"><tspan class="line" dy="0em" x="0" y="0">2016</tspan><tspan class="line" dy="1.3em" x="0" y="0">0.15 ms</tspan><tspan class="line" dy="2.6em" x="0" y="0">1%</tspan></text></g></g><g class="slice"><path class="surface" d="M440,240L530,240A180,180 0,1,0 199.5003739864568,338.74139238325347L274.7501869932284,289.37069619162673A90,90 0,1,1 440,240Z" style="pointer-events: none; stroke-width: 1; fill: rgb(99, 110, 250); fill-opacity: 1; stroke: rgb(255, 255, 255); stroke-opacity: 1; opacity: 0.7;"/><g class="slicetext"><text data-notex="1" class="slicetext" text-anchor="middle" x="0" y="0" style="font-family: 'Open Sans', verdana, arial, sans-serif; font-size: 12px; fill: rgb(255, 255, 255); fill-opacity: 1; white-space: pre;" transform="translate(350,97.78874485581494)"><tspan class="line" dy="0em" x="0" y="0">03</tspan><tspan class="line" dy="1.3em" x="0" y="0">10.03 ms</tspan><tspan class="line" dy="2.6em" x="0" y="0">85%</tspan></text></g></g><g class="slice"><path class="surface" d="M274.7501869932284,289.37069619162673L199.5003739864568,338.74139238325347A180,180 0,0,0 288.6656980062444,409.22796281625205L319.3328490031222,324.61398140812605A90,90 0,0,1 274.7501869932284,289.37069619162673Z" style="pointer-events: none; stroke-width: 1; fill: rgb(99, 110, 250); fill-opacity: 1; stroke: rgb(255, 255, 255); stroke-opacity: 1; opacity: 0.7;"/><g class="slicetext"><text data-notex="1" class="slicetext" text-anchor="middle" x="0" y="0" style="font-family: 'Open Sans', verdana, arial, sans-serif; font-size: 12px; fill: rgb(255, 255, 255); fill-opacity: 1; white-space: pre;" transform="translate(265.15963633730064,336.47127175722903)"><tspan class="line" dy="0em" x="0" y="0">02</tspan><tspan class="line" dy="1.3em" x="0" y="0">1.73 ms</tspan><tspan class="line" dy="2.6em" x="0" y="0">15%</tspan></text></g></g><g class="slice"><path class="surface" d="M319.3328490031222,324.61398140812605L288.6656980062444,409.22796281625205A180,180 0,0,0 288.8410923036909,409.29142922603717L319.42054615184543,324.6457146130186A90,90 0,0,1 319.3328490031222,324.61398140812605Z" style="pointer-events: none; stroke-width: 1; fill: rgb(99, 110, 250); fill-opacity: 1; stroke: rgb(255, 255, 255); stroke-opacity: 1; opacity: 0.7;"/><g class="slicetext"><text data-notex="1" class="slicetext" text-anchor="middle" x="0" y="0" style="font-family: 'Open Sans', verdana, arial, sans-serif; font-size: 12px; fill: rgb(255, 255, 255); fill-opacity: 1; white-space: pre;" transform="translate(288.78510370587657,409.14390984846943)scale(0.002594756020532105)"><tspan class="line" dy="0em" x="0" y="0">01</tspan><tspan class="line" dy="1.3em" x="0" y="0">0.00 ms</tspan><tspan class="line" dy="2.6em" x="0" y="0">0.0237%</tspan></text></g></g><g class="slice"><path class="surface" d="M319.42054615184554,324.6457146130186L288.8410923036911,409.29142922603717A180,180 0,0,0 377.7212685142872,417.8525548648621L363.8606342571436,328.92627743243105A90,90 0,0,1 319.42054615184554,324.6457146130186Z" style="pointer-events: none; stroke-width: 1; fill: rgb(239, 85, 59); fill-opacity: 1; stroke: rgb(255, 255, 255); stroke-opacity: 1; opacity: 0.7;"/><g class="slicetext"><text data-notex="1" class="slicetext" text-anchor="middle" x="0" y="0" style="font-family: 'Open Sans', verdana, arial, sans-serif; font-size: 12px; fill: rgb(68, 68, 68); fill-opacity: 1; white-space: pre;" transform="translate(336.1717462871661,372.71105747928164)"><tspan class="line" dy="0em" x="0" y="0">02</tspan><tspan class="line" dy="1.3em" x="0" y="0">1.35 ms</tspan><tspan class="line" dy="2.6em" x="0" y="0">46%</tspan></text></g></g><g class="slice"><path class="surface" d="M363.8606342571436,328.92627743243105L377.7212685142872,417.8525548648621A180,180 0,0,0 446.6173698802477,391.87193235559823L398.30868494012384,315.9359661777991A90,90 0,0,1 363.8606342571436,328.92627743243105Z" style="pointer-events: none; stroke-width: 1; fill: rgb(239, 85, 59); fill-opacity: 1; stroke: rgb(255, 255, 255); stroke-opacity: 1; opacity: 0.7;"/><g class="slicetext"><text data-notex="1" class="slicetext" text-anchor="middle" x="0" y="0" style="font-family: 'Open Sans', verdana, arial, sans-serif; font-size: 12px; fill: rgb(68, 68, 68); fill-opacity: 1; white-space: pre;" transform="translate(402.7274676908698,369.9680493612144)scale(0.9082602530618246)"><tspan class="line" dy="0em" x="0" y="0">01</tspan><tspan class="line" dy="1.3em" x="0" y="0">1.11 ms</tspan><tspan class="line" dy="2.6em" x="0" y="0">38%</tspan></text></g></g><g class="slice"><path class="surface" d="M398.30868494012384,315.9359661777991L446.6173698802477,391.87193235559823A180,180 0,0,0 472.90931564596906,371.50399281937996L411.45465782298453,305.75199640969A90,90 0,0,1 398.30868494012384,315.9359661777991Z" style="pointer-events: none; stroke-width: 1; fill: rgb(239, 85, 59); fill-opacity: 1; stroke: rgb(255, 255, 255); stroke-opacity: 1; opacity: 0.7;"/><g class="slicetext"><text data-notex="1" class="slicetext" text-anchor="middle" x="0" y="0" style="font-family: 'Open Sans', verdana, arial, sans-serif; font-size: 12px; fill: rgb(68, 68, 68); fill-opacity: 1; white-space: pre;" transform="translate(450.91207244893434,365.3534455298666)scale(0.45236422653420394)"><tspan class="line" dy="0em" x="0" y="0">03</tspan><tspan class="line" dy="1.3em" x="0" y="0">0.50 ms</tspan><tspan class="line" dy="2.6em" x="0" y="0">17%</tspan></text></g></g><g class="slice"><path class="surface" d="M411.45465782298453,305.75199640969L472.90931564596906,371.50399281937996A180,180 0,0,0 491.1245054897728,351.73125771361873L420.5622527448864,295.8656288568094A90,90 0,0,1 411.45465782298453,305.75199640969Z" style="pointer-events: none; stroke-width: 1; fill: rgb(0, 204, 150); fill-opacity: 1; stroke: rgb(255, 255, 255); stroke-opacity: 1; opacity: 0.7;"/><g class="slicetext"><text data-notex="1" class="slicetext" text-anchor="middle" x="0" y="0" style="font-family: 'Open Sans', verdana, arial, sans-serif; font-size: 12px; fill: rgb(68, 68, 68); fill-opacity: 1; white-space: pre;" transform="translate(473.1871975430785,349.45004359553593)scale(0.3716889703849235)"><tspan class="line" dy="0em" x="0" y="0">03</tspan><tspan class="line" dy="1.3em" x="0" y="0">0.40 ms</tspan><tspan class="line" dy="2.6em" x="0" y="0">90%</tspan></text></g></g><g class="slice"><path class="surface" d="M420.5622527448864,295.8656288568094L491.1245054897728,351.73125771361873A180,180 0,0,0 492.312071146634,350.21467418613264L421.156035573317,295.1073370930663A90,90 0,0,1 420.5622527448864,295.8656288568094Z" style="pointer-events: none; stroke-width: 1; fill: rgb(0, 204, 150); fill-opacity: 1; stroke: rgb(255, 255, 255); stroke-opacity: 1; opacity: 0.7;"/><g class="slicetext"><text data-notex="1" class="slicetext" text-anchor="middle" x="0" y="0" style="font-family: 'Open Sans', verdana, arial, sans-serif; font-size: 12px; fill: rgb(68, 68, 68); fill-opacity: 1; white-space: pre;" transform="translate(490.96606097350195,350.0750131969859)scale(0.028467668825214582)"><tspan class="line" dy="0em" x="0" y="0">02</tspan><tspan class="line" dy="1.3em" x="0" y="0">0.03 ms</tspan><tspan class="line" dy="2.6em" x="0" y="0">6%</tspan></text></g></g><g class="slice"><path class="surface" d="M421.156035573317,295.1073370930663L492.312071146634,350.21467418613264A180,180 0,0,0 492.99449044433493,349.3278358999437L421.49724522216746,294.66391794997185A90,90 0,0,1 421.156035573317,295.1073370930663Z" style="pointer-events: none; stroke-width: 1; fill: rgb(0, 204, 150); fill-opacity: 1; stroke: rgb(255, 255, 255); stroke-opacity: 1; opacity: 0.7;"/><g class="slicetext"><text data-notex="1" class="slicetext" text-anchor="middle" x="0" y="0" style="font-family: 'Open Sans', verdana, arial, sans-serif; font-size: 12px; fill: rgb(68, 68, 68); fill-opacity: 1; white-space: pre;" transform="translate(492.2119248390627,349.25177067109286)scale(0.016574787161798547)"><tspan class="line" dy="0em" x="0" y="0">01</tspan><tspan class="line" dy="1.3em" x="0" y="0">0.02 ms</tspan><tspan class="line" dy="2.6em" x="0" y="0">4%</tspan></text></g></g><g class="slice"><path class="surface" d="M421.49724522216746,294.66391794997185L492.99449044433493,349.3278358999437A180,180 0,0,0 503.9230910452744,333.3149615177982L426.9615455226372,286.6574807588991A90,90 0,0,1 421.49724522216746,294.66391794997185Z" style="pointer-events: none; stroke-width: 1; fill: rgb(171, 99, 250); fill-opacity: 1; stroke: rgb(255, 255, 255); stroke-opacity: 1; opacity: 0.7;"/><g class="slicetext"><text data-notex="1" class="slicetext" text-anchor="middle" x="0" y="0" style="font-family: 'Open Sans', verdana, arial, sans-serif; font-size: 12px; fill: rgb(68, 68, 68); fill-opacity: 1; white-space: pre;" transform="translate(491.0772228261744,333.3175000803425)scale(0.27333062329059515)"><tspan class="line" dy="0em" x="0" y="0">01</tspan><tspan class="line" dy="1.3em" x="0" y="0">0.29 ms</tspan><tspan class="line" dy="2.6em" x="0" y="0">68%</tspan></text></g></g><g class="slice"><path class="surface" d="M426.9615455226372,286.6574807588991L503.9230910452744,333.3149615177982A180,180 0,0,0 507.4984674678895,327.1448951187972L428.7492337339447,283.5724475593986A90,90 0,0,1 426.9615455226372,286.6574807588991Z" style="pointer-events: none; stroke-width: 1; fill: rgb(171, 99, 250); fill-opacity: 1; stroke: rgb(255, 255, 255); stroke-opacity: 1; opacity: 0.7;"/><g class="slicetext"><text data-notex="1" class="slicetext" text-anchor="middle" x="0" y="0" style="font-family: 'Open Sans', verdana, arial, sans-serif; font-size: 12px; fill: rgb(68, 68, 68); fill-opacity: 1; white-space: pre;" transform="translate(502.7162277875441,327.3672283012601)scale(0.1038968694211974)"><tspan class="line" dy="0em" x="0" y="0">03</tspan><tspan class="line" dy="1.3em" x="0" y="0">0.11 ms</tspan><tspan class="line" dy="2.6em" x="0" y="0">25%</tspan></text></g></g><g class="slice"><path class="surface" d="M428.7492337339447,283.5724475593986L507.4984674678895,327.1448951187972A180,180 0,0,0 508.490672508213,325.327057419639L429.2453362541065,282.6635287098195A90,90 0,0,1 428.7492337339447,283.5724475593986Z" style="pointer-events: none; stroke-width: 1; fill: rgb(171, 99, 250); fill-opacity: 1; stroke: rgb(255, 255, 255); stroke-opacity: 1; opacity: 0.7;"/><g class="slicetext"><text data-notex="1" class="slicetext" text-anchor="middle" x="0" y="0" style="font-family: 'Open Sans', verdana, arial, sans-serif; font-size: 12px; fill: rgb(68, 68, 68); fill-opacity: 1; white-space: pre;" transform="translate(507.0934644313263,325.4121353453766)scale(0.03059495114446116)"><tspan class="line" dy="0em" x="0" y="0">02</tspan><tspan class="line" dy="1.3em" x="0" y="0">0.03 ms</tspan><tspan class="line" dy="2.6em" x="0" y="0">7%</tspan></text></g></g><g class="slice"><path class="surface" d="M429.24533625410646,282.6635287098196L508.4906725082129,325.3270574196392A180,180 0,0,0 513.4098267133269,315.4799876359323L431.70491335666344,277.73999381796614A90,90 0,0,1 429.24533625410646,282.6635287098196Z" style="pointer-events: none; stroke-width: 1; fill: rgb(255, 161, 90); fill-opacity: 1; stroke: rgb(255, 255, 255); stroke-opacity: 1; opacity: 0.7;"/><g class="slicetext"><text data-notex="1" class="slicetext" text-anchor="middle" x="0" y="0" style="font-family: 'Open Sans', verdana, arial, sans-serif; font-size: 12px; fill: rgb(68, 68, 68); fill-opacity: 1; white-space: pre;" transform="translate(506.24807971134453,316.3324241709372)scale(0.1586965260895664)"><tspan class="line" dy="0em" x="0" y="0">01</tspan><tspan class="line" dy="1.3em" x="0" y="0">0.16 ms</tspan><tspan class="line" dy="2.6em" x="0" y="0">49%</tspan></text></g></g><g class="slice"><path class="surface" d="M431.70491335666344,277.73999381796614L513.4098267133269,315.4799876359323A180,180 0,0,0 516.6073142629025,308.13224518612657L433.30365713145125,274.0661225930633A90,90 0,0,1 431.70491335666344,277.73999381796614Z" style="pointer-events: none; stroke-width: 1; fill: rgb(255, 161, 90); fill-opacity: 1; stroke: rgb(255, 255, 255); stroke-opacity: 1; opacity: 0.7;"/><g class="slicetext"><text data-notex="1" class="slicetext" text-anchor="middle" x="0" y="0" style="font-family: 'Open Sans', verdana, arial, sans-serif; font-size: 12px; fill: rgb(68, 68, 68); fill-opacity: 1; white-space: pre;" transform="translate(511.4555898877223,308.9960988329407)scale(0.11646998213219073)"><tspan class="line" dy="0em" x="0" y="0">02</tspan><tspan class="line" dy="1.3em" x="0" y="0">0.12 ms</tspan><tspan class="line" dy="2.6em" x="0" y="0">35%</tspan></text></g></g><g class="slice"><path class="surface" d="M433.30365713145125,274.0661225930633L516.6073142629025,308.13224518612657A180,180 0,0,0 517.9232246671091,304.82122042510133L433.96161233355457,272.4106102125507A90,90 0,0,1 433.30365713145125,274.0661225930633Z" style="pointer-events: none; stroke-width: 1; fill: rgb(255, 161, 90); fill-opacity: 1; stroke: rgb(255, 255, 255); stroke-opacity: 1; opacity: 0.7;"/><g class="slicetext"><text data-notex="1" class="slicetext" text-anchor="middle" x="0" y="0" style="font-family: 'Open Sans', verdana, arial, sans-serif; font-size: 12px; fill: rgb(68, 68, 68); fill-opacity: 1; white-space: pre;" transform="translate(515.6341737263682,305.259647256442)scale(0.052419577877765)"><tspan class="line" dy="0em" x="0" y="0">03</tspan><tspan class="line" dy="1.3em" x="0" y="0">0.05 ms</tspan><tspan class="line" dy="2.6em" x="0" y="0">16%</tspan></text></g></g><g class="slice"><path class="surface" d="M433.96161233355457,272.4106102125507L517.9232246671091,304.82122042510133A180,180 0,0,0 522.6986383314494,290.7462345249698L436.3493191657247,265.37311726248487A90,90 0,0,1 433.96161233355457,272.4106102125507Z" style="pointer-events: none; stroke-width: 1; fill: rgb(25, 211, 243); fill-opacity: 1; stroke: rgb(255, 255, 255); stroke-opacity: 1; opacity: 0.7;"/><g class="slicetext"><text data-notex="1" class="slicetext" text-anchor="middle" x="0" y="0" style="font-family: 'Open Sans', verdana, arial, sans-serif; font-size: 12px; fill: rgb(68, 68, 68); fill-opacity: 1; white-space: pre;" transform="translate(513.6978074616931,293.23860063974934)scale(0.21208019297532843)"><tspan class="line" dy="0em" x="0" y="0">03</tspan><tspan class="line" dy="1.3em" x="0" y="0">0.22 ms</tspan><tspan class="line" dy="2.6em" x="0" y="0">88%</tspan></text></g></g><g class="slice"><path class="surface" d="M436.3493191657247,265.37311726248487L522.6986383314494,290.7462345249698A180,180 0,0,0 523.2446322508303,288.84974305228826L436.6223161254151,264.4248715261441A90,90 0,0,1 436.3493191657247,265.37311726248487Z" style="pointer-events: none; stroke-width: 1; fill: rgb(25, 211, 243); fill-opacity: 1; stroke: rgb(255, 255, 255); stroke-opacity: 1; opacity: 0.7;"/><g class="slicetext"><text data-notex="1" class="slicetext" text-anchor="middle" x="0" y="0" style="font-family: 'Open Sans', verdana, arial, sans-serif; font-size: 12px; fill: rgb(68, 68, 68); fill-opacity: 1; white-space: pre;" transform="translate(522.0311586654227,289.21076571666765)scale(0.02916287997603807)"><tspan class="line" dy="0em" x="0" y="0">02</tspan><tspan class="line" dy="1.3em" x="0" y="0">0.03 ms</tspan><tspan class="line" dy="2.6em" x="0" y="0">12%</tspan></text></g></g><g class="slice"><path class="surface" d="M436.6223161254151,264.4248715261441L523.2446322508303,288.84974305228826A180,180 0,0,0 523.2808454318189,288.7211310052845L436.64042271590944,264.36056550264226A90,90 0,0,1 436.6223161254151,264.4248715261441Z" style="pointer-events: none; stroke-width: 1; fill: rgb(25, 211, 243); fill-opacity: 1; stroke: rgb(255, 255, 255); stroke-opacity: 1; opacity: 0.7;"/><g class="slicetext"><text data-notex="1" class="slicetext" text-anchor="middle" x="0" y="0" style="font-family: 'Open Sans', verdana, arial, sans-serif; font-size: 12px; fill: rgb(68, 68, 68); fill-opacity: 1; white-space: pre;" transform="translate(523.1984686094906,288.7458056190516)scale(0.0019844973540744434)"><tspan class="line" dy="0em" x="0" y="0">01</tspan><tspan class="line" dy="1.3em" x="0" y="0">0.00 ms</tspan><tspan class="line" dy="2.6em" x="0" y="0">1%</tspan></text></g></g><g class="slice"><path class="surface" d="M436.64042271590944,264.36056550264226L523.2808454318189,288.7211310052845A180,180 0,0,0 525.9472158167528,277.98127494349086L437.9736079083764,258.9906374717454A90,90 0,0,1 436.64042271590944,264.36056550264226Z" style="pointer-events: none; stroke-width: 1; fill: rgb(255, 102, 146); fill-opacity: 1; stroke: rgb(255, 255, 255); stroke-opacity: 1; opacity: 0.7;"/><g class="slicetext"><text data-notex="1" class="slicetext" text-anchor="middle" x="0" y="0" style="font-family: 'Open Sans', verdana, arial, sans-serif; font-size: 12px; fill: rgb(68, 68, 68); fill-opacity: 1; white-space: pre;" transform="translate(519.4867956611662,280.34728699320664)scale(0.15951471389756278)"><tspan class="line" dy="0em" x="0" y="0">03</tspan><tspan class="line" dy="1.3em" x="0" y="0">0.17 ms</tspan><tspan class="line" dy="2.6em" x="0" y="0">68%</tspan></text></g></g><g class="slice"><path class="surface" d="M437.9736079083764,258.9906374717454L525.9472158167528,277.98127494349086A180,180 0,0,0 526.8657115457211,273.44428320992665L438.43285577286053,256.7221416049633A90,90 0,0,1 437.9736079083764,258.9906374717454Z" style="pointer-events: none; stroke-width: 1; fill: rgb(255, 102, 146); fill-opacity: 1; stroke: rgb(255, 255, 255); stroke-opacity: 1; opacity: 0.7;"/><g class="slicetext"><text data-notex="1" class="slicetext" text-anchor="middle" x="0" y="0" style="font-family: 'Open Sans', verdana, arial, sans-serif; font-size: 12px; fill: rgb(68, 68, 68); fill-opacity: 1; white-space: pre;" transform="translate(524.1813520156626,274.5254348675905)scale(0.06790536401371473)"><tspan class="line" dy="0em" x="0" y="0">01</tspan><tspan class="line" dy="1.3em" x="0" y="0">0.07 ms</tspan><tspan class="line" dy="2.6em" x="0" y="0">28%</tspan></text></g></g><g class="slice"><path class="surface" d="M438.43285577286053,256.7221416049633L526.8657115457211,273.44428320992665A180,180 0,0,0 526.9769515647937,272.85054968843986L438.48847578239685,256.4252748442199A90,90 0,0,1 438.43285577286053,256.7221416049633Z" style="pointer-events: none; stroke-width: 1; fill: rgb(255, 102, 146); fill-opacity: 1; stroke: rgb(255, 255, 255); stroke-opacity: 1; opacity: 0.7;"/><g class="slicetext"><text data-notex="1" class="slicetext" text-anchor="middle" x="0" y="0" style="font-family: 'Open Sans', verdana, arial, sans-serif; font-size: 12px; fill: rgb(68, 68, 68); fill-opacity: 1; white-space: pre;" transform="translate(526.625211154628,272.9947040659172)scale(0.008960203600222481)"><tspan class="line" dy="0em" x="0" y="0">02</tspan><tspan class="line" dy="1.3em" x="0" y="0">0.01 ms</tspan><tspan class="line" dy="2.6em" x="0" y="0">4%</tspan></text></g></g><g class="slice"><path class="surface" d="M438.48847578239685,256.4252748442199L526.9769515647937,272.85054968843986A180,180 0,0,0 528.3195338114278,264.53861979156585L439.1597669057139,252.26930989578292A90,90 0,0,1 438.48847578239685,256.4252748442199Z" style="pointer-events: none; stroke-width: 1; fill: rgb(182, 232, 128); fill-opacity: 1; stroke: rgb(255, 255, 255); stroke-opacity: 1; opacity: 0.7;"/><g class="slicetext"><text data-notex="1" class="slicetext" text-anchor="middle" x="0" y="0" style="font-family: 'Open Sans', verdana, arial, sans-serif; font-size: 12px; fill: rgb(68, 68, 68); fill-opacity: 1; white-space: pre;" transform="translate(523.6358622912321,266.7199796470815)scale(0.1222410529150382)"><tspan class="line" dy="0em" x="0" y="0">03</tspan><tspan class="line" dy="1.3em" x="0" y="0">0.13 ms</tspan><tspan class="line" dy="2.6em" x="0" y="0">66%</tspan></text></g></g><g class="slice"><path class="surface" d="M439.1597669057139,252.26930989578292L528.3195338114278,264.53861979156585A180,180 0,0,0 528.761839007329,261.07616935588175L439.3809195036645,250.53808467794087A90,90 0,0,1 439.1597669057139,252.26930989578292Z" style="pointer-events: none; stroke-width: 1; fill: rgb(182, 232, 128); fill-opacity: 1; stroke: rgb(255, 255, 255); stroke-opacity: 1; opacity: 0.7;"/><g class="slicetext"><text data-notex="1" class="slicetext" text-anchor="middle" x="0" y="0" style="font-family: 'Open Sans', verdana, arial, sans-serif; font-size: 12px; fill: rgb(68, 68, 68); fill-opacity: 1; white-space: pre;" transform="translate(526.834479326217,262.03204323032094)scale(0.05136538144378689)"><tspan class="line" dy="0em" x="0" y="0">01</tspan><tspan class="line" dy="1.3em" x="0" y="0">0.05 ms</tspan><tspan class="line" dy="2.6em" x="0" y="0">27%</tspan></text></g></g><g class="slice"><path class="surface" d="M439.3809195036645,250.53808467794087L528.761839007329,261.07616935588175A180,180 0,0,0 528.8567549441295,260.25490584662447L439.42837747206477,250.12745292331223A90,90 0,0,1 439.3809195036645,250.53808467794087Z" style="pointer-events: none; stroke-width: 1; fill: rgb(182, 232, 128); fill-opacity: 1; stroke: rgb(255, 255, 255); stroke-opacity: 1; opacity: 0.7;"/><g class="slicetext"><text data-notex="1" class="slicetext" text-anchor="middle" x="0" y="0" style="font-family: 'Open Sans', verdana, arial, sans-serif; font-size: 12px; fill: rgb(68, 68, 68); fill-opacity: 1; white-space: pre;" transform="translate(528.4000775680307,260.4852517566981)scale(0.01225547983631481)"><tspan class="line" dy="0em" x="0" y="0">02</tspan><tspan class="line" dy="1.3em" x="0" y="0">0.01 ms</tspan><tspan class="line" dy="2.6em" x="0" y="0">6%</tspan></text></g></g><g class="slice"><path class="surface" d="M439.42837747206477,250.12745292331223L528.8567549441295,260.25490584662447A180,180 0,0,0 529.3741427792271,254.99722981811766L439.68707138961355,247.49861490905883A90,90 0,0,1 439.42837747206477,250.12745292331223Z" style="pointer-events: none; stroke-width: 1; fill: rgb(255, 151, 255); fill-opacity: 1; stroke: rgb(255, 255, 255); stroke-opacity: 1; opacity: 0.7;"/><g class="slicetext"><text data-notex="1" class="slicetext" text-anchor="middle" x="0" y="0" style="font-family: 'Open Sans', verdana, arial, sans-serif; font-size: 12px; fill: rgb(68, 68, 68); fill-opacity: 1; white-space: pre;" transform="translate(526.543922006842,256.53352572567763)scale(0.07736102166375317)"><tspan class="line" dy="0em" x="0" y="0">01</tspan><tspan class="line" dy="1.3em" x="0" y="0">0.08 ms</tspan><tspan class="line" dy="2.6em" x="0" y="0">51%</tspan></text></g></g><g class="slice"><path class="surface" d="M439.68707138961355,247.49861490905883L529.3741427792271,254.99722981811766A180,180 0,0,0 529.6406073869332,251.36891277359916L439.8203036934666,245.68445638679958A90,90 0,0,1 439.68707138961355,247.49861490905883Z" style="pointer-events: none; stroke-width: 1; fill: rgb(255, 151, 255); fill-opacity: 1; stroke: rgb(255, 255, 255); stroke-opacity: 1; opacity: 0.7;"/><g class="slicetext"><text data-notex="1" class="slicetext" text-anchor="middle" x="0" y="0" style="font-family: 'Open Sans', verdana, arial, sans-serif; font-size: 12px; fill: rgb(68, 68, 68); fill-opacity: 1; white-space: pre;" transform="translate(527.7205336621274,252.47113236368304)scale(0.05351421086142222)"><tspan class="line" dy="0em" x="0" y="0">02</tspan><tspan class="line" dy="1.3em" x="0" y="0">0.05 ms</tspan><tspan class="line" dy="2.6em" x="0" y="0">35%</tspan></text></g></g><g class="slice"><path class="surface" d="M439.8203036934666,245.68445638679958L529.6406073869332,251.36891277359916A180,180 0,0,0 529.7243743374622,249.95737259560778L439.8621871687311,244.97868629780388A90,90 0,0,1 439.8203036934666,245.68445638679958Z" style="pointer-events: none; stroke-width: 1; fill: rgb(255, 151, 255); fill-opacity: 1; stroke: rgb(255, 255, 255); stroke-opacity: 1; opacity: 0.7;"/><g class="slicetext"><text data-notex="1" class="slicetext" text-anchor="middle" x="0" y="0" style="font-family: 'Open Sans', verdana, arial, sans-serif; font-size: 12px; fill: rgb(68, 68, 68); fill-opacity: 1; white-space: pre;" transform="translate(528.980868163899,250.39440950977976)scale(0.020927476924342596)"><tspan class="line" dy="0em" x="0" y="0">03</tspan><tspan class="line" dy="1.3em" x="0" y="0">0.02 ms</tspan><tspan class="line" dy="2.6em" x="0" y="0">14%</tspan></text></g></g><g class="slice"><path class="surface" d="M439.8621871687311,244.97868629780388L529.7243743374622,249.95737259560778A180,180 0,0,0 529.9146865183541,245.54126113826013L439.95734325917704,242.77063056913008A90,90 0,0,1 439.8621871687311,244.97868629780388Z" style="pointer-events: none; stroke-width: 1; fill: rgb(254, 203, 82); fill-opacity: 1; stroke: rgb(255, 255, 255); stroke-opacity: 1; opacity: 0.7;"/><g class="slicetext"><text data-notex="1" class="slicetext" text-anchor="middle" x="0" y="0" style="font-family: 'Open Sans', verdana, arial, sans-serif; font-size: 12px; fill: rgb(68, 68, 68); fill-opacity: 1; white-space: pre;" transform="translate(527.6518133265887,246.95185811167863)scale(0.06487923344263086)"><tspan class="line" dy="0em" x="0" y="0">01</tspan><tspan class="line" dy="1.3em" x="0" y="0">0.07 ms</tspan><tspan class="line" dy="2.6em" x="0" y="0">44%</tspan></text></g></g><g class="slice"><path class="surface" d="M439.95734325917704,242.77063056913008L529.9146865183541,245.54126113826013A180,180 0,0,0 529.995225225787,241.3110667100607L439.9976126128935,240.65553335503034A90,90 0,0,1 439.95734325917704,242.77063056913008Z" style="pointer-events: none; stroke-width: 1; fill: rgb(254, 203, 82); fill-opacity: 1; stroke: rgb(255, 255, 255); stroke-opacity: 1; opacity: 0.7;"/><g class="slicetext"><text data-notex="1" class="slicetext" text-anchor="middle" x="0" y="0" style="font-family: 'Open Sans', verdana, arial, sans-serif; font-size: 12px; fill: rgb(68, 68, 68); fill-opacity: 1; white-space: pre;" transform="translate(527.8768573905313,242.71235097686645)scale(0.06213372615779225)"><tspan class="line" dy="0em" x="0" y="0">03</tspan><tspan class="line" dy="1.3em" x="0" y="0">0.06 ms</tspan><tspan class="line" dy="2.6em" x="0" y="0">42%</tspan></text></g></g><g class="slice"><path class="surface" d="M439.9976126128935,240.65553335503034L529.995225225787,241.3110667100607A180,180 0,0,0 530,239.9999999999999L440,239.99999999999994A90,90 0,0,1 439.9976126128935,240.65553335503034Z" style="pointer-events: none; stroke-width: 1; fill: rgb(254, 203, 82); fill-opacity: 1; stroke: rgb(255, 255, 255); stroke-opacity: 1; opacity: 0.7;"/><g class="slicetext"><text data-notex="1" class="slicetext" text-anchor="middle" x="0" y="0" style="font-family: 'Open Sans', verdana, arial, sans-serif; font-size: 12px; fill: rgb(68, 68, 68); fill-opacity: 1; white-space: pre;" transform="translate(529.3456516557715,240.44253689512414)scale(0.01940937842974657)"><tspan class="line" dy="0em" x="0" y="0">02</tspan><tspan class="line" dy="1.3em" x="0" y="0">0.02 ms</tspan><tspan class="line" dy="2.6em" x="0" y="0">13%</tspan></text></g></g></g></g><g class="glimages"/><defs id="topdefs-1abfca"><g class="clips"/></defs><g class="layer-above"><g class="imagelayer"/><g class="shapelayer"/></g><g class="infolayer"><g class="g-gtitle"><text class="gtitle" x="350" y="30" text-anchor="middle" dy="0em" style="opacity: 1; font-family: 'Open Sans', verdana, arial, sans-serif; font-size: 17px; fill: rgb(42, 63, 95); fill-opacity: 1; white-space: pre;">Total time: 17 ms</text></g></g></svg>