<svg class="main-svg" xmlns="http://www.w3.org/2000/svg" xmlns:xlink="http://www.w3.org/1999/xlink" width="1440" height="1440" style="" viewBox="0 0 1440 1440"><rect x="0" y="0" width="1440" height="1440" style="fill: rgb(255, 255, 255); fill-opacity: 1;"/><defs id="defs-bb4867"><g class="clips"/><g class="gradients"/><g class="patterns"/></defs><g class="bglayer"/><g class="layer-below"><g class="imagelayer"/><g class="shapelayer"/></g><g class="cartesianlayer"/><g class="polarlayer"/><g class="smithlayer"/><g class="ternarylayer"/><g class="geolayer"/><g class="funnelarealayer"/><g class="pielayer"/><g class="iciclelayer"/><g class="treemaplayer"/><g class="sunburstlayer"><g class="trace sunburst" stroke-linejoin="round" style="opacity: 1;"><g class="slice cursor-pointer"><path class="surface" d="M720,755L1057.5,755A337.5,337.5 0,1,0 885.501236833323,1049.135327029312L720,755A0,0 0,1,1 720,755Z" style="pointer-events: none; stroke-width: 1; fill: rgb(99, 110, 250); fill-opacity: 1; stroke: rgb(255, 255, 255); stroke-opacity: 1;"/><g class="slicetext"><text data-notex="1" class="slicetext" text-anchor="middle" x="0" y="0" style="font-family: 'Open Sans', verdana, arial, sans-serif; font-size: 22px; fill: rgb(255, 255, 255); fill-opacity: 1; white-space: pre;" transform="translate(720,593.7625787438834)"><tspan class="line" dy="0em" x="0" y="0">2015</tspan><tspan class="line" dy="1.3em" x="0" y="0">126.20 ms</tspan><tspan class="line" dy="2.6em" x="0" y="0">83%</tspan></text></g></g><g class="slice cursor-pointer"><path class="surface" d="M720,755L885.501236833323,1049.135327029312A337.5,337.5 0,0,0 1013.4136842097721,921.7772763851483L720,755A0,0 0,0,1 720,755Z" style="pointer-events: none; stroke-width: 1; fill: rgb(239, 85, 59); fill-opacity: 1; stroke: rgb(255, 255, 255); stroke-opacity: 1;"/><g class="slicetext"><text data-notex="1" class="slicetext" text-anchor="middle" x="0" y="0" style="font-family: 'Open Sans', verdana, arial, sans-serif; font-size: 22px; fill: rgb(68, 68, 68); fill-opacity: 1; white-space: pre;" transform="translate(907.8863779326591,923.8526953659649)"><tspan class="line" dy="0em" x="0" y="0">2019</tspan><tspan class="line" dy="1.3em" x="0" y="0">13.08 ms</tspan><tspan class="line" dy="2.6em" x="0" y="0">9%</tspan></text></g></g><g class="slice cursor-pointer"><path class="surface" d="M720,755L1013.4136842097721,921.7772763851483A337.5,337.5 0,0,0 1050.4271275980764,823.7325494018997L720,755A0,0 0,0,1 720,755Z" style="pointer-events: none; stroke-width: 1; fill: rgb(0, 204, 150); fill-opacity: 1; stroke: rgb(255, 255, 255); stroke-opacity: 1;"/><g class="slicetext"><text data-notex="1" class="slicetext" text-anchor="middle" x="0" y="0" style="font-family: 'Open Sans', verdana, arial, sans-serif; font-size: 22px; fill: rgb(68, 68, 68); fill-opacity: 1; white-space: pre;" transform="translate(993.3150080267394,843.5778690081979)scale(0.735604179506331)"><tspan class="line" dy="0em" x="0" y="0">2024</tspan><tspan class="line" dy="1.3em" x="0" y="0">7.53 ms</tspan><tspan class="line" dy="2.6em" x="0" y="0">5%</tspan></text></g></g><g class="slice cursor-pointer"><path class="surface" d="M720,755L1050.4271275980764,823.7325494018997A337.5,337.5 0,0,0 1055.574419898135,791.0008154078519L720,755A0,0 0,0,1 720,755Z" style="pointer-events: none; stroke-width: 1; fill: rgb(171, 99, 250); fill-opacity: 1; stroke: rgb(255, 255, 255); stroke-opacity: 1;"/><g class="slicetext"><text data-notex="1" class="slicetext" text-anchor="middle" x="0" y="0" style="font-family: 'Open Sans', verdana, arial, sans-serif; font-size: 22px; fill: rgb(68, 68, 68); fill-opacity: 1; white-space: pre;" transform="translate(1037.8025959194529,799.8924496189396)scale(0.2561115207113155)"><tspan class="line" dy="0em" x="0" y="0">2018</tspan><tspan class="line" dy="1.3em" x="0" y="0">2.37 ms</tspan><tspan class="line" dy="2.6em" x="0" y="0">2%</tspan></text></g></g><g class="slice cursor-pointer"><path class="surface" d="M720,755L1055.574419898135,791.0008154078519A337.5,337.5 0,0,0 1056.4374579866028,781.759799392239L720,755A0,0 0,0,1 720,755Z" style="pointer-events: none; stroke-width: 1; fill: rgb(255, 161, 90); fill-opacity: 1; stroke: rgb(255, 255, 255); stroke-opacity: 1;"/><g class="slicetext"><text data-notex="1" class="slicetext" text-anchor="middle" x="0" y="0" style="font-family: 'Open Sans', verdana, arial, sans-serif; font-size: 22px; fill: rgb(68, 68, 68); fill-opacity: 1; white-space: pre;" transform="translate(1051.4798684858424,784.4838152951787)scale(0.07424064397325043)"><tspan class="line" dy="0em" x="0" y="0">2016</tspan><tspan class="line" dy="1.3em" x="0" y="0">0.66 ms</tspan><tspan class="line" dy="2.6em" x="0" y="0">0.438%</tspan></text></g></g><g class="slice cursor-pointer"><path class="surface" d="M720,755L1056.4374579866028,781.759799392239A337.5,337.5 0,0,0 1056.9819816364964,773.6920852860262L720,755A0,0 0,0,1 720,755Z" style="pointer-events: none; stroke-width: 1; fill: rgb(25, 211, 243); fill-opacity: 1; stroke: rgb(255, 255, 255); stroke-opacity: 1;"/><g class="slicetext"><text data-notex="1" class="slicetext" text-anchor="middle" x="0" y="0" style="font-family: 'Open Sans', verdana, arial, sans-serif; font-size: 22px; fill: rgb(68, 68, 68); fill-opacity: 1; white-space: pre;" transform="translate(1052.747776149229,776.1722777107059)scale(0.06479371777142755)"><tspan class="line" dy="0em" x="0" y="0">2017</tspan><tspan class="line" dy="1.3em" x="0" y="0">0.58 ms</tspan><tspan class="line" dy="2.6em" x="0" y="0">0.381%</tspan></text></g></g><g class="slice cursor-pointer"><path class="surface" d="M720,755L1056.9819816364964,773.6920852860262A337.5,337.5 0,0,0 1057.2956214493654,766.7436685531571L720,755A0,0 0,0,1 720,755Z" style="pointer-events: none; stroke-width: 1; fill: rgb(255, 102, 146); fill-opacity: 1; stroke: rgb(255, 255, 255); stroke-opacity: 1;"/><g class="slicetext"><text data-notex="1" class="slicetext" text-anchor="middle" x="0" y="0" style="font-family: 'Open Sans', verdana, arial, sans-serif; font-size: 22px; fill: rgb(68, 68, 68); fill-opacity: 1; white-space: pre;" transform="translate(1053.717928134837,768.9552154051414)scale(0.055826792378994065)"><tspan class="line" dy="0em" x="0" y="0">2023</tspan><tspan class="line" dy="1.3em" x="0" y="0">0.50 ms</tspan><tspan class="line" dy="2.6em" x="0" y="0">0.328%</tspan></text></g></g><g class="slice cursor-pointer"><path class="surface" d="M720,755L1057.2956214493654,766.7436685531571A337.5,337.5 0,0,0 1057.4421096281842,761.2508119217044L720,755A0,0 0,0,1 720,755Z" style="pointer-events: none; stroke-width: 1; fill: rgb(182, 232, 128); fill-opacity: 1; stroke: rgb(255, 255, 255); stroke-opacity: 1;"/><g class="slicetext"><text data-notex="1" class="slicetext" text-anchor="middle" x="0" y="0" style="font-family: 'Open Sans', verdana, arial, sans-serif; font-size: 22px; fill: rgb(68, 68, 68); fill-opacity: 1; white-space: pre;" transform="translate(1054.6557926594783,763.0474942511191)scale(0.04419760147793291)"><tspan class="line" dy="0em" x="0" y="0">2021</tspan><tspan class="line" dy="1.3em" x="0" y="0">0.39 ms</tspan><tspan class="line" dy="2.6em" x="0" y="0">0.259%</tspan></text></g></g><g class="slice cursor-pointer"><path class="surface" d="M720,755L1057.4421096281842,761.2508119217044A337.5,337.5 0,0,0 1057.486722560942,757.9936758464596L720,755A0,0 0,0,1 720,755Z" style="pointer-events: none; stroke-width: 1; fill: rgb(255, 151, 255); fill-opacity: 1; stroke: rgb(255, 255, 255); stroke-opacity: 1;"/><g class="slicetext"><text data-notex="1" class="slicetext" text-anchor="middle" x="0" y="0" style="font-family: 'Open Sans', verdana, arial, sans-serif; font-size: 22px; fill: rgb(68, 68, 68); fill-opacity: 1; white-space: pre;" transform="translate(1055.8475991463893,759.078246033511)scale(0.026287721112504363)"><tspan class="line" dy="0em" x="0" y="0">2020</tspan><tspan class="line" dy="1.3em" x="0" y="0">0.23 ms</tspan><tspan class="line" dy="2.6em" x="0" y="0">0.154%</tspan></text></g></g><g class="slice cursor-pointer"><path class="surface" d="M720,755L1057.486722560942,757.9936758464596A337.5,337.5 0,0,0 1057.5,754.9999999999998L720,755A0,0 0,0,1 720,755Z" style="pointer-events: none; stroke-width: 1; fill: rgb(254, 203, 82); fill-opacity: 1; stroke: rgb(255, 255, 255); stroke-opacity: 1;"/><g class="slicetext"><text data-notex="1" class="slicetext" text-anchor="middle" x="0" y="0" style="font-family: 'Open Sans', verdana, arial, sans-serif; font-size: 22px; fill: rgb(68, 68, 68); fill-opacity: 1; white-space: pre;" transform="translate(1056.0064520417045,756.0104557189763)scale(0.0241687534698593)"><tspan class="line" dy="0em" x="0" y="0">2022</tspan><tspan class="line" dy="1.3em" x="0" y="0">0.21 ms</tspan><tspan class="line" dy="2.6em" x="0" y="0">0.141%</tspan></text></g></g><g class="slice"><path class="surface" d="M1057.5,755L1395,755A675,675 0,1,0 1038.229212079268,1350.2773879288613L879.114606039634,1052.6386939644308A337.5,337.5 0,1,1 1057.5,755Z" style="pointer-events: none; stroke-width: 1; fill: rgb(99, 110, 250); fill-opacity: 1; stroke: rgb(255, 255, 255); stroke-opacity: 1; opacity: 0.7;"/><g class="slicetext"><text data-notex="1" class="slicetext" text-anchor="middle" x="0" y="0" style="font-family: 'Open Sans', verdana, arial, sans-serif; font-size: 22px; fill: rgb(255, 255, 255); fill-opacity: 1; white-space: pre;" transform="translate(720,245.69532006184727)"><tspan class="line" dy="0em" x="0" y="0">04</tspan><tspan class="line" dy="1.3em" x="0" y="0">125.68 ms</tspan><tspan class="line" dy="2.6em" x="0" y="0">100%</tspan></text></g></g><g class="slice"><path class="surface" d="M879.114606039634,1052.6386939644308L1038.229212079268,1350.2773879288613A675,675 0,0,0 1047.9444998496363,1344.9808513997482L883.9722499248181,1049.990425699874A337.5,337.5 0,0,1 879.114606039634,1052.6386939644308Z" style="pointer-events: none; stroke-width: 1; fill: rgb(99, 110, 250); fill-opacity: 1; stroke: rgb(255, 255, 255); stroke-opacity: 1; opacity: 0.7;"/><g class="slicetext"><text data-notex="1" class="slicetext" text-anchor="middle" x="0" y="0" style="font-family: 'Open Sans', verdana, arial, sans-serif; font-size: 22px; fill: rgb(255, 255, 255); fill-opacity: 1; white-space: pre;" transform="translate(1040.4709711816317,1341.0641121604906)scale(0.08899872375529913)"><tspan class="line" dy="0em" x="0" y="0">03</tspan><tspan class="line" dy="1.3em" x="0" y="0">0.40 ms</tspan><tspan class="line" dy="2.6em" x="0" y="0">0.314%</tspan></text></g></g><g class="slice"><path class="surface" d="M883.9722499248181,1049.990425699874L1047.9444998496363,1344.9808513997482A675,675 0,0,0 1049.8815366372598,1343.8999675546265L884.9407683186299,1049.4499837773133A337.5,337.5 0,0,1 883.9722499248181,1049.990425699874Z" style="pointer-events: none; stroke-width: 1; fill: rgb(99, 110, 250); fill-opacity: 1; stroke: rgb(255, 255, 255); stroke-opacity: 1; opacity: 0.7;"/><g class="slicetext"><text data-notex="1" class="slicetext" text-anchor="middle" x="0" y="0" style="font-family: 'Open Sans', verdana, arial, sans-serif; font-size: 22px; fill: rgb(255, 255, 255); fill-opacity: 1; white-space: pre;" transform="translate(1048.3739068750522,1343.1403610561015)scale(0.01682056486698118)"><tspan class="line" dy="0em" x="0" y="0">05</tspan><tspan class="line" dy="1.3em" x="0" y="0">0.08 ms</tspan><tspan class="line" dy="2.6em" x="0" y="0">0.0629%</tspan></text></g></g><g class="slice"><path class="surface" d="M884.9407683186299,1049.4499837773133L1049.8815366372598,1343.8999675546265A675,675 0,0,0 1050.577170464569,1343.5097572408117L885.2885852322845,1049.2548786204059A337.5,337.5 0,0,1 884.9407683186299,1049.4499837773133Z" style="pointer-events: none; stroke-width: 1; fill: rgb(99, 110, 250); fill-opacity: 1; stroke: rgb(255, 255, 255); stroke-opacity: 1; opacity: 0.7;"/><g class="slicetext"><text data-notex="1" class="slicetext" text-anchor="middle" x="0" y="0" style="font-family: 'Open Sans', verdana, arial, sans-serif; font-size: 22px; fill: rgb(255, 255, 255); fill-opacity: 1; white-space: pre;" transform="translate(1050.0344212331192,1343.2371611023166)scale(0.006054561430468887)"><tspan class="line" dy="0em" x="0" y="0">02</tspan><tspan class="line" dy="1.3em" x="0" y="0">0.03 ms</tspan><tspan class="line" dy="2.6em" x="0" y="0">0.0226%</tspan></text></g></g><g class="slice"><path class="surface" d="M885.2885852322845,1049.2548786204059L1050.577170464569,1343.5097572408117A675,675 0,0,0 1051.002473666646,1343.2706540586241L885.501236833323,1049.135327029312A337.5,337.5 0,0,1 885.2885852322845,1049.2548786204059Z" style="pointer-events: none; stroke-width: 1; fill: rgb(99, 110, 250); fill-opacity: 1; stroke: rgb(255, 255, 255); stroke-opacity: 1; opacity: 0.7;"/><g class="slicetext"><text data-notex="1" class="slicetext" text-anchor="middle" x="0" y="0" style="font-family: 'Open Sans', verdana, arial, sans-serif; font-size: 22px; fill: rgb(255, 255, 255); fill-opacity: 1; white-space: pre;" transform="translate(1050.670335270067,1343.1041287044507)scale(0.003704524462004205)"><tspan class="line" dy="0em" x="0" y="0">01</tspan><tspan class="line" dy="1.3em" x="0" y="0">0.02 ms</tspan><tspan class="line" dy="2.6em" x="0" y="0">0.0138%</tspan></text></g></g><g class="slice"><path class="surface" d="M885.501236833323,1049.135327029312L1051.002473666646,1343.2706540586241A675,675 0,0,0 1254.8795090484887,1166.7388866746105L987.4397545242443,960.8694433373053A337.5,337.5 0,0,1 885.501236833323,1049.135327029312Z" style="pointer-events: none; stroke-width: 1; fill: rgb(239, 85, 59); fill-opacity: 1; stroke: rgb(255, 255, 255); stroke-opacity: 1; opacity: 0.7;"/><g class="slicetext"><text data-notex="1" class="slicetext" text-anchor="middle" x="0" y="0" style="font-family: 'Open Sans', verdana, arial, sans-serif; font-size: 22px; fill: rgb(68, 68, 68); fill-opacity: 1; white-space: pre;" transform="translate(1088.2777301888252,1160.4734254083878)"><tspan class="line" dy="0em" x="0" y="0">03</tspan><tspan class="line" dy="1.3em" x="0" y="0">9.72 ms</tspan><tspan class="line" dy="2.6em" x="0" y="0">74%</tspan></text></g></g><g class="slice"><path class="surface" d="M987.4397545242443,960.8694433373053L1254.8795090484887,1166.7388866746105A675,675 0,0,0 1290.6215940405784,1115.577309899818L1005.3107970202892,935.288654949909A337.5,337.5 0,0,1 987.4397545242443,960.8694433373053Z" style="pointer-events: none; stroke-width: 1; fill: rgb(239, 85, 59); fill-opacity: 1; stroke: rgb(255, 255, 255); stroke-opacity: 1; opacity: 0.7;"/><g class="slicetext"><text data-notex="1" class="slicetext" text-anchor="middle" x="0" y="0" style="font-family: 'Open Sans', verdana, arial, sans-serif; font-size: 22px; fill: rgb(68, 68, 68); fill-opacity: 1; white-space: pre;" transform="translate(1248.891709022932,1114.887430290806)scale(0.4837199755638062)"><tspan class="line" dy="0em" x="0" y="0">02</tspan><tspan class="line" dy="1.3em" x="0" y="0">2.23 ms</tspan><tspan class="line" dy="2.6em" x="0" y="0">17%</tspan></text></g></g><g class="slice"><path class="surface" d="M1005.3107970202892,935.288654949909L1290.6215940405784,1115.577309899818A675,675 0,0,0 1306.7905346724303,1088.6193465895576L1013.3952673362152,921.8096732947788A337.5,337.5 0,0,1 1005.3107970202892,935.288654949909Z" style="pointer-events: none; stroke-width: 1; fill: rgb(239, 85, 59); fill-opacity: 1; stroke: rgb(255, 255, 255); stroke-opacity: 1; opacity: 0.7;"/><g class="slicetext"><text data-notex="1" class="slicetext" text-anchor="middle" x="0" y="0" style="font-family: 'Open Sans', verdana, arial, sans-serif; font-size: 22px; fill: rgb(68, 68, 68); fill-opacity: 1; white-space: pre;" transform="translate(1285.6907545203098,1089.3468032567087)scale(0.24910670694237508)"><tspan class="line" dy="0em" x="0" y="0">04</tspan><tspan class="line" dy="1.3em" x="0" y="0">1.12 ms</tspan><tspan class="line" dy="2.6em" x="0" y="0">9%</tspan></text></g></g><g class="slice"><path class="surface" d="M1013.3952673362152,921.8096732947788L1306.7905346724303,1088.6193465895576A675,675 0,0,0 1306.8273684195442,1088.5545527702966L1013.4136842097721,921.7772763851483A337.5,337.5 0,0,1 1013.3952673362152,921.8096732947788Z" style="pointer-events: none; stroke-width: 1; fill: rgb(239, 85, 59); fill-opacity: 1; stroke: rgb(255, 255, 255); stroke-opacity: 1; opacity: 0.7;"/><g class="slicetext"><text data-notex="1" class="slicetext" text-anchor="middle" x="0" y="0" style="font-family: 'Open Sans', verdana, arial, sans-serif; font-size: 22px; fill: rgb(68, 68, 68); fill-opacity: 1; white-space: pre;" transform="translate(1306.776557319141,1088.5572969848445)scale(0.000566068621780208)"><tspan class="line" dy="0em" x="0" y="0">01</tspan><tspan class="line" dy="1.3em" x="0" y="0">0.00 ms</tspan><tspan class="line" dy="2.6em" x="0" y="0">0.0204%</tspan></text></g></g><g class="slice"><path class="surface" d="M1013.4136842097721,921.7772763851483L1306.8273684195442,1088.5545527702966A675,675 0,0,0 1378.9963037415719,901.1125307937202L1049.498151870786,828.0562653968601A337.5,337.5 0,0,1 1013.4136842097721,921.7772763851483Z" style="pointer-events: none; stroke-width: 1; fill: rgb(0, 204, 150); fill-opacity: 1; stroke: rgb(255, 255, 255); stroke-opacity: 1; opacity: 0.7;"/><g class="slicetext"><text data-notex="1" class="slicetext" text-anchor="middle" x="0" y="0" style="font-family: 'Open Sans', verdana, arial, sans-serif; font-size: 22px; fill: rgb(68, 68, 68); fill-opacity: 1; white-space: pre;" transform="translate(1268.339881959967,946.2702823155794)"><tspan class="line" dy="0em" x="0" y="0">04</tspan><tspan class="line" dy="1.3em" x="0" y="0">7.21 ms</tspan><tspan class="line" dy="2.6em" x="0" y="0">96%</tspan></text></g></g><g class="slice"><path class="surface" d="M1049.498151870786,828.0562653968601L1378.9963037415719,901.1125307937202A675,675 0,0,0 1379.912037059666,896.919355070977L1049.956018529833,825.9596775354885A337.5,337.5 0,0,1 1049.498151870786,828.0562653968601Z" style="pointer-events: none; stroke-width: 1; fill: rgb(0, 204, 150); fill-opacity: 1; stroke: rgb(255, 255, 255); stroke-opacity: 1; opacity: 0.7;"/><g class="slicetext"><text data-notex="1" class="slicetext" text-anchor="middle" x="0" y="0" style="font-family: 'Open Sans', verdana, arial, sans-serif; font-size: 22px; fill: rgb(68, 68, 68); fill-opacity: 1; white-space: pre;" transform="translate(1377.3675598247942,897.8715342706136)scale(0.034693536490472174)"><tspan class="line" dy="0em" x="0" y="0">01</tspan><tspan class="line" dy="1.3em" x="0" y="0">0.15 ms</tspan><tspan class="line" dy="2.6em" x="0" y="0">2%</tspan></text></g></g><g class="slice"><path class="surface" d="M1049.956018529833,825.9596775354885L1379.912037059666,896.919355070977A675,675 0,0,0 1380.5632480611935,893.8567438435958L1050.2816240305967,824.4283719217979A337.5,337.5 0,0,1 1049.956018529833,825.9596775354885Z" style="pointer-events: none; stroke-width: 1; fill: rgb(0, 204, 150); fill-opacity: 1; stroke: rgb(255, 255, 255); stroke-opacity: 1; opacity: 0.7;"/><g class="slicetext"><text data-notex="1" class="slicetext" text-anchor="middle" x="0" y="0" style="font-family: 'Open Sans', verdana, arial, sans-serif; font-size: 22px; fill: rgb(68, 68, 68); fill-opacity: 1; white-space: pre;" transform="translate(1378.711656109492,894.5607117501329)scale(0.025331166441895994)"><tspan class="line" dy="0em" x="0" y="0">02</tspan><tspan class="line" dy="1.3em" x="0" y="0">0.11 ms</tspan><tspan class="line" dy="2.6em" x="0" y="0">1%</tspan></text></g></g><g class="slice"><path class="surface" d="M1050.2816240305967,824.4283719217979L1380.5632480611935,893.8567438435958A675,675 0,0,0 1380.8542551961525,892.4650988038002L1050.4271275980764,823.7325494019001A337.5,337.5 0,0,1 1050.2816240305967,824.4283719217979Z" style="pointer-events: none; stroke-width: 1; fill: rgb(0, 204, 150); fill-opacity: 1; stroke: rgb(255, 255, 255); stroke-opacity: 1; opacity: 0.7;"/><g class="slicetext"><text data-notex="1" class="slicetext" text-anchor="middle" x="0" y="0" style="font-family: 'Open Sans', verdana, arial, sans-serif; font-size: 22px; fill: rgb(68, 68, 68); fill-opacity: 1; white-space: pre;" transform="translate(1380.0140275409785,892.78702092977)scale(0.011516802256570953)"><tspan class="line" dy="0em" x="0" y="0">03</tspan><tspan class="line" dy="1.3em" x="0" y="0">0.05 ms</tspan><tspan class="line" dy="2.6em" x="0" y="0">1%</tspan></text></g></g><g class="slice"><path class="surface" d="M1050.4271275980764,823.7325494018997L1380.8542551961527,892.4650988037996A675,675 0,0,0 1386.329859731794,862.840243090453L1053.164929865897,808.9201215452265A337.5,337.5 0,0,1 1050.4271275980764,823.7325494018997Z" style="pointer-events: none; stroke-width: 1; fill: rgb(171, 99, 250); fill-opacity: 1; stroke: rgb(255, 255, 255); stroke-opacity: 1; opacity: 0.7;"/><g class="slicetext"><text data-notex="1" class="slicetext" text-anchor="middle" x="0" y="0" style="font-family: 'Open Sans', verdana, arial, sans-serif; font-size: 22px; fill: rgb(68, 68, 68); fill-opacity: 1; white-space: pre;" transform="translate(1369.2682663858113,870.2613740589386)scale(0.23896406423344838)"><tspan class="line" dy="0em" x="0" y="0">01</tspan><tspan class="line" dy="1.3em" x="0" y="0">1.08 ms</tspan><tspan class="line" dy="2.6em" x="0" y="0">45%</tspan></text></g></g><g class="slice"><path class="surface" d="M1053.164929865897,808.9201215452265L1386.329859731794,862.840243090453A675,675 0,0,0 1388.6749974033942,847.1886535728279L1054.337498701697,801.094326786414A337.5,337.5 0,0,1 1053.164929865897,808.9201215452265Z" style="pointer-events: none; stroke-width: 1; fill: rgb(171, 99, 250); fill-opacity: 1; stroke: rgb(255, 255, 255); stroke-opacity: 1; opacity: 0.7;"/><g class="slicetext"><text data-notex="1" class="slicetext" text-anchor="middle" x="0" y="0" style="font-family: 'Open Sans', verdana, arial, sans-serif; font-size: 22px; fill: rgb(68, 68, 68); fill-opacity: 1; white-space: pre;" transform="translate(1379.8131872276822,851.3442013124181)scale(0.12684837809487054)"><tspan class="line" dy="0em" x="0" y="0">02</tspan><tspan class="line" dy="1.3em" x="0" y="0">0.57 ms</tspan><tspan class="line" dy="2.6em" x="0" y="0">24%</tspan></text></g></g><g class="slice"><path class="surface" d="M1054.337498701697,801.094326786414L1388.6749974033942,847.1886535728279A675,675 0,0,0 1390.5742189090665,832.1700520570998L1055.2871094545333,793.5850260285499A337.5,337.5 0,0,1 1054.337498701697,801.094326786414Z" style="pointer-events: none; stroke-width: 1; fill: rgb(171, 99, 250); fill-opacity: 1; stroke: rgb(255, 255, 255); stroke-opacity: 1; opacity: 0.7;"/><g class="slicetext"><text data-notex="1" class="slicetext" text-anchor="middle" x="0" y="0" style="font-family: 'Open Sans', verdana, arial, sans-serif; font-size: 22px; fill: rgb(68, 68, 68); fill-opacity: 1; white-space: pre;" transform="translate(1382.240683155309,836.3357275040294)scale(0.12139444030419988)"><tspan class="line" dy="0em" x="0" y="0">03</tspan><tspan class="line" dy="1.3em" x="0" y="0">0.54 ms</tspan><tspan class="line" dy="2.6em" x="0" y="0">23%</tspan></text></g></g><g class="slice"><path class="surface" d="M1055.2871094545333,793.5850260285499L1390.5742189090665,832.1700520570998A675,675 0,0,0 1391.1488397962698,827.0016308157037L1055.574419898135,791.0008154078519A337.5,337.5 0,0,1 1055.2871094545333,793.5850260285499Z" style="pointer-events: none; stroke-width: 1; fill: rgb(171, 99, 250); fill-opacity: 1; stroke: rgb(255, 255, 255); stroke-opacity: 1; opacity: 0.7;"/><g class="slicetext"><text data-notex="1" class="slicetext" text-anchor="middle" x="0" y="0" style="font-family: 'Open Sans', verdana, arial, sans-serif; font-size: 22px; fill: rgb(68, 68, 68); fill-opacity: 1; white-space: pre;" transform="translate(1388.2922123110332,828.466279795785)scale(0.042007124279062474)"><tspan class="line" dy="0em" x="0" y="0">04</tspan><tspan class="line" dy="1.3em" x="0" y="0">0.19 ms</tspan><tspan class="line" dy="2.6em" x="0" y="0">8%</tspan></text></g></g><g class="slice"><path class="surface" d="M1055.574419898135,791.0008154078519L1391.1488397962698,827.0016308157037A675,675 0,0,0 1392.5572671032753,812.3735345483742L1056.2786335516375,783.6867672741871A337.5,337.5 0,0,1 1055.574419898135,791.0008154078519Z" style="pointer-events: none; stroke-width: 1; fill: rgb(255, 161, 90); fill-opacity: 1; stroke: rgb(255, 255, 255); stroke-opacity: 1; opacity: 0.7;"/><g class="slicetext"><text data-notex="1" class="slicetext" text-anchor="middle" x="0" y="0" style="font-family: 'Open Sans', verdana, arial, sans-serif; font-size: 22px; fill: rgb(68, 68, 68); fill-opacity: 1; white-space: pre;" transform="translate(1384.6575773118086,816.6545945676468)scale(0.11788446626502892)"><tspan class="line" dy="0em" x="0" y="0">04</tspan><tspan class="line" dy="1.3em" x="0" y="0">0.53 ms</tspan><tspan class="line" dy="2.6em" x="0" y="0">79%</tspan></text></g></g><g class="slice"><path class="surface" d="M1056.2786335516375,783.6867672741871L1392.5572671032753,812.3735345483742A675,675 0,0,0 1392.729503014809,810.3174093161268L1056.3647515074044,782.6587046580635A337.5,337.5 0,0,1 1056.2786335516375,783.6867672741871Z" style="pointer-events: none; stroke-width: 1; fill: rgb(255, 161, 90); fill-opacity: 1; stroke: rgb(255, 255, 255); stroke-opacity: 1; opacity: 0.7;"/><g class="slicetext"><text data-notex="1" class="slicetext" text-anchor="middle" x="0" y="0" style="font-family: 'Open Sans', verdana, arial, sans-serif; font-size: 22px; fill: rgb(68, 68, 68); fill-opacity: 1; white-space: pre;" transform="translate(1391.6176769664273,810.9279115345417)scale(0.01670597333836988)"><tspan class="line" dy="0em" x="0" y="0">03</tspan><tspan class="line" dy="1.3em" x="0" y="0">0.07 ms</tspan><tspan class="line" dy="2.6em" x="0" y="0">11%</tspan></text></g></g><g class="slice"><path class="surface" d="M1056.3647515074044,782.6587046580635L1392.729503014809,810.3174093161268A675,675 0,0,0 1392.8400597988195,808.9560370108946L1056.4200298994097,781.9780185054474A337.5,337.5 0,0,1 1056.3647515074044,782.6587046580635Z" style="pointer-events: none; stroke-width: 1; fill: rgb(255, 161, 90); fill-opacity: 1; stroke: rgb(255, 255, 255); stroke-opacity: 1; opacity: 0.7;"/><g class="slicetext"><text data-notex="1" class="slicetext" text-anchor="middle" x="0" y="0" style="font-family: 'Open Sans', verdana, arial, sans-serif; font-size: 22px; fill: rgb(68, 68, 68); fill-opacity: 1; white-space: pre;" transform="translate(1392.1051275781738,809.3618807740148)scale(0.011064511033975778)"><tspan class="line" dy="0em" x="0" y="0">01</tspan><tspan class="line" dy="1.3em" x="0" y="0">0.05 ms</tspan><tspan class="line" dy="2.6em" x="0" y="0">7%</tspan></text></g></g><g class="slice"><path class="surface" d="M1056.4200298994097,781.9780185054474L1392.8400597988195,808.9560370108946A675,675 0,0,0 1392.8749159732056,808.5195987844779L1056.4374579866028,781.759799392239A337.5,337.5 0,0,1 1056.4200298994097,781.9780185054474Z" style="pointer-events: none; stroke-width: 1; fill: rgb(255, 161, 90); fill-opacity: 1; stroke: rgb(255, 255, 255); stroke-opacity: 1; opacity: 0.7;"/><g class="slicetext"><text data-notex="1" class="slicetext" text-anchor="middle" x="0" y="0" style="font-family: 'Open Sans', verdana, arial, sans-serif; font-size: 22px; fill: rgb(68, 68, 68); fill-opacity: 1; white-space: pre;" transform="translate(1392.6393749081024,808.6499412447926)scale(0.0035491937828621895)"><tspan class="line" dy="0em" x="0" y="0">02</tspan><tspan class="line" dy="1.3em" x="0" y="0">0.02 ms</tspan><tspan class="line" dy="2.6em" x="0" y="0">2%</tspan></text></g></g><g class="slice"><path class="surface" d="M1056.4374579866028,781.759799392239L1392.8749159732056,808.5195987844779A675,675 0,0,0 1393.5395540451582,799.3787013853417L1056.769777022579,777.1893506926708A337.5,337.5 0,0,1 1056.4374579866028,781.759799392239Z" style="pointer-events: none; stroke-width: 1; fill: rgb(25, 211, 243); fill-opacity: 1; stroke: rgb(255, 255, 255); stroke-opacity: 1; opacity: 0.7;"/><g class="slicetext"><text data-notex="1" class="slicetext" text-anchor="middle" x="0" y="0" style="font-family: 'Open Sans', verdana, arial, sans-serif; font-size: 22px; fill: rgb(68, 68, 68); fill-opacity: 1; white-space: pre;" transform="translate(1388.6831198078,802.1547965837506)scale(0.07381803780843754)"><tspan class="line" dy="0em" x="0" y="0">04</tspan><tspan class="line" dy="1.3em" x="0" y="0">0.33 ms</tspan><tspan class="line" dy="2.6em" x="0" y="0">57%</tspan></text></g></g><g class="slice"><path class="surface" d="M1056.769777022579,777.1893506926708L1393.5395540451582,799.3787013853417A675,675 0,0,0 1393.9174064199606,793.2142555101341L1056.9587032099803,774.107127755067A337.5,337.5 0,0,1 1056.769777022579,777.1893506926708Z" style="pointer-events: none; stroke-width: 1; fill: rgb(25, 211, 243); fill-opacity: 1; stroke: rgb(255, 255, 255); stroke-opacity: 1; opacity: 0.7;"/><g class="slicetext"><text data-notex="1" class="slicetext" text-anchor="middle" x="0" y="0" style="font-family: 'Open Sans', verdana, arial, sans-serif; font-size: 22px; fill: rgb(68, 68, 68); fill-opacity: 1; white-space: pre;" transform="translate(1390.6673440689028,795.1191805710163)scale(0.04985321494193015)"><tspan class="line" dy="0em" x="0" y="0">03</tspan><tspan class="line" dy="1.3em" x="0" y="0">0.22 ms</tspan><tspan class="line" dy="2.6em" x="0" y="0">38%</tspan></text></g></g><g class="slice"><path class="surface" d="M1056.9587032099803,774.107127755067L1393.9174064199606,793.2142555101341A675,675 0,0,0 1393.9608654570652,792.4399763937405L1056.9804327285326,773.7199881968703A337.5,337.5 0,0,1 1056.9587032099803,774.107127755067Z" style="pointer-events: none; stroke-width: 1; fill: rgb(25, 211, 243); fill-opacity: 1; stroke: rgb(255, 255, 255); stroke-opacity: 1; opacity: 0.7;"/><g class="slicetext"><text data-notex="1" class="slicetext" text-anchor="middle" x="0" y="0" style="font-family: 'Open Sans', verdana, arial, sans-serif; font-size: 22px; fill: rgb(68, 68, 68); fill-opacity: 1; white-space: pre;" transform="translate(1393.5523298369549,792.6806400966666)scale(0.0062848983852703995)"><tspan class="line" dy="0em" x="0" y="0">02</tspan><tspan class="line" dy="1.3em" x="0" y="0">0.03 ms</tspan><tspan class="line" dy="2.6em" x="0" y="0">5%</tspan></text></g></g><g class="slice"><path class="surface" d="M1056.9804327285326,773.7199881968703L1393.9608654570652,792.4399763937405A675,675 0,0,0 1393.9639632729927,792.3841705720524L1056.9819816364964,773.6920852860262A337.5,337.5 0,0,1 1056.9804327285326,773.7199881968703Z" style="pointer-events: none; stroke-width: 1; fill: rgb(25, 211, 243); fill-opacity: 1; stroke: rgb(255, 255, 255); stroke-opacity: 1; opacity: 0.7;"/><g class="slicetext"><text data-notex="1" class="slicetext" text-anchor="middle" x="0" y="0" style="font-family: 'Open Sans', verdana, arial, sans-serif; font-size: 22px; fill: rgb(68, 68, 68); fill-opacity: 1; white-space: pre;" transform="translate(1393.9345131869616,792.4015278017773)scale(0.00045320711369142234)"><tspan class="line" dy="0em" x="0" y="0">01</tspan><tspan class="line" dy="1.3em" x="0" y="0">0.00 ms</tspan><tspan class="line" dy="2.6em" x="0" y="0">0.346%</tspan></text></g></g><g class="slice"><path class="surface" d="M1056.9819816364964,773.6920852860262L1393.9639632729927,792.3841705720524A675,675 0,0,0 1394.3781436554486,783.9675570221397L1057.1890718277243,769.4837785110698A337.5,337.5 0,0,1 1056.9819816364964,773.6920852860262Z" style="pointer-events: none; stroke-width: 1; fill: rgb(255, 102, 146); fill-opacity: 1; stroke: rgb(255, 255, 255); stroke-opacity: 1; opacity: 0.7;"/><g class="slicetext"><text data-notex="1" class="slicetext" text-anchor="middle" x="0" y="0" style="font-family: 'Open Sans', verdana, arial, sans-serif; font-size: 22px; fill: rgb(68, 68, 68); fill-opacity: 1; white-space: pre;" transform="translate(1390.0019866999464,786.6226051976229)scale(0.06790898216271979)"><tspan class="line" dy="0em" x="0" y="0">01</tspan><tspan class="line" dy="1.3em" x="0" y="0">0.30 ms</tspan><tspan class="line" dy="2.6em" x="0" y="0">61%</tspan></text></g></g><g class="slice"><path class="surface" d="M1057.1890718277243,769.4837785110698L1394.3781436554486,783.9675570221397A675,675 0,0,0 1394.4793427389745,781.506908880537L1057.2396713694873,768.2534544402686A337.5,337.5 0,0,1 1057.1890718277243,769.4837785110698Z" style="pointer-events: none; stroke-width: 1; fill: rgb(255, 102, 146); fill-opacity: 1; stroke: rgb(255, 255, 255); stroke-opacity: 1; opacity: 0.7;"/><g class="slicetext"><text data-notex="1" class="slicetext" text-anchor="middle" x="0" y="0" style="font-family: 'Open Sans', verdana, arial, sans-serif; font-size: 22px; fill: rgb(68, 68, 68); fill-opacity: 1; white-space: pre;" transform="translate(1393.2017816558607,782.291052839624)scale(0.019933889874441283)"><tspan class="line" dy="0em" x="0" y="0">03</tspan><tspan class="line" dy="1.3em" x="0" y="0">0.09 ms</tspan><tspan class="line" dy="2.6em" x="0" y="0">18%</tspan></text></g></g><g class="slice"><path class="surface" d="M1057.2396713694873,768.2534544402686L1394.4793427389745,781.506908880537A675,675 0,0,0 1394.5607947491728,779.3461329036936L1057.2803973745863,767.1730664518468A337.5,337.5 0,0,1 1057.2396713694873,768.2534544402686Z" style="pointer-events: none; stroke-width: 1; fill: rgb(255, 102, 146); fill-opacity: 1; stroke: rgb(255, 255, 255); stroke-opacity: 1; opacity: 0.7;"/><g class="slicetext"><text data-notex="1" class="slicetext" text-anchor="middle" x="0" y="0" style="font-family: 'Open Sans', verdana, arial, sans-serif; font-size: 22px; fill: rgb(68, 68, 68); fill-opacity: 1; white-space: pre;" transform="translate(1393.4422736938473,780.038368618559)scale(0.017506128856803645)"><tspan class="line" dy="0em" x="0" y="0">04</tspan><tspan class="line" dy="1.3em" x="0" y="0">0.08 ms</tspan><tspan class="line" dy="2.6em" x="0" y="0">16%</tspan></text></g></g><g class="slice"><path class="surface" d="M1057.2803973745863,767.1730664518468L1394.5607947491728,779.3461329036936A675,675 0,0,0 1394.5912428987308,778.4873371063142L1057.2956214493654,766.7436685531571A337.5,337.5 0,0,1 1057.2803973745863,767.1730664518468Z" style="pointer-events: none; stroke-width: 1; fill: rgb(255, 102, 146); fill-opacity: 1; stroke: rgb(255, 255, 255); stroke-opacity: 1; opacity: 0.7;"/><g class="slicetext"><text data-notex="1" class="slicetext" text-anchor="middle" x="0" y="0" style="font-family: 'Open Sans', verdana, arial, sans-serif; font-size: 22px; fill: rgb(68, 68, 68); fill-opacity: 1; white-space: pre;" transform="translate(1394.1470307478553,778.7632808753754)scale(0.006963914547900725)"><tspan class="line" dy="0em" x="0" y="0">02</tspan><tspan class="line" dy="1.3em" x="0" y="0">0.03 ms</tspan><tspan class="line" dy="2.6em" x="0" y="0">6%</tspan></text></g></g><g class="slice"><path class="surface" d="M1057.2956214493654,766.7436685531571L1394.5912428987308,778.4873371063142A675,675 0,0,0 1394.745213046705,773.5444727764511L1057.3726065233525,764.2722363882256A337.5,337.5 0,0,1 1057.2956214493654,766.7436685531571Z" style="pointer-events: none; stroke-width: 1; fill: rgb(182, 232, 128); fill-opacity: 1; stroke: rgb(255, 255, 255); stroke-opacity: 1; opacity: 0.7;"/><g class="slicetext"><text data-notex="1" class="slicetext" text-anchor="middle" x="0" y="0" style="font-family: 'Open Sans', verdana, arial, sans-serif; font-size: 22px; fill: rgb(68, 68, 68); fill-opacity: 1; white-space: pre;" transform="translate(1392.2103426462882,775.146177658218)scale(0.03995474880069543)"><tspan class="line" dy="0em" x="0" y="0">03</tspan><tspan class="line" dy="1.3em" x="0" y="0">0.18 ms</tspan><tspan class="line" dy="2.6em" x="0" y="0">45%</tspan></text></g></g><g class="slice"><path class="surface" d="M1057.3726065233525,764.2722363882256L1394.745213046705,773.5444727764511A675,675 0,0,0 1394.8545588094928,769.0115828529417L1057.4272794047465,762.0057914264709A337.5,337.5 0,0,1 1057.3726065233525,764.2722363882256Z" style="pointer-events: none; stroke-width: 1; fill: rgb(182, 232, 128); fill-opacity: 1; stroke: rgb(255, 255, 255); stroke-opacity: 1; opacity: 0.7;"/><g class="slicetext"><text data-notex="1" class="slicetext" text-anchor="middle" x="0" y="0" style="font-family: 'Open Sans', verdana, arial, sans-serif; font-size: 22px; fill: rgb(68, 68, 68); fill-opacity: 1; white-space: pre;" transform="translate(1392.5448338669653,770.4961731792337)scale(0.03664480224885056)"><tspan class="line" dy="0em" x="0" y="0">04</tspan><tspan class="line" dy="1.3em" x="0" y="0">0.16 ms</tspan><tspan class="line" dy="2.6em" x="0" y="0">41%</tspan></text></g></g><g class="slice"><path class="surface" d="M1057.4272794047465,762.0057914264709L1394.8545588094928,769.0115828529417A675,675 0,0,0 1394.8794481481148,767.7565852521784L1057.4397240740573,761.3782926260892A337.5,337.5 0,0,1 1057.4272794047465,762.0057914264709Z" style="pointer-events: none; stroke-width: 1; fill: rgb(182, 232, 128); fill-opacity: 1; stroke: rgb(255, 255, 255); stroke-opacity: 1; opacity: 0.7;"/><g class="slicetext"><text data-notex="1" class="slicetext" text-anchor="middle" x="0" y="0" style="font-family: 'Open Sans', verdana, arial, sans-serif; font-size: 22px; fill: rgb(68, 68, 68); fill-opacity: 1; white-space: pre;" transform="translate(1394.2403793190902,768.1697799100323)scale(0.010169316357245238)"><tspan class="line" dy="0em" x="0" y="0">01</tspan><tspan class="line" dy="1.3em" x="0" y="0">0.04 ms</tspan><tspan class="line" dy="2.6em" x="0" y="0">11%</tspan></text></g></g><g class="slice"><path class="surface" d="M1057.4397240740573,761.3782926260892L1394.8794481481148,767.7565852521784A675,675 0,0,0 1394.8842192563684,767.5016238434089L1057.4421096281842,761.2508119217044A337.5,337.5 0,0,1 1057.4397240740573,761.3782926260892Z" style="pointer-events: none; stroke-width: 1; fill: rgb(182, 232, 128); fill-opacity: 1; stroke: rgb(255, 255, 255); stroke-opacity: 1; opacity: 0.7;"/><g class="slicetext"><text data-notex="1" class="slicetext" text-anchor="middle" x="0" y="0" style="font-family: 'Open Sans', verdana, arial, sans-serif; font-size: 22px; fill: rgb(68, 68, 68); fill-opacity: 1; white-space: pre;" transform="translate(1394.7543891136984,767.585677506504)scale(0.002067452524258823)"><tspan class="line" dy="0em" x="0" y="0">02</tspan><tspan class="line" dy="1.3em" x="0" y="0">0.01 ms</tspan><tspan class="line" dy="2.6em" x="0" y="0">2%</tspan></text></g></g><g class="slice"><path class="surface" d="M1057.4421096281842,761.2508119217044L1394.8842192563684,767.5016238434089A675,675 0,0,0 1394.9225781315956,765.2231858146225L1057.4612890657977,760.1115929073113A337.5,337.5 0,0,1 1057.4421096281842,761.2508119217044Z" style="pointer-events: none; stroke-width: 1; fill: rgb(255, 151, 255); fill-opacity: 1; stroke: rgb(255, 255, 255); stroke-opacity: 1; opacity: 0.7;"/><g class="slicetext"><text data-notex="1" class="slicetext" text-anchor="middle" x="0" y="0" style="font-family: 'Open Sans', verdana, arial, sans-serif; font-size: 22px; fill: rgb(68, 68, 68); fill-opacity: 1; white-space: pre;" transform="translate(1393.7670608928838,765.9770656748885)scale(0.01844732491324816)"><tspan class="line" dy="0em" x="0" y="0">01</tspan><tspan class="line" dy="1.3em" x="0" y="0">0.08 ms</tspan><tspan class="line" dy="2.6em" x="0" y="0">35%</tspan></text></g></g><g class="slice"><path class="surface" d="M1057.4612890657977,760.1115929073113L1394.9225781315956,765.2231858146225A675,675 0,0,0 1394.9489571851925,763.3009152881555L1057.4744785925964,759.1504576440777A337.5,337.5 0,0,1 1057.4612890657977,760.1115929073113Z" style="pointer-events: none; stroke-width: 1; fill: rgb(255, 151, 255); fill-opacity: 1; stroke: rgb(255, 255, 255); stroke-opacity: 1; opacity: 0.7;"/><g class="slicetext"><text data-notex="1" class="slicetext" text-anchor="middle" x="0" y="0" style="font-family: 'Open Sans', verdana, arial, sans-serif; font-size: 22px; fill: rgb(68, 68, 68); fill-opacity: 1; white-space: pre;" transform="translate(1393.9766834891452,763.9398602151956)scale(0.015566984023284035)"><tspan class="line" dy="0em" x="0" y="0">02</tspan><tspan class="line" dy="1.3em" x="0" y="0">0.07 ms</tspan><tspan class="line" dy="2.6em" x="0" y="0">30%</tspan></text></g></g><g class="slice"><path class="surface" d="M1057.4744785925964,759.1504576440777L1394.9489571851925,763.3009152881555A675,675 0,0,0 1394.9679049240801,761.5823493068899L1057.4839524620402,758.291174653445A337.5,337.5 0,0,1 1057.4744785925964,759.1504576440777Z" style="pointer-events: none; stroke-width: 1; fill: rgb(255, 151, 255); fill-opacity: 1; stroke: rgb(255, 255, 255); stroke-opacity: 1; opacity: 0.7;"/><g class="slicetext"><text data-notex="1" class="slicetext" text-anchor="middle" x="0" y="0" style="font-family: 'Open Sans', verdana, arial, sans-serif; font-size: 22px; fill: rgb(68, 68, 68); fill-opacity: 1; white-space: pre;" transform="translate(1394.1007875891605,762.1558631644399)scale(0.013918971865687323)"><tspan class="line" dy="0em" x="0" y="0">04</tspan><tspan class="line" dy="1.3em" x="0" y="0">0.06 ms</tspan><tspan class="line" dy="2.6em" x="0" y="0">26%</tspan></text></g></g><g class="slice"><path class="surface" d="M1057.4839524620402,758.291174653445L1394.9679049240801,761.5823493068899A675,675 0,0,0 1394.9734451218842,760.9873516929192L1057.486722560942,757.9936758464596A337.5,337.5 0,0,1 1057.4839524620402,758.291174653445Z" style="pointer-events: none; stroke-width: 1; fill: rgb(255, 151, 255); fill-opacity: 1; stroke: rgb(255, 255, 255); stroke-opacity: 1; opacity: 0.7;"/><g class="slicetext"><text data-notex="1" class="slicetext" text-anchor="middle" x="0" y="0" style="font-family: 'Open Sans', verdana, arial, sans-serif; font-size: 22px; fill: rgb(68, 68, 68); fill-opacity: 1; white-space: pre;" transform="translate(1394.6733728457352,761.186339797738)scale(0.004822916792671579)"><tspan class="line" dy="0em" x="0" y="0">03</tspan><tspan class="line" dy="1.3em" x="0" y="0">0.02 ms</tspan><tspan class="line" dy="2.6em" x="0" y="0">9%</tspan></text></g></g><g class="slice"><path class="surface" d="M1057.486722560942,757.9936758464596L1394.9734451218842,760.9873516929192A675,675 0,0,0 1394.9953140719922,757.5151502644086L1057.497657035996,756.2575751322042A337.5,337.5 0,0,1 1057.486722560942,757.9936758464596Z" style="pointer-events: none; stroke-width: 1; fill: rgb(254, 203, 82); fill-opacity: 1; stroke: rgb(255, 255, 255); stroke-opacity: 1; opacity: 0.7;"/><g class="slicetext"><text data-notex="1" class="slicetext" text-anchor="middle" x="0" y="0" style="font-family: 'Open Sans', verdana, arial, sans-serif; font-size: 22px; fill: rgb(68, 68, 68); fill-opacity: 1; white-space: pre;" transform="translate(1393.2549654429067,758.6828395533665)scale(0.028084392056017014)"><tspan class="line" dy="0em" x="0" y="0">03</tspan><tspan class="line" dy="1.3em" x="0" y="0">0.12 ms</tspan><tspan class="line" dy="2.6em" x="0" y="0">58%</tspan></text></g></g><g class="slice"><path class="surface" d="M1057.497657035996,756.2575751322042L1394.9953140719922,757.5151502644086A675,675 0,0,0 1394.998629842636,756.360040647841L1057.499314921318,755.6800203239205A337.5,337.5 0,0,1 1057.497657035996,756.2575751322042Z" style="pointer-events: none; stroke-width: 1; fill: rgb(254, 203, 82); fill-opacity: 1; stroke: rgb(255, 255, 255); stroke-opacity: 1; opacity: 0.7;"/><g class="slicetext"><text data-notex="1" class="slicetext" text-anchor="middle" x="0" y="0" style="font-family: 'Open Sans', verdana, arial, sans-serif; font-size: 22px; fill: rgb(68, 68, 68); fill-opacity: 1; white-space: pre;" transform="translate(1394.4201579953328,756.7501526901086)scale(0.009358810285659118)"><tspan class="line" dy="0em" x="0" y="0">01</tspan><tspan class="line" dy="1.3em" x="0" y="0">0.04 ms</tspan><tspan class="line" dy="2.6em" x="0" y="0">19%</tspan></text></g></g><g class="slice"><path class="surface" d="M1057.499314921318,755.6800203239205L1394.998629842636,756.360040647841A675,675 0,0,0 1394.9999108061734,755.3470038302527L1057.4999554030867,755.1735019151264A337.5,337.5 0,0,1 1057.499314921318,755.6800203239205Z" style="pointer-events: none; stroke-width: 1; fill: rgb(254, 203, 82); fill-opacity: 1; stroke: rgb(255, 255, 255); stroke-opacity: 1; opacity: 0.7;"/><g class="slicetext"><text data-notex="1" class="slicetext" text-anchor="middle" x="0" y="0" style="font-family: 'Open Sans', verdana, arial, sans-serif; font-size: 22px; fill: rgb(68, 68, 68); fill-opacity: 1; white-space: pre;" transform="translate(1394.4933217664175,755.6899297644552)scale(0.008208558564980683)"><tspan class="line" dy="0em" x="0" y="0">04</tspan><tspan class="line" dy="1.3em" x="0" y="0">0.04 ms</tspan><tspan class="line" dy="2.6em" x="0" y="0">17%</tspan></text></g></g><g class="slice"><path class="surface" d="M1057.4999554030867,755.1735019151264L1394.9999108061734,755.3470038302527A675,675 0,0,0 1395,754.9999999999995L1057.5,754.9999999999998A337.5,337.5 0,0,1 1057.4999554030867,755.1735019151264Z" style="pointer-events: none; stroke-width: 1; fill: rgb(254, 203, 82); fill-opacity: 1; stroke: rgb(255, 255, 255); stroke-opacity: 1; opacity: 0.7;"/><g class="slicetext"><text data-notex="1" class="slicetext" text-anchor="middle" x="0" y="0" style="font-family: 'Open Sans', verdana, arial, sans-serif; font-size: 22px; fill: rgb(68, 68, 68); fill-opacity: 1; white-space: pre;" transform="translate(1394.8265203718681,755.1176123145317)scale(0.002813129740933352)"><tspan class="line" dy="0em" x="0" y="0">02</tspan><tspan class="line" dy="1.3em" x="0" y="0">0.01 ms</tspan><tspan class="line" dy="2.6em" x="0" y="0">6%</tspan></text></g></g></g></g><g class="glimages"/><defs id="topdefs-bb4867"><g class="clips"/></defs><g class="layer-above"><g class="imagelayer"/><g class="shapelayer"/></g><g class="infolayer"><g class="g-gtitle"><text class="gtitle" x="720" y="40" text-anchor="middle" dy="0em" style="opacity: 1; font-family: 'Open Sans', verdana, arial, sans-serif; font-size: 31px; fill: rgb(42, 63, 95); fill-opacity: 1; white-space: pre;">Total time: 152 ms</text></g></g></svg>