<svg class="main-svg" xmlns="http://www.w3.org/2000/svg" xmlns:xlink="http://www.w3.org/1999/xlink" width="1440" height="1440" style="" viewBox="0 0 1440 1440"><rect x="0" y="0" width="1440" height="1440" style="fill: rgb(255, 255, 255); fill-opacity: 1;"/><defs id="defs-9bbcab"><g class="clips"/><g class="gradients"/><g class="patterns"/></defs><g class="bglayer"/><g class="layer-below"><g class="imagelayer"/><g class="shapelayer"/></g><g class="cartesianlayer"/><g class="polarlayer"/><g class="smithlayer"/><g class="ternarylayer"/><g class="geolayer"/><g class="funnelarealayer"/><g class="pielayer"/><g class="iciclelayer"/><g class="treemaplayer"/><g class="sunburstlayer"><g class="trace sunburst" stroke-linejoin="round" style="opacity: 1;"><g class="slice cursor-pointer"><path class="surface" d="M720,755L1057.5,755A337.5,337.5 0,1,0 565.6238232319797,1055.1237179006166L720,755A0,0 0,1,1 720,755Z" style="pointer-events: none; stroke-width: 1; fill: rgb(99, 110, 250); fill-opacity: 1; stroke: rgb(255, 255, 255); stroke-opacity: 1;"/><g class="slicetext"><text data-notex="1" class="slicetext" text-anchor="middle" x="0" y="0" style="font-family: 'Open Sans', verdana, arial, sans-serif; font-size: 22px; fill: rgb(255, 255, 255); fill-opacity: 1; white-space: pre;" transform="translate(720,593.7625787438834)"><tspan class="line" dy="0em" x="0" y="0">2016</tspan><tspan class="line" dy="1.3em" x="0" y="0">334.27 ms</tspan><tspan class="line" dy="2.6em" x="0" y="0">67%</tspan></text></g></g><g class="slice cursor-pointer"><path class="surface" d="M720,755L565.6238232319797,1055.1237179006166A337.5,337.5 0,0,0 1041.1140951162358,858.8844931531219L720,755A0,0 0,0,1 720,755Z" style="pointer-events: none; stroke-width: 1; fill: rgb(239, 85, 59); fill-opacity: 1; stroke: rgb(255, 255, 255); stroke-opacity: 1;"/><g class="slicetext"><text data-notex="1" class="slicetext" text-anchor="middle" x="0" y="0" style="font-family: 'Open Sans', verdana, arial, sans-serif; font-size: 22px; fill: rgb(68, 68, 68); fill-opacity: 1; white-space: pre;" transform="translate(793.0705118519579,912.1992671285592)"><tspan class="line" dy="0em" x="0" y="0">2015</tspan><tspan class="line" dy="1.3em" x="0" y="0">136.71 ms</tspan><tspan class="line" dy="2.6em" x="0" y="0">28%</tspan></text></g></g><g class="slice cursor-pointer"><path class="surface" d="M720,755L1041.1140951162358,858.8844931531219A337.5,337.5 0,0,0 1054.209668323831,802.0122069134691L720,755A0,0 0,0,1 720,755Z" style="pointer-events: none; stroke-width: 1; fill: rgb(0, 204, 150); fill-opacity: 1; stroke: rgb(255, 255, 255); stroke-opacity: 1;"/><g class="slicetext"><text data-notex="1" class="slicetext" text-anchor="middle" x="0" y="0" style="font-family: 'Open Sans', verdana, arial, sans-serif; font-size: 22px; fill: rgb(68, 68, 68); fill-opacity: 1; white-space: pre;" transform="translate(1022.7202760398693,816.743730789374)scale(0.40105128741149537)"><tspan class="line" dy="0em" x="0" y="0">2019</tspan><tspan class="line" dy="1.3em" x="0" y="0">13.66 ms</tspan><tspan class="line" dy="2.6em" x="0" y="0">3%</tspan></text></g></g><g class="slice cursor-pointer"><path class="surface" d="M720,755L1054.209668323831,802.0122069134691A337.5,337.5 0,0,0 1057.0084454563923,773.2087256848434L720,755A0,0 0,0,1 720,755Z" style="pointer-events: none; stroke-width: 1; fill: rgb(171, 99, 250); fill-opacity: 1; stroke: rgb(255, 255, 255); stroke-opacity: 1;"/><g class="slicetext"><text data-notex="1" class="slicetext" text-anchor="middle" x="0" y="0" style="font-family: 'Open Sans', verdana, arial, sans-serif; font-size: 22px; fill: rgb(68, 68, 68); fill-opacity: 1; white-space: pre;" transform="translate(1042.1082393575994,781.8316177721817)scale(0.2250201146313366)"><tspan class="line" dy="0em" x="0" y="0">2024</tspan><tspan class="line" dy="1.3em" x="0" y="0">6.77 ms</tspan><tspan class="line" dy="2.6em" x="0" y="0">1%</tspan></text></g></g><g class="slice cursor-pointer"><path class="surface" d="M720,755L1057.0084454563923,773.2087256848434A337.5,337.5 0,0,0 1057.3934299204818,763.4807692158718L720,755A0,0 0,0,1 720,755Z" style="pointer-events: none; stroke-width: 1; fill: rgb(255, 161, 90); fill-opacity: 1; stroke: rgb(255, 255, 255); stroke-opacity: 1;"/><g class="slicetext"><text data-notex="1" class="slicetext" text-anchor="middle" x="0" y="0" style="font-family: 'Open Sans', verdana, arial, sans-serif; font-size: 22px; fill: rgb(68, 68, 68); fill-opacity: 1; white-space: pre;" transform="translate(1052.4411940743225,766.6114669818232)scale(0.07782326090848217)"><tspan class="line" dy="0em" x="0" y="0">2018</tspan><tspan class="line" dy="1.3em" x="0" y="0">2.28 ms</tspan><tspan class="line" dy="2.6em" x="0" y="0">0.459%</tspan></text></g></g><g class="slice cursor-pointer"><path class="surface" d="M720,755L1057.3934299204818,763.4807692158718A337.5,337.5 0,0,0 1057.4509743460208,760.7523832383856L720,755A0,0 0,0,1 720,755Z" style="pointer-events: none; stroke-width: 1; fill: rgb(25, 211, 243); fill-opacity: 1; stroke: rgb(255, 255, 255); stroke-opacity: 1;"/><g class="slicetext"><text data-notex="1" class="slicetext" text-anchor="middle" x="0" y="0" style="font-family: 'Open Sans', verdana, arial, sans-serif; font-size: 22px; fill: rgb(68, 68, 68); fill-opacity: 1; white-space: pre;" transform="translate(1056.0662599977982,761.6504439591605)scale(0.02204028393519233)"><tspan class="line" dy="0em" x="0" y="0">2017</tspan><tspan class="line" dy="1.3em" x="0" y="0">0.64 ms</tspan><tspan class="line" dy="2.6em" x="0" y="0">0.129%</tspan></text></g></g><g class="slice cursor-pointer"><path class="surface" d="M720,755L1057.4509743460208,760.7523832383856A337.5,337.5 0,0,0 1057.4810184652072,758.579409963455L720,755A0,0 0,0,1 720,755Z" style="pointer-events: none; stroke-width: 1; fill: rgb(255, 102, 146); fill-opacity: 1; stroke: rgb(255, 255, 255); stroke-opacity: 1;"/><g class="slicetext"><text data-notex="1" class="slicetext" text-anchor="middle" x="0" y="0" style="font-family: 'Open Sans', verdana, arial, sans-serif; font-size: 22px; fill: rgb(68, 68, 68); fill-opacity: 1; white-space: pre;" transform="translate(1056.384745507175,759.3022390962532)scale(0.017565762686187106)"><tspan class="line" dy="0em" x="0" y="0">2023</tspan><tspan class="line" dy="1.3em" x="0" y="0">0.51 ms</tspan><tspan class="line" dy="2.6em" x="0" y="0">0.102%</tspan></text></g></g><g class="slice cursor-pointer"><path class="surface" d="M720,755L1057.4810184652072,758.579409963455A337.5,337.5 0,0,0 1057.4942476555734,756.9704820218841L720,755A0,0 0,0,1 720,755Z" style="pointer-events: none; stroke-width: 1; fill: rgb(182, 232, 128); fill-opacity: 1; stroke: rgb(255, 255, 255); stroke-opacity: 1;"/><g class="slicetext"><text data-notex="1" class="slicetext" text-anchor="middle" x="0" y="0" style="font-family: 'Open Sans', verdana, arial, sans-serif; font-size: 22px; fill: rgb(68, 68, 68); fill-opacity: 1; white-space: pre;" transform="translate(1056.686040904966,757.5263276752679)scale(0.012191853176707226)"><tspan class="line" dy="0em" x="0" y="0">2021</tspan><tspan class="line" dy="1.3em" x="0" y="0">0.38 ms</tspan><tspan class="line" dy="2.6em" x="0" y="0">0.0759%</tspan></text></g></g><g class="slice cursor-pointer"><path class="surface" d="M720,755L1057.4942476555734,756.9704820218841A337.5,337.5 0,0,0 1057.4987421683913,755.9214308187592L720,755A0,0 0,0,1 720,755Z" style="pointer-events: none; stroke-width: 1; fill: rgb(255, 151, 255); fill-opacity: 1; stroke: rgb(255, 255, 255); stroke-opacity: 1;"/><g class="slicetext"><text data-notex="1" class="slicetext" text-anchor="middle" x="0" y="0" style="font-family: 'Open Sans', verdana, arial, sans-serif; font-size: 22px; fill: rgb(68, 68, 68); fill-opacity: 1; white-space: pre;" transform="translate(1056.9731908440424,756.2857812238263)scale(0.007955704926280309)"><tspan class="line" dy="0em" x="0" y="0">2020</tspan><tspan class="line" dy="1.3em" x="0" y="0">0.25 ms</tspan><tspan class="line" dy="2.6em" x="0" y="0">0.0495%</tspan></text></g></g><g class="slice cursor-pointer"><path class="surface" d="M720,755L1057.4987421683913,755.9214308187592A337.5,337.5 0,0,0 1057.5,754.9999999999998L720,755A0,0 0,0,1 720,755Z" style="pointer-events: none; stroke-width: 1; fill: rgb(254, 203, 82); fill-opacity: 1; stroke: rgb(255, 255, 255); stroke-opacity: 1;"/><g class="slicetext"><text data-notex="1" class="slicetext" text-anchor="middle" x="0" y="0" style="font-family: 'Open Sans', verdana, arial, sans-serif; font-size: 22px; fill: rgb(68, 68, 68); fill-opacity: 1; white-space: pre;" transform="translate(1057.0395981904383,755.3213426254506)scale(0.006989130187542678)"><tspan class="line" dy="0em" x="0" y="0">2022</tspan><tspan class="line" dy="1.3em" x="0" y="0">0.22 ms</tspan><tspan class="line" dy="2.6em" x="0" y="0">0.0435%</tspan></text></g></g><g class="slice"><path class="surface" d="M1057.5,755L1395,755A675,675 0,1,0 406.69030569223986,1352.881288762893L563.34515284612,1053.9406443814464A337.5,337.5 0,1,1 1057.5,755Z" style="pointer-events: none; stroke-width: 1; fill: rgb(99, 110, 250); fill-opacity: 1; stroke: rgb(255, 255, 255); stroke-opacity: 1; opacity: 0.7;"/><g class="slicetext"><text data-notex="1" class="slicetext" text-anchor="middle" x="0" y="0" style="font-family: 'Open Sans', verdana, arial, sans-serif; font-size: 22px; fill: rgb(255, 255, 255); fill-opacity: 1; white-space: pre;" transform="translate(720,245.69532006184727)"><tspan class="line" dy="0em" x="0" y="0">05</tspan><tspan class="line" dy="1.3em" x="0" y="0">333.67 ms</tspan><tspan class="line" dy="2.6em" x="0" y="0">100%</tspan></text></g></g><g class="slice"><path class="surface" d="M563.34515284612,1053.9406443814464L406.69030569223986,1352.881288762893A675,675 0,0,0 410.23736548143404,1354.7266963010045L565.1186827407171,1054.8633481505021A337.5,337.5 0,0,1 563.34515284612,1053.9406443814464Z" style="pointer-events: none; stroke-width: 1; fill: rgb(99, 110, 250); fill-opacity: 1; stroke: rgb(255, 255, 255); stroke-opacity: 1; opacity: 0.7;"/><g class="slicetext"><text data-notex="1" class="slicetext" text-anchor="middle" x="0" y="0" style="font-family: 'Open Sans', verdana, arial, sans-serif; font-size: 22px; fill: rgb(255, 255, 255); fill-opacity: 1; white-space: pre;" transform="translate(409.3824481629543,1351.3965804277848)scale(0.03232722340418272)"><tspan class="line" dy="0em" x="0" y="0">04</tspan><tspan class="line" dy="1.3em" x="0" y="0">0.47 ms</tspan><tspan class="line" dy="2.6em" x="0" y="0">0.14%</tspan></text></g></g><g class="slice"><path class="surface" d="M565.1186827407171,1054.8633481505021L410.23736548143404,1354.7266963010045A675,675 0,0,0 410.6863098643904,1354.9583661344277L565.3431549321951,1054.9791830672139A337.5,337.5 0,0,1 565.1186827407171,1054.8633481505021Z" style="pointer-events: none; stroke-width: 1; fill: rgb(99, 110, 250); fill-opacity: 1; stroke: rgb(255, 255, 255); stroke-opacity: 1; opacity: 0.7;"/><g class="slicetext"><text data-notex="1" class="slicetext" text-anchor="middle" x="0" y="0" style="font-family: 'Open Sans', verdana, arial, sans-serif; font-size: 22px; fill: rgb(255, 255, 255); fill-opacity: 1; white-space: pre;" transform="translate(410.5776075844843,1354.5420395977926)scale(0.0038357383453155418)"><tspan class="line" dy="0em" x="0" y="0">03</tspan><tspan class="line" dy="1.3em" x="0" y="0">0.06 ms</tspan><tspan class="line" dy="2.6em" x="0" y="0">0.0177%</tspan></text></g></g><g class="slice"><path class="surface" d="M565.3431549321951,1054.9791830672139L410.6863098643904,1354.9583661344277A675,675 0,0,0 411.11608759116876,1355.179746955038L565.5580437955844,1055.089873477519A337.5,337.5 0,0,1 565.3431549321951,1054.9791830672139Z" style="pointer-events: none; stroke-width: 1; fill: rgb(99, 110, 250); fill-opacity: 1; stroke: rgb(255, 255, 255); stroke-opacity: 1; opacity: 0.7;"/><g class="slicetext"><text data-notex="1" class="slicetext" text-anchor="middle" x="0" y="0" style="font-family: 'Open Sans', verdana, arial, sans-serif; font-size: 22px; fill: rgb(255, 255, 255); fill-opacity: 1; white-space: pre;" transform="translate(411.01182969378,1354.78141488176)scale(0.0036706532195444853)"><tspan class="line" dy="0em" x="0" y="0">01</tspan><tspan class="line" dy="1.3em" x="0" y="0">0.06 ms</tspan><tspan class="line" dy="2.6em" x="0" y="0">0.0169%</tspan></text></g></g><g class="slice"><path class="surface" d="M565.5580437955844,1055.089873477519L411.11608759116876,1355.179746955038A675,675 0,0,0 411.24764646395994,1355.2474358012337L565.6238232319799,1055.1237179006168A337.5,337.5 0,0,1 565.5580437955844,1055.089873477519Z" style="pointer-events: none; stroke-width: 1; fill: rgb(99, 110, 250); fill-opacity: 1; stroke: rgb(255, 255, 255); stroke-opacity: 1; opacity: 0.7;"/><g class="slicetext"><text data-notex="1" class="slicetext" text-anchor="middle" x="0" y="0" style="font-family: 'Open Sans', verdana, arial, sans-serif; font-size: 22px; fill: rgb(255, 255, 255); fill-opacity: 1; white-space: pre;" transform="translate(411.2157058873816,1355.1272490445328)scale(0.0010363773583806973)"><tspan class="line" dy="0em" x="0" y="0">02</tspan><tspan class="line" dy="1.3em" x="0" y="0">0.02 ms</tspan><tspan class="line" dy="2.6em" x="0" y="0">0.00517%</tspan></text></g></g><g class="slice"><path class="surface" d="M565.6238232319797,1055.1237179006166L411.2476464639594,1355.2474358012332A675,675 0,0,0 1327.3426914782474,1049.550259052608L1023.6713457391237,902.275129526304A337.5,337.5 0,0,1 565.6238232319797,1055.1237179006166Z" style="pointer-events: none; stroke-width: 1; fill: rgb(239, 85, 59); fill-opacity: 1; stroke: rgb(255, 255, 255); stroke-opacity: 1; opacity: 0.7;"/><g class="slicetext"><text data-notex="1" class="slicetext" text-anchor="middle" x="0" y="0" style="font-family: 'Open Sans', verdana, arial, sans-serif; font-size: 22px; fill: rgb(68, 68, 68); fill-opacity: 1; white-space: pre;" transform="translate(880.2470058252209,1215.3670956381982)"><tspan class="line" dy="0em" x="0" y="0">04</tspan><tspan class="line" dy="1.3em" x="0" y="0">125.77 ms</tspan><tspan class="line" dy="2.6em" x="0" y="0">92%</tspan></text></g></g><g class="slice"><path class="surface" d="M1023.6713457391237,902.275129526304L1327.3426914782474,1049.550259052608A675,675 0,0,0 1360.8495093243732,966.9832691480867L1040.4247546621866,860.9916345740434A337.5,337.5 0,0,1 1023.6713457391237,902.275129526304Z" style="pointer-events: none; stroke-width: 1; fill: rgb(239, 85, 59); fill-opacity: 1; stroke: rgb(255, 255, 255); stroke-opacity: 1; opacity: 0.7;"/><g class="slicetext"><text data-notex="1" class="slicetext" text-anchor="middle" x="0" y="0" style="font-family: 'Open Sans', verdana, arial, sans-serif; font-size: 22px; fill: rgb(68, 68, 68); fill-opacity: 1; white-space: pre;" transform="translate(1306.7327470005177,980.7150790437524)scale(0.6240880728823004)"><tspan class="line" dy="0em" x="0" y="0">06</tspan><tspan class="line" dy="1.3em" x="0" y="0">10.42 ms</tspan><tspan class="line" dy="2.6em" x="0" y="0">8%</tspan></text></g></g><g class="slice"><path class="surface" d="M1040.4247546621866,860.9916345740434L1360.8495093243732,966.9832691480867A675,675 0,0,0 1361.9115055340646,963.7453450091533L1040.9557527670322,859.3726725045767A337.5,337.5 0,0,1 1040.4247546621866,860.9916345740434Z" style="pointer-events: none; stroke-width: 1; fill: rgb(239, 85, 59); fill-opacity: 1; stroke: rgb(255, 255, 255); stroke-opacity: 1; opacity: 0.7;"/><g class="slicetext"><text data-notex="1" class="slicetext" text-anchor="middle" x="0" y="0" style="font-family: 'Open Sans', verdana, arial, sans-serif; font-size: 22px; fill: rgb(68, 68, 68); fill-opacity: 1; white-space: pre;" transform="translate(1359.767664890217,964.2881486677402)scale(0.02756294024375327)"><tspan class="line" dy="0em" x="0" y="0">03</tspan><tspan class="line" dy="1.3em" x="0" y="0">0.40 ms</tspan><tspan class="line" dy="2.6em" x="0" y="0">0.291%</tspan></text></g></g><g class="slice"><path class="surface" d="M1040.9557527670322,859.3726725045767L1361.9115055340646,963.7453450091533A675,675 0,0,0 1362.1067068144876,963.1441257010483L1041.0533534072438,859.0720628505242A337.5,337.5 0,0,1 1040.9557527670322,859.3726725045767Z" style="pointer-events: none; stroke-width: 1; fill: rgb(239, 85, 59); fill-opacity: 1; stroke: rgb(255, 255, 255); stroke-opacity: 1; opacity: 0.7;"/><g class="slicetext"><text data-notex="1" class="slicetext" text-anchor="middle" x="0" y="0" style="font-family: 'Open Sans', verdana, arial, sans-serif; font-size: 22px; fill: rgb(68, 68, 68); fill-opacity: 1; white-space: pre;" transform="translate(1361.7087075872316,963.2454955171471)scale(0.005123411623848845)"><tspan class="line" dy="0em" x="0" y="0">05</tspan><tspan class="line" dy="1.3em" x="0" y="0">0.07 ms</tspan><tspan class="line" dy="2.6em" x="0" y="0">0.054%</tspan></text></g></g><g class="slice"><path class="surface" d="M1041.0533534072438,859.0720628505242L1362.1067068144876,963.1441257010483A675,675 0,0,0 1362.1824132092727,962.9104330347925L1041.0912066046362,858.9552165173963A337.5,337.5 0,0,1 1041.0533534072438,859.0720628505242Z" style="pointer-events: none; stroke-width: 1; fill: rgb(239, 85, 59); fill-opacity: 1; stroke: rgb(255, 255, 255); stroke-opacity: 1; opacity: 0.7;"/><g class="slicetext"><text data-notex="1" class="slicetext" text-anchor="middle" x="0" y="0" style="font-family: 'Open Sans', verdana, arial, sans-serif; font-size: 22px; fill: rgb(68, 68, 68); fill-opacity: 1; white-space: pre;" transform="translate(1362.0277455673881,962.9498999469846)scale(0.001991609179012103)"><tspan class="line" dy="0em" x="0" y="0">02</tspan><tspan class="line" dy="1.3em" x="0" y="0">0.03 ms</tspan><tspan class="line" dy="2.6em" x="0" y="0">0.021%</tspan></text></g></g><g class="slice"><path class="surface" d="M1041.0912066046362,858.9552165173963L1362.1824132092727,962.9104330347925A675,675 0,0,0 1362.228190232472,962.768986306243L1041.114095116236,858.8844931531215A337.5,337.5 0,0,1 1041.0912066046362,858.9552165173963Z" style="pointer-events: none; stroke-width: 1; fill: rgb(239, 85, 59); fill-opacity: 1; stroke: rgb(255, 255, 255); stroke-opacity: 1; opacity: 0.7;"/><g class="slicetext"><text data-notex="1" class="slicetext" text-anchor="middle" x="0" y="0" style="font-family: 'Open Sans', verdana, arial, sans-serif; font-size: 22px; fill: rgb(68, 68, 68); fill-opacity: 1; white-space: pre;" transform="translate(1362.1345900384392,962.7944107986535)scale(0.001129086987978597)"><tspan class="line" dy="0em" x="0" y="0">01</tspan><tspan class="line" dy="1.3em" x="0" y="0">0.02 ms</tspan><tspan class="line" dy="2.6em" x="0" y="0">0.0127%</tspan></text></g></g><g class="slice"><path class="surface" d="M1041.1140951162358,858.8844931531219L1362.2281902324717,962.7689863062436A675,675 0,0,0 1383.6928670465036,878.03161476463L1051.8464335232518,816.515807382315A337.5,337.5 0,0,1 1041.1140951162358,858.8844931531219Z" style="pointer-events: none; stroke-width: 1; fill: rgb(0, 204, 150); fill-opacity: 1; stroke: rgb(255, 255, 255); stroke-opacity: 1; opacity: 0.7;"/><g class="slicetext"><text data-notex="1" class="slicetext" text-anchor="middle" x="0" y="0" style="font-family: 'Open Sans', verdana, arial, sans-serif; font-size: 22px; fill: rgb(68, 68, 68); fill-opacity: 1; white-space: pre;" transform="translate(1334.541563158682,898.5004183319489)scale(0.6129512778621249)"><tspan class="line" dy="0em" x="0" y="0">03</tspan><tspan class="line" dy="1.3em" x="0" y="0">10.22 ms</tspan><tspan class="line" dy="2.6em" x="0" y="0">75%</tspan></text></g></g><g class="slice"><path class="surface" d="M1051.8464335232518,816.515807382315L1383.6928670465036,878.03161476463A675,675 0,0,0 1387.0202180378587,858.4844371329693L1053.5101090189294,806.7422185664847A337.5,337.5 0,0,1 1051.8464335232518,816.515807382315Z" style="pointer-events: none; stroke-width: 1; fill: rgb(0, 204, 150); fill-opacity: 1; stroke: rgb(255, 255, 255); stroke-opacity: 1; opacity: 0.7;"/><g class="slicetext"><text data-notex="1" class="slicetext" text-anchor="middle" x="0" y="0" style="font-family: 'Open Sans', verdana, arial, sans-serif; font-size: 22px; fill: rgb(68, 68, 68); fill-opacity: 1; white-space: pre;" transform="translate(1375.796206494771,863.484960386644)scale(0.1584605889100277)"><tspan class="line" dy="0em" x="0" y="0">02</tspan><tspan class="line" dy="1.3em" x="0" y="0">2.32 ms</tspan><tspan class="line" dy="2.6em" x="0" y="0">17%</tspan></text></g></g><g class="slice"><path class="surface" d="M1053.5101090189294,806.7422185664847L1387.0202180378587,858.4844371329693A675,675 0,0,0 1388.4162564547896,849.046308311198L1054.2081282273948,802.023154155599A337.5,337.5 0,0,1 1053.5101090189294,806.7422185664847Z" style="pointer-events: none; stroke-width: 1; fill: rgb(0, 204, 150); fill-opacity: 1; stroke: rgb(255, 255, 255); stroke-opacity: 1; opacity: 0.7;"/><g class="slicetext"><text data-notex="1" class="slicetext" text-anchor="middle" x="0" y="0" style="font-family: 'Open Sans', verdana, arial, sans-serif; font-size: 22px; fill: rgb(68, 68, 68); fill-opacity: 1; white-space: pre;" transform="translate(1383.0489653670838,851.5496516526052)scale(0.0768235200946239)"><tspan class="line" dy="0em" x="0" y="0">04</tspan><tspan class="line" dy="1.3em" x="0" y="0">1.12 ms</tspan><tspan class="line" dy="2.6em" x="0" y="0">8%</tspan></text></g></g><g class="slice"><path class="surface" d="M1054.2081282273948,802.023154155599L1388.4162564547896,849.046308311198A675,675 0,0,0 1388.419336647662,849.024413826938L1054.209668323831,802.0122069134691A337.5,337.5 0,0,1 1054.2081282273948,802.023154155599Z" style="pointer-events: none; stroke-width: 1; fill: rgb(0, 204, 150); fill-opacity: 1; stroke: rgb(255, 255, 255); stroke-opacity: 1; opacity: 0.7;"/><g class="slicetext"><text data-notex="1" class="slicetext" text-anchor="middle" x="0" y="0" style="font-family: 'Open Sans', verdana, arial, sans-serif; font-size: 22px; fill: rgb(68, 68, 68); fill-opacity: 1; white-space: pre;" transform="translate(1388.4068495780311,849.0304872798283)scale(0.00016793290898200306)"><tspan class="line" dy="0em" x="0" y="0">01</tspan><tspan class="line" dy="1.3em" x="0" y="0">0.00 ms</tspan><tspan class="line" dy="2.6em" x="0" y="0">0.0189%</tspan></text></g></g><g class="slice"><path class="surface" d="M1054.209668323831,802.0122069134691L1388.419336647662,849.024413826938A675,675 0,0,0 1393.8650677990013,794.1263389578844L1056.9325338995006,774.5631694789422A337.5,337.5 0,0,1 1054.209668323831,802.0122069134691Z" style="pointer-events: none; stroke-width: 1; fill: rgb(171, 99, 250); fill-opacity: 1; stroke: rgb(255, 255, 255); stroke-opacity: 1; opacity: 0.7;"/><g class="slicetext"><text data-notex="1" class="slicetext" text-anchor="middle" x="0" y="0" style="font-family: 'Open Sans', verdana, arial, sans-serif; font-size: 22px; fill: rgb(68, 68, 68); fill-opacity: 1; white-space: pre;" transform="translate(1365.331910852092,810.4830691852194)scale(0.4297898731296655)"><tspan class="line" dy="0em" x="0" y="0">04</tspan><tspan class="line" dy="1.3em" x="0" y="0">6.45 ms</tspan><tspan class="line" dy="2.6em" x="0" y="0">95%</tspan></text></g></g><g class="slice"><path class="surface" d="M1056.9325338995006,774.5631694789422L1393.8650677990013,794.1263389578844A675,675 0,0,0 1393.939984770694,792.8139779351026L1056.969992385347,773.9069889675513A337.5,337.5 0,0,1 1056.9325338995006,774.5631694789422Z" style="pointer-events: none; stroke-width: 1; fill: rgb(171, 99, 250); fill-opacity: 1; stroke: rgb(255, 255, 255); stroke-opacity: 1; opacity: 0.7;"/><g class="slicetext"><text data-notex="1" class="slicetext" text-anchor="middle" x="0" y="0" style="font-family: 'Open Sans', verdana, arial, sans-serif; font-size: 22px; fill: rgb(68, 68, 68); fill-opacity: 1; white-space: pre;" transform="translate(1393.247303538376,793.2213575818646)scale(0.010648887381428227)"><tspan class="line" dy="0em" x="0" y="0">01</tspan><tspan class="line" dy="1.3em" x="0" y="0">0.15 ms</tspan><tspan class="line" dy="2.6em" x="0" y="0">2%</tspan></text></g></g><g class="slice"><path class="surface" d="M1056.969992385347,773.9069889675513L1393.939984770694,792.8139779351026A675,675 0,0,0 1393.9934787410057,791.8482104666904L1056.9967393705028,773.4241052333452A337.5,337.5 0,0,1 1056.969992385347,773.9069889675513Z" style="pointer-events: none; stroke-width: 1; fill: rgb(171, 99, 250); fill-opacity: 1; stroke: rgb(255, 255, 255); stroke-opacity: 1; opacity: 0.7;"/><g class="slicetext"><text data-notex="1" class="slicetext" text-anchor="middle" x="0" y="0" style="font-family: 'Open Sans', verdana, arial, sans-serif; font-size: 22px; fill: rgb(68, 68, 68); fill-opacity: 1; white-space: pre;" transform="translate(1393.4843667386858,792.1487834996121)scale(0.007837793520020786)"><tspan class="line" dy="0em" x="0" y="0">02</tspan><tspan class="line" dy="1.3em" x="0" y="0">0.11 ms</tspan><tspan class="line" dy="2.6em" x="0" y="0">2%</tspan></text></g></g><g class="slice"><path class="surface" d="M1056.9967393705028,773.4241052333452L1393.9934787410057,791.8482104666904A675,675 0,0,0 1394.0168909127847,791.4174513696869L1057.0084454563923,773.2087256848434A337.5,337.5 0,0,1 1056.9967393705028,773.4241052333452Z" style="pointer-events: none; stroke-width: 1; fill: rgb(171, 99, 250); fill-opacity: 1; stroke: rgb(255, 255, 255); stroke-opacity: 1; opacity: 0.7;"/><g class="slicetext"><text data-notex="1" class="slicetext" text-anchor="middle" x="0" y="0" style="font-family: 'Open Sans', verdana, arial, sans-serif; font-size: 22px; fill: rgb(68, 68, 68); fill-opacity: 1; white-space: pre;" transform="translate(1393.7899084937762,791.5517083008732)scale(0.003497061819778284)"><tspan class="line" dy="0em" x="0" y="0">03</tspan><tspan class="line" dy="1.3em" x="0" y="0">0.05 ms</tspan><tspan class="line" dy="2.6em" x="0" y="0">1%</tspan></text></g></g><g class="slice"><path class="surface" d="M1057.0084454563923,773.2087256848434L1394.0168909127847,791.4174513696869A675,675 0,0,0 1394.4277612629512,782.7883939414193L1057.2138806314756,768.8941969707096A337.5,337.5 0,0,1 1057.0084454563923,773.2087256848434Z" style="pointer-events: none; stroke-width: 1; fill: rgb(255, 161, 90); fill-opacity: 1; stroke: rgb(255, 255, 255); stroke-opacity: 1; opacity: 0.7;"/><g class="slicetext"><text data-notex="1" class="slicetext" text-anchor="middle" x="0" y="0" style="font-family: 'Open Sans', verdana, arial, sans-serif; font-size: 22px; fill: rgb(68, 68, 68); fill-opacity: 1; white-space: pre;" transform="translate(1389.9490358472403,785.5176464003728)scale(0.06960684527513443)"><tspan class="line" dy="0em" x="0" y="0">01</tspan><tspan class="line" dy="1.3em" x="0" y="0">1.01 ms</tspan><tspan class="line" dy="2.6em" x="0" y="0">44%</tspan></text></g></g><g class="slice"><path class="surface" d="M1057.2138806314756,768.8941969707096L1394.4277612629512,782.7883939414193A675,675 0,0,0 1394.6158501284447,777.7696015660331L1057.3079250642222,766.3848007830165A337.5,337.5 0,0,1 1057.2138806314756,768.8941969707096Z" style="pointer-events: none; stroke-width: 1; fill: rgb(255, 161, 90); fill-opacity: 1; stroke: rgb(255, 255, 255); stroke-opacity: 1; opacity: 0.7;"/><g class="slicetext"><text data-notex="1" class="slicetext" text-anchor="middle" x="0" y="0" style="font-family: 'Open Sans', verdana, arial, sans-serif; font-size: 22px; fill: rgb(68, 68, 68); fill-opacity: 1; white-space: pre;" transform="translate(1392.0263782332727,779.3799998787763)scale(0.040574989850845795)"><tspan class="line" dy="0em" x="0" y="0">02</tspan><tspan class="line" dy="1.3em" x="0" y="0">0.59 ms</tspan><tspan class="line" dy="2.6em" x="0" y="0">26%</tspan></text></g></g><g class="slice"><path class="surface" d="M1057.3079250642222,766.3848007830165L1394.6158501284447,777.7696015660331A675,675 0,0,0 1394.742684239046,773.6362567563152L1057.371342119523,764.3181283781576A337.5,337.5 0,0,1 1057.3079250642222,766.3848007830165Z" style="pointer-events: none; stroke-width: 1; fill: rgb(255, 161, 90); fill-opacity: 1; stroke: rgb(255, 255, 255); stroke-opacity: 1; opacity: 0.7;"/><g class="slicetext"><text data-notex="1" class="slicetext" text-anchor="middle" x="0" y="0" style="font-family: 'Open Sans', verdana, arial, sans-serif; font-size: 22px; fill: rgb(68, 68, 68); fill-opacity: 1; white-space: pre;" transform="translate(1392.6220713320804,774.9761522703752)scale(0.0334306495568351)"><tspan class="line" dy="0em" x="0" y="0">03</tspan><tspan class="line" dy="1.3em" x="0" y="0">0.48 ms</tspan><tspan class="line" dy="2.6em" x="0" y="0">21%</tspan></text></g></g><g class="slice"><path class="surface" d="M1057.371342119523,764.3181283781576L1394.742684239046,773.6362567563152A675,675 0,0,0 1394.7868598409636,771.9615384317442L1057.3934299204818,763.4807692158721A337.5,337.5 0,0,1 1057.371342119523,764.3181283781576Z" style="pointer-events: none; stroke-width: 1; fill: rgb(255, 161, 90); fill-opacity: 1; stroke: rgb(255, 255, 255); stroke-opacity: 1; opacity: 0.7;"/><g class="slicetext"><text data-notex="1" class="slicetext" text-anchor="middle" x="0" y="0" style="font-family: 'Open Sans', verdana, arial, sans-serif; font-size: 22px; fill: rgb(68, 68, 68); fill-opacity: 1; white-space: pre;" transform="translate(1393.9289702883475,772.5075014872649)scale(0.013568170619984454)"><tspan class="line" dy="0em" x="0" y="0">04</tspan><tspan class="line" dy="1.3em" x="0" y="0">0.20 ms</tspan><tspan class="line" dy="2.6em" x="0" y="0">9%</tspan></text></g></g><g class="slice"><path class="surface" d="M1057.3934299204818,763.4807692158718L1394.7868598409636,771.9615384317435A675,675 0,0,0 1394.8590057937836,768.7957348128247L1057.4295028968918,761.8978674064124A337.5,337.5 0,0,1 1057.3934299204818,763.4807692158718Z" style="pointer-events: none; stroke-width: 1; fill: rgb(25, 211, 243); fill-opacity: 1; stroke: rgb(255, 255, 255); stroke-opacity: 1; opacity: 0.7;"/><g class="slicetext"><text data-notex="1" class="slicetext" text-anchor="middle" x="0" y="0" style="font-family: 'Open Sans', verdana, arial, sans-serif; font-size: 22px; fill: rgb(68, 68, 68); fill-opacity: 1; white-space: pre;" transform="translate(1393.2455917186917,769.8341317750989)scale(0.025618063797778846)"><tspan class="line" dy="0em" x="0" y="0">04</tspan><tspan class="line" dy="1.3em" x="0" y="0">0.37 ms</tspan><tspan class="line" dy="2.6em" x="0" y="0">58%</tspan></text></g></g><g class="slice"><path class="surface" d="M1057.4295028968918,761.8978674064124L1394.8590057937836,768.7957348128247A675,675 0,0,0 1394.8970645706552,766.7878002151715L1057.4485322853275,760.8939001075858A337.5,337.5 0,0,1 1057.4295028968918,761.8978674064124Z" style="pointer-events: none; stroke-width: 1; fill: rgb(25, 211, 243); fill-opacity: 1; stroke: rgb(255, 255, 255); stroke-opacity: 1; opacity: 0.7;"/><g class="slicetext"><text data-notex="1" class="slicetext" text-anchor="middle" x="0" y="0" style="font-family: 'Open Sans', verdana, arial, sans-serif; font-size: 22px; fill: rgb(68, 68, 68); fill-opacity: 1; white-space: pre;" transform="translate(1393.87630595725,767.4499729359479)scale(0.016261068139859544)"><tspan class="line" dy="0em" x="0" y="0">03</tspan><tspan class="line" dy="1.3em" x="0" y="0">0.23 ms</tspan><tspan class="line" dy="2.6em" x="0" y="0">37%</tspan></text></g></g><g class="slice"><path class="surface" d="M1057.4485322853275,760.8939001075858L1394.8970645706552,766.7878002151715A675,675 0,0,0 1394.9016264164025,766.5236565592102L1057.4508132082012,760.7618282796051A337.5,337.5 0,0,1 1057.4485322853275,760.8939001075858Z" style="pointer-events: none; stroke-width: 1; fill: rgb(25, 211, 243); fill-opacity: 1; stroke: rgb(255, 255, 255); stroke-opacity: 1; opacity: 0.7;"/><g class="slicetext"><text data-notex="1" class="slicetext" text-anchor="middle" x="0" y="0" style="font-family: 'Open Sans', verdana, arial, sans-serif; font-size: 22px; fill: rgb(68, 68, 68); fill-opacity: 1; white-space: pre;" transform="translate(1394.7673124284224,766.6109292598366)scale(0.0021418401663802935)"><tspan class="line" dy="0em" x="0" y="0">02</tspan><tspan class="line" dy="1.3em" x="0" y="0">0.03 ms</tspan><tspan class="line" dy="2.6em" x="0" y="0">5%</tspan></text></g></g><g class="slice"><path class="surface" d="M1057.4508132082012,760.7618282796051L1394.9016264164025,766.5236565592102A675,675 0,0,0 1394.9019486920415,766.5047664767707L1057.4509743460208,760.7523832383853A337.5,337.5 0,0,1 1057.4508132082012,760.7618282796051Z" style="pointer-events: none; stroke-width: 1; fill: rgb(25, 211, 243); fill-opacity: 1; stroke: rgb(255, 255, 255); stroke-opacity: 1; opacity: 0.7;"/><g class="slicetext"><text data-notex="1" class="slicetext" text-anchor="middle" x="0" y="0" style="font-family: 'Open Sans', verdana, arial, sans-serif; font-size: 22px; fill: rgb(68, 68, 68); fill-opacity: 1; white-space: pre;" transform="translate(1394.892342711271,766.511009129077)scale(0.0001531997532379282)"><tspan class="line" dy="0em" x="0" y="0">01</tspan><tspan class="line" dy="1.3em" x="0" y="0">0.00 ms</tspan><tspan class="line" dy="2.6em" x="0" y="0">0.346%</tspan></text></g></g><g class="slice"><path class="surface" d="M1057.4509743460208,760.7523832383856L1394.9019486920415,766.5047664767712A675,675 0,0,0 1394.9420969723526,763.841138759426L1057.4710484861762,759.420569379713A337.5,337.5 0,0,1 1057.4509743460208,760.7523832383856Z" style="pointer-events: none; stroke-width: 1; fill: rgb(255, 102, 146); fill-opacity: 1; stroke: rgb(255, 255, 255); stroke-opacity: 1; opacity: 0.7;"/><g class="slicetext"><text data-notex="1" class="slicetext" text-anchor="middle" x="0" y="0" style="font-family: 'Open Sans', verdana, arial, sans-serif; font-size: 22px; fill: rgb(68, 68, 68); fill-opacity: 1; white-space: pre;" transform="translate(1393.5941458649863,764.7249528616896)scale(0.021559257925436746)"><tspan class="line" dy="0em" x="0" y="0">01</tspan><tspan class="line" dy="1.3em" x="0" y="0">0.31 ms</tspan><tspan class="line" dy="2.6em" x="0" y="0">61%</tspan></text></g></g><g class="slice"><path class="surface" d="M1057.4710484861762,759.420569379713L1394.9420969723526,763.841138759426A675,675 0,0,0 1394.9514369001854,763.0967787653517L1057.4757184500927,759.0483893826759A337.5,337.5 0,0,1 1057.4710484861762,759.420569379713Z" style="pointer-events: none; stroke-width: 1; fill: rgb(255, 102, 146); fill-opacity: 1; stroke: rgb(255, 255, 255); stroke-opacity: 1; opacity: 0.7;"/><g class="slicetext"><text data-notex="1" class="slicetext" text-anchor="middle" x="0" y="0" style="font-family: 'Open Sans', verdana, arial, sans-serif; font-size: 22px; fill: rgb(68, 68, 68); fill-opacity: 1; white-space: pre;" transform="translate(1394.5748946680328,763.344524993422)scale(0.006033160679770329)"><tspan class="line" dy="0em" x="0" y="0">03</tspan><tspan class="line" dy="1.3em" x="0" y="0">0.09 ms</tspan><tspan class="line" dy="2.6em" x="0" y="0">17%</tspan></text></g></g><g class="slice"><path class="surface" d="M1057.4757184500927,759.0483893826759L1394.9514369001854,763.0967787653517A675,675 0,0,0 1394.9591323835898,762.4276249226467L1057.479566191795,758.7138124613233A337.5,337.5 0,0,1 1057.4757184500927,759.0483893826759Z" style="pointer-events: none; stroke-width: 1; fill: rgb(255, 102, 146); fill-opacity: 1; stroke: rgb(255, 255, 255); stroke-opacity: 1; opacity: 0.7;"/><g class="slicetext"><text data-notex="1" class="slicetext" text-anchor="middle" x="0" y="0" style="font-family: 'Open Sans', verdana, arial, sans-serif; font-size: 22px; fill: rgb(68, 68, 68); fill-opacity: 1; white-space: pre;" transform="translate(1394.6209564141877,762.6506853398192)scale(0.005423836160717311)"><tspan class="line" dy="0em" x="0" y="0">04</tspan><tspan class="line" dy="1.3em" x="0" y="0">0.08 ms</tspan><tspan class="line" dy="2.6em" x="0" y="0">15%</tspan></text></g></g><g class="slice"><path class="surface" d="M1057.479566191795,758.7138124613233L1394.9591323835898,762.4276249226467A675,675 0,0,0 1394.9620369304143,762.1588199269099L1057.4810184652072,758.579409963455A337.5,337.5 0,0,1 1057.479566191795,758.7138124613233Z" style="pointer-events: none; stroke-width: 1; fill: rgb(255, 102, 146); fill-opacity: 1; stroke: rgb(255, 255, 255); stroke-opacity: 1; opacity: 0.7;"/><g class="slicetext"><text data-notex="1" class="slicetext" text-anchor="middle" x="0" y="0" style="font-family: 'Open Sans', verdana, arial, sans-serif; font-size: 22px; fill: rgb(68, 68, 68); fill-opacity: 1; white-space: pre;" transform="translate(1394.8262222984413,762.2485054555684)scale(0.002179431947421307)"><tspan class="line" dy="0em" x="0" y="0">02</tspan><tspan class="line" dy="1.3em" x="0" y="0">0.03 ms</tspan><tspan class="line" dy="2.6em" x="0" y="0">6%</tspan></text></g></g><g class="slice"><path class="surface" d="M1057.4810184652072,758.579409963455L1394.9620369304143,762.1588199269099A675,675 0,0,0 1394.9757095787909,760.7263844271799L1057.4878547893954,757.86319221359A337.5,337.5 0,0,1 1057.4810184652072,758.579409963455Z" style="pointer-events: none; stroke-width: 1; fill: rgb(182, 232, 128); fill-opacity: 1; stroke: rgb(255, 255, 255); stroke-opacity: 1; opacity: 0.7;"/><g class="slicetext"><text data-notex="1" class="slicetext" text-anchor="middle" x="0" y="0" style="font-family: 'Open Sans', verdana, arial, sans-serif; font-size: 22px; fill: rgb(68, 68, 68); fill-opacity: 1; white-space: pre;" transform="translate(1394.2537946797847,761.2054225666221)scale(0.011603830162055632)"><tspan class="line" dy="0em" x="0" y="0">03</tspan><tspan class="line" dy="1.3em" x="0" y="0">0.17 ms</tspan><tspan class="line" dy="2.6em" x="0" y="0">45%</tspan></text></g></g><g class="slice"><path class="surface" d="M1057.4878547893954,757.86319221359L1394.9757095787909,760.7263844271799A675,675 0,0,0 1394.9860917073838,759.3331283838806L1057.493045853692,757.1665641919403A337.5,337.5 0,0,1 1057.4878547893954,757.86319221359Z" style="pointer-events: none; stroke-width: 1; fill: rgb(182, 232, 128); fill-opacity: 1; stroke: rgb(255, 255, 255); stroke-opacity: 1; opacity: 0.7;"/><g class="slicetext"><text data-notex="1" class="slicetext" text-anchor="middle" x="0" y="0" style="font-family: 'Open Sans', verdana, arial, sans-serif; font-size: 22px; fill: rgb(68, 68, 68); fill-opacity: 1; white-space: pre;" transform="translate(1394.2853503337697,759.8005172613209)scale(0.01128657306970237)"><tspan class="line" dy="0em" x="0" y="0">04</tspan><tspan class="line" dy="1.3em" x="0" y="0">0.16 ms</tspan><tspan class="line" dy="2.6em" x="0" y="0">43%</tspan></text></g></g><g class="slice"><path class="surface" d="M1057.493045853692,757.1665641919403L1394.9860917073838,759.3331283838806A675,675 0,0,0 1394.9880391657339,759.0183308969696L1057.494019582867,757.0091654484847A337.5,337.5 0,0,1 1057.493045853692,757.1665641919403Z" style="pointer-events: none; stroke-width: 1; fill: rgb(182, 232, 128); fill-opacity: 1; stroke: rgb(255, 255, 255); stroke-opacity: 1; opacity: 0.7;"/><g class="slicetext"><text data-notex="1" class="slicetext" text-anchor="middle" x="0" y="0" style="font-family: 'Open Sans', verdana, arial, sans-serif; font-size: 22px; fill: rgb(68, 68, 68); fill-opacity: 1; white-space: pre;" transform="translate(1394.8297217397435,759.1240921791186)scale(0.0025521453372310513)"><tspan class="line" dy="0em" x="0" y="0">01</tspan><tspan class="line" dy="1.3em" x="0" y="0">0.04 ms</tspan><tspan class="line" dy="2.6em" x="0" y="0">10%</tspan></text></g></g><g class="slice"><path class="surface" d="M1057.494019582867,757.0091654484847L1394.9880391657339,759.0183308969696A675,675 0,0,0 1394.9884953111466,758.9409640437681L1057.4942476555734,756.9704820218841A337.5,337.5 0,0,1 1057.494019582867,757.0091654484847Z" style="pointer-events: none; stroke-width: 1; fill: rgb(182, 232, 128); fill-opacity: 1; stroke: rgb(255, 255, 255); stroke-opacity: 1; opacity: 0.7;"/><g class="slicetext"><text data-notex="1" class="slicetext" text-anchor="middle" x="0" y="0" style="font-family: 'Open Sans', verdana, arial, sans-serif; font-size: 22px; fill: rgb(68, 68, 68); fill-opacity: 1; white-space: pre;" transform="translate(1394.9495871371203,758.9669656890493)scale(0.0006273424683146796)"><tspan class="line" dy="0em" x="0" y="0">02</tspan><tspan class="line" dy="1.3em" x="0" y="0">0.01 ms</tspan><tspan class="line" dy="2.6em" x="0" y="0">2%</tspan></text></g></g><g class="slice"><path class="surface" d="M1057.4942476555734,756.9704820218841L1394.9884953111466,758.9409640437681A675,675 0,0,0 1394.9923565940667,758.2122483696681L1057.4961782970333,756.6061241848341A337.5,337.5 0,0,1 1057.4942476555734,756.9704820218841Z" style="pointer-events: none; stroke-width: 1; fill: rgb(255, 151, 255); fill-opacity: 1; stroke: rgb(255, 255, 255); stroke-opacity: 1; opacity: 0.7;"/><g class="slicetext"><text data-notex="1" class="slicetext" text-anchor="middle" x="0" y="0" style="font-family: 'Open Sans', verdana, arial, sans-serif; font-size: 22px; fill: rgb(68, 68, 68); fill-opacity: 1; white-space: pre;" transform="translate(1394.6263630283368,758.4574328567232)scale(0.00590604750656574)"><tspan class="line" dy="0em" x="0" y="0">01</tspan><tspan class="line" dy="1.3em" x="0" y="0">0.09 ms</tspan><tspan class="line" dy="2.6em" x="0" y="0">35%</tspan></text></g></g><g class="slice"><path class="surface" d="M1057.4961782970333,756.6061241848341L1394.9923565940667,758.2122483696681A675,675 0,0,0 1394.995150207682,757.5587489343013L1057.497575103841,756.2793744671507A337.5,337.5 0,0,1 1057.4961782970333,756.6061241848341Z" style="pointer-events: none; stroke-width: 1; fill: rgb(255, 151, 255); fill-opacity: 1; stroke: rgb(255, 255, 255); stroke-opacity: 1; opacity: 0.7;"/><g class="slicetext"><text data-notex="1" class="slicetext" text-anchor="middle" x="0" y="0" style="font-family: 'Open Sans', verdana, arial, sans-serif; font-size: 22px; fill: rgb(68, 68, 68); fill-opacity: 1; white-space: pre;" transform="translate(1394.667240865228,757.7789549128079)scale(0.005296708825178005)"><tspan class="line" dy="0em" x="0" y="0">04</tspan><tspan class="line" dy="1.3em" x="0" y="0">0.08 ms</tspan><tspan class="line" dy="2.6em" x="0" y="0">31%</tspan></text></g></g><g class="slice"><path class="surface" d="M1057.497575103841,756.2793744671507L1394.995150207682,757.5587489343013A675,675 0,0,0 1394.9967844166226,757.0835131915693L1057.4983922083113,756.0417565957846A337.5,337.5 0,0,1 1057.497575103841,756.2793744671507Z" style="pointer-events: none; stroke-width: 1; fill: rgb(255, 151, 255); fill-opacity: 1; stroke: rgb(255, 255, 255); stroke-opacity: 1; opacity: 0.7;"/><g class="slicetext"><text data-notex="1" class="slicetext" text-anchor="middle" x="0" y="0" style="font-family: 'Open Sans', verdana, arial, sans-serif; font-size: 22px; fill: rgb(68, 68, 68); fill-opacity: 1; white-space: pre;" transform="translate(1394.7584748837662,757.2438391938498)scale(0.003852351470059948)"><tspan class="line" dy="0em" x="0" y="0">02</tspan><tspan class="line" dy="1.3em" x="0" y="0">0.06 ms</tspan><tspan class="line" dy="2.6em" x="0" y="0">23%</tspan></text></g></g><g class="slice"><path class="surface" d="M1057.4983922083113,756.0417565957846L1394.9967844166226,757.0835131915693A675,675 0,0,0 1394.9974843367825,756.8428616375185L1057.4987421683913,755.9214308187592A337.5,337.5 0,0,1 1057.4983922083113,756.0417565957846Z" style="pointer-events: none; stroke-width: 1; fill: rgb(255, 151, 255); fill-opacity: 1; stroke: rgb(255, 255, 255); stroke-opacity: 1; opacity: 0.7;"/><g class="slicetext"><text data-notex="1" class="slicetext" text-anchor="middle" x="0" y="0" style="font-family: 'Open Sans', verdana, arial, sans-serif; font-size: 22px; fill: rgb(68, 68, 68); fill-opacity: 1; white-space: pre;" transform="translate(1394.876840769974,756.9241051052652)scale(0.001951102980622147)"><tspan class="line" dy="0em" x="0" y="0">03</tspan><tspan class="line" dy="1.3em" x="0" y="0">0.03 ms</tspan><tspan class="line" dy="2.6em" x="0" y="0">11%</tspan></text></g></g><g class="slice"><path class="surface" d="M1057.4987421683913,755.9214308187592L1394.9974843367825,756.8428616375185A675,675 0,0,0 1394.9995537755904,755.7761460905252L1057.4997768877952,755.3880730452627A337.5,337.5 0,0,1 1057.4987421683913,755.9214308187592Z" style="pointer-events: none; stroke-width: 1; fill: rgb(254, 203, 82); fill-opacity: 1; stroke: rgb(255, 255, 255); stroke-opacity: 1; opacity: 0.7;"/><g class="slicetext"><text data-notex="1" class="slicetext" text-anchor="middle" x="0" y="0" style="font-family: 'Open Sans', verdana, arial, sans-serif; font-size: 22px; fill: rgb(68, 68, 68); fill-opacity: 1; white-space: pre;" transform="translate(1394.46579310787,756.1368897608427)scale(0.008643179070784173)"><tspan class="line" dy="0em" x="0" y="0">03</tspan><tspan class="line" dy="1.3em" x="0" y="0">0.12 ms</tspan><tspan class="line" dy="2.6em" x="0" y="0">58%</tspan></text></g></g><g class="slice"><path class="surface" d="M1057.4997768877952,755.3880730452627L1394.9995537755904,755.7761460905252A675,675 0,0,0 1394.9998726517015,755.4146325922429L1057.4999363258507,755.2073162961215A337.5,337.5 0,0,1 1057.4997768877952,755.3880730452627Z" style="pointer-events: none; stroke-width: 1; fill: rgb(254, 203, 82); fill-opacity: 1; stroke: rgb(255, 255, 255); stroke-opacity: 1; opacity: 0.7;"/><g class="slicetext"><text data-notex="1" class="slicetext" text-anchor="middle" x="0" y="0" style="font-family: 'Open Sans', verdana, arial, sans-serif; font-size: 22px; fill: rgb(68, 68, 68); fill-opacity: 1; white-space: pre;" transform="translate(1394.8190290582468,755.5370504392008)scale(0.0029307279041457207)"><tspan class="line" dy="0em" x="0" y="0">01</tspan><tspan class="line" dy="1.3em" x="0" y="0">0.04 ms</tspan><tspan class="line" dy="2.6em" x="0" y="0">20%</tspan></text></g></g><g class="slice"><path class="surface" d="M1057.4999363258507,755.2073162961215L1394.9998726517015,755.4146325922429A675,675 0,0,0 1394.999991694752,755.1058871317557L1057.4999958473759,755.0529435658779A337.5,337.5 0,0,1 1057.4999363258507,755.2073162961215Z" style="pointer-events: none; stroke-width: 1; fill: rgb(254, 203, 82); fill-opacity: 1; stroke: rgb(255, 255, 255); stroke-opacity: 1; opacity: 0.7;"/><g class="slicetext"><text data-notex="1" class="slicetext" text-anchor="middle" x="0" y="0" style="font-family: 'Open Sans', verdana, arial, sans-serif; font-size: 22px; fill: rgb(68, 68, 68); fill-opacity: 1; white-space: pre;" transform="translate(1394.845612392559,755.2105110364228)scale(0.0025030434993271434)"><tspan class="line" dy="0em" x="0" y="0">04</tspan><tspan class="line" dy="1.3em" x="0" y="0">0.04 ms</tspan><tspan class="line" dy="2.6em" x="0" y="0">17%</tspan></text></g></g><g class="slice"><path class="surface" d="M1057.4999958473759,755.0529435658779L1394.999991694752,755.1058871317557A675,675 0,0,0 1395,754.9999999999995L1057.5,754.9999999999998A337.5,337.5 0,0,1 1057.4999958473759,755.0529435658779Z" style="pointer-events: none; stroke-width: 1; fill: rgb(254, 203, 82); fill-opacity: 1; stroke: rgb(255, 255, 255); stroke-opacity: 1; opacity: 0.7;"/><g class="slicetext"><text data-notex="1" class="slicetext" text-anchor="middle" x="0" y="0" style="font-family: 'Open Sans', verdana, arial, sans-serif; font-size: 22px; fill: rgb(68, 68, 68); fill-opacity: 1; white-space: pre;" transform="translate(1394.9470585101083,755.0358954377203)scale(0.0008585710077883036)"><tspan class="line" dy="0em" x="0" y="0">02</tspan><tspan class="line" dy="1.3em" x="0" y="0">0.01 ms</tspan><tspan class="line" dy="2.6em" x="0" y="0">6%</tspan></text></g></g></g></g><g class="glimages"/><defs id="topdefs-9bbcab"><g class="clips"/></defs><g class="layer-above"><g class="imagelayer"/><g class="shapelayer"/></g><g class="infolayer"><g class="g-gtitle"><text class="gtitle" x="720" y="40" text-anchor="middle" dy="0em" style="opacity: 1; font-family: 'Open Sans', verdana, arial, sans-serif; font-size: 31px; fill: rgb(42, 63, 95); fill-opacity: 1; white-space: pre;">Total time: 496 ms</text></g></g></svg>