<svg class="main-svg" xmlns="http://www.w3.org/2000/svg" xmlns:xlink="http://www.w3.org/1999/xlink" width="1440" height="1440" style="" viewBox="0 0 1440 1440"><rect x="0" y="0" width="1440" height="1440" style="fill: rgb(255, 255, 255); fill-opacity: 1;"/><defs id="defs-1e1d2c"><g class="clips"/><g class="gradients"/><g class="patterns"/></defs><g class="bglayer"/><g class="layer-below"><g class="imagelayer"/><g class="shapelayer"/></g><g class="cartesianlayer"/><g class="polarlayer"/><g class="smithlayer"/><g class="ternarylayer"/><g class="geolayer"/><g class="funnelarealayer"/><g class="pielayer"/><g class="iciclelayer"/><g class="treemaplayer"/><g class="sunburstlayer"><g class="trace sunburst" stroke-linejoin="round" style="opacity: 1;"><g class="slice cursor-pointer"><path class="surface" d="M720,755L1057.5,755A337.5,337.5 0,1,0 493.6556022475928,1005.3486840510652L720,755A0,0 0,1,1 720,755Z" style="pointer-events: none; stroke-width: 1; fill: rgb(99, 110, 250); fill-opacity: 1; stroke: rgb(255, 255, 255); stroke-opacity: 1;"/><g class="slicetext"><text data-notex="1" class="slicetext" text-anchor="middle" x="0" y="0" style="font-family: 'Open Sans', verdana, arial, sans-serif; font-size: 22px; fill: rgb(255, 255, 255); fill-opacity: 1; white-space: pre;" transform="translate(720,593.7625787438834)"><tspan class="line" dy="0em" x="0" y="0">2016</tspan><tspan class="line" dy="1.3em" x="0" y="0">334.56 ms</tspan><tspan class="line" dy="2.6em" x="0" y="0">63%</tspan></text></g></g><g class="slice cursor-pointer"><path class="surface" d="M720,755L493.6556022475928,1005.3486840510652A337.5,337.5 0,0,0 982.8344922696087,966.7174524534456L720,755A0,0 0,0,1 720,755Z" style="pointer-events: none; stroke-width: 1; fill: rgb(239, 85, 59); fill-opacity: 1; stroke: rgb(255, 255, 255); stroke-opacity: 1;"/><g class="slicetext"><text data-notex="1" class="slicetext" text-anchor="middle" x="0" y="0" style="font-family: 'Open Sans', verdana, arial, sans-serif; font-size: 22px; fill: rgb(68, 68, 68); fill-opacity: 1; white-space: pre;" transform="translate(735.3854730992329,929.9713396414397)"><tspan class="line" dy="0em" x="0" y="0">2015</tspan><tspan class="line" dy="1.3em" x="0" y="0">136.93 ms</tspan><tspan class="line" dy="2.6em" x="0" y="0">26%</tspan></text></g></g><g class="slice cursor-pointer"><path class="surface" d="M720,755L982.8344922696087,966.7174524534456A337.5,337.5 0,0,0 1040.5879447307975,860.4970127220816L720,755A0,0 0,0,1 720,755Z" style="pointer-events: none; stroke-width: 1; fill: rgb(0, 204, 150); fill-opacity: 1; stroke: rgb(255, 255, 255); stroke-opacity: 1;"/><g class="slicetext"><text data-notex="1" class="slicetext" text-anchor="middle" x="0" y="0" style="font-family: 'Open Sans', verdana, arial, sans-serif; font-size: 22px; fill: rgb(68, 68, 68); fill-opacity: 1; white-space: pre;" transform="translate(971.4642878048862,876.5267136972672)scale(0.765568576608322)"><tspan class="line" dy="0em" x="0" y="0">2017</tspan><tspan class="line" dy="1.3em" x="0" y="0">30.30 ms</tspan><tspan class="line" dy="2.6em" x="0" y="0">6%</tspan></text></g></g><g class="slice cursor-pointer"><path class="surface" d="M720,755L1040.5879447307975,860.4970127220816A337.5,337.5 0,0,0 1053.6554918579704,805.7962868034256L720,755A0,0 0,0,1 720,755Z" style="pointer-events: none; stroke-width: 1; fill: rgb(171, 99, 250); fill-opacity: 1; stroke: rgb(255, 255, 255); stroke-opacity: 1;"/><g class="slicetext"><text data-notex="1" class="slicetext" text-anchor="middle" x="0" y="0" style="font-family: 'Open Sans', verdana, arial, sans-serif; font-size: 22px; fill: rgb(68, 68, 68); fill-opacity: 1; white-space: pre;" transform="translate(1023.0162607130395,819.6936023331705)scale(0.3875994493079961)"><tspan class="line" dy="0em" x="0" y="0">2019</tspan><tspan class="line" dy="1.3em" x="0" y="0">14.03 ms</tspan><tspan class="line" dy="2.6em" x="0" y="0">3%</tspan></text></g></g><g class="slice cursor-pointer"><path class="surface" d="M720,755L1053.6554918579704,805.7962868034256A337.5,337.5 0,0,0 1057.156553692707,770.2219677458858L720,755A0,0 0,0,1 720,755Z" style="pointer-events: none; stroke-width: 1; fill: rgb(255, 161, 90); fill-opacity: 1; stroke: rgb(255, 255, 255); stroke-opacity: 1;"/><g class="slicetext"><text data-notex="1" class="slicetext" text-anchor="middle" x="0" y="0" style="font-family: 'Open Sans', verdana, arial, sans-serif; font-size: 22px; fill: rgb(68, 68, 68); fill-opacity: 1; white-space: pre;" transform="translate(1038.984759234423,780.9281406600588)scale(0.27528719391400974)"><tspan class="line" dy="0em" x="0" y="0">2024</tspan><tspan class="line" dy="1.3em" x="0" y="0">8.91 ms</tspan><tspan class="line" dy="2.6em" x="0" y="0">2%</tspan></text></g></g><g class="slice cursor-pointer"><path class="surface" d="M720,755L1057.156553692707,770.2219677458858A337.5,337.5 0,0,0 1057.4585231536282,760.2910444122303L720,755A0,0 0,0,1 720,755Z" style="pointer-events: none; stroke-width: 1; fill: rgb(25, 211, 243); fill-opacity: 1; stroke: rgb(255, 255, 255); stroke-opacity: 1;"/><g class="slicetext"><text data-notex="1" class="slicetext" text-anchor="middle" x="0" y="0" style="font-family: 'Open Sans', verdana, arial, sans-serif; font-size: 22px; fill: rgb(68, 68, 68); fill-opacity: 1; white-space: pre;" transform="translate(1052.4506505611785,763.5326413914687)scale(0.07939835262070429)"><tspan class="line" dy="0em" x="0" y="0">2018</tspan><tspan class="line" dy="1.3em" x="0" y="0">2.48 ms</tspan><tspan class="line" dy="2.6em" x="0" y="0">0.469%</tspan></text></g></g><g class="slice cursor-pointer"><path class="surface" d="M720,755L1057.4585231536282,760.2910444122303A337.5,337.5 0,0,0 1057.483900688289,758.2964793670022L720,755A0,0 0,0,1 720,755Z" style="pointer-events: none; stroke-width: 1; fill: rgb(255, 102, 146); fill-opacity: 1; stroke: rgb(255, 255, 255); stroke-opacity: 1;"/><g class="slicetext"><text data-notex="1" class="slicetext" text-anchor="middle" x="0" y="0" style="font-family: 'Open Sans', verdana, arial, sans-serif; font-size: 22px; fill: rgb(68, 68, 68); fill-opacity: 1; white-space: pre;" transform="translate(1056.4783413977254,758.9812482428532)scale(0.015106166822530782)"><tspan class="line" dy="0em" x="0" y="0">2023</tspan><tspan class="line" dy="1.3em" x="0" y="0">0.50 ms</tspan><tspan class="line" dy="2.6em" x="0" y="0">0.0941%</tspan></text></g></g><g class="slice cursor-pointer"><path class="surface" d="M720,755L1057.483900688289,758.2964793670022A337.5,337.5 0,0,0 1057.4954082548682,756.7605132433234L720,755A0,0 0,0,1 720,755Z" style="pointer-events: none; stroke-width: 1; fill: rgb(182, 232, 128); fill-opacity: 1; stroke: rgb(255, 255, 255); stroke-opacity: 1;"/><g class="slicetext"><text data-notex="1" class="slicetext" text-anchor="middle" x="0" y="0" style="font-family: 'Open Sans', verdana, arial, sans-serif; font-size: 22px; fill: rgb(68, 68, 68); fill-opacity: 1; white-space: pre;" transform="translate(1056.7242888410556,757.2916866791716)scale(0.011640164479831922)"><tspan class="line" dy="0em" x="0" y="0">2021</tspan><tspan class="line" dy="1.3em" x="0" y="0">0.38 ms</tspan><tspan class="line" dy="2.6em" x="0" y="0">0.0724%</tspan></text></g></g><g class="slice cursor-pointer"><path class="surface" d="M720,755L1057.4954082548682,756.7605132433234A337.5,337.5 0,0,0 1057.4989056996203,755.8594484038265L720,755A0,0 0,0,1 720,755Z" style="pointer-events: none; stroke-width: 1; fill: rgb(255, 151, 255); fill-opacity: 1; stroke: rgb(255, 255, 255); stroke-opacity: 1;"/><g class="slicetext"><text data-notex="1" class="slicetext" text-anchor="middle" x="0" y="0" style="font-family: 'Open Sans', verdana, arial, sans-serif; font-size: 22px; fill: rgb(68, 68, 68); fill-opacity: 1; white-space: pre;" transform="translate(1057.0475258935794,756.1725520852862)scale(0.006834903520077402)"><tspan class="line" dy="0em" x="0" y="0">2020</tspan><tspan class="line" dy="1.3em" x="0" y="0">0.22 ms</tspan><tspan class="line" dy="2.6em" x="0" y="0">0.0425%</tspan></text></g></g><g class="slice cursor-pointer"><path class="surface" d="M720,755L1057.4989056996203,755.8594484038265A337.5,337.5 0,0,0 1057.5,755.0000000000003L720,755A0,0 0,0,1 720,755Z" style="pointer-events: none; stroke-width: 1; fill: rgb(254, 203, 82); fill-opacity: 1; stroke: rgb(255, 255, 255); stroke-opacity: 1;"/><g class="slicetext"><text data-notex="1" class="slicetext" text-anchor="middle" x="0" y="0" style="font-family: 'Open Sans', verdana, arial, sans-serif; font-size: 22px; fill: rgb(68, 68, 68); fill-opacity: 1; white-space: pre;" transform="translate(1057.0705486768506,755.2997541383172)scale(0.006519585423848246)"><tspan class="line" dy="0em" x="0" y="0">2022</tspan><tspan class="line" dy="1.3em" x="0" y="0">0.21 ms</tspan><tspan class="line" dy="2.6em" x="0" y="0">0.0405%</tspan></text></g></g><g class="slice"><path class="surface" d="M1057.5,755L1395,755A675,675 0,1,0 263.4767047386035,1252.2036613739642L491.73835236930177,1003.6018306869821A337.5,337.5 0,1,1 1057.5,755Z" style="pointer-events: none; stroke-width: 1; fill: rgb(99, 110, 250); fill-opacity: 1; stroke: rgb(255, 255, 255); stroke-opacity: 1; opacity: 0.7;"/><g class="slicetext"><text data-notex="1" class="slicetext" text-anchor="middle" x="0" y="0" style="font-family: 'Open Sans', verdana, arial, sans-serif; font-size: 22px; fill: rgb(255, 255, 255); fill-opacity: 1; white-space: pre;" transform="translate(720,245.69532006184727)"><tspan class="line" dy="0em" x="0" y="0">05</tspan><tspan class="line" dy="1.3em" x="0" y="0">333.92 ms</tspan><tspan class="line" dy="2.6em" x="0" y="0">100%</tspan></text></g></g><g class="slice"><path class="surface" d="M491.73835236930177,1003.6018306869821L263.4767047386035,1252.2036613739642A675,675 0,0,0 266.456967084662,1254.9237114740174L493.228483542331,1004.9618557370087A337.5,337.5 0,0,1 491.73835236930177,1003.6018306869821Z" style="pointer-events: none; stroke-width: 1; fill: rgb(99, 110, 250); fill-opacity: 1; stroke: rgb(255, 255, 255); stroke-opacity: 1; opacity: 0.7;"/><g class="slicetext"><text data-notex="1" class="slicetext" text-anchor="middle" x="0" y="0" style="font-family: 'Open Sans', verdana, arial, sans-serif; font-size: 22px; fill: rgb(255, 255, 255); fill-opacity: 1; white-space: pre;" transform="translate(266.3207757348173,1251.432630761744)scale(0.032621707045595943)"><tspan class="line" dy="0em" x="0" y="0">04</tspan><tspan class="line" dy="1.3em" x="0" y="0">0.50 ms</tspan><tspan class="line" dy="2.6em" x="0" y="0">0.15%</tspan></text></g></g><g class="slice"><path class="surface" d="M493.228483542331,1004.9618557370087L266.456967084662,1254.9237114740174A675,675 0,0,0 266.8892468563228,1255.3155458164074L493.44462342816144,1005.1577729082037A337.5,337.5 0,0,1 493.228483542331,1004.9618557370087Z" style="pointer-events: none; stroke-width: 1; fill: rgb(99, 110, 250); fill-opacity: 1; stroke: rgb(255, 255, 255); stroke-opacity: 1; opacity: 0.7;"/><g class="slicetext"><text data-notex="1" class="slicetext" text-anchor="middle" x="0" y="0" style="font-family: 'Open Sans', verdana, arial, sans-serif; font-size: 22px; fill: rgb(255, 255, 255); fill-opacity: 1; white-space: pre;" transform="translate(266.8688971721164,1254.8156953619714)scale(0.004429549204229838)"><tspan class="line" dy="0em" x="0" y="0">03</tspan><tspan class="line" dy="1.3em" x="0" y="0">0.07 ms</tspan><tspan class="line" dy="2.6em" x="0" y="0">0.0217%</tspan></text></g></g><g class="slice"><path class="surface" d="M493.44462342816144,1005.1577729082037L266.8892468563228,1255.3155458164074A675,675 0,0,0 267.18026364373605,1255.578951181773L493.590131821868,1005.2894755908865A337.5,337.5 0,0,1 493.44462342816144,1005.1577729082037Z" style="pointer-events: none; stroke-width: 1; fill: rgb(99, 110, 250); fill-opacity: 1; stroke: rgb(255, 255, 255); stroke-opacity: 1; opacity: 0.7;"/><g class="slicetext"><text data-notex="1" class="slicetext" text-anchor="middle" x="0" y="0" style="font-family: 'Open Sans', verdana, arial, sans-serif; font-size: 22px; fill: rgb(255, 255, 255); fill-opacity: 1; white-space: pre;" transform="translate(267.1664005036876,1255.2426358981334)scale(0.002980503739294393)"><tspan class="line" dy="0em" x="0" y="0">01</tspan><tspan class="line" dy="1.3em" x="0" y="0">0.05 ms</tspan><tspan class="line" dy="2.6em" x="0" y="0">0.0146%</tspan></text></g></g><g class="slice"><path class="surface" d="M493.590131821868,1005.2894755908865L267.18026364373605,1255.578951181773A675,675 0,0,0 267.2779679041887,1255.6673163439364L493.63898395209435,1005.3336581719682A337.5,337.5 0,0,1 493.590131821868,1005.2894755908865Z" style="pointer-events: none; stroke-width: 1; fill: rgb(99, 110, 250); fill-opacity: 1; stroke: rgb(255, 255, 255); stroke-opacity: 1; opacity: 0.7;"/><g class="slicetext"><text data-notex="1" class="slicetext" text-anchor="middle" x="0" y="0" style="font-family: 'Open Sans', verdana, arial, sans-serif; font-size: 22px; fill: rgb(255, 255, 255); fill-opacity: 1; white-space: pre;" transform="translate(267.27329188828514,1255.5559696000112)scale(0.0009228081080368511)"><tspan class="line" dy="0em" x="0" y="0">02</tspan><tspan class="line" dy="1.3em" x="0" y="0">0.02 ms</tspan><tspan class="line" dy="2.6em" x="0" y="0">0.00491%</tspan></text></g></g><g class="slice"><path class="surface" d="M493.63898395209435,1005.3336581719682L267.2779679041887,1255.6673163439364A675,675 0,0,0 267.3112044951854,1255.6973681021302L493.6556022475927,1005.3486840510651A337.5,337.5 0,0,1 493.63898395209435,1005.3336581719682Z" style="pointer-events: none; stroke-width: 1; fill: rgb(99, 110, 250); fill-opacity: 1; stroke: rgb(255, 255, 255); stroke-opacity: 1; opacity: 0.7;"/><g class="slicetext"><text data-notex="1" class="slicetext" text-anchor="middle" x="0" y="0" style="font-family: 'Open Sans', verdana, arial, sans-serif; font-size: 22px; fill: rgb(255, 255, 255); fill-opacity: 1; white-space: pre;" transform="translate(267.30961133070815,1255.6594933542863)scale(0.00031389975498410217)"><tspan class="line" dy="0em" x="0" y="0">06</tspan><tspan class="line" dy="1.3em" x="0" y="0">0.01 ms</tspan><tspan class="line" dy="2.6em" x="0" y="0">0.00167%</tspan></text></g></g><g class="slice"><path class="surface" d="M493.6556022475928,1005.3486840510652L267.31120449518556,1255.6973681021304A675,675 0,0,0 1186.083613590222,1243.2530748932163L953.041806795111,999.1265374466082A337.5,337.5 0,0,1 493.6556022475928,1005.3486840510652Z" style="pointer-events: none; stroke-width: 1; fill: rgb(239, 85, 59); fill-opacity: 1; stroke: rgb(255, 255, 255); stroke-opacity: 1; opacity: 0.7;"/><g class="slicetext"><text data-notex="1" class="slicetext" text-anchor="middle" x="0" y="0" style="font-family: 'Open Sans', verdana, arial, sans-serif; font-size: 22px; fill: rgb(68, 68, 68); fill-opacity: 1; white-space: pre;" transform="translate(726.8562634059753,1241.3520073729394)"><tspan class="line" dy="0em" x="0" y="0">04</tspan><tspan class="line" dy="1.3em" x="0" y="0">125.95 ms</tspan><tspan class="line" dy="2.6em" x="0" y="0">92%</tspan></text></g></g><g class="slice"><path class="surface" d="M953.041806795111,999.1265374466082L1186.083613590222,1243.2530748932163A675,675 0,0,0 1243.0614600355188,1181.6517420865775L981.5307300177594,968.3258710432888A337.5,337.5 0,0,1 953.041806795111,999.1265374466082Z" style="pointer-events: none; stroke-width: 1; fill: rgb(239, 85, 59); fill-opacity: 1; stroke: rgb(255, 255, 255); stroke-opacity: 1; opacity: 0.7;"/><g class="slicetext"><text data-notex="1" class="slicetext" text-anchor="middle" x="0" y="0" style="font-family: 'Open Sans', verdana, arial, sans-serif; font-size: 22px; fill: rgb(68, 68, 68); fill-opacity: 1; white-space: pre;" transform="translate(1186.5324748291675,1174.8077849333497)scale(0.5898330503581671)"><tspan class="line" dy="0em" x="0" y="0">06</tspan><tspan class="line" dy="1.3em" x="0" y="0">10.46 ms</tspan><tspan class="line" dy="2.6em" x="0" y="0">8%</tspan></text></g></g><g class="slice"><path class="surface" d="M981.5307300177594,968.3258710432888L1243.0614600355188,1181.6517420865775A675,675 0,0,0 1245.1131389202596,1179.1240282432864L982.5565694601298,967.0620141216432A337.5,337.5 0,0,1 981.5307300177594,968.3258710432888Z" style="pointer-events: none; stroke-width: 1; fill: rgb(239, 85, 59); fill-opacity: 1; stroke: rgb(255, 255, 255); stroke-opacity: 1; opacity: 0.7;"/><g class="slicetext"><text data-notex="1" class="slicetext" text-anchor="middle" x="0" y="0" style="font-family: 'Open Sans', verdana, arial, sans-serif; font-size: 22px; fill: rgb(68, 68, 68); fill-opacity: 1; white-space: pre;" transform="translate(1242.828006973144,1178.842942185639)scale(0.026335879311444977)"><tspan class="line" dy="0em" x="0" y="0">03</tspan><tspan class="line" dy="1.3em" x="0" y="0">0.41 ms</tspan><tspan class="line" dy="2.6em" x="0" y="0">0.296%</tspan></text></g></g><g class="slice"><path class="surface" d="M982.5565694601298,967.0620141216432L1245.1131389202596,1179.1240282432864A675,675 0,0,0 1245.437356462954,1178.7222963607446L982.718678231477,966.8611481803723A337.5,337.5 0,0,1 982.5565694601298,967.0620141216432Z" style="pointer-events: none; stroke-width: 1; fill: rgb(239, 85, 59); fill-opacity: 1; stroke: rgb(255, 255, 255); stroke-opacity: 1; opacity: 0.7;"/><g class="slicetext"><text data-notex="1" class="slicetext" text-anchor="middle" x="0" y="0" style="font-family: 'Open Sans', verdana, arial, sans-serif; font-size: 22px; fill: rgb(68, 68, 68); fill-opacity: 1; white-space: pre;" transform="translate(1245.074496938065,1178.6780756048568)scale(0.004184601993862243)"><tspan class="line" dy="0em" x="0" y="0">05</tspan><tspan class="line" dy="1.3em" x="0" y="0">0.06 ms</tspan><tspan class="line" dy="2.6em" x="0" y="0">0.047%</tspan></text></g></g><g class="slice"><path class="surface" d="M982.718678231477,966.8611481803723L1245.437356462954,1178.7222963607446A675,675 0,0,0 1245.5819341013694,1178.5429500608689L982.7909670506847,966.7714750304344A337.5,337.5 0,0,1 982.718678231477,966.8611481803723Z" style="pointer-events: none; stroke-width: 1; fill: rgb(239, 85, 59); fill-opacity: 1; stroke: rgb(255, 255, 255); stroke-opacity: 1; opacity: 0.7;"/><g class="slicetext"><text data-notex="1" class="slicetext" text-anchor="middle" x="0" y="0" style="font-family: 'Open Sans', verdana, arial, sans-serif; font-size: 22px; fill: rgb(68, 68, 68); fill-opacity: 1; white-space: pre;" transform="translate(1245.4199950823995,1178.523276012221)scale(0.0018677058975788178)"><tspan class="line" dy="0em" x="0" y="0">02</tspan><tspan class="line" dy="1.3em" x="0" y="0">0.03 ms</tspan><tspan class="line" dy="2.6em" x="0" y="0">0.021%</tspan></text></g></g><g class="slice"><path class="surface" d="M982.7909670506847,966.7714750304344L1245.5819341013694,1178.5429500608689A675,675 0,0,0 1245.6689845392175,1178.4349049068912L982.8344922696087,966.7174524534456A337.5,337.5 0,0,1 982.7909670506847,966.7714750304344Z" style="pointer-events: none; stroke-width: 1; fill: rgb(239, 85, 59); fill-opacity: 1; stroke: rgb(255, 255, 255); stroke-opacity: 1; opacity: 0.7;"/><g class="slicetext"><text data-notex="1" class="slicetext" text-anchor="middle" x="0" y="0" style="font-family: 'Open Sans', verdana, arial, sans-serif; font-size: 22px; fill: rgb(68, 68, 68); fill-opacity: 1; white-space: pre;" transform="translate(1245.5714450712085,1178.4244902516643)scale(0.0010537570009956543)"><tspan class="line" dy="0em" x="0" y="0">01</tspan><tspan class="line" dy="1.3em" x="0" y="0">0.02 ms</tspan><tspan class="line" dy="2.6em" x="0" y="0">0.0126%</tspan></text></g></g><g class="slice"><path class="surface" d="M982.8344922696087,966.7174524534456L1245.6689845392175,1178.4349049068912A675,675 0,0,0 1359.5256235613936,970.9443836000619L1039.7628117806967,862.9721918000309A337.5,337.5 0,0,1 982.8344922696087,966.7174524534456Z" style="pointer-events: none; stroke-width: 1; fill: rgb(0, 204, 150); fill-opacity: 1; stroke: rgb(255, 255, 255); stroke-opacity: 1; opacity: 0.7;"/><g class="slicetext"><text data-notex="1" class="slicetext" text-anchor="middle" x="0" y="0" style="font-family: 'Open Sans', verdana, arial, sans-serif; font-size: 22px; fill: rgb(68, 68, 68); fill-opacity: 1; white-space: pre;" transform="translate(1223.4922470769618,1011.4306245842693)"><tspan class="line" dy="0em" x="0" y="0">05</tspan><tspan class="line" dy="1.3em" x="0" y="0">29.65 ms</tspan><tspan class="line" dy="2.6em" x="0" y="0">98%</tspan></text></g></g><g class="slice"><path class="surface" d="M1039.7628117806967,862.9721918000309L1359.5256235613936,970.9443836000619A675,675 0,0,0 1360.479412261892,968.0988560942112L1040.2397061309462,861.5494280471056A337.5,337.5 0,0,1 1039.7628117806967,862.9721918000309Z" style="pointer-events: none; stroke-width: 1; fill: rgb(0, 204, 150); fill-opacity: 1; stroke: rgb(255, 255, 255); stroke-opacity: 1; opacity: 0.7;"/><g class="slicetext"><text data-notex="1" class="slicetext" text-anchor="middle" x="0" y="0" style="font-family: 'Open Sans', verdana, arial, sans-serif; font-size: 22px; fill: rgb(68, 68, 68); fill-opacity: 1; white-space: pre;" transform="translate(1358.5844914662566,968.5642754644291)scale(0.024282115046198198)"><tspan class="line" dy="0em" x="0" y="0">04</tspan><tspan class="line" dy="1.3em" x="0" y="0">0.37 ms</tspan><tspan class="line" dy="2.6em" x="0" y="0">1%</tspan></text></g></g><g class="slice"><path class="surface" d="M1040.2397061309462,861.5494280471056L1360.479412261892,968.0988560942112A675,675 0,0,0 1361.0968331545027,966.2341130576868L1040.5484165772514,860.6170565288435A337.5,337.5 0,0,1 1040.2397061309462,861.5494280471056Z" style="pointer-events: none; stroke-width: 1; fill: rgb(0, 204, 150); fill-opacity: 1; stroke: rgb(255, 255, 255); stroke-opacity: 1; opacity: 0.7;"/><g class="slicetext"><text data-notex="1" class="slicetext" text-anchor="middle" x="0" y="0" style="font-family: 'Open Sans', verdana, arial, sans-serif; font-size: 22px; fill: rgb(68, 68, 68); fill-opacity: 1; white-space: pre;" transform="translate(1359.857784172019,966.5427010132302)scale(0.015905359674244182)"><tspan class="line" dy="0em" x="0" y="0">03</tspan><tspan class="line" dy="1.3em" x="0" y="0">0.24 ms</tspan><tspan class="line" dy="2.6em" x="0" y="0">1%</tspan></text></g></g><g class="slice"><path class="surface" d="M1040.5484165772514,860.6170565288435L1361.0968331545027,966.2341130576868A675,675 0,0,0 1361.1708726865186,966.0092699821694L1040.5854363432593,860.5046349910847A337.5,337.5 0,0,1 1040.5484165772514,860.6170565288435Z" style="pointer-events: none; stroke-width: 1; fill: rgb(0, 204, 150); fill-opacity: 1; stroke: rgb(255, 255, 255); stroke-opacity: 1; opacity: 0.7;"/><g class="slicetext"><text data-notex="1" class="slicetext" text-anchor="middle" x="0" y="0" style="font-family: 'Open Sans', verdana, arial, sans-serif; font-size: 22px; fill: rgb(68, 68, 68); fill-opacity: 1; white-space: pre;" transform="translate(1361.0214609486331,966.0489948580237)scale(0.0017976736980182364)"><tspan class="line" dy="0em" x="0" y="0">02</tspan><tspan class="line" dy="1.3em" x="0" y="0">0.03 ms</tspan><tspan class="line" dy="2.6em" x="0" y="0">0.0974%</tspan></text></g></g><g class="slice"><path class="surface" d="M1040.5854363432593,860.5046349910847L1361.1708726865186,966.0092699821694A675,675 0,0,0 1361.1758894615953,965.9940254441632L1040.5879447307975,860.4970127220816A337.5,337.5 0,0,1 1040.5854363432593,860.5046349910847Z" style="pointer-events: none; stroke-width: 1; fill: rgb(0, 204, 150); fill-opacity: 1; stroke: rgb(255, 255, 255); stroke-opacity: 1; opacity: 0.7;"/><g class="slicetext"><text data-notex="1" class="slicetext" text-anchor="middle" x="0" y="0" style="font-family: 'Open Sans', verdana, arial, sans-serif; font-size: 22px; fill: rgb(68, 68, 68); fill-opacity: 1; white-space: pre;" transform="translate(1361.1657589409733,965.9967195422064)scale(0.00012189610518264882)"><tspan class="line" dy="0em" x="0" y="0">01</tspan><tspan class="line" dy="1.3em" x="0" y="0">0.00 ms</tspan><tspan class="line" dy="2.6em" x="0" y="0">0.0066%</tspan></text></g></g><g class="slice"><path class="surface" d="M1040.5879447307975,860.4970127220816L1361.1758894615953,965.9940254441632A675,675 0,0,0 1382.7133608175095,883.2029695208399L1051.3566804087548,819.10148476042A337.5,337.5 0,0,1 1040.5879447307975,860.4970127220816Z" style="pointer-events: none; stroke-width: 1; fill: rgb(171, 99, 250); fill-opacity: 1; stroke: rgb(255, 255, 255); stroke-opacity: 1; opacity: 0.7;"/><g class="slicetext"><text data-notex="1" class="slicetext" text-anchor="middle" x="0" y="0" style="font-family: 'Open Sans', verdana, arial, sans-serif; font-size: 22px; fill: rgb(68, 68, 68); fill-opacity: 1; white-space: pre;" transform="translate(1334.3288176153392,902.88939960743)scale(0.6006392735828984)"><tspan class="line" dy="0em" x="0" y="0">03</tspan><tspan class="line" dy="1.3em" x="0" y="0">10.67 ms</tspan><tspan class="line" dy="2.6em" x="0" y="0">76%</tspan></text></g></g><g class="slice"><path class="surface" d="M1051.3566804087548,819.10148476042L1382.7133608175095,883.2029695208399A675,675 0,0,0 1385.8527535523285,865.747959740946L1052.9263767761643,810.373979870473A337.5,337.5 0,0,1 1051.3566804087548,819.10148476042Z" style="pointer-events: none; stroke-width: 1; fill: rgb(171, 99, 250); fill-opacity: 1; stroke: rgb(255, 255, 255); stroke-opacity: 1; opacity: 0.7;"/><g class="slicetext"><text data-notex="1" class="slicetext" text-anchor="middle" x="0" y="0" style="font-family: 'Open Sans', verdana, arial, sans-serif; font-size: 22px; fill: rgb(68, 68, 68); fill-opacity: 1; white-space: pre;" transform="translate(1375.7260492104017,870.1185253473072)scale(0.14194891980479102)"><tspan class="line" dy="0em" x="0" y="0">02</tspan><tspan class="line" dy="1.3em" x="0" y="0">2.21 ms</tspan><tspan class="line" dy="2.6em" x="0" y="0">16%</tspan></text></g></g><g class="slice"><path class="surface" d="M1052.9263767761643,810.373979870473L1385.8527535523285,865.747959740946A675,675 0,0,0 1387.307511095275,856.6153809018573L1053.6537555476375,805.8076904509286A337.5,337.5 0,0,1 1052.9263767761643,810.373979870473Z" style="pointer-events: none; stroke-width: 1; fill: rgb(171, 99, 250); fill-opacity: 1; stroke: rgb(255, 255, 255); stroke-opacity: 1; opacity: 0.7;"/><g class="slicetext"><text data-notex="1" class="slicetext" text-anchor="middle" x="0" y="0" style="font-family: 'Open Sans', verdana, arial, sans-serif; font-size: 22px; fill: rgb(68, 68, 68); fill-opacity: 1; white-space: pre;" transform="translate(1382.0605500110619,858.983196724631)scale(0.07447952517396439)"><tspan class="line" dy="0em" x="0" y="0">04</tspan><tspan class="line" dy="1.3em" x="0" y="0">1.15 ms</tspan><tspan class="line" dy="2.6em" x="0" y="0">8%</tspan></text></g></g><g class="slice"><path class="surface" d="M1053.6537555476375,805.8076904509286L1387.307511095275,856.6153809018573A675,675 0,0,0 1387.310983715941,856.5925736068507L1053.6554918579704,805.7962868034253A337.5,337.5 0,0,1 1053.6537555476375,805.8076904509286Z" style="pointer-events: none; stroke-width: 1; fill: rgb(171, 99, 250); fill-opacity: 1; stroke: rgb(255, 255, 255); stroke-opacity: 1; opacity: 0.7;"/><g class="slicetext"><text data-notex="1" class="slicetext" text-anchor="middle" x="0" y="0" style="font-family: 'Open Sans', verdana, arial, sans-serif; font-size: 22px; fill: rgb(68, 68, 68); fill-opacity: 1; white-space: pre;" transform="translate(1387.2978440504166,856.5987625036536)scale(0.00017522473986178263)"><tspan class="line" dy="0em" x="0" y="0">01</tspan><tspan class="line" dy="1.3em" x="0" y="0">0.00 ms</tspan><tspan class="line" dy="2.6em" x="0" y="0">0.0205%</tspan></text></g></g><g class="slice"><path class="surface" d="M1053.6554918579704,805.7962868034256L1387.3109837159407,856.5925736068513A675,675 0,0,0 1394.1931665478462,787.9935475538477L1057.096583273923,771.4967737769239A337.5,337.5 0,0,1 1053.6554918579704,805.7962868034256Z" style="pointer-events: none; stroke-width: 1; fill: rgb(255, 161, 90); fill-opacity: 1; stroke: rgb(255, 255, 255); stroke-opacity: 1; opacity: 0.7;"/><g class="slicetext"><text data-notex="1" class="slicetext" text-anchor="middle" x="0" y="0" style="font-family: 'Open Sans', verdana, arial, sans-serif; font-size: 22px; fill: rgb(68, 68, 68); fill-opacity: 1; white-space: pre;" transform="translate(1358.9954969565674,808.5480806459304)scale(0.5318980771161498)"><tspan class="line" dy="0em" x="0" y="0">04</tspan><tspan class="line" dy="1.3em" x="0" y="0">8.60 ms</tspan><tspan class="line" dy="2.6em" x="0" y="0">96%</tspan></text></g></g><g class="slice"><path class="surface" d="M1057.096583273923,771.4967737769239L1394.1931665478462,787.9935475538477A675,675 0,0,0 1394.252250897033,786.7632202442445L1057.1261254485166,770.8816101221223A337.5,337.5 0,0,1 1057.096583273923,771.4967737769239Z" style="pointer-events: none; stroke-width: 1; fill: rgb(255, 161, 90); fill-opacity: 1; stroke: rgb(255, 255, 255); stroke-opacity: 1; opacity: 0.7;"/><g class="slicetext"><text data-notex="1" class="slicetext" text-anchor="middle" x="0" y="0" style="font-family: 'Open Sans', verdana, arial, sans-serif; font-size: 22px; fill: rgb(68, 68, 68); fill-opacity: 1; white-space: pre;" transform="translate(1393.6083864725865,787.1507811623314)scale(0.00997911218042245)"><tspan class="line" dy="0em" x="0" y="0">01</tspan><tspan class="line" dy="1.3em" x="0" y="0">0.15 ms</tspan><tspan class="line" dy="2.6em" x="0" y="0">2%</tspan></text></g></g><g class="slice"><path class="surface" d="M1057.1261254485166,770.8816101221223L1394.252250897033,786.7632202442445A675,675 0,0,0 1394.2945102556782,785.8530944810265L1057.1472551278391,770.4265472405132A337.5,337.5 0,0,1 1057.1261254485166,770.8816101221223Z" style="pointer-events: none; stroke-width: 1; fill: rgb(255, 161, 90); fill-opacity: 1; stroke: rgb(255, 255, 255); stroke-opacity: 1; opacity: 0.7;"/><g class="slicetext"><text data-notex="1" class="slicetext" text-anchor="middle" x="0" y="0" style="font-family: 'Open Sans', verdana, arial, sans-serif; font-size: 22px; fill: rgb(68, 68, 68); fill-opacity: 1; white-space: pre;" transform="translate(1393.8187781661595,786.1404815050647)scale(0.007383174954552044)"><tspan class="line" dy="0em" x="0" y="0">02</tspan><tspan class="line" dy="1.3em" x="0" y="0">0.11 ms</tspan><tspan class="line" dy="2.6em" x="0" y="0">1%</tspan></text></g></g><g class="slice"><path class="surface" d="M1057.1472551278391,770.4265472405132L1394.2945102556782,785.8530944810265A675,675 0,0,0 1394.313107385414,785.443935491771L1057.156553692707,770.2219677458855A337.5,337.5 0,0,1 1057.1472551278391,770.4265472405132Z" style="pointer-events: none; stroke-width: 1; fill: rgb(255, 161, 90); fill-opacity: 1; stroke: rgb(255, 255, 255); stroke-opacity: 1; opacity: 0.7;"/><g class="slicetext"><text data-notex="1" class="slicetext" text-anchor="middle" x="0" y="0" style="font-family: 'Open Sans', verdana, arial, sans-serif; font-size: 22px; fill: rgb(68, 68, 68); fill-opacity: 1; white-space: pre;" transform="translate(1394.0993224092692,785.5733077726483)scale(0.0033202867388897653)"><tspan class="line" dy="0em" x="0" y="0">03</tspan><tspan class="line" dy="1.3em" x="0" y="0">0.05 ms</tspan><tspan class="line" dy="2.6em" x="0" y="0">1%</tspan></text></g></g><g class="slice"><path class="surface" d="M1057.156553692707,770.2219677458858L1394.313107385414,785.4439354917715A675,675 0,0,0 1394.6570023479403,776.5157891533485L1057.3285011739702,765.7578945766742A337.5,337.5 0,0,1 1057.156553692707,770.2219677458858Z" style="pointer-events: none; stroke-width: 1; fill: rgb(25, 211, 243); fill-opacity: 1; stroke: rgb(255, 255, 255); stroke-opacity: 1; opacity: 0.7;"/><g class="slicetext"><text data-notex="1" class="slicetext" text-anchor="middle" x="0" y="0" style="font-family: 'Open Sans', verdana, arial, sans-serif; font-size: 22px; fill: rgb(68, 68, 68); fill-opacity: 1; white-space: pre;" transform="translate(1390.0651047778401,779.3807856278717)scale(0.07197563160624436)"><tspan class="line" dy="0em" x="0" y="0">01</tspan><tspan class="line" dy="1.3em" x="0" y="0">1.11 ms</tspan><tspan class="line" dy="2.6em" x="0" y="0">45%</tspan></text></g></g><g class="slice"><path class="surface" d="M1057.3285011739702,765.7578945766742L1394.6570023479403,776.5157891533485A675,675 0,0,0 1394.808369268515,771.0830583275515L1057.4041846342575,763.0415291637757A337.5,337.5 0,0,1 1057.3285011739702,765.7578945766742Z" style="pointer-events: none; stroke-width: 1; fill: rgb(25, 211, 243); fill-opacity: 1; stroke: rgb(255, 255, 255); stroke-opacity: 1; opacity: 0.7;"/><g class="slicetext"><text data-notex="1" class="slicetext" text-anchor="middle" x="0" y="0" style="font-family: 'Open Sans', verdana, arial, sans-serif; font-size: 22px; fill: rgb(68, 68, 68); fill-opacity: 1; white-space: pre;" transform="translate(1392.0326799128666,772.852824075177)scale(0.04389437931588951)"><tspan class="line" dy="0em" x="0" y="0">02</tspan><tspan class="line" dy="1.3em" x="0" y="0">0.68 ms</tspan><tspan class="line" dy="2.6em" x="0" y="0">27%</tspan></text></g></g><g class="slice"><path class="surface" d="M1057.4041846342575,763.0415291637757L1394.808369268515,771.0830583275515A675,675 0,0,0 1394.8912247187236,767.1175409081775L1057.4456123593618,761.0587704540887A337.5,337.5 0,0,1 1057.4041846342575,763.0415291637757Z" style="pointer-events: none; stroke-width: 1; fill: rgb(25, 211, 243); fill-opacity: 1; stroke: rgb(255, 255, 255); stroke-opacity: 1; opacity: 0.7;"/><g class="slicetext"><text data-notex="1" class="slicetext" text-anchor="middle" x="0" y="0" style="font-family: 'Open Sans', verdana, arial, sans-serif; font-size: 22px; fill: rgb(68, 68, 68); fill-opacity: 1; white-space: pre;" transform="translate(1392.8757594250787,768.4224311236075)scale(0.03206916274324649)"><tspan class="line" dy="0em" x="0" y="0">03</tspan><tspan class="line" dy="1.3em" x="0" y="0">0.49 ms</tspan><tspan class="line" dy="2.6em" x="0" y="0">20%</tspan></text></g></g><g class="slice"><path class="surface" d="M1057.4456123593618,761.0587704540887L1394.8912247187236,767.1175409081775A675,675 0,0,0 1394.9170463072564,765.5820888244607L1057.4585231536282,760.2910444122303A337.5,337.5 0,0,1 1057.4456123593618,761.0587704540887Z" style="pointer-events: none; stroke-width: 1; fill: rgb(25, 211, 243); fill-opacity: 1; stroke: rgb(255, 255, 255); stroke-opacity: 1; opacity: 0.7;"/><g class="slicetext"><text data-notex="1" class="slicetext" text-anchor="middle" x="0" y="0" style="font-family: 'Open Sans', verdana, arial, sans-serif; font-size: 22px; fill: rgb(68, 68, 68); fill-opacity: 1; white-space: pre;" transform="translate(1394.1377184492317,766.0900007119988)scale(0.012438586284876735)"><tspan class="line" dy="0em" x="0" y="0">04</tspan><tspan class="line" dy="1.3em" x="0" y="0">0.19 ms</tspan><tspan class="line" dy="2.6em" x="0" y="0">8%</tspan></text></g></g><g class="slice"><path class="surface" d="M1057.4585231536282,760.2910444122303L1394.9170463072564,765.5820888244607A675,675 0,0,0 1394.9505830653502,763.1676446876563L1057.475291532675,759.0838223438282A337.5,337.5 0,0,1 1057.4585231536282,760.2910444122303Z" style="pointer-events: none; stroke-width: 1; fill: rgb(255, 102, 146); fill-opacity: 1; stroke: rgb(255, 255, 255); stroke-opacity: 1; opacity: 0.7;"/><g class="slicetext"><text data-notex="1" class="slicetext" text-anchor="middle" x="0" y="0" style="font-family: 'Open Sans', verdana, arial, sans-serif; font-size: 22px; fill: rgb(68, 68, 68); fill-opacity: 1; white-space: pre;" transform="translate(1393.729827709445,763.9701316879799)scale(0.019545646576974097)"><tspan class="line" dy="0em" x="0" y="0">01</tspan><tspan class="line" dy="1.3em" x="0" y="0">0.30 ms</tspan><tspan class="line" dy="2.6em" x="0" y="0">61%</tspan></text></g></g><g class="slice"><path class="surface" d="M1057.475291532675,759.0838223438282L1394.9505830653502,763.1676446876563A675,675 0,0,0 1394.9585176113524,762.4832816254359L1057.4792588056762,758.741640812718A337.5,337.5 0,0,1 1057.475291532675,759.0838223438282Z" style="pointer-events: none; stroke-width: 1; fill: rgb(255, 102, 146); fill-opacity: 1; stroke: rgb(255, 255, 255); stroke-opacity: 1; opacity: 0.7;"/><g class="slicetext"><text data-notex="1" class="slicetext" text-anchor="middle" x="0" y="0" style="font-family: 'Open Sans', verdana, arial, sans-serif; font-size: 22px; fill: rgb(68, 68, 68); fill-opacity: 1; white-space: pre;" transform="translate(1394.6126289328322,762.7113811260466)scale(0.00554705824339589)"><tspan class="line" dy="0em" x="0" y="0">03</tspan><tspan class="line" dy="1.3em" x="0" y="0">0.09 ms</tspan><tspan class="line" dy="2.6em" x="0" y="0">17%</tspan></text></g></g><g class="slice"><path class="surface" d="M1057.4792588056762,758.741640812718L1394.9585176113524,762.4832816254359A675,675 0,0,0 1394.965288591074,761.845377795865L1057.482644295537,758.4226888979325A337.5,337.5 0,0,1 1057.4792588056762,758.741640812718Z" style="pointer-events: none; stroke-width: 1; fill: rgb(255, 102, 146); fill-opacity: 1; stroke: rgb(255, 255, 255); stroke-opacity: 1; opacity: 0.7;"/><g class="slicetext"><text data-notex="1" class="slicetext" text-anchor="middle" x="0" y="0" style="font-family: 'Open Sans', verdana, arial, sans-serif; font-size: 22px; fill: rgb(68, 68, 68); fill-opacity: 1; white-space: pre;" transform="translate(1394.6431771953644,762.058301976897)scale(0.005170607746683328)"><tspan class="line" dy="0em" x="0" y="0">04</tspan><tspan class="line" dy="1.3em" x="0" y="0">0.08 ms</tspan><tspan class="line" dy="2.6em" x="0" y="0">16%</tspan></text></g></g><g class="slice"><path class="surface" d="M1057.482644295537,758.4226888979325L1394.965288591074,761.845377795865A675,675 0,0,0 1394.9678013765779,761.5929587340052L1057.483900688289,758.2964793670026A337.5,337.5 0,0,1 1057.482644295537,758.4226888979325Z" style="pointer-events: none; stroke-width: 1; fill: rgb(255, 102, 146); fill-opacity: 1; stroke: rgb(255, 255, 255); stroke-opacity: 1; opacity: 0.7;"/><g class="slicetext"><text data-notex="1" class="slicetext" text-anchor="middle" x="0" y="0" style="font-family: 'Open Sans', verdana, arial, sans-serif; font-size: 22px; fill: rgb(68, 68, 68); fill-opacity: 1; white-space: pre;" transform="translate(1394.840370847673,761.6772843354655)scale(0.0020465839435217102)"><tspan class="line" dy="0em" x="0" y="0">02</tspan><tspan class="line" dy="1.3em" x="0" y="0">0.03 ms</tspan><tspan class="line" dy="2.6em" x="0" y="0">6%</tspan></text></g></g><g class="slice"><path class="surface" d="M1057.483900688289,758.2964793670022L1394.967801376578,761.5929587340045A675,675 0,0,0 1394.9801183424452,760.1807183303649L1057.4900591712226,757.5903591651825A337.5,337.5 0,0,1 1057.483900688289,758.2964793670022Z" style="pointer-events: none; stroke-width: 1; fill: rgb(182, 232, 128); fill-opacity: 1; stroke: rgb(255, 255, 255); stroke-opacity: 1; opacity: 0.7;"/><g class="slicetext"><text data-notex="1" class="slicetext" text-anchor="middle" x="0" y="0" style="font-family: 'Open Sans', verdana, arial, sans-serif; font-size: 22px; fill: rgb(68, 68, 68); fill-opacity: 1; white-space: pre;" transform="translate(1394.268946940705,760.6535814916884)scale(0.011440319361191113)"><tspan class="line" dy="0em" x="0" y="0">03</tspan><tspan class="line" dy="1.3em" x="0" y="0">0.18 ms</tspan><tspan class="line" dy="2.6em" x="0" y="0">46%</tspan></text></g></g><g class="slice"><path class="surface" d="M1057.4900591712226,757.5903591651825L1394.9801183424452,760.1807183303649A675,675 0,0,0 1394.9889628240035,758.8600603332161L1057.4944814120017,756.930030166608A337.5,337.5 0,0,1 1057.4900591712226,757.5903591651825Z" style="pointer-events: none; stroke-width: 1; fill: rgb(182, 232, 128); fill-opacity: 1; stroke: rgb(255, 255, 255); stroke-opacity: 1; opacity: 0.7;"/><g class="slicetext"><text data-notex="1" class="slicetext" text-anchor="middle" x="0" y="0" style="font-family: 'Open Sans', verdana, arial, sans-serif; font-size: 22px; fill: rgb(68, 68, 68); fill-opacity: 1; white-space: pre;" transform="translate(1394.325179940412,759.3035820239742)scale(0.010698984129911916)"><tspan class="line" dy="0em" x="0" y="0">04</tspan><tspan class="line" dy="1.3em" x="0" y="0">0.16 ms</tspan><tspan class="line" dy="2.6em" x="0" y="0">43%</tspan></text></g></g><g class="slice"><path class="surface" d="M1057.4944814120017,756.930030166608L1394.9889628240035,758.8600603332161A675,675 0,0,0 1394.9904963155968,758.5818826926732L1057.4952481577984,756.7909413463366A337.5,337.5 0,0,1 1057.4944814120017,756.930030166608Z" style="pointer-events: none; stroke-width: 1; fill: rgb(182, 232, 128); fill-opacity: 1; stroke: rgb(255, 255, 255); stroke-opacity: 1; opacity: 0.7;"/><g class="slicetext"><text data-notex="1" class="slicetext" text-anchor="middle" x="0" y="0" style="font-family: 'Open Sans', verdana, arial, sans-serif; font-size: 22px; fill: rgb(68, 68, 68); fill-opacity: 1; white-space: pre;" transform="translate(1394.8506837347218,758.6754335574535)scale(0.002255310968894347)"><tspan class="line" dy="0em" x="0" y="0">01</tspan><tspan class="line" dy="1.3em" x="0" y="0">0.03 ms</tspan><tspan class="line" dy="2.6em" x="0" y="0">9%</tspan></text></g></g><g class="slice"><path class="surface" d="M1057.4952481577984,756.7909413463366L1394.9904963155968,758.5818826926732A675,675 0,0,0 1394.9908165097363,758.5210264866469L1057.4954082548682,756.7605132433234A337.5,337.5 0,0,1 1057.4952481577984,756.7909413463366Z" style="pointer-events: none; stroke-width: 1; fill: rgb(182, 232, 128); fill-opacity: 1; stroke: rgb(255, 255, 255); stroke-opacity: 1; opacity: 0.7;"/><g class="slicetext"><text data-notex="1" class="slicetext" text-anchor="middle" x="0" y="0" style="font-family: 'Open Sans', verdana, arial, sans-serif; font-size: 22px; fill: rgb(68, 68, 68); fill-opacity: 1; white-space: pre;" transform="translate(1394.9602303671077,758.5414984059186)scale(0.0004934673276876709)"><tspan class="line" dy="0em" x="0" y="0">02</tspan><tspan class="line" dy="1.3em" x="0" y="0">0.01 ms</tspan><tspan class="line" dy="2.6em" x="0" y="0">2%</tspan></text></g></g><g class="slice"><path class="surface" d="M1057.4954082548682,756.7605132433234L1394.9908165097363,758.5210264866469A675,675 0,0,0 1394.9939578963795,757.8560117963432L1057.4969789481897,756.4280058981716A337.5,337.5 0,0,1 1057.4954082548682,756.7605132433234Z" style="pointer-events: none; stroke-width: 1; fill: rgb(255, 151, 255); fill-opacity: 1; stroke: rgb(255, 255, 255); stroke-opacity: 1; opacity: 0.7;"/><g class="slicetext"><text data-notex="1" class="slicetext" text-anchor="middle" x="0" y="0" style="font-family: 'Open Sans', verdana, arial, sans-serif; font-size: 22px; fill: rgb(68, 68, 68); fill-opacity: 1; white-space: pre;" transform="translate(1394.6601254714146,758.079949555819)scale(0.005390006584095727)"><tspan class="line" dy="0em" x="0" y="0">01</tspan><tspan class="line" dy="1.3em" x="0" y="0">0.08 ms</tspan><tspan class="line" dy="2.6em" x="0" y="0">37%</tspan></text></g></g><g class="slice"><path class="surface" d="M1057.4969789481897,756.4280058981716L1394.9939578963795,757.8560117963432A675,675 0,0,0 1394.9958994179474,757.3528214883931L1057.4979497089737,756.1764107441966A337.5,337.5 0,0,1 1057.4969789481897,756.4280058981716Z" style="pointer-events: none; stroke-width: 1; fill: rgb(255, 151, 255); fill-opacity: 1; stroke: rgb(255, 255, 255); stroke-opacity: 1; opacity: 0.7;"/><g class="slicetext"><text data-notex="1" class="slicetext" text-anchor="middle" x="0" y="0" style="font-family: 'Open Sans', verdana, arial, sans-serif; font-size: 22px; fill: rgb(68, 68, 68); fill-opacity: 1; white-space: pre;" transform="translate(1394.7434741362322,757.5224743164532)scale(0.004078878312616412)"><tspan class="line" dy="0em" x="0" y="0">04</tspan><tspan class="line" dy="1.3em" x="0" y="0">0.06 ms</tspan><tspan class="line" dy="2.6em" x="0" y="0">28%</tspan></text></g></g><g class="slice"><path class="surface" d="M1057.4979497089737,756.1764107441966L1394.9958994179474,757.3528214883931A675,675 0,0,0 1394.9973453361126,756.8930898554185L1057.4986726680563,755.9465449277093A337.5,337.5 0,0,1 1057.4979497089737,756.1764107441966Z" style="pointer-events: none; stroke-width: 1; fill: rgb(255, 151, 255); fill-opacity: 1; stroke: rgb(255, 255, 255); stroke-opacity: 1; opacity: 0.7;"/><g class="slicetext"><text data-notex="1" class="slicetext" text-anchor="middle" x="0" y="0" style="font-family: 'Open Sans', verdana, arial, sans-serif; font-size: 22px; fill: rgb(68, 68, 68); fill-opacity: 1; white-space: pre;" transform="translate(1394.7668739529063,757.0482520380252)scale(0.003726711386726941)"><tspan class="line" dy="0em" x="0" y="0">02</tspan><tspan class="line" dy="1.3em" x="0" y="0">0.06 ms</tspan><tspan class="line" dy="2.6em" x="0" y="0">26%</tspan></text></g></g><g class="slice"><path class="surface" d="M1057.4986726680563,755.9465449277093L1394.9973453361126,756.8930898554185A675,675 0,0,0 1394.9978113992406,756.718896807653L1057.4989056996203,755.8594484038265A337.5,337.5 0,0,1 1057.4986726680563,755.9465449277093Z" style="pointer-events: none; stroke-width: 1; fill: rgb(255, 151, 255); fill-opacity: 1; stroke: rgb(255, 255, 255); stroke-opacity: 1; opacity: 0.7;"/><g class="slicetext"><text data-notex="1" class="slicetext" text-anchor="middle" x="0" y="0" style="font-family: 'Open Sans', verdana, arial, sans-serif; font-size: 22px; fill: rgb(68, 68, 68); fill-opacity: 1; white-space: pre;" transform="translate(1394.9104986997477,756.7777229197897)scale(0.0014123535757486867)"><tspan class="line" dy="0em" x="0" y="0">03</tspan><tspan class="line" dy="1.3em" x="0" y="0">0.02 ms</tspan><tspan class="line" dy="2.6em" x="0" y="0">10%</tspan></text></g></g><g class="slice"><path class="surface" d="M1057.4989056996203,755.8594484038265L1394.9978113992406,756.718896807653A675,675 0,0,0 1394.999654366548,755.6830849442275L1057.499827183274,755.3415424721137A337.5,337.5 0,0,1 1057.4989056996203,755.8594484038265Z" style="pointer-events: none; stroke-width: 1; fill: rgb(254, 203, 82); fill-opacity: 1; stroke: rgb(255, 255, 255); stroke-opacity: 1; opacity: 0.7;"/><g class="slicetext"><text data-notex="1" class="slicetext" text-anchor="middle" x="0" y="0" style="font-family: 'Open Sans', verdana, arial, sans-serif; font-size: 22px; fill: rgb(68, 68, 68); fill-opacity: 1; white-space: pre;" transform="translate(1394.4814227065046,756.0334569220016)scale(0.008392968074025483)"><tspan class="line" dy="0em" x="0" y="0">03</tspan><tspan class="line" dy="1.3em" x="0" y="0">0.13 ms</tspan><tspan class="line" dy="2.6em" x="0" y="0">60%</tspan></text></g></g><g class="slice"><path class="surface" d="M1057.499827183274,755.3415424721137L1394.999654366548,755.6830849442275A675,675 0,0,0 1394.999894632776,755.377154797277L1057.499947316388,755.1885773986385A337.5,337.5 0,0,1 1057.499827183274,755.3415424721137Z" style="pointer-events: none; stroke-width: 1; fill: rgb(254, 203, 82); fill-opacity: 1; stroke: rgb(255, 255, 255); stroke-opacity: 1; opacity: 0.7;"/><g class="slicetext"><text data-notex="1" class="slicetext" text-anchor="middle" x="0" y="0" style="font-family: 'Open Sans', verdana, arial, sans-serif; font-size: 22px; fill: rgb(68, 68, 68); fill-opacity: 1; white-space: pre;" transform="translate(1394.8468614146018,755.4807634348349)scale(0.0024802251023257147)"><tspan class="line" dy="0em" x="0" y="0">01</tspan><tspan class="line" dy="1.3em" x="0" y="0">0.04 ms</tspan><tspan class="line" dy="2.6em" x="0" y="0">18%</tspan></text></g></g><g class="slice"><path class="surface" d="M1057.499947316388,755.1885773986385L1394.999894632776,755.377154797277A675,675 0,0,0 1394.9999955038545,755.077908897879L1057.4999977519274,755.0389544489394A337.5,337.5 0,0,1 1057.499947316388,755.1885773986385Z" style="pointer-events: none; stroke-width: 1; fill: rgb(254, 203, 82); fill-opacity: 1; stroke: rgb(255, 255, 255); stroke-opacity: 1; opacity: 0.7;"/><g class="slicetext"><text data-notex="1" class="slicetext" text-anchor="middle" x="0" y="0" style="font-family: 'Open Sans', verdana, arial, sans-serif; font-size: 22px; fill: rgb(68, 68, 68); fill-opacity: 1; white-space: pre;" transform="translate(1394.8503718602183,755.1793206204989)scale(0.0024260462271926218)"><tspan class="line" dy="0em" x="0" y="0">04</tspan><tspan class="line" dy="1.3em" x="0" y="0">0.04 ms</tspan><tspan class="line" dy="2.6em" x="0" y="0">17%</tspan></text></g></g><g class="slice"><path class="surface" d="M1057.4999977519274,755.0389544489394L1394.9999955038545,755.077908897879A675,675 0,0,0 1395,755.0000000000008L1057.5,755.0000000000003A337.5,337.5 0,0,1 1057.4999977519274,755.0389544489394Z" style="pointer-events: none; stroke-width: 1; fill: rgb(254, 203, 82); fill-opacity: 1; stroke: rgb(255, 255, 255); stroke-opacity: 1; opacity: 0.7;"/><g class="slicetext"><text data-notex="1" class="slicetext" text-anchor="middle" x="0" y="0" style="font-family: 'Open Sans', verdana, arial, sans-serif; font-size: 22px; fill: rgb(68, 68, 68); fill-opacity: 1; white-space: pre;" transform="translate(1394.9610466749677,755.0264114429775)scale(0.0006317264993347258)"><tspan class="line" dy="0em" x="0" y="0">02</tspan><tspan class="line" dy="1.3em" x="0" y="0">0.01 ms</tspan><tspan class="line" dy="2.6em" x="0" y="0">5%</tspan></text></g></g></g></g><g class="glimages"/><defs id="topdefs-1e1d2c"><g class="clips"/></defs><g class="layer-above"><g class="imagelayer"/><g class="shapelayer"/></g><g class="infolayer"><g class="g-gtitle"><text class="gtitle" x="720" y="40" text-anchor="middle" dy="0em" style="opacity: 1; font-family: 'Open Sans', verdana, arial, sans-serif; font-size: 31px; fill: rgb(42, 63, 95); fill-opacity: 1; white-space: pre;">Total time: 529 ms</text></g></g></svg>