<svg class="main-svg" xmlns="http://www.w3.org/2000/svg" xmlns:xlink="http://www.w3.org/1999/xlink" width="1440" height="1440" style="" viewBox="0 0 1440 1440"><rect x="0" y="0" width="1440" height="1440" style="fill: rgb(255, 255, 255); fill-opacity: 1;"/><defs id="defs-f8b001"><g class="clips"/><g class="gradients"/><g class="patterns"/></defs><g class="bglayer"/><g class="layer-below"><g class="imagelayer"/><g class="shapelayer"/></g><g class="cartesianlayer"/><g class="polarlayer"/><g class="smithlayer"/><g class="ternarylayer"/><g class="geolayer"/><g class="funnelarealayer"/><g class="pielayer"/><g class="iciclelayer"/><g class="treemaplayer"/><g class="sunburstlayer"><g class="trace sunburst" stroke-linejoin="round" style="opacity: 1;"><g class="slice cursor-pointer"><path class="surface" d="M720,755L1057.5,755A337.5,337.5 0,1,0 903.932946308178,1037.9751248120458L720,755A0,0 0,1,1 720,755Z" style="pointer-events: none; stroke-width: 1; fill: rgb(99, 110, 250); fill-opacity: 1; stroke: rgb(255, 255, 255); stroke-opacity: 1;"/><g class="slicetext"><text data-notex="1" class="slicetext" text-anchor="middle" x="0" y="0" style="font-family: 'Open Sans', verdana, arial, sans-serif; font-size: 22px; fill: rgb(255, 255, 255); fill-opacity: 1; white-space: pre;" transform="translate(720,593.7625787438834)"><tspan class="line" dy="0em" x="0" y="0">2015</tspan><tspan class="line" dy="1.3em" x="0" y="0">136.99 ms</tspan><tspan class="line" dy="2.6em" x="0" y="0">84%</tspan></text></g></g><g class="slice cursor-pointer"><path class="surface" d="M720,755L903.932946308178,1037.9751248120458A337.5,337.5 0,0,0 1019.641237809719,910.3105875459219L720,755A0,0 0,0,1 720,755Z" style="pointer-events: none; stroke-width: 1; fill: rgb(239, 85, 59); fill-opacity: 1; stroke: rgb(255, 255, 255); stroke-opacity: 1;"/><g class="slicetext"><text data-notex="1" class="slicetext" text-anchor="middle" x="0" y="0" style="font-family: 'Open Sans', verdana, arial, sans-serif; font-size: 22px; fill: rgb(68, 68, 68); fill-opacity: 1; white-space: pre;" transform="translate(919.2191295676912,915.7099748723551)"><tspan class="line" dy="0em" x="0" y="0">2019</tspan><tspan class="line" dy="1.3em" x="0" y="0">13.37 ms</tspan><tspan class="line" dy="2.6em" x="0" y="0">8%</tspan></text></g></g><g class="slice cursor-pointer"><path class="surface" d="M720,755L1019.641237809719,910.3105875459219A337.5,337.5 0,0,0 1052.090654556986,815.1834458627334L720,755A0,0 0,0,1 720,755Z" style="pointer-events: none; stroke-width: 1; fill: rgb(0, 204, 150); fill-opacity: 1; stroke: rgb(255, 255, 255); stroke-opacity: 1;"/><g class="slicetext"><text data-notex="1" class="slicetext" text-anchor="middle" x="0" y="0" style="font-family: 'Open Sans', verdana, arial, sans-serif; font-size: 22px; fill: rgb(68, 68, 68); fill-opacity: 1; white-space: pre;" transform="translate(998.0278449868025,835.7571497293865)scale(0.7093988008709448)"><tspan class="line" dy="0em" x="0" y="0">2024</tspan><tspan class="line" dy="1.3em" x="0" y="0">7.74 ms</tspan><tspan class="line" dy="2.6em" x="0" y="0">5%</tspan></text></g></g><g class="slice cursor-pointer"><path class="surface" d="M720,755L1052.090654556986,815.1834458627334A337.5,337.5 0,0,0 1055.8660360990214,788.1701039360876L720,755A0,0 0,0,1 720,755Z" style="pointer-events: none; stroke-width: 1; fill: rgb(171, 99, 250); fill-opacity: 1; stroke: rgb(255, 255, 255); stroke-opacity: 1;"/><g class="slicetext"><text data-notex="1" class="slicetext" text-anchor="middle" x="0" y="0" style="font-family: 'Open Sans', verdana, arial, sans-serif; font-size: 22px; fill: rgb(68, 68, 68); fill-opacity: 1; white-space: pre;" transform="translate(1041.269268900365,795.6803199443867)scale(0.21258960870339935)"><tspan class="line" dy="0em" x="0" y="0">2018</tspan><tspan class="line" dy="1.3em" x="0" y="0">2.09 ms</tspan><tspan class="line" dy="2.6em" x="0" y="0">1%</tspan></text></g></g><g class="slice cursor-pointer"><path class="surface" d="M720,755L1055.8660360990214,788.1701039360876A337.5,337.5 0,0,0 1056.5786376515882,779.921289625556L720,755A0,0 0,0,1 720,755Z" style="pointer-events: none; stroke-width: 1; fill: rgb(255, 161, 90); fill-opacity: 1; stroke: rgb(255, 255, 255); stroke-opacity: 1;"/><g class="slicetext"><text data-notex="1" class="slicetext" text-anchor="middle" x="0" y="0" style="font-family: 'Open Sans', verdana, arial, sans-serif; font-size: 22px; fill: rgb(68, 68, 68); fill-opacity: 1; white-space: pre;" transform="translate(1052.1732025071892,782.379239981711)scale(0.06632519307104705)"><tspan class="line" dy="0em" x="0" y="0">2016</tspan><tspan class="line" dy="1.3em" x="0" y="0">0.64 ms</tspan><tspan class="line" dy="2.6em" x="0" y="0">0.39%</tspan></text></g></g><g class="slice cursor-pointer"><path class="surface" d="M720,755L1056.5786376515882,779.921289625556A337.5,337.5 0,0,0 1057.0673224062134,772.0842080854147L720,755A0,0 0,0,1 720,755Z" style="pointer-events: none; stroke-width: 1; fill: rgb(25, 211, 243); fill-opacity: 1; stroke: rgb(255, 255, 255); stroke-opacity: 1;"/><g class="slicetext"><text data-notex="1" class="slicetext" text-anchor="middle" x="0" y="0" style="font-family: 'Open Sans', verdana, arial, sans-serif; font-size: 22px; fill: rgb(68, 68, 68); fill-opacity: 1; white-space: pre;" transform="translate(1052.9722926605677,774.5131387565592)scale(0.06294208584773056)"><tspan class="line" dy="0em" x="0" y="0">2017</tspan><tspan class="line" dy="1.3em" x="0" y="0">0.60 ms</tspan><tspan class="line" dy="2.6em" x="0" y="0">0.37%</tspan></text></g></g><g class="slice cursor-pointer"><path class="surface" d="M720,755L1057.0673224062134,772.0842080854147A337.5,337.5 0,0,0 1057.332561302279,765.6298205650063L720,755A0,0 0,0,1 720,755Z" style="pointer-events: none; stroke-width: 1; fill: rgb(255, 102, 146); fill-opacity: 1; stroke: rgb(255, 255, 255); stroke-opacity: 1;"/><g class="slicetext"><text data-notex="1" class="slicetext" text-anchor="middle" x="0" y="0" style="font-family: 'Open Sans', verdana, arial, sans-serif; font-size: 22px; fill: rgb(68, 68, 68); fill-opacity: 1; white-space: pre;" transform="translate(1054.0187826564156,767.6962640838586)scale(0.05188622074439788)"><tspan class="line" dy="0em" x="0" y="0">2023</tspan><tspan class="line" dy="1.3em" x="0" y="0">0.50 ms</tspan><tspan class="line" dy="2.6em" x="0" y="0">0.305%</tspan></text></g></g><g class="slice cursor-pointer"><path class="surface" d="M720,755L1057.332561302279,765.6298205650063A337.5,337.5 0,0,0 1057.4519795577448,760.693109217236L720,755A0,0 0,0,1 720,755Z" style="pointer-events: none; stroke-width: 1; fill: rgb(182, 232, 128); fill-opacity: 1; stroke: rgb(255, 255, 255); stroke-opacity: 1;"/><g class="slicetext"><text data-notex="1" class="slicetext" text-anchor="middle" x="0" y="0" style="font-family: 'Open Sans', verdana, arial, sans-serif; font-size: 22px; fill: rgb(68, 68, 68); fill-opacity: 1; white-space: pre;" transform="translate(1054.950870670712,762.3132553673383)scale(0.039752662053625654)"><tspan class="line" dy="0em" x="0" y="0">2021</tspan><tspan class="line" dy="1.3em" x="0" y="0">0.38 ms</tspan><tspan class="line" dy="2.6em" x="0" y="0">0.233%</tspan></text></g></g><g class="slice cursor-pointer"><path class="surface" d="M720,755L1057.4519795577448,760.693109217236A337.5,337.5 0,0,0 1057.488364935622,757.8024155795263L720,755A0,0 0,0,1 720,755Z" style="pointer-events: none; stroke-width: 1; fill: rgb(255, 151, 255); fill-opacity: 1; stroke: rgb(255, 255, 255); stroke-opacity: 1;"/><g class="slicetext"><text data-notex="1" class="slicetext" text-anchor="middle" x="0" y="0" style="font-family: 'Open Sans', verdana, arial, sans-serif; font-size: 22px; fill: rgb(68, 68, 68); fill-opacity: 1; white-space: pre;" transform="translate(1056.0340843452,758.7663009941461)scale(0.0233425080763549)"><tspan class="line" dy="0em" x="0" y="0">2020</tspan><tspan class="line" dy="1.3em" x="0" y="0">0.22 ms</tspan><tspan class="line" dy="2.6em" x="0" y="0">0.136%</tspan></text></g></g><g class="slice cursor-pointer"><path class="surface" d="M720,755L1057.488364935622,757.8024155795263A337.5,337.5 0,0,0 1057.5,754.9999999999994L720,755A0,0 0,0,1 720,755Z" style="pointer-events: none; stroke-width: 1; fill: rgb(254, 203, 82); fill-opacity: 1; stroke: rgb(255, 255, 255); stroke-opacity: 1;"/><g class="slicetext"><text data-notex="1" class="slicetext" text-anchor="middle" x="0" y="0" style="font-family: 'Open Sans', verdana, arial, sans-serif; font-size: 22px; fill: rgb(68, 68, 68); fill-opacity: 1; white-space: pre;" transform="translate(1056.101676860715,755.9461653886493)scale(0.022631014492300695)"><tspan class="line" dy="0em" x="0" y="0">2022</tspan><tspan class="line" dy="1.3em" x="0" y="0">0.22 ms</tspan><tspan class="line" dy="2.6em" x="0" y="0">0.132%</tspan></text></g></g><g class="slice"><path class="surface" d="M1057.5,755L1395,755A675,675 0,1,0 820.4076428204337,1422.4903034975446L770.2038214102168,1088.7451517487723A337.5,337.5 0,1,1 1057.5,755Z" style="pointer-events: none; stroke-width: 1; fill: rgb(99, 110, 250); fill-opacity: 1; stroke: rgb(255, 255, 255); stroke-opacity: 1; opacity: 0.7;"/><g class="slicetext"><text data-notex="1" class="slicetext" text-anchor="middle" x="0" y="0" style="font-family: 'Open Sans', verdana, arial, sans-serif; font-size: 22px; fill: rgb(255, 255, 255); fill-opacity: 1; white-space: pre;" transform="translate(720,245.69532006184727)"><tspan class="line" dy="0em" x="0" y="0">04</tspan><tspan class="line" dy="1.3em" x="0" y="0">125.93 ms</tspan><tspan class="line" dy="2.6em" x="0" y="0">92%</tspan></text></g></g><g class="slice"><path class="surface" d="M770.2038214102168,1088.7451517487723L820.4076428204337,1422.4903034975446A675,675 0,0,0 1076.5757516464791,1328.130642469715L898.2878758232396,1041.5653212348575A337.5,337.5 0,0,1 770.2038214102168,1088.7451517487723Z" style="pointer-events: none; stroke-width: 1; fill: rgb(99, 110, 250); fill-opacity: 1; stroke: rgb(255, 255, 255); stroke-opacity: 1; opacity: 0.7;"/><g class="slicetext"><text data-notex="1" class="slicetext" text-anchor="middle" x="0" y="0" style="font-family: 'Open Sans', verdana, arial, sans-serif; font-size: 22px; fill: rgb(255, 255, 255); fill-opacity: 1; white-space: pre;" transform="translate(914.0678003020911,1262.0047322969385)"><tspan class="line" dy="0em" x="0" y="0">06</tspan><tspan class="line" dy="1.3em" x="0" y="0">10.55 ms</tspan><tspan class="line" dy="2.6em" x="0" y="0">8%</tspan></text></g></g><g class="slice"><path class="surface" d="M898.2878758232396,1041.5653212348575L1076.5757516464791,1328.130642469715A675,675 0,0,0 1085.2820697153427,1322.6213610713357L902.6410348576713,1038.8106805356679A337.5,337.5 0,0,1 898.2878758232396,1041.5653212348575Z" style="pointer-events: none; stroke-width: 1; fill: rgb(99, 110, 250); fill-opacity: 1; stroke: rgb(255, 255, 255); stroke-opacity: 1; opacity: 0.7;"/><g class="slicetext"><text data-notex="1" class="slicetext" text-anchor="middle" x="0" y="0" style="font-family: 'Open Sans', verdana, arial, sans-serif; font-size: 22px; fill: rgb(255, 255, 255); fill-opacity: 1; white-space: pre;" transform="translate(1078.205645471088,1319.4264463579373)scale(0.08291433320912583)"><tspan class="line" dy="0em" x="0" y="0">03</tspan><tspan class="line" dy="1.3em" x="0" y="0">0.40 ms</tspan><tspan class="line" dy="2.6em" x="0" y="0">0.289%</tspan></text></g></g><g class="slice"><path class="surface" d="M902.6410348576713,1038.8106805356679L1085.2820697153427,1322.6213610713357A675,675 0,0,0 1086.8666409277246,1321.5985066821197L903.4333204638623,1038.2992533410597A337.5,337.5 0,0,1 902.6410348576713,1038.8106805356679Z" style="pointer-events: none; stroke-width: 1; fill: rgb(99, 110, 250); fill-opacity: 1; stroke: rgb(255, 255, 255); stroke-opacity: 1; opacity: 0.7;"/><g class="slicetext"><text data-notex="1" class="slicetext" text-anchor="middle" x="0" y="0" style="font-family: 'Open Sans', verdana, arial, sans-serif; font-size: 22px; fill: rgb(255, 255, 255); fill-opacity: 1; white-space: pre;" transform="translate(1085.5639988696244,1321.0353264260189)scale(0.01430520155122891)"><tspan class="line" dy="0em" x="0" y="0">05</tspan><tspan class="line" dy="1.3em" x="0" y="0">0.07 ms</tspan><tspan class="line" dy="2.6em" x="0" y="0">0.0528%</tspan></text></g></g><g class="slice"><path class="surface" d="M903.4333204638623,1038.2992533410597L1086.8666409277246,1321.5985066821197A675,675 0,0,0 1087.4834491313136,1321.198652960737L903.7417245656568,1038.0993264803685A337.5,337.5 0,0,1 903.4333204638623,1038.2992533410597Z" style="pointer-events: none; stroke-width: 1; fill: rgb(99, 110, 250); fill-opacity: 1; stroke: rgb(255, 255, 255); stroke-opacity: 1; opacity: 0.7;"/><g class="slicetext"><text data-notex="1" class="slicetext" text-anchor="middle" x="0" y="0" style="font-family: 'Open Sans', verdana, arial, sans-serif; font-size: 22px; fill: rgb(255, 255, 255); fill-opacity: 1; white-space: pre;" transform="translate(1086.975281399869,1320.979652349619)scale(0.005580173737420493)"><tspan class="line" dy="0em" x="0" y="0">02</tspan><tspan class="line" dy="1.3em" x="0" y="0">0.03 ms</tspan><tspan class="line" dy="2.6em" x="0" y="0">0.0206%</tspan></text></g></g><g class="slice"><path class="surface" d="M903.7417245656568,1038.0993264803685L1087.4834491313136,1321.198652960737A675,675 0,0,0 1087.865892616356,1320.9502496240916L903.932946308178,1037.9751248120458A337.5,337.5 0,0,1 903.7417245656568,1038.0993264803685Z" style="pointer-events: none; stroke-width: 1; fill: rgb(99, 110, 250); fill-opacity: 1; stroke: rgb(255, 255, 255); stroke-opacity: 1; opacity: 0.7;"/><g class="slicetext"><text data-notex="1" class="slicetext" text-anchor="middle" x="0" y="0" style="font-family: 'Open Sans', verdana, arial, sans-serif; font-size: 22px; fill: rgb(255, 255, 255); fill-opacity: 1; white-space: pre;" transform="translate(1087.5505321249166,1320.8145882597387)scale(0.0034626071021942695)"><tspan class="line" dy="0em" x="0" y="0">01</tspan><tspan class="line" dy="1.3em" x="0" y="0">0.02 ms</tspan><tspan class="line" dy="2.6em" x="0" y="0">0.0128%</tspan></text></g></g><g class="slice"><path class="surface" d="M903.932946308178,1037.9751248120458L1087.865892616356,1320.9502496240916A675,675 0,0,0 1278.5055576638454,1134.0732674016954L999.2527788319227,944.5366337008477A337.5,337.5 0,0,1 903.932946308178,1037.9751248120458Z" style="pointer-events: none; stroke-width: 1; fill: rgb(239, 85, 59); fill-opacity: 1; stroke: rgb(255, 255, 255); stroke-opacity: 1; opacity: 0.7;"/><g class="slicetext"><text data-notex="1" class="slicetext" text-anchor="middle" x="0" y="0" style="font-family: 'Open Sans', verdana, arial, sans-serif; font-size: 22px; fill: rgb(68, 68, 68); fill-opacity: 1; white-space: pre;" transform="translate(1114.5045144654277,1137.596120478467)"><tspan class="line" dy="0em" x="0" y="0">03</tspan><tspan class="line" dy="1.3em" x="0" y="0">10.31 ms</tspan><tspan class="line" dy="2.6em" x="0" y="0">77%</tspan></text></g></g><g class="slice"><path class="surface" d="M999.2527788319227,944.5366337008477L1278.5055576638454,1134.0732674016954A675,675 0,0,0 1305.1008431642886,1091.5739195606793L1012.5504215821443,923.2869597803397A337.5,337.5 0,0,1 999.2527788319227,944.5366337008477Z" style="pointer-events: none; stroke-width: 1; fill: rgb(239, 85, 59); fill-opacity: 1; stroke: rgb(255, 255, 255); stroke-opacity: 1; opacity: 0.7;"/><g class="slicetext"><text data-notex="1" class="slicetext" text-anchor="middle" x="0" y="0" style="font-family: 'Open Sans', verdana, arial, sans-serif; font-size: 22px; fill: rgb(68, 68, 68); fill-opacity: 1; white-space: pre;" transform="translate(1271.709126982671,1092.4675652146439)scale(0.39198619132159784)"><tspan class="line" dy="0em" x="0" y="0">02</tspan><tspan class="line" dy="1.3em" x="0" y="0">1.92 ms</tspan><tspan class="line" dy="2.6em" x="0" y="0">14%</tspan></text></g></g><g class="slice"><path class="surface" d="M1012.5504215821443,923.2869597803397L1305.1008431642886,1091.5739195606793A675,675 0,0,0 1319.250993898353,1065.6819053498866L1019.6254969491765,910.3409526749433A337.5,337.5 0,0,1 1012.5504215821443,923.2869597803397Z" style="pointer-events: none; stroke-width: 1; fill: rgb(239, 85, 59); fill-opacity: 1; stroke: rgb(255, 255, 255); stroke-opacity: 1; opacity: 0.7;"/><g class="slicetext"><text data-notex="1" class="slicetext" text-anchor="middle" x="0" y="0" style="font-family: 'Open Sans', verdana, arial, sans-serif; font-size: 22px; fill: rgb(68, 68, 68); fill-opacity: 1; white-space: pre;" transform="translate(1299.648308505003,1067.1332705639559)scale(0.2341489841808568)"><tspan class="line" dy="0em" x="0" y="0">04</tspan><tspan class="line" dy="1.3em" x="0" y="0">1.13 ms</tspan><tspan class="line" dy="2.6em" x="0" y="0">8%</tspan></text></g></g><g class="slice"><path class="surface" d="M1019.6254969491765,910.3409526749433L1319.250993898353,1065.6819053498866A675,675 0,0,0 1319.282475619438,1065.6211750918437L1019.641237809719,910.3105875459219A337.5,337.5 0,0,1 1019.6254969491765,910.3409526749433Z" style="pointer-events: none; stroke-width: 1; fill: rgb(239, 85, 59); fill-opacity: 1; stroke: rgb(255, 255, 255); stroke-opacity: 1; opacity: 0.7;"/><g class="slicetext"><text data-notex="1" class="slicetext" text-anchor="middle" x="0" y="0" style="font-family: 'Open Sans', verdana, arial, sans-serif; font-size: 22px; fill: rgb(68, 68, 68); fill-opacity: 1; white-space: pre;" transform="translate(1319.236371937719,1065.625486871895)scale(0.0005195402015790555)"><tspan class="line" dy="0em" x="0" y="0">01</tspan><tspan class="line" dy="1.3em" x="0" y="0">0.00 ms</tspan><tspan class="line" dy="2.6em" x="0" y="0">0.0196%</tspan></text></g></g><g class="slice"><path class="surface" d="M1019.641237809719,910.3105875459219L1319.282475619438,1065.6211750918437A675,675 0,0,0 1382.6581219319198,883.4881840390814L1051.3290609659598,819.2440920195406A337.5,337.5 0,0,1 1019.641237809719,910.3105875459219Z" style="pointer-events: none; stroke-width: 1; fill: rgb(0, 204, 150); fill-opacity: 1; stroke: rgb(255, 255, 255); stroke-opacity: 1; opacity: 0.7;"/><g class="slicetext"><text data-notex="1" class="slicetext" text-anchor="middle" x="0" y="0" style="font-family: 'Open Sans', verdana, arial, sans-serif; font-size: 22px; fill: rgb(68, 68, 68); fill-opacity: 1; white-space: pre;" transform="translate(1277.824286609183,929.2509693274976)"><tspan class="line" dy="0em" x="0" y="0">04</tspan><tspan class="line" dy="1.3em" x="0" y="0">7.43 ms</tspan><tspan class="line" dy="2.6em" x="0" y="0">96%</tspan></text></g></g><g class="slice"><path class="surface" d="M1051.3290609659598,819.2440920195406L1382.6581219319198,883.4881840390814A675,675 0,0,0 1383.4141191533336,879.5259270513831L1051.7070595766668,817.2629635256916A337.5,337.5 0,0,1 1051.3290609659598,819.2440920195406Z" style="pointer-events: none; stroke-width: 1; fill: rgb(0, 204, 150); fill-opacity: 1; stroke: rgb(255, 255, 255); stroke-opacity: 1; opacity: 0.7;"/><g class="slicetext"><text data-notex="1" class="slicetext" text-anchor="middle" x="0" y="0" style="font-family: 'Open Sans', verdana, arial, sans-serif; font-size: 22px; fill: rgb(68, 68, 68); fill-opacity: 1; white-space: pre;" transform="translate(1381.063853694092,880.4833467403203)scale(0.03261209252287551)"><tspan class="line" dy="0em" x="0" y="0">01</tspan><tspan class="line" dy="1.3em" x="0" y="0">0.15 ms</tspan><tspan class="line" dy="2.6em" x="0" y="0">2%</tspan></text></g></g><g class="slice"><path class="surface" d="M1051.7070595766668,817.2629635256916L1383.4141191533336,879.5259270513831A675,675 0,0,0 1383.9420485566257,876.6797278039005L1051.9710242783128,815.8398639019503A337.5,337.5 0,0,1 1051.7070595766668,817.2629635256916Z" style="pointer-events: none; stroke-width: 1; fill: rgb(0, 204, 150); fill-opacity: 1; stroke: rgb(255, 255, 255); stroke-opacity: 1; opacity: 0.7;"/><g class="slicetext"><text data-notex="1" class="slicetext" text-anchor="middle" x="0" y="0" style="font-family: 'Open Sans', verdana, arial, sans-serif; font-size: 22px; fill: rgb(68, 68, 68); fill-opacity: 1; white-space: pre;" transform="translate(1382.2595549407258,877.3747220974883)scale(0.023423266052070693)"><tspan class="line" dy="0em" x="0" y="0">02</tspan><tspan class="line" dy="1.3em" x="0" y="0">0.11 ms</tspan><tspan class="line" dy="2.6em" x="0" y="0">1%</tspan></text></g></g><g class="slice"><path class="surface" d="M1051.9710242783128,815.8398639019503L1383.9420485566257,876.6797278039005A675,675 0,0,0 1384.181309113972,875.3668917254666L1052.090654556986,815.1834458627334A337.5,337.5 0,0,1 1051.9710242783128,815.8398639019503Z" style="pointer-events: none; stroke-width: 1; fill: rgb(0, 204, 150); fill-opacity: 1; stroke: rgb(255, 255, 255); stroke-opacity: 1; opacity: 0.7;"/><g class="slicetext"><text data-notex="1" class="slicetext" text-anchor="middle" x="0" y="0" style="font-family: 'Open Sans', verdana, arial, sans-serif; font-size: 22px; fill: rgb(68, 68, 68); fill-opacity: 1; white-space: pre;" transform="translate(1383.406233448498,875.689252482099)scale(0.01081044713662945)"><tspan class="line" dy="0em" x="0" y="0">03</tspan><tspan class="line" dy="1.3em" x="0" y="0">0.05 ms</tspan><tspan class="line" dy="2.6em" x="0" y="0">1%</tspan></text></g></g><g class="slice"><path class="surface" d="M1052.090654556986,815.1834458627334L1384.181309113972,875.3668917254666A675,675 0,0,0 1388.2772335579375,850.0291487289555L1054.1386167789688,802.5145743644778A337.5,337.5 0,0,1 1052.090654556986,815.1834458627334Z" style="pointer-events: none; stroke-width: 1; fill: rgb(171, 99, 250); fill-opacity: 1; stroke: rgb(255, 255, 255); stroke-opacity: 1; opacity: 0.7;"/><g class="slicetext"><text data-notex="1" class="slicetext" text-anchor="middle" x="0" y="0" style="font-family: 'Open Sans', verdana, arial, sans-serif; font-size: 22px; fill: rgb(68, 68, 68); fill-opacity: 1; white-space: pre;" transform="translate(1373.9172142126993,856.6531025545468)scale(0.20424768059875117)"><tspan class="line" dy="0em" x="0" y="0">01</tspan><tspan class="line" dy="1.3em" x="0" y="0">0.98 ms</tspan><tspan class="line" dy="2.6em" x="0" y="0">47%</tspan></text></g></g><g class="slice"><path class="surface" d="M1054.1386167789688,802.5145743644778L1388.2772335579375,850.0291487289555A675,675 0,0,0 1390.2842589510724,834.6493076078619L1055.1421294755362,794.8246538039309A337.5,337.5 0,0,1 1054.1386167789688,802.5145743644778Z" style="pointer-events: none; stroke-width: 1; fill: rgb(171, 99, 250); fill-opacity: 1; stroke: rgb(255, 255, 255); stroke-opacity: 1; opacity: 0.7;"/><g class="slicetext"><text data-notex="1" class="slicetext" text-anchor="middle" x="0" y="0" style="font-family: 'Open Sans', verdana, arial, sans-serif; font-size: 22px; fill: rgb(68, 68, 68); fill-opacity: 1; white-space: pre;" transform="translate(1381.72234866953,838.8844579006702)scale(0.12434391218803789)"><tspan class="line" dy="0em" x="0" y="0">02</tspan><tspan class="line" dy="1.3em" x="0" y="0">0.60 ms</tspan><tspan class="line" dy="2.6em" x="0" y="0">28%</tspan></text></g></g><g class="slice"><path class="surface" d="M1055.1421294755362,794.8246538039309L1390.2842589510724,834.6493076078619A675,675 0,0,0 1391.2324340648875,826.2181118770114L1055.6162170324437,790.6090559385058A337.5,337.5 0,0,1 1055.1421294755362,794.8246538039309Z" style="pointer-events: none; stroke-width: 1; fill: rgb(171, 99, 250); fill-opacity: 1; stroke: rgb(255, 255, 255); stroke-opacity: 1; opacity: 0.7;"/><g class="slicetext"><text data-notex="1" class="slicetext" text-anchor="middle" x="0" y="0" style="font-family: 'Open Sans', verdana, arial, sans-serif; font-size: 22px; fill: rgb(68, 68, 68); fill-opacity: 1; white-space: pre;" transform="translate(1386.5823239562928,828.6068248584007)scale(0.06836983135462343)"><tspan class="line" dy="0em" x="0" y="0">03</tspan><tspan class="line" dy="1.3em" x="0" y="0">0.33 ms</tspan><tspan class="line" dy="2.6em" x="0" y="0">16%</tspan></text></g></g><g class="slice"><path class="surface" d="M1055.6162170324437,790.6090559385058L1391.2324340648875,826.2181118770114A675,675 0,0,0 1391.7320721980427,821.3402078721753L1055.8660360990214,788.1701039360876A337.5,337.5 0,0,1 1055.6162170324437,790.6090559385058Z" style="pointer-events: none; stroke-width: 1; fill: rgb(171, 99, 250); fill-opacity: 1; stroke: rgb(255, 255, 255); stroke-opacity: 1; opacity: 0.7;"/><g class="slicetext"><text data-notex="1" class="slicetext" text-anchor="middle" x="0" y="0" style="font-family: 'Open Sans', verdana, arial, sans-serif; font-size: 22px; fill: rgb(68, 68, 68); fill-opacity: 1; white-space: pre;" transform="translate(1389.0565571066254,822.7442201343622)scale(0.03961796298346337)"><tspan class="line" dy="0em" x="0" y="0">04</tspan><tspan class="line" dy="1.3em" x="0" y="0">0.19 ms</tspan><tspan class="line" dy="2.6em" x="0" y="0">9%</tspan></text></g></g><g class="slice"><path class="surface" d="M1055.8660360990214,788.1701039360876L1391.7320721980427,821.3402078721753A675,675 0,0,0 1392.8811485377887,808.4411820833567L1056.4405742688944,781.7205910416783A337.5,337.5 0,0,1 1055.8660360990214,788.1701039360876Z" style="pointer-events: none; stroke-width: 1; fill: rgb(255, 161, 90); fill-opacity: 1; stroke: rgb(255, 255, 255); stroke-opacity: 1; opacity: 0.7;"/><g class="slicetext"><text data-notex="1" class="slicetext" text-anchor="middle" x="0" y="0" style="font-family: 'Open Sans', verdana, arial, sans-serif; font-size: 22px; fill: rgb(68, 68, 68); fill-opacity: 1; white-space: pre;" transform="translate(1385.949312427526,812.2595195708851)scale(0.10401458160313845)"><tspan class="line" dy="0em" x="0" y="0">04</tspan><tspan class="line" dy="1.3em" x="0" y="0">0.50 ms</tspan><tspan class="line" dy="2.6em" x="0" y="0">78%</tspan></text></g></g><g class="slice"><path class="surface" d="M1056.4405742688944,781.7205910416783L1392.8811485377887,808.4411820833567A675,675 0,0,0 1393.0158810860125,806.7167652315793L1056.5079405430063,780.8583826157897A337.5,337.5 0,0,1 1056.4405742688944,781.7205910416783Z" style="pointer-events: none; stroke-width: 1; fill: rgb(255, 161, 90); fill-opacity: 1; stroke: rgb(255, 255, 255); stroke-opacity: 1; opacity: 0.7;"/><g class="slicetext"><text data-notex="1" class="slicetext" text-anchor="middle" x="0" y="0" style="font-family: 'Open Sans', verdana, arial, sans-serif; font-size: 22px; fill: rgb(68, 68, 68); fill-opacity: 1; white-space: pre;" transform="translate(1392.0879620149487,807.2336568735758)scale(0.014007958707280273)"><tspan class="line" dy="0em" x="0" y="0">03</tspan><tspan class="line" dy="1.3em" x="0" y="0">0.07 ms</tspan><tspan class="line" dy="2.6em" x="0" y="0">10%</tspan></text></g></g><g class="slice"><path class="surface" d="M1056.5079405430063,780.8583826157897L1393.0158810860125,806.7167652315793A675,675 0,0,0 1393.1244184818588,805.2843638068457L1056.5622092409294,780.1421819034229A337.5,337.5 0,0,1 1056.5079405430063,780.8583826157897Z" style="pointer-events: none; stroke-width: 1; fill: rgb(255, 161, 90); fill-opacity: 1; stroke: rgb(255, 255, 255); stroke-opacity: 1; opacity: 0.7;"/><g class="slicetext"><text data-notex="1" class="slicetext" text-anchor="middle" x="0" y="0" style="font-family: 'Open Sans', verdana, arial, sans-serif; font-size: 22px; fill: rgb(68, 68, 68); fill-opacity: 1; white-space: pre;" transform="translate(1392.3550914036061,805.7153845737799)scale(0.011636253089321426)"><tspan class="line" dy="0em" x="0" y="0">01</tspan><tspan class="line" dy="1.3em" x="0" y="0">0.06 ms</tspan><tspan class="line" dy="2.6em" x="0" y="0">9%</tspan></text></g></g><g class="slice"><path class="surface" d="M1056.5622092409294,780.1421819034229L1393.1244184818588,805.2843638068457A675,675 0,0,0 1393.1572753031764,804.842579251112L1056.5786376515882,779.921289625556A337.5,337.5 0,0,1 1056.5622092409294,780.1421819034229Z" style="pointer-events: none; stroke-width: 1; fill: rgb(255, 161, 90); fill-opacity: 1; stroke: rgb(255, 255, 255); stroke-opacity: 1; opacity: 0.7;"/><g class="slicetext"><text data-notex="1" class="slicetext" text-anchor="middle" x="0" y="0" style="font-family: 'Open Sans', verdana, arial, sans-serif; font-size: 22px; fill: rgb(68, 68, 68); fill-opacity: 1; white-space: pre;" transform="translate(1392.9200633201149,804.9757613640056)scale(0.0035911449821988844)"><tspan class="line" dy="0em" x="0" y="0">02</tspan><tspan class="line" dy="1.3em" x="0" y="0">0.02 ms</tspan><tspan class="line" dy="2.6em" x="0" y="0">3%</tspan></text></g></g><g class="slice"><path class="surface" d="M1056.5786376515882,779.921289625556L1393.1572753031764,804.842579251112A675,675 0,0,0 1393.770462659168,795.7230112841671L1056.885231329584,775.3615056420836A337.5,337.5 0,0,1 1056.5786376515882,779.921289625556Z" style="pointer-events: none; stroke-width: 1; fill: rgb(25, 211, 243); fill-opacity: 1; stroke: rgb(255, 255, 255); stroke-opacity: 1; opacity: 0.7;"/><g class="slicetext"><text data-notex="1" class="slicetext" text-anchor="middle" x="0" y="0" style="font-family: 'Open Sans', verdana, arial, sans-serif; font-size: 22px; fill: rgb(68, 68, 68); fill-opacity: 1; white-space: pre;" transform="translate(1388.9501855104236,798.5178475054145)scale(0.07361908263146325)"><tspan class="line" dy="0em" x="0" y="0">04</tspan><tspan class="line" dy="1.3em" x="0" y="0">0.35 ms</tspan><tspan class="line" dy="2.6em" x="0" y="0">58%</tspan></text></g></g><g class="slice"><path class="surface" d="M1056.885231329584,775.3615056420836L1393.770462659168,795.7230112841671A675,675 0,0,0 1394.0918621677768,790.0023050552254L1057.0459310838883,772.5011525276127A337.5,337.5 0,0,1 1056.885231329584,775.3615056420836Z" style="pointer-events: none; stroke-width: 1; fill: rgb(25, 211, 243); fill-opacity: 1; stroke: rgb(255, 255, 255); stroke-opacity: 1; opacity: 0.7;"/><g class="slicetext"><text data-notex="1" class="slicetext" text-anchor="middle" x="0" y="0" style="font-family: 'Open Sans', verdana, arial, sans-serif; font-size: 22px; fill: rgb(68, 68, 68); fill-opacity: 1; white-space: pre;" transform="translate(1391.0889680676823,791.7845267225988)scale(0.04626597452458123)"><tspan class="line" dy="0em" x="0" y="0">03</tspan><tspan class="line" dy="1.3em" x="0" y="0">0.22 ms</tspan><tspan class="line" dy="2.6em" x="0" y="0">36%</tspan></text></g></g><g class="slice"><path class="surface" d="M1057.0459310838883,772.5011525276127L1394.0918621677768,790.0023050552254A675,675 0,0,0 1394.131949098231,789.2215605287091L1057.0659745491155,772.1107802643545A337.5,337.5 0,0,1 1057.0459310838883,772.5011525276127Z" style="pointer-events: none; stroke-width: 1; fill: rgb(25, 211, 243); fill-opacity: 1; stroke: rgb(255, 255, 255); stroke-opacity: 1; opacity: 0.7;"/><g class="slicetext"><text data-notex="1" class="slicetext" text-anchor="middle" x="0" y="0" style="font-family: 'Open Sans', verdana, arial, sans-serif; font-size: 22px; fill: rgb(68, 68, 68); fill-opacity: 1; white-space: pre;" transform="translate(1393.7218723305698,789.4661326882591)scale(0.006335725072136667)"><tspan class="line" dy="0em" x="0" y="0">02</tspan><tspan class="line" dy="1.3em" x="0" y="0">0.03 ms</tspan><tspan class="line" dy="2.6em" x="0" y="0">5%</tspan></text></g></g><g class="slice"><path class="surface" d="M1057.0659745491155,772.1107802643545L1394.131949098231,789.2215605287091A675,675 0,0,0 1394.1346448124268,789.1684161708288L1057.0673224062134,772.0842080854144A337.5,337.5 0,0,1 1057.0659745491155,772.1107802643545Z" style="pointer-events: none; stroke-width: 1; fill: rgb(25, 211, 243); fill-opacity: 1; stroke: rgb(255, 255, 255); stroke-opacity: 1; opacity: 0.7;"/><g class="slicetext"><text data-notex="1" class="slicetext" text-anchor="middle" x="0" y="0" style="font-family: 'Open Sans', verdana, arial, sans-serif; font-size: 22px; fill: rgb(68, 68, 68); fill-opacity: 1; white-space: pre;" transform="translate(1394.1067263474329,789.1850749320955)scale(0.000431484436853826)"><tspan class="line" dy="0em" x="0" y="0">01</tspan><tspan class="line" dy="1.3em" x="0" y="0">0.00 ms</tspan><tspan class="line" dy="2.6em" x="0" y="0">0.339%</tspan></text></g></g><g class="slice"><path class="surface" d="M1057.0673224062134,772.0842080854147L1394.1346448124268,789.1684161708293A675,675 0,0,0 1394.4840943705242,781.385724192712L1057.242047185262,768.1928620963561A337.5,337.5 0,0,1 1057.0673224062134,772.0842080854147Z" style="pointer-events: none; stroke-width: 1; fill: rgb(255, 102, 146); fill-opacity: 1; stroke: rgb(255, 255, 255); stroke-opacity: 1; opacity: 0.7;"/><g class="slicetext"><text data-notex="1" class="slicetext" text-anchor="middle" x="0" y="0" style="font-family: 'Open Sans', verdana, arial, sans-serif; font-size: 22px; fill: rgb(68, 68, 68); fill-opacity: 1; white-space: pre;" transform="translate(1390.4515789181858,783.8569568085763)scale(0.06281093776171268)"><tspan class="line" dy="0em" x="0" y="0">01</tspan><tspan class="line" dy="1.3em" x="0" y="0">0.30 ms</tspan><tspan class="line" dy="2.6em" x="0" y="0">60%</tspan></text></g></g><g class="slice"><path class="surface" d="M1057.242047185262,768.1928620963561L1394.4840943705242,781.385724192712A675,675 0,0,0 1394.5693777115416,779.10714943463L1057.2846888557708,767.053574717315A337.5,337.5 0,0,1 1057.242047185262,768.1928620963561Z" style="pointer-events: none; stroke-width: 1; fill: rgb(255, 102, 146); fill-opacity: 1; stroke: rgb(255, 255, 255); stroke-opacity: 1; opacity: 0.7;"/><g class="slicetext"><text data-notex="1" class="slicetext" text-anchor="middle" x="0" y="0" style="font-family: 'Open Sans', verdana, arial, sans-serif; font-size: 22px; fill: rgb(68, 68, 68); fill-opacity: 1; white-space: pre;" transform="translate(1393.3903318281868,779.8374687315404)scale(0.018458714463174285)"><tspan class="line" dy="0em" x="0" y="0">03</tspan><tspan class="line" dy="1.3em" x="0" y="0">0.09 ms</tspan><tspan class="line" dy="2.6em" x="0" y="0">18%</tspan></text></g></g><g class="slice"><path class="surface" d="M1057.2846888557708,767.053574717315L1394.5693777115416,779.10714943463A675,675 0,0,0 1394.6397284134846,777.0507788111853L1057.3198642067423,766.0253894055926A337.5,337.5 0,0,1 1057.2846888557708,767.053574717315Z" style="pointer-events: none; stroke-width: 1; fill: rgb(255, 102, 146); fill-opacity: 1; stroke: rgb(255, 255, 255); stroke-opacity: 1; opacity: 0.7;"/><g class="slicetext"><text data-notex="1" class="slicetext" text-anchor="middle" x="0" y="0" style="font-family: 'Open Sans', verdana, arial, sans-serif; font-size: 22px; fill: rgb(68, 68, 68); fill-opacity: 1; white-space: pre;" transform="translate(1393.5787159964543,777.7131526819485)scale(0.01665946577534153)"><tspan class="line" dy="0em" x="0" y="0">04</tspan><tspan class="line" dy="1.3em" x="0" y="0">0.08 ms</tspan><tspan class="line" dy="2.6em" x="0" y="0">16%</tspan></text></g></g><g class="slice"><path class="surface" d="M1057.3198642067423,766.0253894055926L1394.6397284134846,777.0507788111853A675,675 0,0,0 1394.6651226045578,776.2596411300127L1057.332561302279,765.6298205650063A337.5,337.5 0,0,1 1057.3198642067423,766.0253894055926Z" style="pointer-events: none; stroke-width: 1; fill: rgb(255, 102, 146); fill-opacity: 1; stroke: rgb(255, 255, 255); stroke-opacity: 1; opacity: 0.7;"/><g class="slicetext"><text data-notex="1" class="slicetext" text-anchor="middle" x="0" y="0" style="font-family: 'Open Sans', verdana, arial, sans-serif; font-size: 22px; fill: rgb(68, 68, 68); fill-opacity: 1; white-space: pre;" transform="translate(1394.2572044331905,776.5151787413985)scale(0.006414875218435548)"><tspan class="line" dy="0em" x="0" y="0">02</tspan><tspan class="line" dy="1.3em" x="0" y="0">0.03 ms</tspan><tspan class="line" dy="2.6em" x="0" y="0">6%</tspan></text></g></g><g class="slice"><path class="surface" d="M1057.332561302279,765.6298205650063L1394.6651226045578,776.2596411300127A675,675 0,0,0 1394.7880838016727,771.9127750315207L1057.3940419008363,763.4563875157603A337.5,337.5 0,0,1 1057.332561302279,765.6298205650063Z" style="pointer-events: none; stroke-width: 1; fill: rgb(182, 232, 128); fill-opacity: 1; stroke: rgb(255, 255, 255); stroke-opacity: 1; opacity: 0.7;"/><g class="slicetext"><text data-notex="1" class="slicetext" text-anchor="middle" x="0" y="0" style="font-family: 'Open Sans', verdana, arial, sans-serif; font-size: 22px; fill: rgb(68, 68, 68); fill-opacity: 1; white-space: pre;" transform="translate(1392.5636492409685,773.3272494894643)scale(0.03514959681621207)"><tspan class="line" dy="0em" x="0" y="0">03</tspan><tspan class="line" dy="1.3em" x="0" y="0">0.17 ms</tspan><tspan class="line" dy="2.6em" x="0" y="0">44%</tspan></text></g></g><g class="slice"><path class="surface" d="M1057.3940419008363,763.4563875157603L1394.7880838016727,771.9127750315207A675,675 0,0,0 1394.8802531408055,767.7139262465317L1057.4401265704028,761.3569631232658A337.5,337.5 0,0,1 1057.3940419008363,763.4563875157603Z" style="pointer-events: none; stroke-width: 1; fill: rgb(182, 232, 128); fill-opacity: 1; stroke: rgb(255, 255, 255); stroke-opacity: 1; opacity: 0.7;"/><g class="slicetext"><text data-notex="1" class="slicetext" text-anchor="middle" x="0" y="0" style="font-family: 'Open Sans', verdana, arial, sans-serif; font-size: 22px; fill: rgb(68, 68, 68); fill-opacity: 1; white-space: pre;" transform="translate(1392.7445208185497,769.0934996054731)scale(0.03395102900116038)"><tspan class="line" dy="0em" x="0" y="0">04</tspan><tspan class="line" dy="1.3em" x="0" y="0">0.16 ms</tspan><tspan class="line" dy="2.6em" x="0" y="0">43%</tspan></text></g></g><g class="slice"><path class="surface" d="M1057.4401265704028,761.3569631232658L1394.8802531408055,767.7139262465317A675,675 0,0,0 1394.8999810235432,766.6196219568826L1057.4499905117716,760.8098109784413A337.5,337.5 0,0,1 1057.4401265704028,761.3569631232658Z" style="pointer-events: none; stroke-width: 1; fill: rgb(182, 232, 128); fill-opacity: 1; stroke: rgb(255, 255, 255); stroke-opacity: 1; opacity: 0.7;"/><g class="slicetext"><text data-notex="1" class="slicetext" text-anchor="middle" x="0" y="0" style="font-family: 'Open Sans', verdana, arial, sans-serif; font-size: 22px; fill: rgb(68, 68, 68); fill-opacity: 1; white-space: pre;" transform="translate(1394.3436299649666,766.9808792539486)scale(0.008867961671260935)"><tspan class="line" dy="0em" x="0" y="0">01</tspan><tspan class="line" dy="1.3em" x="0" y="0">0.04 ms</tspan><tspan class="line" dy="2.6em" x="0" y="0">11%</tspan></text></g></g><g class="slice"><path class="surface" d="M1057.4499905117716,760.8098109784413L1394.8999810235432,766.6196219568826A675,675 0,0,0 1394.9039591154897,766.3862184344722L1057.4519795577448,760.693109217236A337.5,337.5 0,0,1 1057.4499905117716,760.8098109784413Z" style="pointer-events: none; stroke-width: 1; fill: rgb(182, 232, 128); fill-opacity: 1; stroke: rgb(255, 255, 255); stroke-opacity: 1; opacity: 0.7;"/><g class="slicetext"><text data-notex="1" class="slicetext" text-anchor="middle" x="0" y="0" style="font-family: 'Open Sans', verdana, arial, sans-serif; font-size: 22px; fill: rgb(68, 68, 68); fill-opacity: 1; white-space: pre;" transform="translate(1394.7852985743316,766.4633602829202)scale(0.001892615890216883)"><tspan class="line" dy="0em" x="0" y="0">02</tspan><tspan class="line" dy="1.3em" x="0" y="0">0.01 ms</tspan><tspan class="line" dy="2.6em" x="0" y="0">2%</tspan></text></g></g><g class="slice"><path class="surface" d="M1057.4519795577448,760.693109217236L1394.9039591154897,766.3862184344722A675,675 0,0,0 1394.9359663258247,764.2973845690631L1057.4679831629123,759.6486922845315A337.5,337.5 0,0,1 1057.4519795577448,760.693109217236Z" style="pointer-events: none; stroke-width: 1; fill: rgb(255, 151, 255); fill-opacity: 1; stroke: rgb(255, 255, 255); stroke-opacity: 1; opacity: 0.7;"/><g class="slicetext"><text data-notex="1" class="slicetext" text-anchor="middle" x="0" y="0" style="font-family: 'Open Sans', verdana, arial, sans-serif; font-size: 22px; fill: rgb(68, 68, 68); fill-opacity: 1; white-space: pre;" transform="translate(1393.8779675907967,764.9900624985564)scale(0.016914160149318996)"><tspan class="line" dy="0em" x="0" y="0">01</tspan><tspan class="line" dy="1.3em" x="0" y="0">0.08 ms</tspan><tspan class="line" dy="2.6em" x="0" y="0">36%</tspan></text></g></g><g class="slice"><path class="surface" d="M1057.4679831629123,759.6486922845315L1394.9359663258247,764.2973845690631A675,675 0,0,0 1394.9561509505938,762.6937828120562L1057.478075475297,758.8468914060281A337.5,337.5 0,0,1 1057.4679831629123,759.6486922845315Z" style="pointer-events: none; stroke-width: 1; fill: rgb(255, 151, 255); fill-opacity: 1; stroke: rgb(255, 255, 255); stroke-opacity: 1; opacity: 0.7;"/><g class="slicetext"><text data-notex="1" class="slicetext" text-anchor="middle" x="0" y="0" style="font-family: 'Open Sans', verdana, arial, sans-serif; font-size: 22px; fill: rgb(68, 68, 68); fill-opacity: 1; white-space: pre;" transform="translate(1394.1456853754205,763.2276534299428)scale(0.012989200105084775)"><tspan class="line" dy="0em" x="0" y="0">04</tspan><tspan class="line" dy="1.3em" x="0" y="0">0.06 ms</tspan><tspan class="line" dy="2.6em" x="0" y="0">28%</tspan></text></g></g><g class="slice"><path class="surface" d="M1057.478075475297,758.8468914060281L1394.9561509505938,762.6937828120562A675,675 0,0,0 1394.9719443400156,761.1542143169331L1057.4859721700077,758.0771071584666A337.5,337.5 0,0,1 1057.478075475297,758.8468914060281Z" style="pointer-events: none; stroke-width: 1; fill: rgb(255, 151, 255); fill-opacity: 1; stroke: rgb(255, 255, 255); stroke-opacity: 1; opacity: 0.7;"/><g class="slicetext"><text data-notex="1" class="slicetext" text-anchor="middle" x="0" y="0" style="font-family: 'Open Sans', verdana, arial, sans-serif; font-size: 22px; fill: rgb(68, 68, 68); fill-opacity: 1; white-space: pre;" transform="translate(1394.1955792843614,761.6685507170358)scale(0.012470789215553427)"><tspan class="line" dy="0em" x="0" y="0">02</tspan><tspan class="line" dy="1.3em" x="0" y="0">0.06 ms</tspan><tspan class="line" dy="2.6em" x="0" y="0">27%</tspan></text></g></g><g class="slice"><path class="surface" d="M1057.4859721700077,758.0771071584666L1394.9719443400156,761.1542143169331A675,675 0,0,0 1394.976729871244,760.6048311590531L1057.488364935622,757.8024155795265A337.5,337.5 0,0,1 1057.4859721700077,758.0771071584666Z" style="pointer-events: none; stroke-width: 1; fill: rgb(255, 151, 255); fill-opacity: 1; stroke: rgb(255, 255, 255); stroke-opacity: 1; opacity: 0.7;"/><g class="slicetext"><text data-notex="1" class="slicetext" text-anchor="middle" x="0" y="0" style="font-family: 'Open Sans', verdana, arial, sans-serif; font-size: 22px; fill: rgb(68, 68, 68); fill-opacity: 1; white-space: pre;" transform="translate(1394.6998131663852,760.7887264177959)scale(0.00445330259761544)"><tspan class="line" dy="0em" x="0" y="0">03</tspan><tspan class="line" dy="1.3em" x="0" y="0">0.02 ms</tspan><tspan class="line" dy="2.6em" x="0" y="0">10%</tspan></text></g></g><g class="slice"><path class="surface" d="M1057.488364935622,757.8024155795263L1394.976729871244,760.6048311590524A675,675 0,0,0 1394.995955638959,757.3366366958693L1057.4979778194795,756.1683183479346A337.5,337.5 0,0,1 1057.488364935622,757.8024155795263Z" style="pointer-events: none; stroke-width: 1; fill: rgb(254, 203, 82); fill-opacity: 1; stroke: rgb(255, 255, 255); stroke-opacity: 1; opacity: 0.7;"/><g class="slicetext"><text data-notex="1" class="slicetext" text-anchor="middle" x="0" y="0" style="font-family: 'Open Sans', verdana, arial, sans-serif; font-size: 22px; fill: rgb(68, 68, 68); fill-opacity: 1; white-space: pre;" transform="translate(1393.3581700166487,758.4363157210486)scale(0.02643822996292591)"><tspan class="line" dy="0em" x="0" y="0">03</tspan><tspan class="line" dy="1.3em" x="0" y="0">0.13 ms</tspan><tspan class="line" dy="2.6em" x="0" y="0">58%</tspan></text></g></g><g class="slice"><path class="surface" d="M1057.4979778194795,756.1683183479346L1394.995955638959,757.3366366958693A675,675 0,0,0 1394.998826899201,756.2584453513002L1057.4994134496005,755.6292226756501A337.5,337.5 0,0,1 1057.4979778194795,756.1683183479346Z" style="pointer-events: none; stroke-width: 1; fill: rgb(254, 203, 82); fill-opacity: 1; stroke: rgb(255, 255, 255); stroke-opacity: 1; opacity: 0.7;"/><g class="slicetext"><text data-notex="1" class="slicetext" text-anchor="middle" x="0" y="0" style="font-family: 'Open Sans', verdana, arial, sans-serif; font-size: 22px; fill: rgb(68, 68, 68); fill-opacity: 1; white-space: pre;" transform="translate(1394.4589410869562,756.6226818118669)scale(0.00873610329460579)"><tspan class="line" dy="0em" x="0" y="0">01</tspan><tspan class="line" dy="1.3em" x="0" y="0">0.04 ms</tspan><tspan class="line" dy="2.6em" x="0" y="0">19%</tspan></text></g></g><g class="slice"><path class="surface" d="M1057.4994134496005,755.6292226756501L1394.998826899201,756.2584453513002A675,675 0,0,0 1394.99992244346,755.3235758382536L1057.49996122173,755.1617879191268A337.5,337.5 0,0,1 1057.4994134496005,755.6292226756501Z" style="pointer-events: none; stroke-width: 1; fill: rgb(254, 203, 82); fill-opacity: 1; stroke: rgb(255, 255, 255); stroke-opacity: 1; opacity: 0.7;"/><g class="slicetext"><text data-notex="1" class="slicetext" text-anchor="middle" x="0" y="0" style="font-family: 'Open Sans', verdana, arial, sans-serif; font-size: 22px; fill: rgb(68, 68, 68); fill-opacity: 1; white-space: pre;" transform="translate(1394.5324252361597,755.6400756477021)scale(0.007575612432452298)"><tspan class="line" dy="0em" x="0" y="0">04</tspan><tspan class="line" dy="1.3em" x="0" y="0">0.04 ms</tspan><tspan class="line" dy="2.6em" x="0" y="0">17%</tspan></text></g></g><g class="slice"><path class="surface" d="M1057.49996122173,755.1617879191268L1394.99992244346,755.3235758382536A675,675 0,0,0 1395,754.999999999999L1057.5,754.9999999999994A337.5,337.5 0,0,1 1057.49996122173,755.1617879191268Z" style="pointer-events: none; stroke-width: 1; fill: rgb(254, 203, 82); fill-opacity: 1; stroke: rgb(255, 255, 255); stroke-opacity: 1; opacity: 0.7;"/><g class="slicetext"><text data-notex="1" class="slicetext" text-anchor="middle" x="0" y="0" style="font-family: 'Open Sans', verdana, arial, sans-serif; font-size: 22px; fill: rgb(68, 68, 68); fill-opacity: 1; white-space: pre;" transform="translate(1394.8382314607138,755.1096736118121)scale(0.002623246557245858)"><tspan class="line" dy="0em" x="0" y="0">02</tspan><tspan class="line" dy="1.3em" x="0" y="0">0.01 ms</tspan><tspan class="line" dy="2.6em" x="0" y="0">6%</tspan></text></g></g></g></g><g class="glimages"/><defs id="topdefs-f8b001"><g class="clips"/></defs><g class="layer-above"><g class="imagelayer"/><g class="shapelayer"/></g><g class="infolayer"><g class="g-gtitle"><text class="gtitle" x="720" y="40" text-anchor="middle" dy="0em" style="opacity: 1; font-family: 'Open Sans', verdana, arial, sans-serif; font-size: 31px; fill: rgb(42, 63, 95); fill-opacity: 1; white-space: pre;">Total time: 163 ms</text></g></g></svg>