<svg class="main-svg" xmlns="http://www.w3.org/2000/svg" xmlns:xlink="http://www.w3.org/1999/xlink" width="1440" height="1440" style="" viewBox="0 0 1440 1440"><rect x="0" y="0" width="1440" height="1440" style="fill: rgb(255, 255, 255); fill-opacity: 1;"/><defs id="defs-f51aed"><g class="clips"/><g class="gradients"/><g class="patterns"/></defs><g class="bglayer"/><g class="layer-below"><g class="imagelayer"/><g class="shapelayer"/></g><g class="cartesianlayer"/><g class="polarlayer"/><g class="smithlayer"/><g class="ternarylayer"/><g class="geolayer"/><g class="funnelarealayer"/><g class="pielayer"/><g class="iciclelayer"/><g class="treemaplayer"/><g class="sunburstlayer"><g class="trace sunburst" stroke-linejoin="round" style="opacity: 1;"><g class="slice cursor-pointer"><path class="surface" d="M720,755L1057.5,755A337.5,337.5 0,1,0 382.5581077682495,761.2625367907657L720,755A0,0 0,1,1 720,755Z" style="pointer-events: none; stroke-width: 1; fill: rgb(99, 110, 250); fill-opacity: 1; stroke: rgb(255, 255, 255); stroke-opacity: 1;"/><g class="slicetext"><text data-notex="1" class="slicetext" text-anchor="middle" x="0" y="0" style="font-family: 'Open Sans', verdana, arial, sans-serif; font-size: 22px; fill: rgb(255, 255, 255); fill-opacity: 1; white-space: pre;" transform="translate(720,589.4207087746995)"><tspan class="line" dy="0em" x="0" y="0">2019</tspan><tspan class="line" dy="1.3em" x="0" y="0">10.80 ms</tspan><tspan class="line" dy="2.6em" x="0" y="0">50%</tspan></text></g></g><g class="slice cursor-pointer"><path class="surface" d="M720,755L382.5581077682495,761.2625367907657A337.5,337.5 0,0,0 848.4699769936315,1067.0924782997113L720,755A0,0 0,0,1 720,755Z" style="pointer-events: none; stroke-width: 1; fill: rgb(239, 85, 59); fill-opacity: 1; stroke: rgb(255, 255, 255); stroke-opacity: 1;"/><g class="slicetext"><text data-notex="1" class="slicetext" text-anchor="middle" x="0" y="0" style="font-family: 'Open Sans', verdana, arial, sans-serif; font-size: 22px; fill: rgb(68, 68, 68); fill-opacity: 1; white-space: pre;" transform="translate(618.5553420826349,889.6927243020382)"><tspan class="line" dy="0em" x="0" y="0">2024</tspan><tspan class="line" dy="1.3em" x="0" y="0">6.64 ms</tspan><tspan class="line" dy="2.6em" x="0" y="0">31%</tspan></text></g></g><g class="slice cursor-pointer"><path class="surface" d="M720,755L848.4699769936315,1067.0924782997113A337.5,337.5 0,0,0 1011.2772684778965,925.4810924063293L720,755A0,0 0,0,1 720,755Z" style="pointer-events: none; stroke-width: 1; fill: rgb(0, 204, 150); fill-opacity: 1; stroke: rgb(255, 255, 255); stroke-opacity: 1;"/><g class="slicetext"><text data-notex="1" class="slicetext" text-anchor="middle" x="0" y="0" style="font-family: 'Open Sans', verdana, arial, sans-serif; font-size: 22px; fill: rgb(68, 68, 68); fill-opacity: 1; white-space: pre;" transform="translate(887.8417217631056,928.1121313860286)"><tspan class="line" dy="0em" x="0" y="0">2018</tspan><tspan class="line" dy="1.3em" x="0" y="0">2.22 ms</tspan><tspan class="line" dy="2.6em" x="0" y="0">10%</tspan></text></g></g><g class="slice cursor-pointer"><path class="surface" d="M720,755L1011.2772684778965,925.4810924063293A337.5,337.5 0,0,0 1033.0652828713962,881.0808417669102L720,755A0,0 0,0,1 720,755Z" style="pointer-events: none; stroke-width: 1; fill: rgb(171, 99, 250); fill-opacity: 1; stroke: rgb(255, 255, 255); stroke-opacity: 1;"/><g class="slicetext"><text data-notex="1" class="slicetext" text-anchor="middle" x="0" y="0" style="font-family: 'Open Sans', verdana, arial, sans-serif; font-size: 22px; fill: rgb(68, 68, 68); fill-opacity: 1; white-space: pre;" transform="translate(1002.3011412271562,886.1122850190678)scale(0.37367557197912277)"><tspan class="line" dy="0em" x="0" y="0">2023</tspan><tspan class="line" dy="1.3em" x="0" y="0">0.50 ms</tspan><tspan class="line" dy="2.6em" x="0" y="0">2%</tspan></text></g></g><g class="slice cursor-pointer"><path class="surface" d="M720,755L1033.0652828713962,881.0808417669102A337.5,337.5 0,0,0 1045.171076823094,845.3881673545244L720,755A0,0 0,0,1 720,755Z" style="pointer-events: none; stroke-width: 1; fill: rgb(255, 161, 90); fill-opacity: 1; stroke: rgb(255, 255, 255); stroke-opacity: 1;"/><g class="slicetext"><text data-notex="1" class="slicetext" text-anchor="middle" x="0" y="0" style="font-family: 'Open Sans', verdana, arial, sans-serif; font-size: 22px; fill: rgb(68, 68, 68); fill-opacity: 1; white-space: pre;" transform="translate(1022.7142539056437,851.9245263965904)scale(0.28946336906656783)"><tspan class="line" dy="0em" x="0" y="0">2015</tspan><tspan class="line" dy="1.3em" x="0" y="0">0.38 ms</tspan><tspan class="line" dy="2.6em" x="0" y="0">2%</tspan></text></g></g><g class="slice cursor-pointer"><path class="surface" d="M720,755L1045.171076823094,845.3881673545244A337.5,337.5 0,0,0 1051.1801787421741,820.0072242777804L720,755A0,0 0,0,1 720,755Z" style="pointer-events: none; stroke-width: 1; fill: rgb(25, 211, 243); fill-opacity: 1; stroke: rgb(255, 255, 255); stroke-opacity: 1;"/><g class="slicetext"><text data-notex="1" class="slicetext" text-anchor="middle" x="0" y="0" style="font-family: 'Open Sans', verdana, arial, sans-serif; font-size: 22px; fill: rgb(68, 68, 68); fill-opacity: 1; white-space: pre;" transform="translate(1036.2025608244796,825.8205220919217)scale(0.20363499974274935)"><tspan class="line" dy="0em" x="0" y="0">2017</tspan><tspan class="line" dy="1.3em" x="0" y="0">0.26 ms</tspan><tspan class="line" dy="2.6em" x="0" y="0">1%</tspan></text></g></g><g class="slice cursor-pointer"><path class="surface" d="M720,755L1051.1801787421741,820.0072242777804A337.5,337.5 0,0,0 1054.5089015739934,799.8335228122937L720,755A0,0 0,0,1 720,755Z" style="pointer-events: none; stroke-width: 1; fill: rgb(255, 102, 146); fill-opacity: 1; stroke: rgb(255, 255, 255); stroke-opacity: 1;"/><g class="slicetext"><text data-notex="1" class="slicetext" text-anchor="middle" x="0" y="0" style="font-family: 'Open Sans', verdana, arial, sans-serif; font-size: 22px; fill: rgb(68, 68, 68); fill-opacity: 1; white-space: pre;" transform="translate(1043.2070538757102,805.1355295394347)scale(0.1609258267224214)"><tspan class="line" dy="0em" x="0" y="0">2021</tspan><tspan class="line" dy="1.3em" x="0" y="0">0.21 ms</tspan><tspan class="line" dy="2.6em" x="0" y="0">1%</tspan></text></g></g><g class="slice cursor-pointer"><path class="surface" d="M720,755L1054.5089015739934,799.8335228122937A337.5,337.5 0,0,0 1056.3714421902907,782.5772166620173L720,755A0,0 0,0,1 720,755Z" style="pointer-events: none; stroke-width: 1; fill: rgb(182, 232, 128); fill-opacity: 1; stroke: rgb(255, 255, 255); stroke-opacity: 1;"/><g class="slicetext"><text data-notex="1" class="slicetext" text-anchor="middle" x="0" y="0" style="font-family: 'Open Sans', verdana, arial, sans-serif; font-size: 22px; fill: rgb(68, 68, 68); fill-opacity: 1; white-space: pre;" transform="translate(1047.1392638699115,787.585473019199)scale(0.13721576069290917)"><tspan class="line" dy="0em" x="0" y="0">2022</tspan><tspan class="line" dy="1.3em" x="0" y="0">0.18 ms</tspan><tspan class="line" dy="2.6em" x="0" y="0">1%</tspan></text></g></g><g class="slice cursor-pointer"><path class="surface" d="M720,755L1056.3714421902907,782.5772166620173A337.5,337.5 0,0,0 1057.2738040629827,767.3543956907979L720,755A0,0 0,0,1 720,755Z" style="pointer-events: none; stroke-width: 1; fill: rgb(255, 151, 255); fill-opacity: 1; stroke: rgb(255, 255, 255); stroke-opacity: 1;"/><g class="slicetext"><text data-notex="1" class="slicetext" text-anchor="middle" x="0" y="0" style="font-family: 'Open Sans', verdana, arial, sans-serif; font-size: 22px; fill: rgb(68, 68, 68); fill-opacity: 1; white-space: pre;" transform="translate(1049.4653591181454,772.1291099409614)scale(0.12092651741414745)"><tspan class="line" dy="0em" x="0" y="0">2020</tspan><tspan class="line" dy="1.3em" x="0" y="0">0.15 ms</tspan><tspan class="line" dy="2.6em" x="0" y="0">1%</tspan></text></g></g><g class="slice cursor-pointer"><path class="surface" d="M720,755L1057.2738040629827,767.3543956907979A337.5,337.5 0,0,0 1057.5,755.0000000000003L720,755A0,0 0,0,1 720,755Z" style="pointer-events: none; stroke-width: 1; fill: rgb(254, 203, 82); fill-opacity: 1; stroke: rgb(255, 255, 255); stroke-opacity: 1;"/><g class="slicetext"><text data-notex="1" class="slicetext" text-anchor="middle" x="0" y="0" style="font-family: 'Open Sans', verdana, arial, sans-serif; font-size: 22px; fill: rgb(68, 68, 68); fill-opacity: 1; white-space: pre;" transform="translate(1051.3772946508598,759.1138283518206)scale(0.09839728885215852)"><tspan class="line" dy="0em" x="0" y="0">2016</tspan><tspan class="line" dy="1.3em" x="0" y="0">0.13 ms</tspan><tspan class="line" dy="2.6em" x="0" y="0">1%</tspan></text></g></g><g class="slice"><path class="surface" d="M1057.5,755L1395,755A675,675 0,0,0 137.11513522039684,414.60282843292634L428.5575676101984,584.8014142164632A337.5,337.5 0,0,1 1057.5,755Z" style="pointer-events: none; stroke-width: 1; fill: rgb(99, 110, 250); fill-opacity: 1; stroke: rgb(255, 255, 255); stroke-opacity: 1; opacity: 0.7;"/><g class="slicetext"><text data-notex="1" class="slicetext" text-anchor="middle" x="0" y="0" style="font-family: 'Open Sans', verdana, arial, sans-serif; font-size: 22px; fill: rgb(255, 255, 255); fill-opacity: 1; white-space: pre;" transform="translate(852.2402461506981,246.47515216714817)"><tspan class="line" dy="0em" x="0" y="0">03</tspan><tspan class="line" dy="1.3em" x="0" y="0">8.93 ms</tspan><tspan class="line" dy="2.6em" x="0" y="0">83%</tspan></text></g></g><g class="slice"><path class="surface" d="M428.5575676101984,584.8014142164632L137.11513522039684,414.60282843292634A675,675 0,0,0 45.10649581775476,766.9899129525519L382.5532479088774,760.9949564762759A337.5,337.5 0,0,1 428.5575676101984,584.8014142164632Z" style="pointer-events: none; stroke-width: 1; fill: rgb(99, 110, 250); fill-opacity: 1; stroke: rgb(255, 255, 255); stroke-opacity: 1; opacity: 0.7;"/><g class="slicetext"><text data-notex="1" class="slicetext" text-anchor="middle" x="0" y="0" style="font-family: 'Open Sans', verdana, arial, sans-serif; font-size: 22px; fill: rgb(255, 255, 255); fill-opacity: 1; white-space: pre;" transform="translate(205.654568552643,600.8523029099691)"><tspan class="line" dy="0em" x="0" y="0">02</tspan><tspan class="line" dy="1.3em" x="0" y="0">1.87 ms</tspan><tspan class="line" dy="2.6em" x="0" y="0">17%</tspan></text></g></g><g class="slice"><path class="surface" d="M382.5532479088774,760.9949564762759L45.10649581775476,766.9899129525519A675,675 0,0,0 45.116215536499,767.5250735815314L382.5581077682495,761.2625367907657A337.5,337.5 0,0,1 382.5532479088774,760.9949564762759Z" style="pointer-events: none; stroke-width: 1; fill: rgb(99, 110, 250); fill-opacity: 1; stroke: rgb(255, 255, 255); stroke-opacity: 1; opacity: 0.7;"/><g class="slicetext"><text data-notex="1" class="slicetext" text-anchor="middle" x="0" y="0" style="font-family: 'Open Sans', verdana, arial, sans-serif; font-size: 22px; fill: rgb(255, 255, 255); fill-opacity: 1; white-space: pre;" transform="translate(45.37877689803224,767.1719628249621)scale(0.004063834884745109)"><tspan class="line" dy="0em" x="0" y="0">01</tspan><tspan class="line" dy="1.3em" x="0" y="0">0.00 ms</tspan><tspan class="line" dy="2.6em" x="0" y="0">0.0251%</tspan></text></g></g><g class="slice"><path class="surface" d="M382.5581077682495,761.2625367907657L45.116215536499,767.5250735815314A675,675 0,0,0 917.6924575349113,1400.4011870409036L818.8462287674557,1077.7005935204518A337.5,337.5 0,0,1 382.5581077682495,761.2625367907657Z" style="pointer-events: none; stroke-width: 1; fill: rgb(239, 85, 59); fill-opacity: 1; stroke: rgb(255, 255, 255); stroke-opacity: 1; opacity: 0.7;"/><g class="slicetext"><text data-notex="1" class="slicetext" text-anchor="middle" x="0" y="0" style="font-family: 'Open Sans', verdana, arial, sans-serif; font-size: 22px; fill: rgb(68, 68, 68); fill-opacity: 1; white-space: pre;" transform="translate(422.76814507258786,1144.956059337869)"><tspan class="line" dy="0em" x="0" y="0">04</tspan><tspan class="line" dy="1.3em" x="0" y="0">6.32 ms</tspan><tspan class="line" dy="2.6em" x="0" y="0">95%</tspan></text></g></g><g class="slice"><path class="surface" d="M818.8462287674557,1077.7005935204518L917.6924575349113,1400.4011870409036A675,675 0,0,0 946.6838056092564,1390.7982795466696L833.3419028046283,1072.8991397733348A337.5,337.5 0,0,1 818.8462287674557,1077.7005935204518Z" style="pointer-events: none; stroke-width: 1; fill: rgb(239, 85, 59); fill-opacity: 1; stroke: rgb(255, 255, 255); stroke-opacity: 1; opacity: 0.7;"/><g class="slicetext"><text data-notex="1" class="slicetext" text-anchor="middle" x="0" y="0" style="font-family: 'Open Sans', verdana, arial, sans-serif; font-size: 22px; fill: rgb(68, 68, 68); fill-opacity: 1; white-space: pre;" transform="translate(927.5472131557569,1376.7812024762873)scale(0.24217316857416632)"><tspan class="line" dy="0em" x="0" y="0">01</tspan><tspan class="line" dy="1.3em" x="0" y="0">0.15 ms</tspan><tspan class="line" dy="2.6em" x="0" y="0">2%</tspan></text></g></g><g class="slice"><path class="surface" d="M833.3419028046283,1072.8991397733348L946.6838056092564,1390.7982795466696A675,675 0,0,0 967.4941449680437,1382.9901656925344L843.7470724840218,1068.9950828462672A337.5,337.5 0,0,1 833.3419028046283,1072.8991397733348Z" style="pointer-events: none; stroke-width: 1; fill: rgb(239, 85, 59); fill-opacity: 1; stroke: rgb(255, 255, 255); stroke-opacity: 1; opacity: 0.7;"/><g class="slicetext"><text data-notex="1" class="slicetext" text-anchor="middle" x="0" y="0" style="font-family: 'Open Sans', verdana, arial, sans-serif; font-size: 22px; fill: rgb(68, 68, 68); fill-opacity: 1; white-space: pre;" transform="translate(953.2802963166833,1373.223202380506)scale(0.1773187259505575)"><tspan class="line" dy="0em" x="0" y="0">02</tspan><tspan class="line" dy="1.3em" x="0" y="0">0.11 ms</tspan><tspan class="line" dy="2.6em" x="0" y="0">2%</tspan></text></g></g><g class="slice"><path class="surface" d="M843.7470724840218,1068.9950828462672L967.4941449680437,1382.9901656925344A675,675 0,0,0 976.9399539872622,1379.184956599423L848.4699769936311,1067.0924782997115A337.5,337.5 0,0,1 843.7470724840218,1068.9950828462672Z" style="pointer-events: none; stroke-width: 1; fill: rgb(239, 85, 59); fill-opacity: 1; stroke: rgb(255, 255, 255); stroke-opacity: 1; opacity: 0.7;"/><g class="slicetext"><text data-notex="1" class="slicetext" text-anchor="middle" x="0" y="0" style="font-family: 'Open Sans', verdana, arial, sans-serif; font-size: 22px; fill: rgb(68, 68, 68); fill-opacity: 1; white-space: pre;" transform="translate(970.3358654755291,1374.790807088434)scale(0.08195941981702702)"><tspan class="line" dy="0em" x="0" y="0">03</tspan><tspan class="line" dy="1.3em" x="0" y="0">0.05 ms</tspan><tspan class="line" dy="2.6em" x="0" y="0">1%</tspan></text></g></g><g class="slice"><path class="surface" d="M848.4699769936315,1067.0924782997113L976.9399539872629,1379.1849565994228A675,675 0,0,0 1175.0840734017897,1253.5212995811057L947.5420367008949,1004.2606497905529A337.5,337.5 0,0,1 848.4699769936315,1067.0924782997113Z" style="pointer-events: none; stroke-width: 1; fill: rgb(0, 204, 150); fill-opacity: 1; stroke: rgb(255, 255, 255); stroke-opacity: 1; opacity: 0.7;"/><g class="slicetext"><text data-notex="1" class="slicetext" text-anchor="middle" x="0" y="0" style="font-family: 'Open Sans', verdana, arial, sans-serif; font-size: 22px; fill: rgb(68, 68, 68); fill-opacity: 1; white-space: pre;" transform="translate(1027.9855511947362,1220.7743319062358)"><tspan class="line" dy="0em" x="0" y="0">01</tspan><tspan class="line" dy="1.3em" x="0" y="0">1.19 ms</tspan><tspan class="line" dy="2.6em" x="0" y="0">54%</tspan></text></g></g><g class="slice"><path class="surface" d="M947.5420367008949,1004.2606497905529L1175.0840734017897,1253.5212995811057A675,675 0,0,0 1250.20335183826,1172.7432293879513L985.10167591913,963.8716146939756A337.5,337.5 0,0,1 947.5420367008949,1004.2606497905529Z" style="pointer-events: none; stroke-width: 1; fill: rgb(0, 204, 150); fill-opacity: 1; stroke: rgb(255, 255, 255); stroke-opacity: 1; opacity: 0.7;"/><g class="slicetext"><text data-notex="1" class="slicetext" text-anchor="middle" x="0" y="0" style="font-family: 'Open Sans', verdana, arial, sans-serif; font-size: 22px; fill: rgb(68, 68, 68); fill-opacity: 1; white-space: pre;" transform="translate(1176.9584409925917,1163.531130369596)scale(0.8269244785089661)"><tspan class="line" dy="0em" x="0" y="0">02</tspan><tspan class="line" dy="1.3em" x="0" y="0">0.56 ms</tspan><tspan class="line" dy="2.6em" x="0" y="0">25%</tspan></text></g></g><g class="slice"><path class="surface" d="M985.10167591913,963.8716146939756L1250.20335183826,1172.7432293879513A675,675 0,0,0 1302.5545369557929,1095.962184812659L1011.2772684778964,925.4810924063295A337.5,337.5 0,0,1 985.10167591913,963.8716146939756Z" style="pointer-events: none; stroke-width: 1; fill: rgb(0, 204, 150); fill-opacity: 1; stroke: rgb(255, 255, 255); stroke-opacity: 1; opacity: 0.7;"/><g class="slicetext"><text data-notex="1" class="slicetext" text-anchor="middle" x="0" y="0" style="font-family: 'Open Sans', verdana, arial, sans-serif; font-size: 22px; fill: rgb(68, 68, 68); fill-opacity: 1; white-space: pre;" transform="translate(1241.7838248977173,1096.7688456277772)scale(0.7050360352583821)"><tspan class="line" dy="0em" x="0" y="0">03</tspan><tspan class="line" dy="1.3em" x="0" y="0">0.47 ms</tspan><tspan class="line" dy="2.6em" x="0" y="0">21%</tspan></text></g></g><g class="slice"><path class="surface" d="M1011.2772684778965,925.4810924063293L1302.554536955793,1095.9621848126585A675,675 0,0,0 1330.59922317038,1042.7387507162157L1025.29961158519,898.8693753581078A337.5,337.5 0,0,1 1011.2772684778965,925.4810924063293Z" style="pointer-events: none; stroke-width: 1; fill: rgb(171, 99, 250); fill-opacity: 1; stroke: rgb(255, 255, 255); stroke-opacity: 1; opacity: 0.7;"/><g class="slicetext"><text data-notex="1" class="slicetext" text-anchor="middle" x="0" y="0" style="font-family: 'Open Sans', verdana, arial, sans-serif; font-size: 22px; fill: rgb(68, 68, 68); fill-opacity: 1; white-space: pre;" transform="translate(1291.6937135609933,1046.9677435384447)scale(0.4670259725630674)"><tspan class="line" dy="0em" x="0" y="0">01</tspan><tspan class="line" dy="1.3em" x="0" y="0">0.30 ms</tspan><tspan class="line" dy="2.6em" x="0" y="0">61%</tspan></text></g></g><g class="slice"><path class="surface" d="M1025.29961158519,898.8693753581078L1330.59922317038,1042.7387507162157A675,675 0,0,0 1337.8639885213465,1026.7886894050107L1028.9319942606733,890.8943447025054A337.5,337.5 0,0,1 1025.29961158519,898.8693753581078Z" style="pointer-events: none; stroke-width: 1; fill: rgb(171, 99, 250); fill-opacity: 1; stroke: rgb(255, 255, 255); stroke-opacity: 1; opacity: 0.7;"/><g class="slicetext"><text data-notex="1" class="slicetext" text-anchor="middle" x="0" y="0" style="font-family: 'Open Sans', verdana, arial, sans-serif; font-size: 22px; fill: rgb(68, 68, 68); fill-opacity: 1; white-space: pre;" transform="translate(1326.4105560494406,1028.4162660761717)scale(0.14030154469124317)"><tspan class="line" dy="0em" x="0" y="0">03</tspan><tspan class="line" dy="1.3em" x="0" y="0">0.09 ms</tspan><tspan class="line" dy="2.6em" x="0" y="0">18%</tspan></text></g></g><g class="slice"><path class="surface" d="M1028.9319942606733,890.8943447025054L1337.8639885213465,1026.7886894050107A675,675 0,0,0 1343.8638323276086,1012.718681343649L1031.9319161638043,883.8593406718245A337.5,337.5 0,0,1 1028.9319942606733,890.8943447025054Z" style="pointer-events: none; stroke-width: 1; fill: rgb(171, 99, 250); fill-opacity: 1; stroke: rgb(255, 255, 255); stroke-opacity: 1; opacity: 0.7;"/><g class="slicetext"><text data-notex="1" class="slicetext" text-anchor="middle" x="0" y="0" style="font-family: 'Open Sans', verdana, arial, sans-serif; font-size: 22px; fill: rgb(68, 68, 68); fill-opacity: 1; white-space: pre;" transform="translate(1333.9475773598574,1014.3696840201177)scale(0.12264445483194233)"><tspan class="line" dy="0em" x="0" y="0">04</tspan><tspan class="line" dy="1.3em" x="0" y="0">0.08 ms</tspan><tspan class="line" dy="2.6em" x="0" y="0">15%</tspan></text></g></g><g class="slice"><path class="surface" d="M1031.9319161638043,883.8593406718245L1343.8638323276086,1012.718681343649A675,675 0,0,0 1346.1305657427924,1007.1616835338205L1033.0652828713962,881.0808417669102A337.5,337.5 0,0,1 1031.9319161638043,883.8593406718245Z" style="pointer-events: none; stroke-width: 1; fill: rgb(171, 99, 250); fill-opacity: 1; stroke: rgb(255, 255, 255); stroke-opacity: 1; opacity: 0.7;"/><g class="slicetext"><text data-notex="1" class="slicetext" text-anchor="middle" x="0" y="0" style="font-family: 'Open Sans', verdana, arial, sans-serif; font-size: 22px; fill: rgb(68, 68, 68); fill-opacity: 1; white-space: pre;" transform="translate(1342.2371735267407,1007.8525240243134)scale(0.04845095283049341)"><tspan class="line" dy="0em" x="0" y="0">02</tspan><tspan class="line" dy="1.3em" x="0" y="0">0.03 ms</tspan><tspan class="line" dy="2.6em" x="0" y="0">6%</tspan></text></g></g><g class="slice"><path class="surface" d="M1033.0652828713962,881.0808417669102L1346.1305657427924,1007.1616835338205A675,675 0,0,0 1367.8606890342783,944.4769843649359L1043.930344517139,849.738492182468A337.5,337.5 0,0,1 1033.0652828713962,881.0808417669102Z" style="pointer-events: none; stroke-width: 1; fill: rgb(255, 161, 90); fill-opacity: 1; stroke: rgb(255, 255, 255); stroke-opacity: 1; opacity: 0.7;"/><g class="slicetext"><text data-notex="1" class="slicetext" text-anchor="middle" x="0" y="0" style="font-family: 'Open Sans', verdana, arial, sans-serif; font-size: 22px; fill: rgb(68, 68, 68); fill-opacity: 1; white-space: pre;" transform="translate(1327.8920234447073,955.5507551689265)scale(0.5127855895379126)"><tspan class="line" dy="0em" x="0" y="0">03</tspan><tspan class="line" dy="1.3em" x="0" y="0">0.34 ms</tspan><tspan class="line" dy="2.6em" x="0" y="0">88%</tspan></text></g></g><g class="slice"><path class="surface" d="M1043.930344517139,849.738492182468L1367.8606890342783,944.4769843649359A675,675 0,0,0 1369.4120731185285,939.0895414951509L1044.7060365592642,847.0447707475754A337.5,337.5 0,0,1 1043.930344517139,849.738492182468Z" style="pointer-events: none; stroke-width: 1; fill: rgb(255, 161, 90); fill-opacity: 1; stroke: rgb(255, 255, 255); stroke-opacity: 1; opacity: 0.7;"/><g class="slicetext"><text data-notex="1" class="slicetext" text-anchor="middle" x="0" y="0" style="font-family: 'Open Sans', verdana, arial, sans-serif; font-size: 22px; fill: rgb(68, 68, 68); fill-opacity: 1; white-space: pre;" transform="translate(1365.9593933863353,940.113630359981)scale(0.045273979159257155)"><tspan class="line" dy="0em" x="0" y="0">02</tspan><tspan class="line" dy="1.3em" x="0" y="0">0.03 ms</tspan><tspan class="line" dy="2.6em" x="0" y="0">7%</tspan></text></g></g><g class="slice"><path class="surface" d="M1044.7060365592642,847.0447707475754L1369.4120731185285,939.0895414951509A675,675 0,0,0 1370.3421536461879,935.7763347090488L1045.171076823094,845.3881673545244A337.5,337.5 0,0,1 1044.7060365592642,847.0447707475754Z" style="pointer-events: none; stroke-width: 1; fill: rgb(255, 161, 90); fill-opacity: 1; stroke: rgb(255, 255, 255); stroke-opacity: 1; opacity: 0.7;"/><g class="slicetext"><text data-notex="1" class="slicetext" text-anchor="middle" x="0" y="0" style="font-family: 'Open Sans', verdana, arial, sans-serif; font-size: 22px; fill: rgb(68, 68, 68); fill-opacity: 1; white-space: pre;" transform="translate(1368.2268335129622,936.417117602731)scale(0.027834351557971333)"><tspan class="line" dy="0em" x="0" y="0">01</tspan><tspan class="line" dy="1.3em" x="0" y="0">0.02 ms</tspan><tspan class="line" dy="2.6em" x="0" y="0">5%</tspan></text></g></g><g class="slice"><path class="surface" d="M1045.171076823094,845.3881673545244L1370.3421536461879,935.7763347090488A675,675 0,0,0 1381.1533373737698,891.0193533271141L1050.576668686885,823.009676663557A337.5,337.5 0,0,1 1045.171076823094,845.3881673545244Z" style="pointer-events: none; stroke-width: 1; fill: rgb(25, 211, 243); fill-opacity: 1; stroke: rgb(255, 255, 255); stroke-opacity: 1; opacity: 0.7;"/><g class="slicetext"><text data-notex="1" class="slicetext" text-anchor="middle" x="0" y="0" style="font-family: 'Open Sans', verdana, arial, sans-serif; font-size: 22px; fill: rgb(68, 68, 68); fill-opacity: 1; white-space: pre;" transform="translate(1354.4890808734144,901.0951885675174)scale(0.36105777289824376)"><tspan class="line" dy="0em" x="0" y="0">03</tspan><tspan class="line" dy="1.3em" x="0" y="0">0.23 ms</tspan><tspan class="line" dy="2.6em" x="0" y="0">88%</tspan></text></g></g><g class="slice"><path class="surface" d="M1050.576668686885,823.009676663557L1381.1533373737698,891.0193533271141A675,675 0,0,0 1382.2936708244267,885.3537248639484L1051.1468354122135,820.1768624319742A337.5,337.5 0,0,1 1050.576668686885,823.009676663557Z" style="pointer-events: none; stroke-width: 1; fill: rgb(25, 211, 243); fill-opacity: 1; stroke: rgb(255, 255, 255); stroke-opacity: 1; opacity: 0.7;"/><g class="slicetext"><text data-notex="1" class="slicetext" text-anchor="middle" x="0" y="0" style="font-family: 'Open Sans', verdana, arial, sans-serif; font-size: 22px; fill: rgb(68, 68, 68); fill-opacity: 1; white-space: pre;" transform="translate(1378.908828796765,886.6936672693939)scale(0.046664133507374875)"><tspan class="line" dy="0em" x="0" y="0">02</tspan><tspan class="line" dy="1.3em" x="0" y="0">0.03 ms</tspan><tspan class="line" dy="2.6em" x="0" y="0">11%</tspan></text></g></g><g class="slice"><path class="surface" d="M1051.1468354122135,820.1768624319742L1382.2936708244267,885.3537248639484A675,675 0,0,0 1382.3603574843482,885.014448555561L1051.1801787421741,820.0072242777804A337.5,337.5 0,0,1 1051.1468354122135,820.1768624319742Z" style="pointer-events: none; stroke-width: 1; fill: rgb(25, 211, 243); fill-opacity: 1; stroke: rgb(255, 255, 255); stroke-opacity: 1; opacity: 0.7;"/><g class="slicetext"><text data-notex="1" class="slicetext" text-anchor="middle" x="0" y="0" style="font-family: 'Open Sans', verdana, arial, sans-serif; font-size: 22px; fill: rgb(68, 68, 68); fill-opacity: 1; white-space: pre;" transform="translate(1382.1574411617896,885.0951100025976)scale(0.0028031136125043544)"><tspan class="line" dy="0em" x="0" y="0">01</tspan><tspan class="line" dy="1.3em" x="0" y="0">0.00 ms</tspan><tspan class="line" dy="2.6em" x="0" y="0">1%</tspan></text></g></g><g class="slice"><path class="surface" d="M1051.1801787421741,820.0072242777804L1382.3603574843482,885.014448555561A675,675 0,0,0 1388.0062918413919,851.9153964048697L1054.003145920696,803.4576982024348A337.5,337.5 0,0,1 1051.1801787421741,820.0072242777804Z" style="pointer-events: none; stroke-width: 1; fill: rgb(255, 102, 146); fill-opacity: 1; stroke: rgb(255, 255, 255); stroke-opacity: 1; opacity: 0.7;"/><g class="slicetext"><text data-notex="1" class="slicetext" text-anchor="middle" x="0" y="0" style="font-family: 'Open Sans', verdana, arial, sans-serif; font-size: 22px; fill: rgb(68, 68, 68); fill-opacity: 1; white-space: pre;" transform="translate(1369.2412695913072,860.4716284948771)scale(0.26566913004347237)"><tspan class="line" dy="0em" x="0" y="0">03</tspan><tspan class="line" dy="1.3em" x="0" y="0">0.17 ms</tspan><tspan class="line" dy="2.6em" x="0" y="0">82%</tspan></text></g></g><g class="slice"><path class="surface" d="M1054.003145920696,803.4576982024348L1388.0062918413919,851.9153964048697A675,675 0,0,0 1388.771470601083,846.4861744203181L1054.3857353005415,800.743087210159A337.5,337.5 0,0,1 1054.003145920696,803.4576982024348Z" style="pointer-events: none; stroke-width: 1; fill: rgb(255, 102, 146); fill-opacity: 1; stroke: rgb(255, 255, 255); stroke-opacity: 1; opacity: 0.7;"/><g class="slicetext"><text data-notex="1" class="slicetext" text-anchor="middle" x="0" y="0" style="font-family: 'Open Sans', verdana, arial, sans-serif; font-size: 22px; fill: rgb(68, 68, 68); fill-opacity: 1; white-space: pre;" transform="translate(1385.690763300669,847.9414775645878)scale(0.04428079420597641)"><tspan class="line" dy="0em" x="0" y="0">01</tspan><tspan class="line" dy="1.3em" x="0" y="0">0.03 ms</tspan><tspan class="line" dy="2.6em" x="0" y="0">13%</tspan></text></g></g><g class="slice"><path class="surface" d="M1054.3857353005415,800.743087210159L1388.771470601083,846.4861744203181A675,675 0,0,0 1389.0178031479868,844.6670456245873L1054.5089015739934,799.8335228122937A337.5,337.5 0,0,1 1054.3857353005415,800.743087210159Z" style="pointer-events: none; stroke-width: 1; fill: rgb(255, 102, 146); fill-opacity: 1; stroke: rgb(255, 255, 255); stroke-opacity: 1; opacity: 0.7;"/><g class="slicetext"><text data-notex="1" class="slicetext" text-anchor="middle" x="0" y="0" style="font-family: 'Open Sans', verdana, arial, sans-serif; font-size: 22px; fill: rgb(68, 68, 68); fill-opacity: 1; white-space: pre;" transform="translate(1387.986926037188,845.1585869060171)scale(0.014865723441763774)"><tspan class="line" dy="0em" x="0" y="0">02</tspan><tspan class="line" dy="1.3em" x="0" y="0">0.01 ms</tspan><tspan class="line" dy="2.6em" x="0" y="0">4%</tspan></text></g></g><g class="slice"><path class="surface" d="M1054.5089015739934,799.8335228122937L1389.0178031479868,844.6670456245873A675,675 0,0,0 1391.901555153909,819.6010849890205L1055.9507775769544,787.3005424945102A337.5,337.5 0,0,1 1054.5089015739934,799.8335228122937Z" style="pointer-events: none; stroke-width: 1; fill: rgb(182, 232, 128); fill-opacity: 1; stroke: rgb(255, 255, 255); stroke-opacity: 1; opacity: 0.7;"/><g class="slicetext"><text data-notex="1" class="slicetext" text-anchor="middle" x="0" y="0" style="font-family: 'Open Sans', verdana, arial, sans-serif; font-size: 22px; fill: rgb(68, 68, 68); fill-opacity: 1; white-space: pre;" transform="translate(1378.2737707749689,826.744997797225)scale(0.20084670575130167)"><tspan class="line" dy="0em" x="0" y="0">03</tspan><tspan class="line" dy="1.3em" x="0" y="0">0.13 ms</tspan><tspan class="line" dy="2.6em" x="0" y="0">73%</tspan></text></g></g><g class="slice"><path class="surface" d="M1055.9507775769544,787.3005424945102L1391.901555153909,819.6010849890205A675,675 0,0,0 1392.5862100554205,812.0332363038051L1056.2931050277102,783.5166181519025A337.5,337.5 0,0,1 1055.9507775769544,787.3005424945102Z" style="pointer-events: none; stroke-width: 1; fill: rgb(182, 232, 128); fill-opacity: 1; stroke: rgb(255, 255, 255); stroke-opacity: 1; opacity: 0.7;"/><g class="slicetext"><text data-notex="1" class="slicetext" text-anchor="middle" x="0" y="0" style="font-family: 'Open Sans', verdana, arial, sans-serif; font-size: 22px; fill: rgb(68, 68, 68); fill-opacity: 1; white-space: pre;" transform="translate(1388.4917870406157,814.2613401826526)scale(0.0612733898101026)"><tspan class="line" dy="0em" x="0" y="0">01</tspan><tspan class="line" dy="1.3em" x="0" y="0">0.04 ms</tspan><tspan class="line" dy="2.6em" x="0" y="0">22%</tspan></text></g></g><g class="slice"><path class="surface" d="M1056.2931050277102,783.5166181519025L1392.5862100554205,812.0332363038051A675,675 0,0,0 1392.7428843805817,810.1544333240341L1056.371442190291,782.577216662017A337.5,337.5 0,0,1 1056.2931050277102,783.5166181519025Z" style="pointer-events: none; stroke-width: 1; fill: rgb(182, 232, 128); fill-opacity: 1; stroke: rgb(255, 255, 255); stroke-opacity: 1; opacity: 0.7;"/><g class="slicetext"><text data-notex="1" class="slicetext" text-anchor="middle" x="0" y="0" style="font-family: 'Open Sans', verdana, arial, sans-serif; font-size: 22px; fill: rgb(68, 68, 68); fill-opacity: 1; white-space: pre;" transform="translate(1391.7271117615267,810.7125924315433)scale(0.015266766447755088)"><tspan class="line" dy="0em" x="0" y="0">02</tspan><tspan class="line" dy="1.3em" x="0" y="0">0.01 ms</tspan><tspan class="line" dy="2.6em" x="0" y="0">5%</tspan></text></g></g><g class="slice"><path class="surface" d="M1056.3714421902907,782.5772166620173L1392.7428843805815,810.1544333240347A675,675 0,0,0 1393.785595101106,795.4718647241317L1056.892797550553,775.2359323620659A337.5,337.5 0,0,1 1056.3714421902907,782.5772166620173Z" style="pointer-events: none; stroke-width: 1; fill: rgb(255, 151, 255); fill-opacity: 1; stroke: rgb(255, 255, 255); stroke-opacity: 1; opacity: 0.7;"/><g class="slicetext"><text data-notex="1" class="slicetext" text-anchor="middle" x="0" y="0" style="font-family: 'Open Sans', verdana, arial, sans-serif; font-size: 22px; fill: rgb(68, 68, 68); fill-opacity: 1; white-space: pre;" transform="translate(1386.0421603754812,799.9563186671342)scale(0.11807335384043555)"><tspan class="line" dy="0em" x="0" y="0">01</tspan><tspan class="line" dy="1.3em" x="0" y="0">0.07 ms</tspan><tspan class="line" dy="2.6em" x="0" y="0">48%</tspan></text></g></g><g class="slice"><path class="surface" d="M1056.892797550553,775.2359323620659L1393.785595101106,795.4718647241317A675,675 0,0,0 1394.3819242348272,783.8794090197798L1057.1909621174136,769.4397045098899A337.5,337.5 0,0,1 1056.892797550553,775.2359323620659Z" style="pointer-events: none; stroke-width: 1; fill: rgb(255, 151, 255); fill-opacity: 1; stroke: rgb(255, 255, 255); stroke-opacity: 1; opacity: 0.7;"/><g class="slicetext"><text data-notex="1" class="slicetext" text-anchor="middle" x="0" y="0" style="font-family: 'Open Sans', verdana, arial, sans-serif; font-size: 22px; fill: rgb(68, 68, 68); fill-opacity: 1; white-space: pre;" transform="translate(1388.3618644686917,787.5286483953269)scale(0.0933250300147945)"><tspan class="line" dy="0em" x="0" y="0">02</tspan><tspan class="line" dy="1.3em" x="0" y="0">0.06 ms</tspan><tspan class="line" dy="2.6em" x="0" y="0">38%</tspan></text></g></g><g class="slice"><path class="surface" d="M1057.1909621174136,769.4397045098899L1394.3819242348272,783.8794090197798A675,675 0,0,0 1394.5476081259653,779.7087913815958L1057.2738040629827,767.3543956907979A337.5,337.5 0,0,1 1057.1909621174136,769.4397045098899Z" style="pointer-events: none; stroke-width: 1; fill: rgb(255, 151, 255); fill-opacity: 1; stroke: rgb(255, 255, 255); stroke-opacity: 1; opacity: 0.7;"/><g class="slicetext"><text data-notex="1" class="slicetext" text-anchor="middle" x="0" y="0" style="font-family: 'Open Sans', verdana, arial, sans-serif; font-size: 22px; fill: rgb(68, 68, 68); fill-opacity: 1; white-space: pre;" transform="translate(1392.3891084809736,781.0418126944609)scale(0.03374187626365161)"><tspan class="line" dy="0em" x="0" y="0">03</tspan><tspan class="line" dy="1.3em" x="0" y="0">0.02 ms</tspan><tspan class="line" dy="2.6em" x="0" y="0">14%</tspan></text></g></g><g class="slice"><path class="surface" d="M1057.2738040629827,767.3543956907979L1394.5476081259653,779.7087913815958A675,675 0,0,0 1394.8907757534926,767.1425204487834L1057.4453878767463,761.0712602243917A337.5,337.5 0,0,1 1057.2738040629827,767.3543956907979Z" style="pointer-events: none; stroke-width: 1; fill: rgb(254, 203, 82); fill-opacity: 1; stroke: rgb(255, 255, 255); stroke-opacity: 1; opacity: 0.7;"/><g class="slicetext"><text data-notex="1" class="slicetext" text-anchor="middle" x="0" y="0" style="font-family: 'Open Sans', verdana, arial, sans-serif; font-size: 22px; fill: rgb(68, 68, 68); fill-opacity: 1; white-space: pre;" transform="translate(1388.5232784545697,771.2514985456578)scale(0.10099736322880834)"><tspan class="line" dy="0em" x="0" y="0">03</tspan><tspan class="line" dy="1.3em" x="0" y="0">0.06 ms</tspan><tspan class="line" dy="2.6em" x="0" y="0">51%</tspan></text></g></g><g class="slice"><path class="surface" d="M1057.4453878767463,761.0712602243917L1394.8907757534926,767.1425204487834A675,675 0,0,0 1394.9897881434954,758.7129371122139L1057.4948940717477,756.856468556107A337.5,337.5 0,0,1 1057.4453878767463,761.0712602243917Z" style="pointer-events: none; stroke-width: 1; fill: rgb(254, 203, 82); fill-opacity: 1; stroke: rgb(255, 255, 255); stroke-opacity: 1; opacity: 0.7;"/><g class="slicetext"><text data-notex="1" class="slicetext" text-anchor="middle" x="0" y="0" style="font-family: 'Open Sans', verdana, arial, sans-serif; font-size: 22px; fill: rgb(68, 68, 68); fill-opacity: 1; white-space: pre;" transform="translate(1390.7648063947277,761.5300497529624)scale(0.06793594371420178)"><tspan class="line" dy="0em" x="0" y="0">01</tspan><tspan class="line" dy="1.3em" x="0" y="0">0.04 ms</tspan><tspan class="line" dy="2.6em" x="0" y="0">34%</tspan></text></g></g><g class="slice"><path class="surface" d="M1057.4948940717477,756.856468556107L1394.9897881434954,758.7129371122139A675,675 0,0,0 1395,755.0000000000014L1057.5,755.0000000000007A337.5,337.5 0,0,1 1057.4948940717477,756.856468556107Z" style="pointer-events: none; stroke-width: 1; fill: rgb(254, 203, 82); fill-opacity: 1; stroke: rgb(255, 255, 255); stroke-opacity: 1; opacity: 0.7;"/><g class="slicetext"><text data-notex="1" class="slicetext" text-anchor="middle" x="0" y="0" style="font-family: 'Open Sans', verdana, arial, sans-serif; font-size: 22px; fill: rgb(68, 68, 68); fill-opacity: 1; white-space: pre;" transform="translate(1393.1460703794414,756.2553260783689)scale(0.03002572595965277)"><tspan class="line" dy="0em" x="0" y="0">02</tspan><tspan class="line" dy="1.3em" x="0" y="0">0.02 ms</tspan><tspan class="line" dy="2.6em" x="0" y="0">15%</tspan></text></g></g></g></g><g class="glimages"/><defs id="topdefs-f51aed"><g class="clips"/></defs><g class="layer-above"><g class="imagelayer"/><g class="shapelayer"/></g><g class="infolayer"><g class="g-gtitle"><text class="gtitle" x="720" y="40" text-anchor="middle" dy="0em" style="opacity: 1; font-family: 'Open Sans', verdana, arial, sans-serif; font-size: 31px; fill: rgb(42, 63, 95); fill-opacity: 1; white-space: pre;">Total time: 21 ms</text></g></g></svg>