<svg class="main-svg" xmlns="http://www.w3.org/2000/svg" xmlns:xlink="http://www.w3.org/1999/xlink" width="1440" height="1440" style="" viewBox="0 0 1440 1440"><rect x="0" y="0" width="1440" height="1440" style="fill: rgb(255, 255, 255); fill-opacity: 1;"/><defs id="defs-dcf294"><g class="clips"/><g class="gradients"/><g class="patterns"/></defs><g class="bglayer"/><g class="layer-below"><g class="imagelayer"/><g class="shapelayer"/></g><g class="cartesianlayer"/><g class="polarlayer"/><g class="smithlayer"/><g class="ternarylayer"/><g class="geolayer"/><g class="funnelarealayer"/><g class="pielayer"/><g class="iciclelayer"/><g class="treemaplayer"/><g class="sunburstlayer"><g class="trace sunburst" stroke-linejoin="round" style="opacity: 1;"><g class="slice cursor-pointer"><path class="surface" d="M720,755L1057.5,755A337.5,337.5 0,0,0 382.6381947617339,745.3427557565203L720,755A0,0 0,0,1 720,755Z" style="pointer-events: none; stroke-width: 1; fill: rgb(99, 110, 250); fill-opacity: 1; stroke: rgb(255, 255, 255); stroke-opacity: 1;"/><g class="slicetext"><text data-notex="1" class="slicetext" text-anchor="middle" x="0" y="0" style="font-family: 'Open Sans', verdana, arial, sans-serif; font-size: 22px; fill: rgb(255, 255, 255); fill-opacity: 1; white-space: pre;" transform="translate(722.4146818409538,566.4070755568785)"><tspan class="line" dy="0em" x="0" y="0">2019</tspan><tspan class="line" dy="1.3em" x="0" y="0">10.76 ms</tspan><tspan class="line" dy="2.6em" x="0" y="0">50%</tspan></text></g></g><g class="slice cursor-pointer"><path class="surface" d="M720,755L382.6381947617339,745.3427557565203A337.5,337.5 0,0,0 833.4877684598345,1072.8470959596877L720,755A0,0 0,0,1 720,755Z" style="pointer-events: none; stroke-width: 1; fill: rgb(239, 85, 59); fill-opacity: 1; stroke: rgb(255, 255, 255); stroke-opacity: 1;"/><g class="slicetext"><text data-notex="1" class="slicetext" text-anchor="middle" x="0" y="0" style="font-family: 'Open Sans', verdana, arial, sans-serif; font-size: 22px; fill: rgb(68, 68, 68); fill-opacity: 1; white-space: pre;" transform="translate(611.3452076999008,884.7249797783902)"><tspan class="line" dy="0em" x="0" y="0">2024</tspan><tspan class="line" dy="1.3em" x="0" y="0">6.72 ms</tspan><tspan class="line" dy="2.6em" x="0" y="0">31%</tspan></text></g></g><g class="slice cursor-pointer"><path class="surface" d="M720,755L833.4877684598345,1072.8470959596877A337.5,337.5 0,0,0 1002.9094849426564,939.0338917957258L720,755A0,0 0,0,1 720,755Z" style="pointer-events: none; stroke-width: 1; fill: rgb(0, 204, 150); fill-opacity: 1; stroke: rgb(255, 255, 255); stroke-opacity: 1;"/><g class="slicetext"><text data-notex="1" class="slicetext" text-anchor="middle" x="0" y="0" style="font-family: 'Open Sans', verdana, arial, sans-serif; font-size: 22px; fill: rgb(68, 68, 68); fill-opacity: 1; white-space: pre;" transform="translate(878.4940513721689,935.8187256345483)"><tspan class="line" dy="0em" x="0" y="0">2018</tspan><tspan class="line" dy="1.3em" x="0" y="0">2.25 ms</tspan><tspan class="line" dy="2.6em" x="0" y="0">10%</tspan></text></g></g><g class="slice cursor-pointer"><path class="surface" d="M720,755L1002.9094849426564,939.0338917957258A337.5,337.5 0,0,0 1026.5344264200223,896.219316735877L720,755A0,0 0,0,1 720,755Z" style="pointer-events: none; stroke-width: 1; fill: rgb(171, 99, 250); fill-opacity: 1; stroke: rgb(255, 255, 255); stroke-opacity: 1;"/><g class="slicetext"><text data-notex="1" class="slicetext" text-anchor="middle" x="0" y="0" style="font-family: 'Open Sans', verdana, arial, sans-serif; font-size: 22px; fill: rgb(68, 68, 68); fill-opacity: 1; white-space: pre;" transform="translate(995.5371934109812,899.7004967837387)scale(0.3697451452559335)"><tspan class="line" dy="0em" x="0" y="0">2023</tspan><tspan class="line" dy="1.3em" x="0" y="0">0.50 ms</tspan><tspan class="line" dy="2.6em" x="0" y="0">2%</tspan></text></g></g><g class="slice cursor-pointer"><path class="surface" d="M720,755L1026.5344264200223,896.219316735877A337.5,337.5 0,0,0 1040.1434907503453,861.8381735625592L720,755A0,0 0,0,1 720,755Z" style="pointer-events: none; stroke-width: 1; fill: rgb(255, 161, 90); fill-opacity: 1; stroke: rgb(255, 255, 255); stroke-opacity: 1;"/><g class="slicetext"><text data-notex="1" class="slicetext" text-anchor="middle" x="0" y="0" style="font-family: 'Open Sans', verdana, arial, sans-serif; font-size: 22px; fill: rgb(68, 68, 68); fill-opacity: 1; white-space: pre;" transform="translate(1017.5123867673632,867.1209048361306)scale(0.2842707842899845)"><tspan class="line" dy="0em" x="0" y="0">2021</tspan><tspan class="line" dy="1.3em" x="0" y="0">0.38 ms</tspan><tspan class="line" dy="2.6em" x="0" y="0">2%</tspan></text></g></g><g class="slice cursor-pointer"><path class="surface" d="M720,755L1040.1434907503453,861.8381735625592A337.5,337.5 0,0,0 1049.8547517295463,826.4289350434362L720,755A0,0 0,0,1 720,755Z" style="pointer-events: none; stroke-width: 1; fill: rgb(25, 211, 243); fill-opacity: 1; stroke: rgb(255, 255, 255); stroke-opacity: 1;"/><g class="slicetext"><text data-notex="1" class="slicetext" text-anchor="middle" x="0" y="0" style="font-family: 'Open Sans', verdana, arial, sans-serif; font-size: 22px; fill: rgb(68, 68, 68); fill-opacity: 1; white-space: pre;" transform="translate(1028.6897467018127,834.0549681065814)scale(0.28237638719052904)"><tspan class="line" dy="0em" x="0" y="0">2015</tspan><tspan class="line" dy="1.3em" x="0" y="0">0.38 ms</tspan><tspan class="line" dy="2.6em" x="0" y="0">2%</tspan></text></g></g><g class="slice cursor-pointer"><path class="surface" d="M720,755L1049.8547517295463,826.4289350434362A337.5,337.5 0,0,0 1054.2620693093438,801.6381712874276L720,755A0,0 0,0,1 720,755Z" style="pointer-events: none; stroke-width: 1; fill: rgb(255, 102, 146); fill-opacity: 1; stroke: rgb(255, 255, 255); stroke-opacity: 1;"/><g class="slicetext"><text data-notex="1" class="slicetext" text-anchor="middle" x="0" y="0" style="font-family: 'Open Sans', verdana, arial, sans-serif; font-size: 22px; fill: rgb(68, 68, 68); fill-opacity: 1; white-space: pre;" transform="translate(1040.3400573755252,808.0427207779111)scale(0.19683771451131968)"><tspan class="line" dy="0em" x="0" y="0">2017</tspan><tspan class="line" dy="1.3em" x="0" y="0">0.26 ms</tspan><tspan class="line" dy="2.6em" x="0" y="0">1%</tspan></text></g></g><g class="slice cursor-pointer"><path class="surface" d="M720,755L1054.2620693093438,801.6381712874276A337.5,337.5 0,0,0 1056.4707460624184,781.337939254991L720,755A0,0 0,0,1 720,755Z" style="pointer-events: none; stroke-width: 1; fill: rgb(182, 232, 128); fill-opacity: 1; stroke: rgb(255, 255, 255); stroke-opacity: 1;"/><g class="slicetext"><text data-notex="1" class="slicetext" text-anchor="middle" x="0" y="0" style="font-family: 'Open Sans', verdana, arial, sans-serif; font-size: 22px; fill: rgb(68, 68, 68); fill-opacity: 1; white-space: pre;" transform="translate(1045.6679008318356,787.2422345358023)scale(0.16072375621444251)"><tspan class="line" dy="0em" x="0" y="0">2022</tspan><tspan class="line" dy="1.3em" x="0" y="0">0.21 ms</tspan><tspan class="line" dy="2.6em" x="0" y="0">1%</tspan></text></g></g><g class="slice cursor-pointer"><path class="surface" d="M720,755L1056.4707460624184,781.337939254991A337.5,337.5 0,0,0 1057.3158025832754,766.1489608305338L720,755A0,0 0,0,1 720,755Z" style="pointer-events: none; stroke-width: 1; fill: rgb(255, 151, 255); fill-opacity: 1; stroke: rgb(255, 255, 255); stroke-opacity: 1;"/><g class="slicetext"><text data-notex="1" class="slicetext" text-anchor="middle" x="0" y="0" style="font-family: 'Open Sans', verdana, arial, sans-serif; font-size: 22px; fill: rgb(68, 68, 68); fill-opacity: 1; white-space: pre;" transform="translate(1049.5517590242853,770.9401235173173)scale(0.12063900580129788)"><tspan class="line" dy="0em" x="0" y="0">2020</tspan><tspan class="line" dy="1.3em" x="0" y="0">0.16 ms</tspan><tspan class="line" dy="2.6em" x="0" y="0">1%</tspan></text></g></g><g class="slice cursor-pointer"><path class="surface" d="M720,755L1057.3158025832754,766.1489608305338A337.5,337.5 0,0,0 1057.5,755.0000000000001L720,755A0,0 0,0,1 720,755Z" style="pointer-events: none; stroke-width: 1; fill: rgb(254, 203, 82); fill-opacity: 1; stroke: rgb(255, 255, 255); stroke-opacity: 1;"/><g class="slicetext"><text data-notex="1" class="slicetext" text-anchor="middle" x="0" y="0" style="font-family: 'Open Sans', verdana, arial, sans-serif; font-size: 22px; fill: rgb(68, 68, 68); fill-opacity: 1; white-space: pre;" transform="translate(1051.970056758037,758.7188459140403)scale(0.08894983560472797)"><tspan class="line" dy="0em" x="0" y="0">2016</tspan><tspan class="line" dy="1.3em" x="0" y="0">0.11 ms</tspan><tspan class="line" dy="2.6em" x="0" y="0">1%</tspan></text></g></g><g class="slice"><path class="surface" d="M1057.5,755L1395,755A675,675 0,0,0 143.7198453151201,403.5370811644977L431.85992265756005,579.2685405822489A337.5,337.5 0,0,1 1057.5,755Z" style="pointer-events: none; stroke-width: 1; fill: rgb(99, 110, 250); fill-opacity: 1; stroke: rgb(255, 255, 255); stroke-opacity: 1; opacity: 0.7;"/><g class="slicetext"><text data-notex="1" class="slicetext" text-anchor="middle" x="0" y="0" style="font-family: 'Open Sans', verdana, arial, sans-serif; font-size: 22px; fill: rgb(255, 255, 255); fill-opacity: 1; white-space: pre;" transform="translate(856.8990344525567,247.75976624680226)"><tspan class="line" dy="0em" x="0" y="0">03</tspan><tspan class="line" dy="1.3em" x="0" y="0">8.97 ms</tspan><tspan class="line" dy="2.6em" x="0" y="0">83%</tspan></text></g></g><g class="slice"><path class="surface" d="M431.85992265756005,579.2685405822489L143.7198453151201,403.5370811644977A675,675 0,0,0 45.29148688964597,735.1651232316601L382.645743444823,745.0825616158301A337.5,337.5 0,0,1 431.85992265756005,579.2685405822489Z" style="pointer-events: none; stroke-width: 1; fill: rgb(99, 110, 250); fill-opacity: 1; stroke: rgb(255, 255, 255); stroke-opacity: 1; opacity: 0.7;"/><g class="slicetext"><text data-notex="1" class="slicetext" text-anchor="middle" x="0" y="0" style="font-family: 'Open Sans', verdana, arial, sans-serif; font-size: 22px; fill: rgb(255, 255, 255); fill-opacity: 1; white-space: pre;" transform="translate(204.89283977711762,582.2628374828645)"><tspan class="line" dy="0em" x="0" y="0">02</tspan><tspan class="line" dy="1.3em" x="0" y="0">1.79 ms</tspan><tspan class="line" dy="2.6em" x="0" y="0">17%</tspan></text></g></g><g class="slice"><path class="surface" d="M382.645743444823,745.0825616158301L45.29148688964597,735.1651232316601A675,675 0,0,0 45.276389523467856,735.6855115130406L382.6381947617339,745.3427557565203A337.5,337.5 0,0,1 382.645743444823,745.0825616158301Z" style="pointer-events: none; stroke-width: 1; fill: rgb(99, 110, 250); fill-opacity: 1; stroke: rgb(255, 255, 255); stroke-opacity: 1; opacity: 0.7;"/><g class="slicetext"><text data-notex="1" class="slicetext" text-anchor="middle" x="0" y="0" style="font-family: 'Open Sans', verdana, arial, sans-serif; font-size: 22px; fill: rgb(255, 255, 255); fill-opacity: 1; white-space: pre;" transform="translate(45.543981875978034,735.3543941776769)scale(0.003952712152016933)"><tspan class="line" dy="0em" x="0" y="0">01</tspan><tspan class="line" dy="1.3em" x="0" y="0">0.00 ms</tspan><tspan class="line" dy="2.6em" x="0" y="0">0.0248%</tspan></text></g></g><g class="slice"><path class="surface" d="M382.6381947617339,745.3427557565203L45.276389523467856,735.6855115130406A675,675 0,0,0 887.4735376189477,1408.8941918975843L803.7367688094739,1081.9470959487921A337.5,337.5 0,0,1 382.6381947617339,745.3427557565203Z" style="pointer-events: none; stroke-width: 1; fill: rgb(239, 85, 59); fill-opacity: 1; stroke: rgb(255, 255, 255); stroke-opacity: 1; opacity: 0.7;"/><g class="slicetext"><text data-notex="1" class="slicetext" text-anchor="middle" x="0" y="0" style="font-family: 'Open Sans', verdana, arial, sans-serif; font-size: 22px; fill: rgb(68, 68, 68); fill-opacity: 1; white-space: pre;" transform="translate(403.9053475956501,1130.5889933631704)"><tspan class="line" dy="0em" x="0" y="0">04</tspan><tspan class="line" dy="1.3em" x="0" y="0">6.40 ms</tspan><tspan class="line" dy="2.6em" x="0" y="0">95%</tspan></text></g></g><g class="slice"><path class="surface" d="M803.7367688094739,1081.9470959487921L887.4735376189477,1408.8941918975843A675,675 0,0,0 916.458059645855,1400.7780042709612L818.2290298229275,1077.8890021354805A337.5,337.5 0,0,1 803.7367688094739,1081.9470959487921Z" style="pointer-events: none; stroke-width: 1; fill: rgb(239, 85, 59); fill-opacity: 1; stroke: rgb(255, 255, 255); stroke-opacity: 1; opacity: 0.7;"/><g class="slicetext"><text data-notex="1" class="slicetext" text-anchor="middle" x="0" y="0" style="font-family: 'Open Sans', verdana, arial, sans-serif; font-size: 22px; fill: rgb(68, 68, 68); fill-opacity: 1; white-space: pre;" transform="translate(898.04145521087,1386.0818688097063)scale(0.23875287102310205)"><tspan class="line" dy="0em" x="0" y="0">01</tspan><tspan class="line" dy="1.3em" x="0" y="0">0.15 ms</tspan><tspan class="line" dy="2.6em" x="0" y="0">2%</tspan></text></g></g><g class="slice"><path class="surface" d="M818.2290298229275,1077.8890021354805L916.458059645855,1400.7780042709612A675,675 0,0,0 937.1212758242855,1394.1270230434907L828.5606379121427,1074.5635115217453A337.5,337.5 0,0,1 818.2290298229275,1077.8890021354805Z" style="pointer-events: none; stroke-width: 1; fill: rgb(239, 85, 59); fill-opacity: 1; stroke: rgb(255, 255, 255); stroke-opacity: 1; opacity: 0.7;"/><g class="slicetext"><text data-notex="1" class="slicetext" text-anchor="middle" x="0" y="0" style="font-family: 'Open Sans', verdana, arial, sans-serif; font-size: 22px; fill: rgb(68, 68, 68); fill-opacity: 1; white-space: pre;" transform="translate(923.5435406636363,1383.9284204122666)scale(0.1732383123445437)"><tspan class="line" dy="0em" x="0" y="0">02</tspan><tspan class="line" dy="1.3em" x="0" y="0">0.11 ms</tspan><tspan class="line" dy="2.6em" x="0" y="0">2%</tspan></text></g></g><g class="slice"><path class="surface" d="M828.5606379121427,1074.5635115217453L937.1212758242855,1394.1270230434907A675,675 0,0,0 946.9755369196689,1390.6941919193755L833.4877684598345,1072.8470959596877A337.5,337.5 0,0,1 828.5606379121427,1074.5635115217453Z" style="pointer-events: none; stroke-width: 1; fill: rgb(239, 85, 59); fill-opacity: 1; stroke: rgb(255, 255, 255); stroke-opacity: 1; opacity: 0.7;"/><g class="slicetext"><text data-notex="1" class="slicetext" text-anchor="middle" x="0" y="0" style="font-family: 'Open Sans', verdana, arial, sans-serif; font-size: 22px; fill: rgb(68, 68, 68); fill-opacity: 1; white-space: pre;" transform="translate(940.3517901711778,1385.8733983738239)scale(0.0839689303210991)"><tspan class="line" dy="0em" x="0" y="0">03</tspan><tspan class="line" dy="1.3em" x="0" y="0">0.05 ms</tspan><tspan class="line" dy="2.6em" x="0" y="0">1%</tspan></text></g></g><g class="slice"><path class="surface" d="M833.4877684598345,1072.8470959596877L946.9755369196689,1390.6941919193755A675,675 0,0,0 1147.3285015702697,1277.5087097319124L933.6642507851349,1016.2543548659562A337.5,337.5 0,0,1 833.4877684598345,1072.8470959596877Z" style="pointer-events: none; stroke-width: 1; fill: rgb(0, 204, 150); fill-opacity: 1; stroke: rgb(255, 255, 255); stroke-opacity: 1; opacity: 0.7;"/><g class="slicetext"><text data-notex="1" class="slicetext" text-anchor="middle" x="0" y="0" style="font-family: 'Open Sans', verdana, arial, sans-serif; font-size: 22px; fill: rgb(68, 68, 68); fill-opacity: 1; white-space: pre;" transform="translate(1003.6597349299026,1237.2629114312201)"><tspan class="line" dy="0em" x="0" y="0">01</tspan><tspan class="line" dy="1.3em" x="0" y="0">1.18 ms</tspan><tspan class="line" dy="2.6em" x="0" y="0">53%</tspan></text></g></g><g class="slice"><path class="surface" d="M933.6642507851349,1016.2543548659562L1147.3285015702697,1277.5087097319124A675,675 0,0,0 1229.4004049839823,1197.8726988674678L974.7002024919911,976.4363494337339A337.5,337.5 0,0,1 933.6642507851349,1016.2543548659562Z" style="pointer-events: none; stroke-width: 1; fill: rgb(0, 204, 150); fill-opacity: 1; stroke: rgb(255, 255, 255); stroke-opacity: 1; opacity: 0.7;"/><g class="slicetext"><text data-notex="1" class="slicetext" text-anchor="middle" x="0" y="0" style="font-family: 'Open Sans', verdana, arial, sans-serif; font-size: 22px; fill: rgb(68, 68, 68); fill-opacity: 1; white-space: pre;" transform="translate(1153.3455167676673,1184.6293611574238)scale(0.8549076905009154)"><tspan class="line" dy="0em" x="0" y="0">02</tspan><tspan class="line" dy="1.3em" x="0" y="0">0.59 ms</tspan><tspan class="line" dy="2.6em" x="0" y="0">26%</tspan></text></g></g><g class="slice"><path class="surface" d="M974.7002024919911,976.4363494337339L1229.4004049839823,1197.8726988674678A675,675 0,0,0 1285.818969885313,1123.067783591451L1002.9094849426565,939.0338917957255A337.5,337.5 0,0,1 974.7002024919911,976.4363494337339Z" style="pointer-events: none; stroke-width: 1; fill: rgb(0, 204, 150); fill-opacity: 1; stroke: rgb(255, 255, 255); stroke-opacity: 1; opacity: 0.7;"/><g class="slicetext"><text data-notex="1" class="slicetext" text-anchor="middle" x="0" y="0" style="font-family: 'Open Sans', verdana, arial, sans-serif; font-size: 22px; fill: rgb(68, 68, 68); fill-opacity: 1; white-space: pre;" transform="translate(1223.934145370075,1120.9679631768443)scale(0.7104664981960918)"><tspan class="line" dy="0em" x="0" y="0">03</tspan><tspan class="line" dy="1.3em" x="0" y="0">0.48 ms</tspan><tspan class="line" dy="2.6em" x="0" y="0">21%</tspan></text></g></g><g class="slice"><path class="surface" d="M1002.9094849426564,939.0338917957258L1285.8189698853128,1123.0677835914516A675,675 0,0,0 1315.522048094116,1072.7711286976673L1017.761024047058,913.8855643488337A337.5,337.5 0,0,1 1002.9094849426564,939.0338917957258Z" style="pointer-events: none; stroke-width: 1; fill: rgb(171, 99, 250); fill-opacity: 1; stroke: rgb(255, 255, 255); stroke-opacity: 1; opacity: 0.7;"/><g class="slicetext"><text data-notex="1" class="slicetext" text-anchor="middle" x="0" y="0" style="font-family: 'Open Sans', verdana, arial, sans-serif; font-size: 22px; fill: rgb(68, 68, 68); fill-opacity: 1; white-space: pre;" transform="translate(1277.1095049960954,1074.9922715031598)scale(0.45402228001838785)"><tspan class="line" dy="0em" x="0" y="0">01</tspan><tspan class="line" dy="1.3em" x="0" y="0">0.30 ms</tspan><tspan class="line" dy="2.6em" x="0" y="0">60%</tspan></text></g></g><g class="slice"><path class="surface" d="M1017.761024047058,913.8855643488337L1315.522048094116,1072.7711286976673A675,675 0,0,0 1323.790145751319,1056.7655710872286L1021.8950728756595,905.8827855436143A337.5,337.5 0,0,1 1017.761024047058,913.8855643488337Z" style="pointer-events: none; stroke-width: 1; fill: rgb(171, 99, 250); fill-opacity: 1; stroke: rgb(255, 255, 255); stroke-opacity: 1; opacity: 0.7;"/><g class="slicetext"><text data-notex="1" class="slicetext" text-anchor="middle" x="0" y="0" style="font-family: 'Open Sans', verdana, arial, sans-serif; font-size: 22px; fill: rgb(68, 68, 68); fill-opacity: 1; white-space: pre;" transform="translate(1311.8121029076674,1057.8545316076247)scale(0.14415963350123115)"><tspan class="line" dy="0em" x="0" y="0">03</tspan><tspan class="line" dy="1.3em" x="0" y="0">0.09 ms</tspan><tspan class="line" dy="2.6em" x="0" y="0">18%</tspan></text></g></g><g class="slice"><path class="surface" d="M1021.8950728756595,905.8827855436143L1323.790145751319,1056.7655710872286A675,675 0,0,0 1330.4601684726426,1043.0336485696637L1025.2300842363213,899.0168242848318A337.5,337.5 0,0,1 1021.8950728756595,905.8827855436143Z" style="pointer-events: none; stroke-width: 1; fill: rgb(171, 99, 250); fill-opacity: 1; stroke: rgb(255, 255, 255); stroke-opacity: 1; opacity: 0.7;"/><g class="slicetext"><text data-notex="1" class="slicetext" text-anchor="middle" x="0" y="0" style="font-family: 'Open Sans', verdana, arial, sans-serif; font-size: 22px; fill: rgb(68, 68, 68); fill-opacity: 1; white-space: pre;" transform="translate(1320.3747919127609,1044.190740996703)scale(0.1224088068511052)"><tspan class="line" dy="0em" x="0" y="0">04</tspan><tspan class="line" dy="1.3em" x="0" y="0">0.08 ms</tspan><tspan class="line" dy="2.6em" x="0" y="0">16%</tspan></text></g></g><g class="slice"><path class="surface" d="M1025.2300842363213,899.0168242848318L1330.4601684726426,1043.0336485696637A675,675 0,0,0 1333.0688528400447,1037.438633471754L1026.5344264200223,896.219316735877A337.5,337.5 0,0,1 1025.2300842363213,899.0168242848318Z" style="pointer-events: none; stroke-width: 1; fill: rgb(171, 99, 250); fill-opacity: 1; stroke: rgb(255, 255, 255); stroke-opacity: 1; opacity: 0.7;"/><g class="slicetext"><text data-notex="1" class="slicetext" text-anchor="middle" x="0" y="0" style="font-family: 'Open Sans', verdana, arial, sans-serif; font-size: 22px; fill: rgb(68, 68, 68); fill-opacity: 1; white-space: pre;" transform="translate(1328.9861335841424,1037.9514900175736)scale(0.04983126308322751)"><tspan class="line" dy="0em" x="0" y="0">02</tspan><tspan class="line" dy="1.3em" x="0" y="0">0.03 ms</tspan><tspan class="line" dy="2.6em" x="0" y="0">6%</tspan></text></g></g><g class="slice"><path class="surface" d="M1026.5344264200223,896.219316735877L1333.0688528400447,1037.438633471754A675,675 0,0,0 1346.3959148176787,1006.5018049631518L1033.1979574088393,880.7509024815758A337.5,337.5 0,0,1 1026.5344264200223,896.219316735877Z" style="pointer-events: none; stroke-width: 1; fill: rgb(255, 161, 90); fill-opacity: 1; stroke: rgb(255, 255, 255); stroke-opacity: 1; opacity: 0.7;"/><g class="slicetext"><text data-notex="1" class="slicetext" text-anchor="middle" x="0" y="0" style="font-family: 'Open Sans', verdana, arial, sans-serif; font-size: 22px; fill: rgb(68, 68, 68); fill-opacity: 1; white-space: pre;" transform="translate(1324.8335565088744,1010.2615364883454)scale(0.2665039665664844)"><tspan class="line" dy="0em" x="0" y="0">04</tspan><tspan class="line" dy="1.3em" x="0" y="0">0.17 ms</tspan><tspan class="line" dy="2.6em" x="0" y="0">46%</tspan></text></g></g><g class="slice"><path class="surface" d="M1033.1979574088393,880.7509024815758L1346.3959148176787,1006.5018049631518A675,675 0,0,0 1357.916121000606,975.6536257747424L1038.958060500303,865.3268128873711A337.5,337.5 0,0,1 1033.1979574088393,880.7509024815758Z" style="pointer-events: none; stroke-width: 1; fill: rgb(255, 161, 90); fill-opacity: 1; stroke: rgb(255, 255, 255); stroke-opacity: 1; opacity: 0.7;"/><g class="slicetext"><text data-notex="1" class="slicetext" text-anchor="middle" x="0" y="0" style="font-family: 'Open Sans', verdana, arial, sans-serif; font-size: 22px; fill: rgb(68, 68, 68); fill-opacity: 1; white-space: pre;" transform="translate(1337.2873328001344,980.3504432219474)scale(0.2606638155710288)"><tspan class="line" dy="0em" x="0" y="0">03</tspan><tspan class="line" dy="1.3em" x="0" y="0">0.17 ms</tspan><tspan class="line" dy="2.6em" x="0" y="0">45%</tspan></text></g></g><g class="slice"><path class="surface" d="M1038.958060500303,865.3268128873711L1357.916121000606,975.6536257747424A675,675 0,0,0 1359.668929547123,970.5195132048086L1039.8344647735616,862.7597566024043A337.5,337.5 0,0,1 1038.958060500303,865.3268128873711Z" style="pointer-events: none; stroke-width: 1; fill: rgb(255, 161, 90); fill-opacity: 1; stroke: rgb(255, 255, 255); stroke-opacity: 1; opacity: 0.7;"/><g class="slicetext"><text data-notex="1" class="slicetext" text-anchor="middle" x="0" y="0" style="font-family: 'Open Sans', verdana, arial, sans-serif; font-size: 22px; fill: rgb(68, 68, 68); fill-opacity: 1; white-space: pre;" transform="translate(1356.2409015820213,971.3456210181299)scale(0.04381584338046203)"><tspan class="line" dy="0em" x="0" y="0">01</tspan><tspan class="line" dy="1.3em" x="0" y="0">0.03 ms</tspan><tspan class="line" dy="2.6em" x="0" y="0">7%</tspan></text></g></g><g class="slice"><path class="surface" d="M1039.8344647735616,862.7597566024043L1359.668929547123,970.5195132048086A675,675 0,0,0 1360.2869815006907,968.6763471251184L1040.1434907503453,861.8381735625592A337.5,337.5 0,0,1 1039.8344647735616,862.7597566024043Z" style="pointer-events: none; stroke-width: 1; fill: rgb(255, 161, 90); fill-opacity: 1; stroke: rgb(255, 255, 255); stroke-opacity: 1; opacity: 0.7;"/><g class="slicetext"><text data-notex="1" class="slicetext" text-anchor="middle" x="0" y="0" style="font-family: 'Open Sans', verdana, arial, sans-serif; font-size: 22px; fill: rgb(68, 68, 68); fill-opacity: 1; white-space: pre;" transform="translate(1359.0583612253379,968.9770785354659)scale(0.015741457079793325)"><tspan class="line" dy="0em" x="0" y="0">02</tspan><tspan class="line" dy="1.3em" x="0" y="0">0.01 ms</tspan><tspan class="line" dy="2.6em" x="0" y="0">3%</tspan></text></g></g><g class="slice"><path class="surface" d="M1040.1434907503453,861.8381735625592L1360.2869815006907,968.6763471251184A675,675 0,0,0 1377.763543741496,906.5655651018028L1048.881771870748,830.7827825509014A337.5,337.5 0,0,1 1040.1434907503453,861.8381735625592Z" style="pointer-events: none; stroke-width: 1; fill: rgb(25, 211, 243); fill-opacity: 1; stroke: rgb(255, 255, 255); stroke-opacity: 1; opacity: 0.7;"/><g class="slicetext"><text data-notex="1" class="slicetext" text-anchor="middle" x="0" y="0" style="font-family: 'Open Sans', verdana, arial, sans-serif; font-size: 22px; fill: rgb(68, 68, 68); fill-opacity: 1; white-space: pre;" transform="translate(1340.129011091699,919.5773653181)scale(0.49934822241572524)"><tspan class="line" dy="0em" x="0" y="0">03</tspan><tspan class="line" dy="1.3em" x="0" y="0">0.33 ms</tspan><tspan class="line" dy="2.6em" x="0" y="0">88%</tspan></text></g></g><g class="slice"><path class="surface" d="M1048.881771870748,830.7827825509014L1377.763543741496,906.5655651018028A675,675 0,0,0 1378.9798127567215,901.1868885335354L1049.4899063783607,828.0934442667677A337.5,337.5 0,0,1 1048.881771870748,830.7827825509014Z" style="pointer-events: none; stroke-width: 1; fill: rgb(25, 211, 243); fill-opacity: 1; stroke: rgb(255, 255, 255); stroke-opacity: 1; opacity: 0.7;"/><g class="slicetext"><text data-notex="1" class="slicetext" text-anchor="middle" x="0" y="0" style="font-family: 'Open Sans', verdana, arial, sans-serif; font-size: 22px; fill: rgb(68, 68, 68); fill-opacity: 1; white-space: pre;" transform="translate(1375.6987734059987,902.387719672477)scale(0.04453496784609747)"><tspan class="line" dy="0em" x="0" y="0">02</tspan><tspan class="line" dy="1.3em" x="0" y="0">0.03 ms</tspan><tspan class="line" dy="2.6em" x="0" y="0">8%</tspan></text></g></g><g class="slice"><path class="surface" d="M1049.4899063783607,828.0934442667677L1378.9798127567215,901.1868885335354A675,675 0,0,0 1379.7095034590923,897.857870086873L1049.854751729546,826.4289350434365A337.5,337.5 0,0,1 1049.4899063783607,828.0934442667677Z" style="pointer-events: none; stroke-width: 1; fill: rgb(25, 211, 243); fill-opacity: 1; stroke: rgb(255, 255, 255); stroke-opacity: 1; opacity: 0.7;"/><g class="slicetext"><text data-notex="1" class="slicetext" text-anchor="middle" x="0" y="0" style="font-family: 'Open Sans', verdana, arial, sans-serif; font-size: 22px; fill: rgb(68, 68, 68); fill-opacity: 1; white-space: pre;" transform="translate(1377.68644134281,898.6116794227953)scale(0.027566282810049997)"><tspan class="line" dy="0em" x="0" y="0">01</tspan><tspan class="line" dy="1.3em" x="0" y="0">0.02 ms</tspan><tspan class="line" dy="2.6em" x="0" y="0">5%</tspan></text></g></g><g class="slice"><path class="surface" d="M1049.8547517295463,826.4289350434362L1379.7095034590925,897.8578700868725A675,675 0,0,0 1387.7552729477607,853.6300940406206L1053.8776364738803,804.3150470203103A337.5,337.5 0,0,1 1049.8547517295463,826.4289350434362Z" style="pointer-events: none; stroke-width: 1; fill: rgb(255, 102, 146); fill-opacity: 1; stroke: rgb(255, 255, 255); stroke-opacity: 1; opacity: 0.7;"/><g class="slicetext"><text data-notex="1" class="slicetext" text-anchor="middle" x="0" y="0" style="font-family: 'Open Sans', verdana, arial, sans-serif; font-size: 22px; fill: rgb(68, 68, 68); fill-opacity: 1; white-space: pre;" transform="translate(1362.6994276137698,864.9144682108542)scale(0.3527816927069519)"><tspan class="line" dy="0em" x="0" y="0">03</tspan><tspan class="line" dy="1.3em" x="0" y="0">0.23 ms</tspan><tspan class="line" dy="2.6em" x="0" y="0">89%</tspan></text></g></g><g class="slice"><path class="surface" d="M1053.8776364738803,804.3150470203103L1387.7552729477607,853.6300940406206A675,675 0,0,0 1388.470077613369,848.6629880773423L1054.2350388066845,801.8314940386712A337.5,337.5 0,0,1 1053.8776364738803,804.3150470203103Z" style="pointer-events: none; stroke-width: 1; fill: rgb(255, 102, 146); fill-opacity: 1; stroke: rgb(255, 255, 255); stroke-opacity: 1; opacity: 0.7;"/><g class="slicetext"><text data-notex="1" class="slicetext" text-anchor="middle" x="0" y="0" style="font-family: 'Open Sans', verdana, arial, sans-serif; font-size: 22px; fill: rgb(68, 68, 68); fill-opacity: 1; white-space: pre;" transform="translate(1385.6429360719453,849.9862952685521)scale(0.04054246941867814)"><tspan class="line" dy="0em" x="0" y="0">02</tspan><tspan class="line" dy="1.3em" x="0" y="0">0.03 ms</tspan><tspan class="line" dy="2.6em" x="0" y="0">10%</tspan></text></g></g><g class="slice"><path class="surface" d="M1054.2350388066845,801.8314940386712L1388.470077613369,848.6629880773423A675,675 0,0,0 1388.5241386186876,848.2763425748545L1054.2620693093438,801.6381712874273A337.5,337.5 0,0,1 1054.2350388066845,801.8314940386712Z" style="pointer-events: none; stroke-width: 1; fill: rgb(255, 102, 146); fill-opacity: 1; stroke: rgb(255, 255, 255); stroke-opacity: 1; opacity: 0.7;"/><g class="slicetext"><text data-notex="1" class="slicetext" text-anchor="middle" x="0" y="0" style="font-family: 'Open Sans', verdana, arial, sans-serif; font-size: 22px; fill: rgb(68, 68, 68); fill-opacity: 1; white-space: pre;" transform="translate(1388.3038692091595,848.3798185226931)scale(0.0031648906183878362)"><tspan class="line" dy="0em" x="0" y="0">01</tspan><tspan class="line" dy="1.3em" x="0" y="0">0.00 ms</tspan><tspan class="line" dy="2.6em" x="0" y="0">1%</tspan></text></g></g><g class="slice"><path class="surface" d="M1054.2620693093438,801.6381712874276L1388.5241386186876,848.2763425748551A675,675 0,0,0 1391.3932864375172,824.6853996661425L1055.6966432187587,789.8426998330713A337.5,337.5 0,0,1 1054.2620693093438,801.6381712874276Z" style="pointer-events: none; stroke-width: 1; fill: rgb(182, 232, 128); fill-opacity: 1; stroke: rgb(255, 255, 255); stroke-opacity: 1; opacity: 0.7;"/><g class="slicetext"><text data-notex="1" class="slicetext" text-anchor="middle" x="0" y="0" style="font-family: 'Open Sans', verdana, arial, sans-serif; font-size: 22px; fill: rgb(68, 68, 68); fill-opacity: 1; white-space: pre;" transform="translate(1378.4711201617342,831.3243557321683)scale(0.18937481419541347)"><tspan class="line" dy="0em" x="0" y="0">03</tspan><tspan class="line" dy="1.3em" x="0" y="0">0.12 ms</tspan><tspan class="line" dy="2.6em" x="0" y="0">58%</tspan></text></g></g><g class="slice"><path class="surface" d="M1055.6966432187587,789.8426998330713L1391.3932864375172,824.6853996661425A675,675 0,0,0 1392.1432410414845,817.0359857038529L1056.0716205207423,786.0179928519265A337.5,337.5 0,0,1 1055.6966432187587,789.8426998330713Z" style="pointer-events: none; stroke-width: 1; fill: rgb(182, 232, 128); fill-opacity: 1; stroke: rgb(255, 255, 255); stroke-opacity: 1; opacity: 0.7;"/><g class="slicetext"><text data-notex="1" class="slicetext" text-anchor="middle" x="0" y="0" style="font-family: 'Open Sans', verdana, arial, sans-serif; font-size: 22px; fill: rgb(68, 68, 68); fill-opacity: 1; white-space: pre;" transform="translate(1387.9760969476733,819.2586323256686)scale(0.06197362667451443)"><tspan class="line" dy="0em" x="0" y="0">01</tspan><tspan class="line" dy="1.3em" x="0" y="0">0.04 ms</tspan><tspan class="line" dy="2.6em" x="0" y="0">19%</tspan></text></g></g><g class="slice"><path class="surface" d="M1056.0716205207423,786.0179928519265L1392.1432410414845,817.0359857038529A675,675 0,0,0 1392.748670638592,810.0838102713221L1056.374335319296,782.5419051356611A337.5,337.5 0,0,1 1056.0716205207423,786.0179928519265Z" style="pointer-events: none; stroke-width: 1; fill: rgb(182, 232, 128); fill-opacity: 1; stroke: rgb(255, 255, 255); stroke-opacity: 1; opacity: 0.7;"/><g class="slicetext"><text data-notex="1" class="slicetext" text-anchor="middle" x="0" y="0" style="font-family: 'Open Sans', verdana, arial, sans-serif; font-size: 22px; fill: rgb(68, 68, 68); fill-opacity: 1; white-space: pre;" transform="translate(1388.9967289261888,812.1419287650543)scale(0.056297512834968456)"><tspan class="line" dy="0em" x="0" y="0">04</tspan><tspan class="line" dy="1.3em" x="0" y="0">0.04 ms</tspan><tspan class="line" dy="2.6em" x="0" y="0">17%</tspan></text></g></g><g class="slice"><path class="surface" d="M1056.374335319296,782.5419051356611L1392.748670638592,810.0838102713221A675,675 0,0,0 1392.9414921248367,807.6758785099822L1056.4707460624184,781.337939254991A337.5,337.5 0,0,1 1056.374335319296,782.5419051356611Z" style="pointer-events: none; stroke-width: 1; fill: rgb(182, 232, 128); fill-opacity: 1; stroke: rgb(255, 255, 255); stroke-opacity: 1; opacity: 0.7;"/><g class="slicetext"><text data-notex="1" class="slicetext" text-anchor="middle" x="0" y="0" style="font-family: 'Open Sans', verdana, arial, sans-serif; font-size: 22px; fill: rgb(68, 68, 68); fill-opacity: 1; white-space: pre;" transform="translate(1391.6443431515352,808.3955260619591)scale(0.01955342548962442)"><tspan class="line" dy="0em" x="0" y="0">02</tspan><tspan class="line" dy="1.3em" x="0" y="0">0.01 ms</tspan><tspan class="line" dy="2.6em" x="0" y="0">6%</tspan></text></g></g><g class="slice"><path class="surface" d="M1056.4707460624184,781.337939254991L1392.9414921248367,807.6758785099822A675,675 0,0,0 1393.918280953854,793.1988297752978L1056.9591404769271,774.0994148876489A337.5,337.5 0,0,1 1056.4707460624184,781.337939254991Z" style="pointer-events: none; stroke-width: 1; fill: rgb(255, 151, 255); fill-opacity: 1; stroke: rgb(255, 255, 255); stroke-opacity: 1; opacity: 0.7;"/><g class="slicetext"><text data-notex="1" class="slicetext" text-anchor="middle" x="0" y="0" style="font-family: 'Open Sans', verdana, arial, sans-serif; font-size: 22px; fill: rgb(68, 68, 68); fill-opacity: 1; white-space: pre;" transform="translate(1386.3072367871894,797.6458565125408)scale(0.11641005360528914)"><tspan class="line" dy="0em" x="0" y="0">01</tspan><tspan class="line" dy="1.3em" x="0" y="0">0.07 ms</tspan><tspan class="line" dy="2.6em" x="0" y="0">48%</tspan></text></g></g><g class="slice"><path class="surface" d="M1056.9591404769271,774.0994148876489L1393.918280953854,793.1988297752978A675,675 0,0,0 1394.471913113153,781.6952883761029L1057.2359565565766,768.3476441880514A337.5,337.5 0,0,1 1056.9591404769271,774.0994148876489Z" style="pointer-events: none; stroke-width: 1; fill: rgb(255, 151, 255); fill-opacity: 1; stroke: rgb(255, 255, 255); stroke-opacity: 1; opacity: 0.7;"/><g class="slicetext"><text data-notex="1" class="slicetext" text-anchor="middle" x="0" y="0" style="font-family: 'Open Sans', verdana, arial, sans-serif; font-size: 22px; fill: rgb(68, 68, 68); fill-opacity: 1; white-space: pre;" transform="translate(1388.5165142910455,785.3355072726844)scale(0.09260016927920431)"><tspan class="line" dy="0em" x="0" y="0">02</tspan><tspan class="line" dy="1.3em" x="0" y="0">0.06 ms</tspan><tspan class="line" dy="2.6em" x="0" y="0">38%</tspan></text></g></g><g class="slice"><path class="surface" d="M1057.2359565565766,768.3476441880514L1394.471913113153,781.6952883761029A675,675 0,0,0 1394.6316051665508,777.2979216610671L1057.3158025832754,766.1489608305336A337.5,337.5 0,0,1 1057.2359565565766,768.3476441880514Z" style="pointer-events: none; stroke-width: 1; fill: rgb(255, 151, 255); fill-opacity: 1; stroke: rgb(255, 255, 255); stroke-opacity: 1; opacity: 0.7;"/><g class="slicetext"><text data-notex="1" class="slicetext" text-anchor="middle" x="0" y="0" style="font-family: 'Open Sans', verdana, arial, sans-serif; font-size: 22px; fill: rgb(68, 68, 68); fill-opacity: 1; white-space: pre;" transform="translate(1392.3638022758146,778.711111625987)scale(0.03556581012757131)"><tspan class="line" dy="0em" x="0" y="0">03</tspan><tspan class="line" dy="1.3em" x="0" y="0">0.02 ms</tspan><tspan class="line" dy="2.6em" x="0" y="0">14%</tspan></text></g></g><g class="slice"><path class="surface" d="M1057.3158025832754,766.1489608305338L1394.6316051665508,777.2979216610677A675,675 0,0,0 1394.9150075059129,765.711332470495L1057.4575037529564,760.3556662352474A337.5,337.5 0,0,1 1057.3158025832754,766.1489608305338Z" style="pointer-events: none; stroke-width: 1; fill: rgb(254, 203, 82); fill-opacity: 1; stroke: rgb(255, 255, 255); stroke-opacity: 1; opacity: 0.7;"/><g class="slicetext"><text data-notex="1" class="slicetext" text-anchor="middle" x="0" y="0" style="font-family: 'Open Sans', verdana, arial, sans-serif; font-size: 22px; fill: rgb(68, 68, 68); fill-opacity: 1; white-space: pre;" transform="translate(1389.0541939446996,769.5148982035781)scale(0.09318370547235118)"><tspan class="line" dy="0em" x="0" y="0">03</tspan><tspan class="line" dy="1.3em" x="0" y="0">0.06 ms</tspan><tspan class="line" dy="2.6em" x="0" y="0">52%</tspan></text></g></g><g class="slice"><path class="surface" d="M1057.4575037529564,760.3556662352474L1394.9150075059129,765.711332470495A675,675 0,0,0 1394.990339868411,758.6112441522131L1057.4951699342055,756.8056220761065A337.5,337.5 0,0,1 1057.4575037529564,760.3556662352474Z" style="pointer-events: none; stroke-width: 1; fill: rgb(254, 203, 82); fill-opacity: 1; stroke: rgb(255, 255, 255); stroke-opacity: 1; opacity: 0.7;"/><g class="slicetext"><text data-notex="1" class="slicetext" text-anchor="middle" x="0" y="0" style="font-family: 'Open Sans', verdana, arial, sans-serif; font-size: 22px; fill: rgb(68, 68, 68); fill-opacity: 1; white-space: pre;" transform="translate(1391.4305397280086,760.986888719126)scale(0.05727657658551432)"><tspan class="line" dy="0em" x="0" y="0">01</tspan><tspan class="line" dy="1.3em" x="0" y="0">0.04 ms</tspan><tspan class="line" dy="2.6em" x="0" y="0">32%</tspan></text></g></g><g class="slice"><path class="surface" d="M1057.4951699342055,756.8056220761065L1394.990339868411,758.6112441522131A675,675 0,0,0 1395,755.0000000000001L1057.5,755.0000000000001A337.5,337.5 0,0,1 1057.4951699342055,756.8056220761065Z" style="pointer-events: none; stroke-width: 1; fill: rgb(254, 203, 82); fill-opacity: 1; stroke: rgb(255, 255, 255); stroke-opacity: 1; opacity: 0.7;"/><g class="slicetext"><text data-notex="1" class="slicetext" text-anchor="middle" x="0" y="0" style="font-family: 'Open Sans', verdana, arial, sans-serif; font-size: 22px; fill: rgb(68, 68, 68); fill-opacity: 1; white-space: pre;" transform="translate(1393.1967800492544,756.221035658037)scale(0.02920554482771349)"><tspan class="line" dy="0em" x="0" y="0">02</tspan><tspan class="line" dy="1.3em" x="0" y="0">0.02 ms</tspan><tspan class="line" dy="2.6em" x="0" y="0">16%</tspan></text></g></g></g></g><g class="glimages"/><defs id="topdefs-dcf294"><g class="clips"/></defs><g class="layer-above"><g class="imagelayer"/><g class="shapelayer"/></g><g class="infolayer"><g class="g-gtitle"><text class="gtitle" x="720" y="40" text-anchor="middle" dy="0em" style="opacity: 1; font-family: 'Open Sans', verdana, arial, sans-serif; font-size: 31px; fill: rgb(42, 63, 95); fill-opacity: 1; white-space: pre;">Total time: 22 ms</text></g></g></svg>