<svg class="main-svg" xmlns="http://www.w3.org/2000/svg" xmlns:xlink="http://www.w3.org/1999/xlink" width="1440" height="1440" style="" viewBox="0 0 1440 1440"><rect x="0" y="0" width="1440" height="1440" style="fill: rgb(255, 255, 255); fill-opacity: 1;"/><defs id="defs-f157ec"><g class="clips"/><g class="gradients"/><g class="patterns"/></defs><g class="bglayer"/><g class="layer-below"><g class="imagelayer"/><g class="shapelayer"/></g><g class="cartesianlayer"/><g class="polarlayer"/><g class="smithlayer"/><g class="ternarylayer"/><g class="geolayer"/><g class="funnelarealayer"/><g class="pielayer"/><g class="iciclelayer"/><g class="treemaplayer"/><g class="sunburstlayer"><g class="trace sunburst" stroke-linejoin="round" style="opacity: 1;"><g class="slice cursor-pointer"><path class="surface" d="M720,755L1057.5,755A337.5,337.5 0,1,0 385.74715858233986,801.7042610927583L720,755A0,0 0,1,1 720,755Z" style="pointer-events: none; stroke-width: 1; fill: rgb(99, 110, 250); fill-opacity: 1; stroke: rgb(255, 255, 255); stroke-opacity: 1;"/><g class="slicetext"><text data-notex="1" class="slicetext" text-anchor="middle" x="0" y="0" style="font-family: 'Open Sans', verdana, arial, sans-serif; font-size: 22px; fill: rgb(255, 255, 255); fill-opacity: 1; white-space: pre;" transform="translate(720,589.4207087746995)"><tspan class="line" dy="0em" x="0" y="0">2019</tspan><tspan class="line" dy="1.3em" x="0" y="0">11.82 ms</tspan><tspan class="line" dy="2.6em" x="0" y="0">52%</tspan></text></g></g><g class="slice cursor-pointer"><path class="surface" d="M720,755L385.74715858233986,801.7042610927583A337.5,337.5 0,0,0 841.3870811088765,1069.9149512802894L720,755A0,0 0,0,1 720,755Z" style="pointer-events: none; stroke-width: 1; fill: rgb(239, 85, 59); fill-opacity: 1; stroke: rgb(255, 255, 255); stroke-opacity: 1;"/><g class="slicetext"><text data-notex="1" class="slicetext" text-anchor="middle" x="0" y="0" style="font-family: 'Open Sans', verdana, arial, sans-serif; font-size: 22px; fill: rgb(68, 68, 68); fill-opacity: 1; white-space: pre;" transform="translate(623.9930753760123,898.246290412197)"><tspan class="line" dy="0em" x="0" y="0">2024</tspan><tspan class="line" dy="1.3em" x="0" y="0">6.48 ms</tspan><tspan class="line" dy="2.6em" x="0" y="0">29%</tspan></text></g></g><g class="slice cursor-pointer"><path class="surface" d="M720,755L841.3870811088765,1069.9149512802894A337.5,337.5 0,0,0 1002.3407407457561,939.9052625404095L720,755A0,0 0,0,1 720,755Z" style="pointer-events: none; stroke-width: 1; fill: rgb(0, 204, 150); fill-opacity: 1; stroke: rgb(255, 255, 255); stroke-opacity: 1;"/><g class="slicetext"><text data-notex="1" class="slicetext" text-anchor="middle" x="0" y="0" style="font-family: 'Open Sans', verdana, arial, sans-serif; font-size: 22px; fill: rgb(68, 68, 68); fill-opacity: 1; white-space: pre;" transform="translate(882.3182071034275,936.1004566319376)"><tspan class="line" dy="0em" x="0" y="0">2018</tspan><tspan class="line" dy="1.3em" x="0" y="0">2.24 ms</tspan><tspan class="line" dy="2.6em" x="0" y="0">10%</tspan></text></g></g><g class="slice cursor-pointer"><path class="surface" d="M720,755L1002.3407407457561,939.9052625404095A337.5,337.5 0,0,0 1025.1136356704149,899.2633679351114L720,755A0,0 0,0,1 720,755Z" style="pointer-events: none; stroke-width: 1; fill: rgb(171, 99, 250); fill-opacity: 1; stroke: rgb(255, 255, 255); stroke-opacity: 1;"/><g class="slicetext"><text data-notex="1" class="slicetext" text-anchor="middle" x="0" y="0" style="font-family: 'Open Sans', verdana, arial, sans-serif; font-size: 22px; fill: rgb(68, 68, 68); fill-opacity: 1; white-space: pre;" transform="translate(995.4202982920034,902.3111506977355)scale(0.35338553070151196)"><tspan class="line" dy="0em" x="0" y="0">2023</tspan><tspan class="line" dy="1.3em" x="0" y="0">0.50 ms</tspan><tspan class="line" dy="2.6em" x="0" y="0">2%</tspan></text></g></g><g class="slice cursor-pointer"><path class="surface" d="M720,755L1025.1136356704149,899.2633679351114A337.5,337.5 0,0,0 1038.6902405222772,866.0980674712798L720,755A0,0 0,0,1 720,755Z" style="pointer-events: none; stroke-width: 1; fill: rgb(255, 161, 90); fill-opacity: 1; stroke: rgb(255, 255, 255); stroke-opacity: 1;"/><g class="slicetext"><text data-notex="1" class="slicetext" text-anchor="middle" x="0" y="0" style="font-family: 'Open Sans', verdana, arial, sans-serif; font-size: 22px; fill: rgb(68, 68, 68); fill-opacity: 1; white-space: pre;" transform="translate(1016.5958041367052,870.9369662999428)scale(0.27594834864592194)"><tspan class="line" dy="0em" x="0" y="0">2021</tspan><tspan class="line" dy="1.3em" x="0" y="0">0.38 ms</tspan><tspan class="line" dy="2.6em" x="0" y="0">2%</tspan></text></g></g><g class="slice cursor-pointer"><path class="surface" d="M720,755L1038.6902405222772,866.0980674712798A337.5,337.5 0,0,0 1048.6648223862394,831.7182150849573L720,755A0,0 0,0,1 720,755Z" style="pointer-events: none; stroke-width: 1; fill: rgb(25, 211, 243); fill-opacity: 1; stroke: rgb(255, 255, 255); stroke-opacity: 1;"/><g class="slicetext"><text data-notex="1" class="slicetext" text-anchor="middle" x="0" y="0" style="font-family: 'Open Sans', verdana, arial, sans-serif; font-size: 22px; fill: rgb(68, 68, 68); fill-opacity: 1; white-space: pre;" transform="translate(1027.8094752280954,838.8320204025097)scale(0.2756630546407892)"><tspan class="line" dy="0em" x="0" y="0">2015</tspan><tspan class="line" dy="1.3em" x="0" y="0">0.38 ms</tspan><tspan class="line" dy="2.6em" x="0" y="0">2%</tspan></text></g></g><g class="slice cursor-pointer"><path class="surface" d="M720,755L1048.6648223862394,831.7182150849573A337.5,337.5 0,0,0 1053.5061978725096,806.7674220009316L720,755A0,0 0,0,1 720,755Z" style="pointer-events: none; stroke-width: 1; fill: rgb(255, 102, 146); fill-opacity: 1; stroke: rgb(255, 255, 255); stroke-opacity: 1;"/><g class="slicetext"><text data-notex="1" class="slicetext" text-anchor="middle" x="0" y="0" style="font-family: 'Open Sans', verdana, arial, sans-serif; font-size: 22px; fill: rgb(68, 68, 68); fill-opacity: 1; white-space: pre;" transform="translate(1039.2977659473818,813.0126288371903)scale(0.1986207343046173)"><tspan class="line" dy="0em" x="0" y="0">2017</tspan><tspan class="line" dy="1.3em" x="0" y="0">0.27 ms</tspan><tspan class="line" dy="2.6em" x="0" y="0">1%</tspan></text></g></g><g class="slice cursor-pointer"><path class="surface" d="M720,755L1053.5061978725096,806.7674220009316A337.5,337.5 0,0,0 1055.9866686290593,786.9250450829246L720,755A0,0 0,0,1 720,755Z" style="pointer-events: none; stroke-width: 1; fill: rgb(182, 232, 128); fill-opacity: 1; stroke: rgb(255, 255, 255); stroke-opacity: 1;"/><g class="slicetext"><text data-notex="1" class="slicetext" text-anchor="middle" x="0" y="0" style="font-family: 'Open Sans', verdana, arial, sans-serif; font-size: 22px; fill: rgb(68, 68, 68); fill-opacity: 1; white-space: pre;" transform="translate(1045.2576919057367,792.5336645953787)scale(0.1574885222203059)"><tspan class="line" dy="0em" x="0" y="0">2020</tspan><tspan class="line" dy="1.3em" x="0" y="0">0.21 ms</tspan><tspan class="line" dy="2.6em" x="0" y="0">1%</tspan></text></g></g><g class="slice cursor-pointer"><path class="surface" d="M720,755L1055.9866686290593,786.9250450829246A337.5,337.5 0,0,0 1057.2721376375232,767.399805378136L720,755A0,0 0,0,1 720,755Z" style="pointer-events: none; stroke-width: 1; fill: rgb(255, 151, 255); fill-opacity: 1; stroke: rgb(255, 255, 255); stroke-opacity: 1;"/><g class="slicetext"><text data-notex="1" class="slicetext" text-anchor="middle" x="0" y="0" style="font-family: 'Open Sans', verdana, arial, sans-serif; font-size: 22px; fill: rgb(68, 68, 68); fill-opacity: 1; white-space: pre;" transform="translate(1047.2833515209688,773.4859516768498)scale(0.15420269058207137)"><tspan class="line" dy="0em" x="0" y="0">2022</tspan><tspan class="line" dy="1.3em" x="0" y="0">0.21 ms</tspan><tspan class="line" dy="2.6em" x="0" y="0">1%</tspan></text></g></g><g class="slice cursor-pointer"><path class="surface" d="M720,755L1057.2721376375232,767.399805378136A337.5,337.5 0,0,0 1057.5,754.9999999999994L720,755A0,0 0,0,1 720,755Z" style="pointer-events: none; stroke-width: 1; fill: rgb(254, 203, 82); fill-opacity: 1; stroke: rgb(255, 255, 255); stroke-opacity: 1;"/><g class="slicetext"><text data-notex="1" class="slicetext" text-anchor="middle" x="0" y="0" style="font-family: 'Open Sans', verdana, arial, sans-serif; font-size: 22px; fill: rgb(68, 68, 68); fill-opacity: 1; white-space: pre;" transform="translate(1051.3549836962789,759.1286812987306)scale(0.09875255153754431)"><tspan class="line" dy="0em" x="0" y="0">2016</tspan><tspan class="line" dy="1.3em" x="0" y="0">0.13 ms</tspan><tspan class="line" dy="2.6em" x="0" y="0">1%</tspan></text></g></g><g class="slice"><path class="surface" d="M1057.5,755L1395,755A675,675 0,0,0 192.76865523633387,333.5120297105786L456.38432761816694,544.2560148552893A337.5,337.5 0,0,1 1057.5,755Z" style="pointer-events: none; stroke-width: 1; fill: rgb(99, 110, 250); fill-opacity: 1; stroke: rgb(255, 255, 255); stroke-opacity: 1; opacity: 0.7;"/><g class="slicetext"><text data-notex="1" class="slicetext" text-anchor="middle" x="0" y="0" style="font-family: 'Open Sans', verdana, arial, sans-serif; font-size: 22px; fill: rgb(255, 255, 255); fill-opacity: 1; white-space: pre;" transform="translate(887.4901658083922,257.4078103209027)"><tspan class="line" dy="0em" x="0" y="0">03</tspan><tspan class="line" dy="1.3em" x="0" y="0">8.89 ms</tspan><tspan class="line" dy="2.6em" x="0" y="0">75%</tspan></text></g></g><g class="slice"><path class="surface" d="M456.38432761816694,544.2560148552893L192.76865523633387,333.5120297105786A675,675 0,0,0 55.036638760159576,639.0313481641979L387.5183193800798,697.0156740820989A337.5,337.5 0,0,1 456.38432761816694,544.2560148552893Z" style="pointer-events: none; stroke-width: 1; fill: rgb(99, 110, 250); fill-opacity: 1; stroke: rgb(255, 255, 255); stroke-opacity: 1; opacity: 0.7;"/><g class="slicetext"><text data-notex="1" class="slicetext" text-anchor="middle" x="0" y="0" style="font-family: 'Open Sans', verdana, arial, sans-serif; font-size: 22px; fill: rgb(255, 255, 255); fill-opacity: 1; white-space: pre;" transform="translate(227.01989183512245,512.9066993216701)"><tspan class="line" dy="0em" x="0" y="0">02</tspan><tspan class="line" dy="1.3em" x="0" y="0">1.81 ms</tspan><tspan class="line" dy="2.6em" x="0" y="0">15%</tspan></text></g></g><g class="slice"><path class="surface" d="M387.5183193800798,697.0156740820989L55.036638760159576,639.0313481641979A675,675 0,0,0 51.42750874332239,847.929133940007L385.7137543716612,801.4645669700035A337.5,337.5 0,0,1 387.5183193800798,697.0156740820989Z" style="pointer-events: none; stroke-width: 1; fill: rgb(99, 110, 250); fill-opacity: 1; stroke: rgb(255, 255, 255); stroke-opacity: 1; opacity: 0.7;"/><g class="slicetext"><text data-notex="1" class="slicetext" text-anchor="middle" x="0" y="0" style="font-family: 'Open Sans', verdana, arial, sans-serif; font-size: 22px; fill: rgb(255, 255, 255); fill-opacity: 1; white-space: pre;" transform="translate(135.5512846446619,725.0509087298548)"><tspan class="line" dy="0em" x="0" y="0">04</tspan><tspan class="line" dy="1.3em" x="0" y="0">1.12 ms</tspan><tspan class="line" dy="2.6em" x="0" y="0">9%</tspan></text></g></g><g class="slice"><path class="surface" d="M385.7137543716612,801.4645669700035L51.42750874332239,847.929133940007A675,675 0,0,0 51.49431716467973,848.4085221855166L385.74715858233986,801.7042610927583A337.5,337.5 0,0,1 385.7137543716612,801.4645669700035Z" style="pointer-events: none; stroke-width: 1; fill: rgb(99, 110, 250); fill-opacity: 1; stroke: rgb(255, 255, 255); stroke-opacity: 1; opacity: 0.7;"/><g class="slicetext"><text data-notex="1" class="slicetext" text-anchor="middle" x="0" y="0" style="font-family: 'Open Sans', verdana, arial, sans-serif; font-size: 22px; fill: rgb(255, 255, 255); fill-opacity: 1; white-space: pre;" transform="translate(51.700478199755025,848.0624866933529)scale(0.003675031588294843)"><tspan class="line" dy="0em" x="0" y="0">01</tspan><tspan class="line" dy="1.3em" x="0" y="0">0.00 ms</tspan><tspan class="line" dy="2.6em" x="0" y="0">0.0219%</tspan></text></g></g><g class="slice"><path class="surface" d="M385.74715858233986,801.7042610927583L51.49431716467973,848.4085221855166A675,675 0,0,0 906.261983822366,1403.7923191457776L813.130991911183,1079.3961595728888A337.5,337.5 0,0,1 385.74715858233986,801.7042610927583Z" style="pointer-events: none; stroke-width: 1; fill: rgb(239, 85, 59); fill-opacity: 1; stroke: rgb(255, 255, 255); stroke-opacity: 1; opacity: 0.7;"/><g class="slicetext"><text data-notex="1" class="slicetext" text-anchor="middle" x="0" y="0" style="font-family: 'Open Sans', verdana, arial, sans-serif; font-size: 22px; fill: rgb(68, 68, 68); fill-opacity: 1; white-space: pre;" transform="translate(444.174780078227,1159.659344963054)"><tspan class="line" dy="0em" x="0" y="0">04</tspan><tspan class="line" dy="1.3em" x="0" y="0">6.17 ms</tspan><tspan class="line" dy="2.6em" x="0" y="0">95%</tspan></text></g></g><g class="slice"><path class="surface" d="M813.130991911183,1079.3961595728888L906.261983822366,1403.7923191457776A675,675 0,0,0 934.0649122502025,1395.1571786235886L827.0324561251012,1075.0785893117943A337.5,337.5 0,0,1 813.130991911183,1079.3961595728888Z" style="pointer-events: none; stroke-width: 1; fill: rgb(239, 85, 59); fill-opacity: 1; stroke: rgb(255, 255, 255); stroke-opacity: 1; opacity: 0.7;"/><g class="slicetext"><text data-notex="1" class="slicetext" text-anchor="middle" x="0" y="0" style="font-family: 'Open Sans', verdana, arial, sans-serif; font-size: 22px; fill: rgb(68, 68, 68); fill-opacity: 1; white-space: pre;" transform="translate(915.9835815994079,1381.429081364467)scale(0.23109385739754582)"><tspan class="line" dy="0em" x="0" y="0">01</tspan><tspan class="line" dy="1.3em" x="0" y="0">0.16 ms</tspan><tspan class="line" dy="2.6em" x="0" y="0">2%</tspan></text></g></g><g class="slice"><path class="surface" d="M827.0324561251012,1075.0785893117943L934.0649122502025,1395.1571786235886A675,675 0,0,0 953.649904533886,1388.271444256968L836.824952266943,1071.6357221284838A337.5,337.5 0,0,1 827.0324561251012,1075.0785893117943Z" style="pointer-events: none; stroke-width: 1; fill: rgb(239, 85, 59); fill-opacity: 1; stroke: rgb(255, 255, 255); stroke-opacity: 1; opacity: 0.7;"/><g class="slicetext"><text data-notex="1" class="slicetext" text-anchor="middle" x="0" y="0" style="font-family: 'Open Sans', verdana, arial, sans-serif; font-size: 22px; fill: rgb(68, 68, 68); fill-opacity: 1; white-space: pre;" transform="translate(940.4931571099532,1378.8541378811362)scale(0.16579468043711665)"><tspan class="line" dy="0em" x="0" y="0">02</tspan><tspan class="line" dy="1.3em" x="0" y="0">0.11 ms</tspan><tspan class="line" dy="2.6em" x="0" y="0">2%</tspan></text></g></g><g class="slice"><path class="surface" d="M836.824952266943,1071.6357221284838L953.649904533886,1388.271444256968A675,675 0,0,0 962.7741622177525,1384.8299025605788L841.3870811088763,1069.9149512802894A337.5,337.5 0,0,1 836.824952266943,1071.6357221284838Z" style="pointer-events: none; stroke-width: 1; fill: rgb(239, 85, 59); fill-opacity: 1; stroke: rgb(255, 255, 255); stroke-opacity: 1; opacity: 0.7;"/><g class="slicetext"><text data-notex="1" class="slicetext" text-anchor="middle" x="0" y="0" style="font-family: 'Open Sans', verdana, arial, sans-serif; font-size: 22px; fill: rgb(68, 68, 68); fill-opacity: 1; white-space: pre;" transform="translate(956.5098184612241,1380.4792011208951)scale(0.07850964705580757)"><tspan class="line" dy="0em" x="0" y="0">03</tspan><tspan class="line" dy="1.3em" x="0" y="0">0.05 ms</tspan><tspan class="line" dy="2.6em" x="0" y="0">1%</tspan></text></g></g><g class="slice"><path class="surface" d="M841.3870811088765,1069.9149512802894L962.774162217753,1384.8299025605788A675,675 0,0,0 1155.0923744850602,1271.061649093354L937.5461872425301,1013.030824546677A337.5,337.5 0,0,1 841.3870811088765,1069.9149512802894Z" style="pointer-events: none; stroke-width: 1; fill: rgb(0, 204, 150); fill-opacity: 1; stroke: rgb(255, 255, 255); stroke-opacity: 1; opacity: 0.7;"/><g class="slicetext"><text data-notex="1" class="slicetext" text-anchor="middle" x="0" y="0" style="font-family: 'Open Sans', verdana, arial, sans-serif; font-size: 22px; fill: rgb(68, 68, 68); fill-opacity: 1; white-space: pre;" transform="translate(1014.8677491576186,1233.6041722504242)"><tspan class="line" dy="0em" x="0" y="0">01</tspan><tspan class="line" dy="1.3em" x="0" y="0">1.20 ms</tspan><tspan class="line" dy="2.6em" x="0" y="0">53%</tspan></text></g></g><g class="slice"><path class="surface" d="M937.5461872425301,1013.030824546677L1155.0923744850602,1271.061649093354A675,675 0,0,0 1230.9257119603544,1196.1121363755535L975.4628559801772,975.5560681877768A337.5,337.5 0,0,1 937.5461872425301,1013.030824546677Z" style="pointer-events: none; stroke-width: 1; fill: rgb(0, 204, 150); fill-opacity: 1; stroke: rgb(255, 255, 255); stroke-opacity: 1; opacity: 0.7;"/><g class="slicetext"><text data-notex="1" class="slicetext" text-anchor="middle" x="0" y="0" style="font-family: 'Open Sans', verdana, arial, sans-serif; font-size: 22px; fill: rgb(68, 68, 68); fill-opacity: 1; white-space: pre;" transform="translate(1159.7595256132963,1184.0381047008207)scale(0.8013063553125701)"><tspan class="line" dy="0em" x="0" y="0">02</tspan><tspan class="line" dy="1.3em" x="0" y="0">0.57 ms</tspan><tspan class="line" dy="2.6em" x="0" y="0">25%</tspan></text></g></g><g class="slice"><path class="surface" d="M975.4628559801772,975.5560681877768L1230.9257119603544,1196.1121363755535A675,675 0,0,0 1284.6814814915124,1124.8105250808185L1002.3407407457562,939.9052625404092A337.5,337.5 0,0,1 975.4628559801772,975.5560681877768Z" style="pointer-events: none; stroke-width: 1; fill: rgb(0, 204, 150); fill-opacity: 1; stroke: rgb(255, 255, 255); stroke-opacity: 1; opacity: 0.7;"/><g class="slicetext"><text data-notex="1" class="slicetext" text-anchor="middle" x="0" y="0" style="font-family: 'Open Sans', verdana, arial, sans-serif; font-size: 22px; fill: rgb(68, 68, 68); fill-opacity: 1; white-space: pre;" transform="translate(1225.5449401872772,1122.6582772084014)scale(0.6791697431858245)"><tspan class="line" dy="0em" x="0" y="0">03</tspan><tspan class="line" dy="1.3em" x="0" y="0">0.48 ms</tspan><tspan class="line" dy="2.6em" x="0" y="0">21%</tspan></text></g></g><g class="slice"><path class="surface" d="M1002.3407407457561,939.9052625404095L1284.6814814915122,1124.810525080819A675,675 0,0,0 1313.6103832035963,1076.3280456992193L1016.8051916017981,915.6640228496096A337.5,337.5 0,0,1 1002.3407407457561,939.9052625404095Z" style="pointer-events: none; stroke-width: 1; fill: rgb(171, 99, 250); fill-opacity: 1; stroke: rgb(255, 255, 255); stroke-opacity: 1; opacity: 0.7;"/><g class="slicetext"><text data-notex="1" class="slicetext" text-anchor="middle" x="0" y="0" style="font-family: 'Open Sans', verdana, arial, sans-serif; font-size: 22px; fill: rgb(68, 68, 68); fill-opacity: 1; white-space: pre;" transform="translate(1276.3848823481567,1078.2645716444324)scale(0.4394351301786476)"><tspan class="line" dy="0em" x="0" y="0">01</tspan><tspan class="line" dy="1.3em" x="0" y="0">0.30 ms</tspan><tspan class="line" dy="2.6em" x="0" y="0">61%</tspan></text></g></g><g class="slice"><path class="surface" d="M1016.8051916017981,915.6640228496096L1313.6103832035963,1076.3280456992193A675,675 0,0,0 1321.2647218847728,1061.7665793674842L1020.6323609423864,908.3832896837421A337.5,337.5 0,0,1 1016.8051916017981,915.6640228496096Z" style="pointer-events: none; stroke-width: 1; fill: rgb(171, 99, 250); fill-opacity: 1; stroke: rgb(255, 255, 255); stroke-opacity: 1; opacity: 0.7;"/><g class="slicetext"><text data-notex="1" class="slicetext" text-anchor="middle" x="0" y="0" style="font-family: 'Open Sans', verdana, arial, sans-serif; font-size: 22px; fill: rgb(68, 68, 68); fill-opacity: 1; white-space: pre;" transform="translate(1310.28883412109,1062.673248687274)scale(0.13179259803981613)"><tspan class="line" dy="0em" x="0" y="0">03</tspan><tspan class="line" dy="1.3em" x="0" y="0">0.09 ms</tspan><tspan class="line" dy="2.6em" x="0" y="0">18%</tspan></text></g></g><g class="slice"><path class="surface" d="M1020.6323609423864,908.3832896837421L1321.2647218847728,1061.7665793674842A675,675 0,0,0 1327.7964281042277,1048.6128436968356L1023.8982140521139,901.8064218484178A337.5,337.5 0,0,1 1020.6323609423864,908.3832896837421Z" style="pointer-events: none; stroke-width: 1; fill: rgb(171, 99, 250); fill-opacity: 1; stroke: rgb(255, 255, 255); stroke-opacity: 1; opacity: 0.7;"/><g class="slicetext"><text data-notex="1" class="slicetext" text-anchor="middle" x="0" y="0" style="font-family: 'Open Sans', verdana, arial, sans-serif; font-size: 22px; fill: rgb(68, 68, 68); fill-opacity: 1; white-space: pre;" transform="translate(1318.0602594531415,1049.6380840167228)scale(0.11780859665077131)"><tspan class="line" dy="0em" x="0" y="0">04</tspan><tspan class="line" dy="1.3em" x="0" y="0">0.08 ms</tspan><tspan class="line" dy="2.6em" x="0" y="0">16%</tspan></text></g></g><g class="slice"><path class="surface" d="M1023.8982140521139,901.8064218484178L1327.7964281042277,1048.6128436968356A675,675 0,0,0 1330.2272713408295,1043.5267358702235L1025.1136356704146,899.2633679351118A337.5,337.5 0,0,1 1023.8982140521139,901.8064218484178Z" style="pointer-events: none; stroke-width: 1; fill: rgb(171, 99, 250); fill-opacity: 1; stroke: rgb(255, 255, 255); stroke-opacity: 1; opacity: 0.7;"/><g class="slicetext"><text data-notex="1" class="slicetext" text-anchor="middle" x="0" y="0" style="font-family: 'Open Sans', verdana, arial, sans-serif; font-size: 22px; fill: rgb(68, 68, 68); fill-opacity: 1; white-space: pre;" transform="translate(1326.4846801016222,1043.958285626327)scale(0.04552156752525464)"><tspan class="line" dy="0em" x="0" y="0">02</tspan><tspan class="line" dy="1.3em" x="0" y="0">0.03 ms</tspan><tspan class="line" dy="2.6em" x="0" y="0">6%</tspan></text></g></g><g class="slice"><path class="surface" d="M1025.1136356704149,899.2633679351114L1330.2272713408297,1043.5267358702229A675,675 0,0,0 1343.5578346823559,1013.4581722566568L1031.778917341178,884.2290861283284A337.5,337.5 0,0,1 1025.1136356704149,899.2633679351114Z" style="pointer-events: none; stroke-width: 1; fill: rgb(255, 161, 90); fill-opacity: 1; stroke: rgb(255, 255, 255); stroke-opacity: 1; opacity: 0.7;"/><g class="slicetext"><text data-notex="1" class="slicetext" text-anchor="middle" x="0" y="0" style="font-family: 'Open Sans', verdana, arial, sans-serif; font-size: 22px; fill: rgb(68, 68, 68); fill-opacity: 1; white-space: pre;" transform="translate(1322.399023748062,1016.8981583873787)scale(0.26036996496603587)"><tspan class="line" dy="0em" x="0" y="0">03</tspan><tspan class="line" dy="1.3em" x="0" y="0">0.18 ms</tspan><tspan class="line" dy="2.6em" x="0" y="0">46%</tspan></text></g></g><g class="slice"><path class="surface" d="M1031.778917341178,884.2290861283284L1343.5578346823559,1013.4581722566568A675,675 0,0,0 1354.9401658613656,984.076375420823L1037.4700829306828,869.5381877104114A337.5,337.5 0,0,1 1031.778917341178,884.2290861283284Z" style="pointer-events: none; stroke-width: 1; fill: rgb(255, 161, 90); fill-opacity: 1; stroke: rgb(255, 255, 255); stroke-opacity: 1; opacity: 0.7;"/><g class="slicetext"><text data-notex="1" class="slicetext" text-anchor="middle" x="0" y="0" style="font-family: 'Open Sans', verdana, arial, sans-serif; font-size: 22px; fill: rgb(68, 68, 68); fill-opacity: 1; white-space: pre;" transform="translate(1335.0646407723907,988.3157488846324)scale(0.24968258753489753)"><tspan class="line" dy="0em" x="0" y="0">04</tspan><tspan class="line" dy="1.3em" x="0" y="0">0.17 ms</tspan><tspan class="line" dy="2.6em" x="0" y="0">44%</tspan></text></g></g><g class="slice"><path class="surface" d="M1037.4700829306828,869.5381877104114L1354.9401658613656,984.076375420823A675,675 0,0,0 1356.9397358658298,978.4564227655292L1038.469867932915,866.7282113827646A337.5,337.5 0,0,1 1037.4700829306828,869.5381877104114Z" style="pointer-events: none; stroke-width: 1; fill: rgb(255, 161, 90); fill-opacity: 1; stroke: rgb(255, 255, 255); stroke-opacity: 1; opacity: 0.7;"/><g class="slicetext"><text data-notex="1" class="slicetext" text-anchor="middle" x="0" y="0" style="font-family: 'Open Sans', verdana, arial, sans-serif; font-size: 22px; fill: rgb(68, 68, 68); fill-opacity: 1; white-space: pre;" transform="translate(1353.1485440863748,979.3172095627373)scale(0.04815799985582379)"><tspan class="line" dy="0em" x="0" y="0">01</tspan><tspan class="line" dy="1.3em" x="0" y="0">0.03 ms</tspan><tspan class="line" dy="2.6em" x="0" y="0">8%</tspan></text></g></g><g class="slice"><path class="surface" d="M1038.469867932915,866.7282113827646L1356.9397358658298,978.4564227655292A675,675 0,0,0 1357.3804810445545,977.1961349425602L1038.6902405222772,866.0980674712802A337.5,337.5 0,0,1 1038.469867932915,866.7282113827646Z" style="pointer-events: none; stroke-width: 1; fill: rgb(255, 161, 90); fill-opacity: 1; stroke: rgb(255, 255, 255); stroke-opacity: 1; opacity: 0.7;"/><g class="slicetext"><text data-notex="1" class="slicetext" text-anchor="middle" x="0" y="0" style="font-family: 'Open Sans', verdana, arial, sans-serif; font-size: 22px; fill: rgb(68, 68, 68); fill-opacity: 1; white-space: pre;" transform="translate(1356.5308987350556,977.391520524483)scale(0.010815896411782265)"><tspan class="line" dy="0em" x="0" y="0">02</tspan><tspan class="line" dy="1.3em" x="0" y="0">0.01 ms</tspan><tspan class="line" dy="2.6em" x="0" y="0">2%</tspan></text></g></g><g class="slice"><path class="surface" d="M1038.6902405222772,866.0980674712798L1357.3804810445545,977.1961349425596A675,675 0,0,0 1375.3092017895797,916.8482315315923L1047.6546008947898,835.9241157657962A337.5,337.5 0,0,1 1038.6902405222772,866.0980674712798Z" style="pointer-events: none; stroke-width: 1; fill: rgb(25, 211, 243); fill-opacity: 1; stroke: rgb(255, 255, 255); stroke-opacity: 1; opacity: 0.7;"/><g class="slicetext"><text data-notex="1" class="slicetext" text-anchor="middle" x="0" y="0" style="font-family: 'Open Sans', verdana, arial, sans-serif; font-size: 22px; fill: rgb(68, 68, 68); fill-opacity: 1; white-space: pre;" transform="translate(1338.2192399801402,928.98367157088)scale(0.4877547744291862)"><tspan class="line" dy="0em" x="0" y="0">03</tspan><tspan class="line" dy="1.3em" x="0" y="0">0.34 ms</tspan><tspan class="line" dy="2.6em" x="0" y="0">88%</tspan></text></g></g><g class="slice"><path class="surface" d="M1047.6546008947898,835.9241157657962L1375.3092017895797,916.8482315315923A675,675 0,0,0 1376.576467755266,911.6280370496236L1048.288233877633,833.3140185248118A337.5,337.5 0,0,1 1047.6546008947898,835.9241157657962Z" style="pointer-events: none; stroke-width: 1; fill: rgb(25, 211, 243); fill-opacity: 1; stroke: rgb(255, 255, 255); stroke-opacity: 1; opacity: 0.7;"/><g class="slicetext"><text data-notex="1" class="slicetext" text-anchor="middle" x="0" y="0" style="font-family: 'Open Sans', verdana, arial, sans-serif; font-size: 22px; fill: rgb(68, 68, 68); fill-opacity: 1; white-space: pre;" transform="translate(1373.3482752321493,912.7469659603723)scale(0.04338738142171468)"><tspan class="line" dy="0em" x="0" y="0">02</tspan><tspan class="line" dy="1.3em" x="0" y="0">0.03 ms</tspan><tspan class="line" dy="2.6em" x="0" y="0">7%</tspan></text></g></g><g class="slice"><path class="surface" d="M1048.288233877633,833.3140185248118L1376.576467755266,911.6280370496236A675,675 0,0,0 1377.3296447724788,908.4364301699145L1048.6648223862394,831.7182150849573A337.5,337.5 0,0,1 1048.288233877633,833.3140185248118Z" style="pointer-events: none; stroke-width: 1; fill: rgb(25, 211, 243); fill-opacity: 1; stroke: rgb(255, 255, 255); stroke-opacity: 1; opacity: 0.7;"/><g class="slicetext"><text data-notex="1" class="slicetext" text-anchor="middle" x="0" y="0" style="font-family: 'Open Sans', verdana, arial, sans-serif; font-size: 22px; fill: rgb(68, 68, 68); fill-opacity: 1; white-space: pre;" transform="translate(1375.3630579612536,909.1304091902864)scale(0.02652717369203459)"><tspan class="line" dy="0em" x="0" y="0">01</tspan><tspan class="line" dy="1.3em" x="0" y="0">0.02 ms</tspan><tspan class="line" dy="2.6em" x="0" y="0">5%</tspan></text></g></g><g class="slice"><path class="surface" d="M1048.6648223862394,831.7182150849573L1377.3296447724788,908.4364301699145A675,675 0,0,0 1386.2163864013728,863.539055138217L1053.1081932006864,809.2695275691085A337.5,337.5 0,0,1 1048.6648223862394,831.7182150849573Z" style="pointer-events: none; stroke-width: 1; fill: rgb(255, 102, 146); fill-opacity: 1; stroke: rgb(255, 255, 255); stroke-opacity: 1; opacity: 0.7;"/><g class="slicetext"><text data-notex="1" class="slicetext" text-anchor="middle" x="0" y="0" style="font-family: 'Open Sans', verdana, arial, sans-serif; font-size: 22px; fill: rgb(68, 68, 68); fill-opacity: 1; white-space: pre;" transform="translate(1360.441082554755,874.6393781770632)scale(0.35896609933852874)"><tspan class="line" dy="0em" x="0" y="0">03</tspan><tspan class="line" dy="1.3em" x="0" y="0">0.24 ms</tspan><tspan class="line" dy="2.6em" x="0" y="0">90%</tspan></text></g></g><g class="slice"><path class="surface" d="M1053.1081932006864,809.2695275691085L1386.2163864013728,863.539055138217A675,675 0,0,0 1386.9572309972473,858.8896145939743L1053.4786154986236,806.9448072969872A337.5,337.5 0,0,1 1053.1081932006864,809.2695275691085Z" style="pointer-events: none; stroke-width: 1; fill: rgb(255, 102, 146); fill-opacity: 1; stroke: rgb(255, 255, 255); stroke-opacity: 1; opacity: 0.7;"/><g class="slicetext"><text data-notex="1" class="slicetext" text-anchor="middle" x="0" y="0" style="font-family: 'Open Sans', verdana, arial, sans-serif; font-size: 22px; fill: rgb(68, 68, 68); fill-opacity: 1; white-space: pre;" transform="translate(1384.2742213759475,860.0905885084671)scale(0.03804523351223954)"><tspan class="line" dy="0em" x="0" y="0">02</tspan><tspan class="line" dy="1.3em" x="0" y="0">0.03 ms</tspan><tspan class="line" dy="2.6em" x="0" y="0">9%</tspan></text></g></g><g class="slice"><path class="surface" d="M1053.4786154986236,806.9448072969872L1386.9572309972473,858.8896145939743A675,675 0,0,0 1387.012395745019,858.5348440018636L1053.5061978725093,806.7674220009318A337.5,337.5 0,0,1 1053.4786154986236,806.9448072969872Z" style="pointer-events: none; stroke-width: 1; fill: rgb(255, 102, 146); fill-opacity: 1; stroke: rgb(255, 255, 255); stroke-opacity: 1; opacity: 0.7;"/><g class="slicetext"><text data-notex="1" class="slicetext" text-anchor="middle" x="0" y="0" style="font-family: 'Open Sans', verdana, arial, sans-serif; font-size: 22px; fill: rgb(68, 68, 68); fill-opacity: 1; white-space: pre;" transform="translate(1386.8074988262351,858.6268773675902)scale(0.0029106302253620415)"><tspan class="line" dy="0em" x="0" y="0">01</tspan><tspan class="line" dy="1.3em" x="0" y="0">0.00 ms</tspan><tspan class="line" dy="2.6em" x="0" y="0">1%</tspan></text></g></g><g class="slice"><path class="surface" d="M1053.5061978725096,806.7674220009316L1387.0123957450191,858.534844001863A675,675 0,0,0 1389.1635195660447,843.5730437660557L1054.5817597830223,799.2865218830278A337.5,337.5 0,0,1 1053.5061978725096,806.7674220009316Z" style="pointer-events: none; stroke-width: 1; fill: rgb(182, 232, 128); fill-opacity: 1; stroke: rgb(255, 255, 255); stroke-opacity: 1; opacity: 0.7;"/><g class="slicetext"><text data-notex="1" class="slicetext" text-anchor="middle" x="0" y="0" style="font-family: 'Open Sans', verdana, arial, sans-serif; font-size: 22px; fill: rgb(68, 68, 68); fill-opacity: 1; white-space: pre;" transform="translate(1380.7317743148863,847.5899958759481)scale(0.1212155051805824)"><tspan class="line" dy="0em" x="0" y="0">01</tspan><tspan class="line" dy="1.3em" x="0" y="0">0.08 ms</tspan><tspan class="line" dy="2.6em" x="0" y="0">38%</tspan></text></g></g><g class="slice"><path class="surface" d="M1054.5817597830223,799.2865218830278L1389.1635195660447,843.5730437660557A675,675 0,0,0 1390.4866587420734,832.9271483431193L1055.2433293710367,793.9635741715597A337.5,337.5 0,0,1 1054.5817597830223,799.2865218830278Z" style="pointer-events: none; stroke-width: 1; fill: rgb(182, 232, 128); fill-opacity: 1; stroke: rgb(255, 255, 255); stroke-opacity: 1; opacity: 0.7;"/><g class="slicetext"><text data-notex="1" class="slicetext" text-anchor="middle" x="0" y="0" style="font-family: 'Open Sans', verdana, arial, sans-serif; font-size: 22px; fill: rgb(68, 68, 68); fill-opacity: 1; white-space: pre;" transform="translate(1384.5652566768965,835.8830639972542)scale(0.08630589302935084)"><tspan class="line" dy="0em" x="0" y="0">02</tspan><tspan class="line" dy="1.3em" x="0" y="0">0.06 ms</tspan><tspan class="line" dy="2.6em" x="0" y="0">27%</tspan></text></g></g><g class="slice"><path class="surface" d="M1055.2433293710367,793.9635741715597L1390.4866587420734,832.9271483431193A675,675 0,0,0 1391.5841899667507,822.8209096570018L1055.7920949833754,788.910454828501A337.5,337.5 0,0,1 1055.2433293710367,793.9635741715597Z" style="pointer-events: none; stroke-width: 1; fill: rgb(182, 232, 128); fill-opacity: 1; stroke: rgb(255, 255, 255); stroke-opacity: 1; opacity: 0.7;"/><g class="slicetext"><text data-notex="1" class="slicetext" text-anchor="middle" x="0" y="0" style="font-family: 'Open Sans', verdana, arial, sans-serif; font-size: 22px; fill: rgb(68, 68, 68); fill-opacity: 1; white-space: pre;" transform="translate(1386.0390967761755,825.7072316447823)scale(0.0818172017046871)"><tspan class="line" dy="0em" x="0" y="0">04</tspan><tspan class="line" dy="1.3em" x="0" y="0">0.05 ms</tspan><tspan class="line" dy="2.6em" x="0" y="0">25%</tspan></text></g></g><g class="slice"><path class="surface" d="M1055.7920949833754,788.910454828501L1391.5841899667507,822.8209096570018A675,675 0,0,0 1391.9733372581186,818.8500901658487L1055.9866686290593,786.9250450829243A337.5,337.5 0,0,1 1055.7920949833754,788.910454828501Z" style="pointer-events: none; stroke-width: 1; fill: rgb(182, 232, 128); fill-opacity: 1; stroke: rgb(255, 255, 255); stroke-opacity: 1; opacity: 0.7;"/><g class="slicetext"><text data-notex="1" class="slicetext" text-anchor="middle" x="0" y="0" style="font-family: 'Open Sans', verdana, arial, sans-serif; font-size: 22px; fill: rgb(68, 68, 68); fill-opacity: 1; white-space: pre;" transform="translate(1389.8021382182915,820.0014098842503)scale(0.03225828009133627)"><tspan class="line" dy="0em" x="0" y="0">03</tspan><tspan class="line" dy="1.3em" x="0" y="0">0.02 ms</tspan><tspan class="line" dy="2.6em" x="0" y="0">10%</tspan></text></g></g><g class="slice"><path class="surface" d="M1055.9866686290593,786.9250450829246L1391.9733372581184,818.8500901658492A675,675 0,0,0 1393.7486403213052,796.0824739419679L1056.8743201606526,775.541236970984A337.5,337.5 0,0,1 1055.9866686290593,786.9250450829246Z" style="pointer-events: none; stroke-width: 1; fill: rgb(255, 151, 255); fill-opacity: 1; stroke: rgb(255, 255, 255); stroke-opacity: 1; opacity: 0.7;"/><g class="slicetext"><text data-notex="1" class="slicetext" text-anchor="middle" x="0" y="0" style="font-family: 'Open Sans', verdana, arial, sans-serif; font-size: 22px; fill: rgb(68, 68, 68); fill-opacity: 1; white-space: pre;" transform="translate(1381.762838569549,802.9858862906913)scale(0.18210246085175769)"><tspan class="line" dy="0em" x="0" y="0">03</tspan><tspan class="line" dy="1.3em" x="0" y="0">0.12 ms</tspan><tspan class="line" dy="2.6em" x="0" y="0">58%</tspan></text></g></g><g class="slice"><path class="surface" d="M1056.8743201606526,775.541236970984L1393.7486403213052,796.0824739419679A675,675 0,0,0 1394.1457092767068,788.9494133057709L1057.0728546383534,771.9747066528854A337.5,337.5 0,0,1 1056.8743201606526,775.541236970984Z" style="pointer-events: none; stroke-width: 1; fill: rgb(255, 151, 255); fill-opacity: 1; stroke: rgb(255, 255, 255); stroke-opacity: 1; opacity: 0.7;"/><g class="slicetext"><text data-notex="1" class="slicetext" text-anchor="middle" x="0" y="0" style="font-family: 'Open Sans', verdana, arial, sans-serif; font-size: 22px; fill: rgb(68, 68, 68); fill-opacity: 1; white-space: pre;" transform="translate(1390.4088559298957,791.1750024247643)scale(0.05762655407763316)"><tspan class="line" dy="0em" x="0" y="0">01</tspan><tspan class="line" dy="1.3em" x="0" y="0">0.04 ms</tspan><tspan class="line" dy="2.6em" x="0" y="0">18%</tspan></text></g></g><g class="slice"><path class="surface" d="M1057.0728546383534,771.9747066528854L1394.1457092767068,788.9494133057709A675,675 0,0,0 1394.45540611947,782.1091341842697L1057.227703059735,768.5545670921348A337.5,337.5 0,0,1 1057.0728546383534,771.9747066528854Z" style="pointer-events: none; stroke-width: 1; fill: rgb(255, 151, 255); fill-opacity: 1; stroke: rgb(255, 255, 255); stroke-opacity: 1; opacity: 0.7;"/><g class="slicetext"><text data-notex="1" class="slicetext" text-anchor="middle" x="0" y="0" style="font-family: 'Open Sans', verdana, arial, sans-serif; font-size: 22px; fill: rgb(68, 68, 68); fill-opacity: 1; white-space: pre;" transform="translate(1390.9063514011882,784.2789114913896)scale(0.055244415794631394)"><tspan class="line" dy="0em" x="0" y="0">04</tspan><tspan class="line" dy="1.3em" x="0" y="0">0.04 ms</tspan><tspan class="line" dy="2.6em" x="0" y="0">17%</tspan></text></g></g><g class="slice"><path class="surface" d="M1057.227703059735,768.5545670921348L1394.45540611947,782.1091341842697A675,675 0,0,0 1394.5442752750464,779.7996107562712L1057.2721376375232,767.3998053781356A337.5,337.5 0,0,1 1057.227703059735,768.5545670921348Z" style="pointer-events: none; stroke-width: 1; fill: rgb(255, 151, 255); fill-opacity: 1; stroke: rgb(255, 255, 255); stroke-opacity: 1; opacity: 0.7;"/><g class="slicetext"><text data-notex="1" class="slicetext" text-anchor="middle" x="0" y="0" style="font-family: 'Open Sans', verdana, arial, sans-serif; font-size: 22px; fill: rgb(68, 68, 68); fill-opacity: 1; white-space: pre;" transform="translate(1393.3480410750567,780.5386342018952)scale(0.018709744898126067)"><tspan class="line" dy="0em" x="0" y="0">02</tspan><tspan class="line" dy="1.3em" x="0" y="0">0.01 ms</tspan><tspan class="line" dy="2.6em" x="0" y="0">6%</tspan></text></g></g><g class="slice"><path class="surface" d="M1057.2721376375232,767.399805378136L1394.5442752750464,779.7996107562718A675,675 0,0,0 1394.9038798700658,766.3909146398188L1057.451939935033,760.6954573199093A337.5,337.5 0,0,1 1057.2721376375232,767.399805378136Z" style="pointer-events: none; stroke-width: 1; fill: rgb(254, 203, 82); fill-opacity: 1; stroke: rgb(255, 255, 255); stroke-opacity: 1; opacity: 0.7;"/><g class="slicetext"><text data-notex="1" class="slicetext" text-anchor="middle" x="0" y="0" style="font-family: 'Open Sans', verdana, arial, sans-serif; font-size: 22px; fill: rgb(68, 68, 68); fill-opacity: 1; white-space: pre;" transform="translate(1388.11899596308,770.780108139777)scale(0.1077000595678226)"><tspan class="line" dy="0em" x="0" y="0">03</tspan><tspan class="line" dy="1.3em" x="0" y="0">0.07 ms</tspan><tspan class="line" dy="2.6em" x="0" y="0">54%</tspan></text></g></g><g class="slice"><path class="surface" d="M1057.451939935033,760.6954573199093L1394.9038798700658,766.3909146398188A675,675 0,0,0 1394.9908157249392,758.5211769312521L1057.4954078624696,756.760588465626A337.5,337.5 0,0,1 1057.451939935033,760.6954573199093Z" style="pointer-events: none; stroke-width: 1; fill: rgb(254, 203, 82); fill-opacity: 1; stroke: rgb(255, 255, 255); stroke-opacity: 1; opacity: 0.7;"/><g class="slicetext"><text data-notex="1" class="slicetext" text-anchor="middle" x="0" y="0" style="font-family: 'Open Sans', verdana, arial, sans-serif; font-size: 22px; fill: rgb(68, 68, 68); fill-opacity: 1; white-space: pre;" transform="translate(1391.0467552781822,761.1533814457239)scale(0.06344966841237006)"><tspan class="line" dy="0em" x="0" y="0">01</tspan><tspan class="line" dy="1.3em" x="0" y="0">0.04 ms</tspan><tspan class="line" dy="2.6em" x="0" y="0">32%</tspan></text></g></g><g class="slice"><path class="surface" d="M1057.4954078624696,756.760588465626L1394.9908157249392,758.5211769312521A675,675 0,0,0 1395,754.9999999999984L1057.5,754.9999999999992A337.5,337.5 0,0,1 1057.4954078624696,756.760588465626Z" style="pointer-events: none; stroke-width: 1; fill: rgb(254, 203, 82); fill-opacity: 1; stroke: rgb(255, 255, 255); stroke-opacity: 1; opacity: 0.7;"/><g class="slicetext"><text data-notex="1" class="slicetext" text-anchor="middle" x="0" y="0" style="font-family: 'Open Sans', verdana, arial, sans-serif; font-size: 22px; fill: rgb(68, 68, 68); fill-opacity: 1; white-space: pre;" transform="translate(1393.2416956371953,756.1906611005205)scale(0.02847902591299748)"><tspan class="line" dy="0em" x="0" y="0">02</tspan><tspan class="line" dy="1.3em" x="0" y="0">0.02 ms</tspan><tspan class="line" dy="2.6em" x="0" y="0">14%</tspan></text></g></g></g></g><g class="glimages"/><defs id="topdefs-f157ec"><g class="clips"/></defs><g class="layer-above"><g class="imagelayer"/><g class="shapelayer"/></g><g class="infolayer"><g class="g-gtitle"><text class="gtitle" x="720" y="40" text-anchor="middle" dy="0em" style="opacity: 1; font-family: 'Open Sans', verdana, arial, sans-serif; font-size: 31px; fill: rgb(42, 63, 95); fill-opacity: 1; white-space: pre;">Total time: 23 ms</text></g></g></svg>