<svg class="main-svg" xmlns="http://www.w3.org/2000/svg" xmlns:xlink="http://www.w3.org/1999/xlink" width="1440" height="1440" style="" viewBox="0 0 1440 1440"><rect x="0" y="0" width="1440" height="1440" style="fill: rgb(255, 255, 255); fill-opacity: 1;"/><defs id="defs-7ef695"><g class="clips"/><g class="gradients"/><g class="patterns"/></defs><g class="bglayer"/><g class="layer-below"><g class="imagelayer"/><g class="shapelayer"/></g><g class="cartesianlayer"/><g class="polarlayer"/><g class="smithlayer"/><g class="ternarylayer"/><g class="geolayer"/><g class="funnelarealayer"/><g class="pielayer"/><g class="iciclelayer"/><g class="treemaplayer"/><g class="sunburstlayer"><g class="trace sunburst" stroke-linejoin="round" style="opacity: 1;"><g class="slice cursor-pointer"><path class="surface" d="M720,755L1057.5,755A337.5,337.5 0,1,0 923.2578106904527,1024.4299767904902L720,755A0,0 0,1,1 720,755Z" style="pointer-events: none; stroke-width: 1; fill: rgb(99, 110, 250); fill-opacity: 1; stroke: rgb(255, 255, 255); stroke-opacity: 1;"/><g class="slicetext"><text data-notex="1" class="slicetext" text-anchor="middle" x="0" y="0" style="font-family: 'Open Sans', verdana, arial, sans-serif; font-size: 22px; fill: rgb(255, 255, 255); fill-opacity: 1; white-space: pre;" transform="translate(720,593.7625787438834)"><tspan class="line" dy="0em" x="0" y="0">2015</tspan><tspan class="line" dy="1.3em" x="0" y="0">144.67 ms</tspan><tspan class="line" dy="2.6em" x="0" y="0">85%</tspan></text></g></g><g class="slice cursor-pointer"><path class="surface" d="M720,755L923.2578106904527,1024.4299767904902A337.5,337.5 0,0,0 1024.7047105537686,900.1250817961668L720,755A0,0 0,0,1 720,755Z" style="pointer-events: none; stroke-width: 1; fill: rgb(239, 85, 59); fill-opacity: 1; stroke: rgb(255, 255, 255); stroke-opacity: 1;"/><g class="slicetext"><text data-notex="1" class="slicetext" text-anchor="middle" x="0" y="0" style="font-family: 'Open Sans', verdana, arial, sans-serif; font-size: 22px; fill: rgb(68, 68, 68); fill-opacity: 1; white-space: pre;" transform="translate(931.2593179076847,908.1981313949593)scale(0.967855540528247)"><tspan class="line" dy="0em" x="0" y="0">2019</tspan><tspan class="line" dy="1.3em" x="0" y="0">12.96 ms</tspan><tspan class="line" dy="2.6em" x="0" y="0">8%</tspan></text></g></g><g class="slice cursor-pointer"><path class="surface" d="M720,755L1024.7047105537686,900.1250817961668A337.5,337.5 0,0,0 1051.819192919088,816.6625754451197L720,755A0,0 0,0,1 720,755Z" style="pointer-events: none; stroke-width: 1; fill: rgb(0, 204, 150); fill-opacity: 1; stroke: rgb(255, 255, 255); stroke-opacity: 1;"/><g class="slicetext"><text data-notex="1" class="slicetext" text-anchor="middle" x="0" y="0" style="font-family: 'Open Sans', verdana, arial, sans-serif; font-size: 22px; fill: rgb(68, 68, 68); fill-opacity: 1; white-space: pre;" transform="translate(1004.0562389364472,834.780016074508)scale(0.6297436426831259)"><tspan class="line" dy="0em" x="0" y="0">2024</tspan><tspan class="line" dy="1.3em" x="0" y="0">7.04 ms</tspan><tspan class="line" dy="2.6em" x="0" y="0">4%</tspan></text></g></g><g class="slice cursor-pointer"><path class="surface" d="M720,755L1051.819192919088,816.6625754451197A337.5,337.5 0,0,0 1055.906116090647,787.7617333622145L720,755A0,0 0,0,1 720,755Z" style="pointer-events: none; stroke-width: 1; fill: rgb(171, 99, 250); fill-opacity: 1; stroke: rgb(255, 255, 255); stroke-opacity: 1;"/><g class="slicetext"><text data-notex="1" class="slicetext" text-anchor="middle" x="0" y="0" style="font-family: 'Open Sans', verdana, arial, sans-serif; font-size: 22px; fill: rgb(68, 68, 68); fill-opacity: 1; white-space: pre;" transform="translate(1040.3237778387274,795.7937169593174)scale(0.22687781308533717)"><tspan class="line" dy="0em" x="0" y="0">2018</tspan><tspan class="line" dy="1.3em" x="0" y="0">2.34 ms</tspan><tspan class="line" dy="2.6em" x="0" y="0">1%</tspan></text></g></g><g class="slice cursor-pointer"><path class="surface" d="M720,755L1055.906116090647,787.7617333622145A337.5,337.5 0,0,0 1056.6202678925904,779.3525202786213L720,755A0,0 0,0,1 720,755Z" style="pointer-events: none; stroke-width: 1; fill: rgb(255, 161, 90); fill-opacity: 1; stroke: rgb(255, 255, 255); stroke-opacity: 1;"/><g class="slicetext"><text data-notex="1" class="slicetext" text-anchor="middle" x="0" y="0" style="font-family: 'Open Sans', verdana, arial, sans-serif; font-size: 22px; fill: rgb(68, 68, 68); fill-opacity: 1; white-space: pre;" transform="translate(1052.1367922181937,781.8649124986321)scale(0.06759065564031283)"><tspan class="line" dy="0em" x="0" y="0">2016</tspan><tspan class="line" dy="1.3em" x="0" y="0">0.68 ms</tspan><tspan class="line" dy="2.6em" x="0" y="0">0.398%</tspan></text></g></g><g class="slice cursor-pointer"><path class="surface" d="M720,755L1056.6202678925904,779.3525202786213A337.5,337.5 0,0,0 1057.0780719967374,771.8707847761217L720,755A0,0 0,0,1 720,755Z" style="pointer-events: none; stroke-width: 1; fill: rgb(25, 211, 243); fill-opacity: 1; stroke: rgb(255, 255, 255); stroke-opacity: 1;"/><g class="slicetext"><text data-notex="1" class="slicetext" text-anchor="middle" x="0" y="0" style="font-family: 'Open Sans', verdana, arial, sans-serif; font-size: 22px; fill: rgb(68, 68, 68); fill-opacity: 1; white-space: pre;" transform="translate(1053.1701588800925,774.1931534304547)scale(0.06011526942980416)"><tspan class="line" dy="0em" x="0" y="0">2017</tspan><tspan class="line" dy="1.3em" x="0" y="0">0.60 ms</tspan><tspan class="line" dy="2.6em" x="0" y="0">0.353%</tspan></text></g></g><g class="slice cursor-pointer"><path class="surface" d="M720,755L1057.0780719967374,771.8707847761217A337.5,337.5 0,0,0 1057.3320707544124,765.6453764865365L720,755A0,0 0,0,1 720,755Z" style="pointer-events: none; stroke-width: 1; fill: rgb(255, 102, 146); fill-opacity: 1; stroke: rgb(255, 255, 255); stroke-opacity: 1;"/><g class="slicetext"><text data-notex="1" class="slicetext" text-anchor="middle" x="0" y="0" style="font-family: 'Open Sans', verdana, arial, sans-serif; font-size: 22px; fill: rgb(68, 68, 68); fill-opacity: 1; white-space: pre;" transform="translate(1054.1352024785328,767.6390256294372)scale(0.05006171759066315)"><tspan class="line" dy="0em" x="0" y="0">2023</tspan><tspan class="line" dy="1.3em" x="0" y="0">0.50 ms</tspan><tspan class="line" dy="2.6em" x="0" y="0">0.294%</tspan></text></g></g><g class="slice cursor-pointer"><path class="surface" d="M720,755L1057.3320707544124,765.6453764865365A337.5,337.5 0,0,0 1057.4531105641122,760.6256706804617L720,755A0,0 0,0,1 720,755Z" style="pointer-events: none; stroke-width: 1; fill: rgb(182, 232, 128); fill-opacity: 1; stroke: rgb(255, 255, 255); stroke-opacity: 1;"/><g class="slicetext"><text data-notex="1" class="slicetext" text-anchor="middle" x="0" y="0" style="font-family: 'Open Sans', verdana, arial, sans-serif; font-size: 22px; fill: rgb(68, 68, 68); fill-opacity: 1; white-space: pre;" transform="translate(1054.910605328369,762.27335564597)scale(0.04041596229352431)"><tspan class="line" dy="0em" x="0" y="0">2021</tspan><tspan class="line" dy="1.3em" x="0" y="0">0.40 ms</tspan><tspan class="line" dy="2.6em" x="0" y="0">0.237%</tspan></text></g></g><g class="slice cursor-pointer"><path class="surface" d="M720,755L1057.4531105641122,760.6256706804617A337.5,337.5 0,0,0 1057.48872664285,757.7585120967107L720,755A0,0 0,0,1 720,755Z" style="pointer-events: none; stroke-width: 1; fill: rgb(255, 151, 255); fill-opacity: 1; stroke: rgb(255, 255, 255); stroke-opacity: 1;"/><g class="slicetext"><text data-notex="1" class="slicetext" text-anchor="middle" x="0" y="0" style="font-family: 'Open Sans', verdana, arial, sans-serif; font-size: 22px; fill: rgb(68, 68, 68); fill-opacity: 1; white-space: pre;" transform="translate(1056.0464482683315,758.714768955594)scale(0.023153217578202618)"><tspan class="line" dy="0em" x="0" y="0">2022</tspan><tspan class="line" dy="1.3em" x="0" y="0">0.23 ms</tspan><tspan class="line" dy="2.6em" x="0" y="0">0.135%</tspan></text></g></g><g class="slice cursor-pointer"><path class="surface" d="M720,755L1057.48872664285,757.7585120967107A337.5,337.5 0,0,0 1057.5,754.9999999999998L720,755A0,0 0,0,1 720,755Z" style="pointer-events: none; stroke-width: 1; fill: rgb(254, 203, 82); fill-opacity: 1; stroke: rgb(255, 255, 255); stroke-opacity: 1;"/><g class="slicetext"><text data-notex="1" class="slicetext" text-anchor="middle" x="0" y="0" style="font-family: 'Open Sans', verdana, arial, sans-serif; font-size: 22px; fill: rgb(68, 68, 68); fill-opacity: 1; white-space: pre;" transform="translate(1056.1235392905228,755.9314025599372)scale(0.022277907314059903)"><tspan class="line" dy="0em" x="0" y="0">2020</tspan><tspan class="line" dy="1.3em" x="0" y="0">0.22 ms</tspan><tspan class="line" dy="2.6em" x="0" y="0">0.13%</tspan></text></g></g><g class="slice"><path class="surface" d="M1057.5,755L1395,755A675,675 0,1,0 1117.6487970537214,1300.436003763712L918.8243985268607,1027.718001881856A337.5,337.5 0,1,1 1057.5,755Z" style="pointer-events: none; stroke-width: 1; fill: rgb(99, 110, 250); fill-opacity: 1; stroke: rgb(255, 255, 255); stroke-opacity: 1; opacity: 0.7;"/><g class="slicetext"><text data-notex="1" class="slicetext" text-anchor="middle" x="0" y="0" style="font-family: 'Open Sans', verdana, arial, sans-serif; font-size: 22px; fill: rgb(255, 255, 255); fill-opacity: 1; white-space: pre;" transform="translate(720,245.69532006184727)"><tspan class="line" dy="0em" x="0" y="0">04</tspan><tspan class="line" dy="1.3em" x="0" y="0">144.23 ms</tspan><tspan class="line" dy="2.6em" x="0" y="0">100%</tspan></text></g></g><g class="slice"><path class="surface" d="M918.8243985268607,1027.718001881856L1117.6487970537214,1300.436003763712A675,675 0,0,0 1125.5910701168034,1294.556191551451L922.7955350584017,1024.7780957757254A337.5,337.5 0,0,1 918.8243985268607,1027.718001881856Z" style="pointer-events: none; stroke-width: 1; fill: rgb(99, 110, 250); fill-opacity: 1; stroke: rgb(255, 255, 255); stroke-opacity: 1; opacity: 0.7;"/><g class="slicetext"><text data-notex="1" class="slicetext" text-anchor="middle" x="0" y="0" style="font-family: 'Open Sans', verdana, arial, sans-serif; font-size: 22px; fill: rgb(255, 255, 255); fill-opacity: 1; white-space: pre;" transform="translate(1118.7121510773773,1291.9891615667107)scale(0.0795499672799147)"><tspan class="line" dy="0em" x="0" y="0">03</tspan><tspan class="line" dy="1.3em" x="0" y="0">0.40 ms</tspan><tspan class="line" dy="2.6em" x="0" y="0">0.273%</tspan></text></g></g><g class="slice"><path class="surface" d="M922.7955350584017,1024.7780957757254L1125.5910701168034,1294.556191551451A675,675 0,0,0 1126.1637527958069,1294.1252228516364L923.0818763979034,1024.5626114258182A337.5,337.5 0,0,1 922.7955350584017,1024.7780957757254Z" style="pointer-events: none; stroke-width: 1; fill: rgb(99, 110, 250); fill-opacity: 1; stroke: rgb(255, 255, 255); stroke-opacity: 1; opacity: 0.7;"/><g class="slicetext"><text data-notex="1" class="slicetext" text-anchor="middle" x="0" y="0" style="font-family: 'Open Sans', verdana, arial, sans-serif; font-size: 22px; fill: rgb(255, 255, 255); fill-opacity: 1; white-space: pre;" transform="translate(1125.6620986498456,1293.9465820192797)scale(0.005440971926582723)"><tspan class="line" dy="0em" x="0" y="0">02</tspan><tspan class="line" dy="1.3em" x="0" y="0">0.03 ms</tspan><tspan class="line" dy="2.6em" x="0" y="0">0.0198%</tspan></text></g></g><g class="slice"><path class="surface" d="M923.0818763979034,1024.5626114258182L1126.1637527958069,1294.1252228516364A675,675 0,0,0 1126.5156213809055,1293.8599535809803L923.2578106904527,1024.4299767904902A337.5,337.5 0,0,1 923.0818763979034,1024.5626114258182Z" style="pointer-events: none; stroke-width: 1; fill: rgb(99, 110, 250); fill-opacity: 1; stroke: rgb(255, 255, 255); stroke-opacity: 1; opacity: 0.7;"/><g class="slicetext"><text data-notex="1" class="slicetext" text-anchor="middle" x="0" y="0" style="font-family: 'Open Sans', verdana, arial, sans-serif; font-size: 22px; fill: rgb(255, 255, 255); fill-opacity: 1; white-space: pre;" transform="translate(1126.2071173794407,1293.7503188262535)scale(0.003345893789187107)"><tspan class="line" dy="0em" x="0" y="0">01</tspan><tspan class="line" dy="1.3em" x="0" y="0">0.02 ms</tspan><tspan class="line" dy="2.6em" x="0" y="0">0.0122%</tspan></text></g></g><g class="slice"><path class="surface" d="M923.2578106904527,1024.4299767904902L1126.5156213809055,1293.8599535809803A675,675 0,0,0 1293.4780447051498,1111.0167583712296L1006.7390223525749,933.0083791856148A337.5,337.5 0,0,1 923.2578106904527,1024.4299767904902Z" style="pointer-events: none; stroke-width: 1; fill: rgb(239, 85, 59); fill-opacity: 1; stroke: rgb(255, 255, 255); stroke-opacity: 1; opacity: 0.7;"/><g class="slicetext"><text data-notex="1" class="slicetext" text-anchor="middle" x="0" y="0" style="font-family: 'Open Sans', verdana, arial, sans-serif; font-size: 22px; fill: rgb(68, 68, 68); fill-opacity: 1; white-space: pre;" transform="translate(1141.1997846222441,1119.7650849147747)"><tspan class="line" dy="0em" x="0" y="0">03</tspan><tspan class="line" dy="1.3em" x="0" y="0">9.96 ms</tspan><tspan class="line" dy="2.6em" x="0" y="0">77%</tspan></text></g></g><g class="slice"><path class="surface" d="M1006.7390223525749,933.0083791856148L1293.4780447051498,1111.0167583712296A675,675 0,0,0 1316.3442696133138,1071.225413430615L1018.1721348066569,913.1127067153075A337.5,337.5 0,0,1 1006.7390223525749,933.0083791856148Z" style="pointer-events: none; stroke-width: 1; fill: rgb(239, 85, 59); fill-opacity: 1; stroke: rgb(255, 255, 255); stroke-opacity: 1; opacity: 0.7;"/><g class="slicetext"><text data-notex="1" class="slicetext" text-anchor="middle" x="0" y="0" style="font-family: 'Open Sans', verdana, arial, sans-serif; font-size: 22px; fill: rgb(68, 68, 68); fill-opacity: 1; white-space: pre;" transform="translate(1286.0078815895558,1073.1133821694416)scale(0.3599150123365585)"><tspan class="line" dy="0em" x="0" y="0">02</tspan><tspan class="line" dy="1.3em" x="0" y="0">1.84 ms</tspan><tspan class="line" dy="2.6em" x="0" y="0">14%</tspan></text></g></g><g class="slice"><path class="surface" d="M1018.1721348066569,913.1127067153075L1316.3442696133138,1071.225413430615A675,675 0,0,0 1329.380745733954,1045.310362764973L1024.690372866977,900.1551813824865A337.5,337.5 0,0,1 1018.1721348066569,913.1127067153075Z" style="pointer-events: none; stroke-width: 1; fill: rgb(239, 85, 59); fill-opacity: 1; stroke: rgb(255, 255, 255); stroke-opacity: 1; opacity: 0.7;"/><g class="slicetext"><text data-notex="1" class="slicetext" text-anchor="middle" x="0" y="0" style="font-family: 'Open Sans', verdana, arial, sans-serif; font-size: 22px; fill: rgb(68, 68, 68); fill-opacity: 1; white-space: pre;" transform="translate(1310.316795313732,1047.3852383980075)scale(0.23028780346430455)"><tspan class="line" dy="0em" x="0" y="0">04</tspan><tspan class="line" dy="1.3em" x="0" y="0">1.16 ms</tspan><tspan class="line" dy="2.6em" x="0" y="0">9%</tspan></text></g></g><g class="slice"><path class="surface" d="M1024.690372866977,900.1551813824865L1329.380745733954,1045.310362764973A675,675 0,0,0 1329.4094211075376,1045.2501635923331L1024.7047105537688,900.1250817961666A337.5,337.5 0,0,1 1024.690372866977,900.1551813824865Z" style="pointer-events: none; stroke-width: 1; fill: rgb(239, 85, 59); fill-opacity: 1; stroke: rgb(255, 255, 255); stroke-opacity: 1; opacity: 0.7;"/><g class="slicetext"><text data-notex="1" class="slicetext" text-anchor="middle" x="0" y="0" style="font-family: 'Open Sans', verdana, arial, sans-serif; font-size: 22px; fill: rgb(68, 68, 68); fill-opacity: 1; white-space: pre;" transform="translate(1329.364986064396,1045.2558729673399)scale(0.0005064380573982749)"><tspan class="line" dy="0em" x="0" y="0">01</tspan><tspan class="line" dy="1.3em" x="0" y="0">0.00 ms</tspan><tspan class="line" dy="2.6em" x="0" y="0">0.0206%</tspan></text></g></g><g class="slice"><path class="surface" d="M1024.7047105537686,900.1250817961668L1329.4094211075371,1045.2501635923336A675,675 0,0,0 1382.143825811008,886.11275277547L1051.071912905504,820.556376387735A337.5,337.5 0,0,1 1024.7047105537686,900.1250817961668Z" style="pointer-events: none; stroke-width: 1; fill: rgb(0, 204, 150); fill-opacity: 1; stroke: rgb(255, 255, 255); stroke-opacity: 1; opacity: 0.7;"/><g class="slicetext"><text data-notex="1" class="slicetext" text-anchor="middle" x="0" y="0" style="font-family: 'Open Sans', verdana, arial, sans-serif; font-size: 22px; fill: rgb(68, 68, 68); fill-opacity: 1; white-space: pre;" transform="translate(1289.9572427484018,924.0188969883573)"><tspan class="line" dy="0em" x="0" y="0">04</tspan><tspan class="line" dy="1.3em" x="0" y="0">6.72 ms</tspan><tspan class="line" dy="2.6em" x="0" y="0">95%</tspan></text></g></g><g class="slice"><path class="surface" d="M1051.071912905504,820.556376387735L1382.143825811008,886.11275277547A675,675 0,0,0 1382.877589462395,882.3510949639802L1051.4387947311975,818.6755474819901A337.5,337.5 0,0,1 1051.071912905504,820.556376387735Z" style="pointer-events: none; stroke-width: 1; fill: rgb(0, 204, 150); fill-opacity: 1; stroke: rgb(255, 255, 255); stroke-opacity: 1; opacity: 0.7;"/><g class="slicetext"><text data-notex="1" class="slicetext" text-anchor="middle" x="0" y="0" style="font-family: 'Open Sans', verdana, arial, sans-serif; font-size: 22px; fill: rgb(68, 68, 68); fill-opacity: 1; white-space: pre;" transform="translate(1380.6378729322366,883.2513976177694)scale(0.03099019567645673)"><tspan class="line" dy="0em" x="0" y="0">01</tspan><tspan class="line" dy="1.3em" x="0" y="0">0.15 ms</tspan><tspan class="line" dy="2.6em" x="0" y="0">2%</tspan></text></g></g><g class="slice"><path class="surface" d="M1051.4387947311975,818.6755474819901L1382.877589462395,882.3510949639802A675,675 0,0,0 1383.4023127875093,879.5888092413747L1051.7011563937547,817.2944046206874A337.5,337.5 0,0,1 1051.4387947311975,818.6755474819901Z" style="pointer-events: none; stroke-width: 1; fill: rgb(0, 204, 150); fill-opacity: 1; stroke: rgb(255, 255, 255); stroke-opacity: 1; opacity: 0.7;"/><g class="slicetext"><text data-notex="1" class="slicetext" text-anchor="middle" x="0" y="0" style="font-family: 'Open Sans', verdana, arial, sans-serif; font-size: 22px; fill: rgb(68, 68, 68); fill-opacity: 1; white-space: pre;" transform="translate(1381.763117103097,880.2567356123576)scale(0.022752533165561657)"><tspan class="line" dy="0em" x="0" y="0">02</tspan><tspan class="line" dy="1.3em" x="0" y="0">0.11 ms</tspan><tspan class="line" dy="2.6em" x="0" y="0">2%</tspan></text></g></g><g class="slice"><path class="surface" d="M1051.7011563937547,817.2944046206874L1383.4023127875093,879.5888092413747A675,675 0,0,0 1383.6383858381757,878.3251508902401L1051.819192919088,816.6625754451201A337.5,337.5 0,0,1 1051.7011563937547,817.2944046206874Z" style="pointer-events: none; stroke-width: 1; fill: rgb(0, 204, 150); fill-opacity: 1; stroke: rgb(255, 255, 255); stroke-opacity: 1; opacity: 0.7;"/><g class="slicetext"><text data-notex="1" class="slicetext" text-anchor="middle" x="0" y="0" style="font-family: 'Open Sans', verdana, arial, sans-serif; font-size: 22px; fill: rgb(68, 68, 68); fill-opacity: 1; white-space: pre;" transform="translate(1382.8894220420261,878.632370638949)scale(0.010414363745899387)"><tspan class="line" dy="0em" x="0" y="0">03</tspan><tspan class="line" dy="1.3em" x="0" y="0">0.05 ms</tspan><tspan class="line" dy="2.6em" x="0" y="0">1%</tspan></text></g></g><g class="slice"><path class="surface" d="M1051.819192919088,816.6625754451197L1383.638385838176,878.3251508902396A675,675 0,0,0 1387.8381451546463,853.067384366065L1053.9190725773233,804.0336921830325A337.5,337.5 0,0,1 1051.819192919088,816.6625754451197Z" style="pointer-events: none; stroke-width: 1; fill: rgb(171, 99, 250); fill-opacity: 1; stroke: rgb(255, 255, 255); stroke-opacity: 1; opacity: 0.7;"/><g class="slicetext"><text data-notex="1" class="slicetext" text-anchor="middle" x="0" y="0" style="font-family: 'Open Sans', verdana, arial, sans-serif; font-size: 22px; fill: rgb(68, 68, 68); fill-opacity: 1; white-space: pre;" transform="translate(1373.4642200321719,859.6103842877602)scale(0.20376253389617438)"><tspan class="line" dy="0em" x="0" y="0">01</tspan><tspan class="line" dy="1.3em" x="0" y="0">1.02 ms</tspan><tspan class="line" dy="2.6em" x="0" y="0">44%</tspan></text></g></g><g class="slice"><path class="surface" d="M1053.9190725773233,804.0336921830325L1387.8381451546463,853.067384366065A675,675 0,0,0 1389.7570260058671,838.9674110341398L1054.8785130029337,796.9837055170699A337.5,337.5 0,0,1 1053.9190725773233,804.0336921830325Z" style="pointer-events: none; stroke-width: 1; fill: rgb(171, 99, 250); fill-opacity: 1; stroke: rgb(255, 255, 255); stroke-opacity: 1; opacity: 0.7;"/><g class="slicetext"><text data-notex="1" class="slicetext" text-anchor="middle" x="0" y="0" style="font-family: 'Open Sans', verdana, arial, sans-serif; font-size: 22px; fill: rgb(68, 68, 68); fill-opacity: 1; white-space: pre;" transform="translate(1381.8582925147587,842.8062320370517)scale(0.11418696392584465)"><tspan class="line" dy="0em" x="0" y="0">02</tspan><tspan class="line" dy="1.3em" x="0" y="0">0.57 ms</tspan><tspan class="line" dy="2.6em" x="0" y="0">24%</tspan></text></g></g><g class="slice"><path class="surface" d="M1054.8785130029337,796.9837055170699L1389.7570260058671,838.9674110341398A675,675 0,0,0 1391.3568824595495,825.0352509397565L1055.6784412297748,790.0176254698782A337.5,337.5 0,0,1 1054.8785130029337,796.9837055170699Z" style="pointer-events: none; stroke-width: 1; fill: rgb(171, 99, 250); fill-opacity: 1; stroke: rgb(255, 255, 255); stroke-opacity: 1; opacity: 0.7;"/><g class="slicetext"><text data-notex="1" class="slicetext" text-anchor="middle" x="0" y="0" style="font-family: 'Open Sans', verdana, arial, sans-serif; font-size: 22px; fill: rgb(68, 68, 68); fill-opacity: 1; white-space: pre;" transform="translate(1383.6986759987903,828.9795061427965)scale(0.11254911066338648)"><tspan class="line" dy="0em" x="0" y="0">03</tspan><tspan class="line" dy="1.3em" x="0" y="0">0.56 ms</tspan><tspan class="line" dy="2.6em" x="0" y="0">24%</tspan></text></g></g><g class="slice"><path class="surface" d="M1055.6784412297748,790.0176254698782L1391.3568824595495,825.0352509397565A675,675 0,0,0 1391.812232181294,820.5234667244283L1055.906116090647,787.7617333622142A337.5,337.5 0,0,1 1055.6784412297748,790.0176254698782Z" style="pointer-events: none; stroke-width: 1; fill: rgb(171, 99, 250); fill-opacity: 1; stroke: rgb(255, 255, 255); stroke-opacity: 1; opacity: 0.7;"/><g class="slicetext"><text data-notex="1" class="slicetext" text-anchor="middle" x="0" y="0" style="font-family: 'Open Sans', verdana, arial, sans-serif; font-size: 22px; fill: rgb(68, 68, 68); fill-opacity: 1; white-space: pre;" transform="translate(1389.340006302775,821.8252927708088)scale(0.03664879248884636)"><tspan class="line" dy="0em" x="0" y="0">04</tspan><tspan class="line" dy="1.3em" x="0" y="0">0.18 ms</tspan><tspan class="line" dy="2.6em" x="0" y="0">8%</tspan></text></g></g><g class="slice"><path class="surface" d="M1055.906116090647,787.7617333622145L1391.812232181294,820.5234667244289A675,675 0,0,0 1392.9728736754867,807.2734282112582L1056.4864368377434,781.1367141056292A337.5,337.5 0,0,1 1055.906116090647,787.7617333622145Z" style="pointer-events: none; stroke-width: 1; fill: rgb(255, 161, 90); fill-opacity: 1; stroke: rgb(255, 255, 255); stroke-opacity: 1; opacity: 0.7;"/><g class="slicetext"><text data-notex="1" class="slicetext" text-anchor="middle" x="0" y="0" style="font-family: 'Open Sans', verdana, arial, sans-serif; font-size: 22px; fill: rgb(68, 68, 68); fill-opacity: 1; white-space: pre;" transform="translate(1385.8648064109657,811.2064278929496)scale(0.1068036566628391)"><tspan class="line" dy="0em" x="0" y="0">04</tspan><tspan class="line" dy="1.3em" x="0" y="0">0.53 ms</tspan><tspan class="line" dy="2.6em" x="0" y="0">79%</tspan></text></g></g><g class="slice"><path class="surface" d="M1056.4864368377434,781.1367141056292L1392.9728736754867,807.2734282112582A675,675 0,0,0 1393.1074719770518,805.5107035059135L1056.553735988526,780.2553517529567A337.5,337.5 0,0,1 1056.4864368377434,781.1367141056292Z" style="pointer-events: none; stroke-width: 1; fill: rgb(255, 161, 90); fill-opacity: 1; stroke: rgb(255, 255, 255); stroke-opacity: 1; opacity: 0.7;"/><g class="slicetext"><text data-notex="1" class="slicetext" text-anchor="middle" x="0" y="0" style="font-family: 'Open Sans', verdana, arial, sans-serif; font-size: 22px; fill: rgb(68, 68, 68); fill-opacity: 1; white-space: pre;" transform="translate(1392.1605402108457,806.0406881364048)scale(0.014316789967582812)"><tspan class="line" dy="0em" x="0" y="0">03</tspan><tspan class="line" dy="1.3em" x="0" y="0">0.07 ms</tspan><tspan class="line" dy="2.6em" x="0" y="0">10%</tspan></text></g></g><g class="slice"><path class="surface" d="M1056.553735988526,780.2553517529567L1393.1074719770518,805.5107035059135A675,675 0,0,0 1393.2089749943993,804.1393527327135L1056.6044874971997,779.5696763663568A337.5,337.5 0,0,1 1056.553735988526,780.2553517529567Z" style="pointer-events: none; stroke-width: 1; fill: rgb(255, 161, 90); fill-opacity: 1; stroke: rgb(255, 255, 255); stroke-opacity: 1; opacity: 0.7;"/><g class="slicetext"><text data-notex="1" class="slicetext" text-anchor="middle" x="0" y="0" style="font-family: 'Open Sans', verdana, arial, sans-serif; font-size: 22px; fill: rgb(68, 68, 68); fill-opacity: 1; white-space: pre;" transform="translate(1392.4735950259387,804.5532205730842)scale(0.011139351259862217)"><tspan class="line" dy="0em" x="0" y="0">01</tspan><tspan class="line" dy="1.3em" x="0" y="0">0.06 ms</tspan><tspan class="line" dy="2.6em" x="0" y="0">8%</tspan></text></g></g><g class="slice"><path class="surface" d="M1056.6044874971997,779.5696763663568L1393.2089749943993,804.1393527327135A675,675 0,0,0 1393.2405357851808,803.7050405572428L1056.6202678925904,779.3525202786213A337.5,337.5 0,0,1 1056.6044874971997,779.5696763663568Z" style="pointer-events: none; stroke-width: 1; fill: rgb(255, 161, 90); fill-opacity: 1; stroke: rgb(255, 255, 255); stroke-opacity: 1; opacity: 0.7;"/><g class="slicetext"><text data-notex="1" class="slicetext" text-anchor="middle" x="0" y="0" style="font-family: 'Open Sans', verdana, arial, sans-serif; font-size: 22px; fill: rgb(68, 68, 68); fill-opacity: 1; white-space: pre;" transform="translate(1393.0077043486085,803.8363481895684)scale(0.0035299837778078906)"><tspan class="line" dy="0em" x="0" y="0">02</tspan><tspan class="line" dy="1.3em" x="0" y="0">0.02 ms</tspan><tspan class="line" dy="2.6em" x="0" y="0">3%</tspan></text></g></g><g class="slice"><path class="surface" d="M1056.6202678925904,779.3525202786213L1393.2405357851808,803.7050405572428A675,675 0,0,0 1393.7905483315958,795.3893176348301L1056.895274165798,775.1946588174151A337.5,337.5 0,0,1 1056.6202678925904,779.3525202786213Z" style="pointer-events: none; stroke-width: 1; fill: rgb(25, 211, 243); fill-opacity: 1; stroke: rgb(255, 255, 255); stroke-opacity: 1; opacity: 0.7;"/><g class="slicetext"><text data-notex="1" class="slicetext" text-anchor="middle" x="0" y="0" style="font-family: 'Open Sans', verdana, arial, sans-serif; font-size: 22px; fill: rgb(68, 68, 68); fill-opacity: 1; white-space: pre;" transform="translate(1389.3960245391831,797.9413812193669)scale(0.06716487534983744)"><tspan class="line" dy="0em" x="0" y="0">04</tspan><tspan class="line" dy="1.3em" x="0" y="0">0.33 ms</tspan><tspan class="line" dy="2.6em" x="0" y="0">56%</tspan></text></g></g><g class="slice"><path class="surface" d="M1056.895274165798,775.1946588174151L1393.7905483315958,795.3893176348301A675,675 0,0,0 1394.1004725607916,789.8360860792011L1057.050236280396,772.4180430396005A337.5,337.5 0,0,1 1056.895274165798,775.1946588174151Z" style="pointer-events: none; stroke-width: 1; fill: rgb(25, 211, 243); fill-opacity: 1; stroke: rgb(255, 255, 255); stroke-opacity: 1; opacity: 0.7;"/><g class="slicetext"><text data-notex="1" class="slicetext" text-anchor="middle" x="0" y="0" style="font-family: 'Open Sans', verdana, arial, sans-serif; font-size: 22px; fill: rgb(68, 68, 68); fill-opacity: 1; white-space: pre;" transform="translate(1391.1860068511642,791.5670388432777)scale(0.0449161583657305)"><tspan class="line" dy="0em" x="0" y="0">03</tspan><tspan class="line" dy="1.3em" x="0" y="0">0.22 ms</tspan><tspan class="line" dy="2.6em" x="0" y="0">37%</tspan></text></g></g><g class="slice"><path class="surface" d="M1057.050236280396,772.4180430396005L1394.1004725607916,789.8360860792011A675,675 0,0,0 1394.1455390073602,788.9527942366406L1057.07276950368,771.9763971183203A337.5,337.5 0,0,1 1057.050236280396,772.4180430396005Z" style="pointer-events: none; stroke-width: 1; fill: rgb(25, 211, 243); fill-opacity: 1; stroke: rgb(255, 255, 255); stroke-opacity: 1; opacity: 0.7;"/><g class="slicetext"><text data-notex="1" class="slicetext" text-anchor="middle" x="0" y="0" style="font-family: 'Open Sans', verdana, arial, sans-serif; font-size: 22px; fill: rgb(68, 68, 68); fill-opacity: 1; white-space: pre;" transform="translate(1393.681793684105,789.2296483300647)scale(0.007167231222998562)"><tspan class="line" dy="0em" x="0" y="0">02</tspan><tspan class="line" dy="1.3em" x="0" y="0">0.04 ms</tspan><tspan class="line" dy="2.6em" x="0" y="0">6%</tspan></text></g></g><g class="slice"><path class="surface" d="M1057.07276950368,771.9763971183203L1394.1455390073602,788.9527942366406A675,675 0,0,0 1394.156143993475,788.7415695522428L1057.0780719967374,771.8707847761214A337.5,337.5 0,0,1 1057.07276950368,771.9763971183203Z" style="pointer-events: none; stroke-width: 1; fill: rgb(25, 211, 243); fill-opacity: 1; stroke: rgb(255, 255, 255); stroke-opacity: 1; opacity: 0.7;"/><g class="slicetext"><text data-notex="1" class="slicetext" text-anchor="middle" x="0" y="0" style="font-family: 'Open Sans', verdana, arial, sans-serif; font-size: 22px; fill: rgb(68, 68, 68); fill-opacity: 1; white-space: pre;" transform="translate(1394.045253973441,788.8078409948857)scale(0.0017147089756596)"><tspan class="line" dy="0em" x="0" y="0">01</tspan><tspan class="line" dy="1.3em" x="0" y="0">0.01 ms</tspan><tspan class="line" dy="2.6em" x="0" y="0">1%</tspan></text></g></g><g class="slice"><path class="surface" d="M1057.0780719967374,771.8707847761217L1394.156143993475,788.7415695522434A675,675 0,0,0 1394.4851067375735,781.3598328751211L1057.2425533687867,768.1799164375606A337.5,337.5 0,0,1 1057.0780719967374,771.8707847761217Z" style="pointer-events: none; stroke-width: 1; fill: rgb(255, 102, 146); fill-opacity: 1; stroke: rgb(255, 255, 255); stroke-opacity: 1; opacity: 0.7;"/><g class="slicetext"><text data-notex="1" class="slicetext" text-anchor="middle" x="0" y="0" style="font-family: 'Open Sans', verdana, arial, sans-serif; font-size: 22px; fill: rgb(68, 68, 68); fill-opacity: 1; white-space: pre;" transform="translate(1390.6599494215432,783.7045766731654)scale(0.05959171600402364)"><tspan class="line" dy="0em" x="0" y="0">01</tspan><tspan class="line" dy="1.3em" x="0" y="0">0.30 ms</tspan><tspan class="line" dy="2.6em" x="0" y="0">59%</tspan></text></g></g><g class="slice"><path class="surface" d="M1057.2425533687867,768.1799164375606L1394.4851067375735,781.3598328751211A675,675 0,0,0 1394.5706815561923,779.0706373994176L1057.2853407780963,767.0353186997088A337.5,337.5 0,0,1 1057.2425533687867,768.1799164375606Z" style="pointer-events: none; stroke-width: 1; fill: rgb(255, 102, 146); fill-opacity: 1; stroke: rgb(255, 255, 255); stroke-opacity: 1; opacity: 0.7;"/><g class="slicetext"><text data-notex="1" class="slicetext" text-anchor="middle" x="0" y="0" style="font-family: 'Open Sans', verdana, arial, sans-serif; font-size: 22px; fill: rgb(68, 68, 68); fill-opacity: 1; white-space: pre;" transform="translate(1393.3862064951895,779.804417722845)scale(0.018544575022746042)"><tspan class="line" dy="0em" x="0" y="0">03</tspan><tspan class="line" dy="1.3em" x="0" y="0">0.09 ms</tspan><tspan class="line" dy="2.6em" x="0" y="0">18%</tspan></text></g></g><g class="slice"><path class="surface" d="M1057.2853407780963,767.0353186997088L1394.5706815561923,779.0706373994176A675,675 0,0,0 1394.6391478343899,777.0685343710992L1057.319573917195,766.0342671855497A337.5,337.5 0,0,1 1057.2853407780963,767.0353186997088Z" style="pointer-events: none; stroke-width: 1; fill: rgb(255, 102, 146); fill-opacity: 1; stroke: rgb(255, 255, 255); stroke-opacity: 1; opacity: 0.7;"/><g class="slicetext"><text data-notex="1" class="slicetext" text-anchor="middle" x="0" y="0" style="font-family: 'Open Sans', verdana, arial, sans-serif; font-size: 22px; fill: rgb(68, 68, 68); fill-opacity: 1; white-space: pre;" transform="translate(1393.6060891803286,777.71342726651)scale(0.016220466401358064)"><tspan class="line" dy="0em" x="0" y="0">04</tspan><tspan class="line" dy="1.3em" x="0" y="0">0.08 ms</tspan><tspan class="line" dy="2.6em" x="0" y="0">16%</tspan></text></g></g><g class="slice"><path class="surface" d="M1057.319573917195,766.0342671855497L1394.6391478343899,777.0685343710992A675,675 0,0,0 1394.6641415088247,776.290752973073L1057.3320707544124,765.6453764865365A337.5,337.5 0,0,1 1057.319573917195,766.0342671855497Z" style="pointer-events: none; stroke-width: 1; fill: rgb(255, 102, 146); fill-opacity: 1; stroke: rgb(255, 255, 255); stroke-opacity: 1; opacity: 0.7;"/><g class="slicetext"><text data-notex="1" class="slicetext" text-anchor="middle" x="0" y="0" style="font-family: 'Open Sans', verdana, arial, sans-serif; font-size: 22px; fill: rgb(68, 68, 68); fill-opacity: 1; white-space: pre;" transform="translate(1394.2630900968845,776.5419608467317)scale(0.006306646610204657)"><tspan class="line" dy="0em" x="0" y="0">02</tspan><tspan class="line" dy="1.3em" x="0" y="0">0.03 ms</tspan><tspan class="line" dy="2.6em" x="0" y="0">6%</tspan></text></g></g><g class="slice"><path class="surface" d="M1057.3320707544124,765.6453764865365L1394.6641415088247,776.290752973073A675,675 0,0,0 1394.79542584263,771.6172579526088L1057.397712921315,763.3086289763044A337.5,337.5 0,0,1 1057.3320707544124,765.6453764865365Z" style="pointer-events: none; stroke-width: 1; fill: rgb(182, 232, 128); fill-opacity: 1; stroke: rgb(255, 255, 255); stroke-opacity: 1; opacity: 0.7;"/><g class="slicetext"><text data-notex="1" class="slicetext" text-anchor="middle" x="0" y="0" style="font-family: 'Open Sans', verdana, arial, sans-serif; font-size: 22px; fill: rgb(68, 68, 68); fill-opacity: 1; white-space: pre;" transform="translate(1392.4051472320873,773.1386825398714)scale(0.03778145781269642)"><tspan class="line" dy="0em" x="0" y="0">03</tspan><tspan class="line" dy="1.3em" x="0" y="0">0.19 ms</tspan><tspan class="line" dy="2.6em" x="0" y="0">47%</tspan></text></g></g><g class="slice"><path class="surface" d="M1057.397712921315,763.3086289763044L1394.79542584263,771.6172579526088A675,675 0,0,0 1394.8891881728873,767.2304410117093L1057.4445940864437,761.1152205058546A337.5,337.5 0,0,1 1057.397712921315,763.3086289763044Z" style="pointer-events: none; stroke-width: 1; fill: rgb(182, 232, 128); fill-opacity: 1; stroke: rgb(255, 255, 255); stroke-opacity: 1; opacity: 0.7;"/><g class="slicetext"><text data-notex="1" class="slicetext" text-anchor="middle" x="0" y="0" style="font-family: 'Open Sans', verdana, arial, sans-serif; font-size: 22px; fill: rgb(68, 68, 68); fill-opacity: 1; white-space: pre;" transform="translate(1392.6595690939125,768.6731501027441)scale(0.03546553492333308)"><tspan class="line" dy="0em" x="0" y="0">04</tspan><tspan class="line" dy="1.3em" x="0" y="0">0.18 ms</tspan><tspan class="line" dy="2.6em" x="0" y="0">44%</tspan></text></g></g><g class="slice"><path class="surface" d="M1057.4445940864437,761.1152205058546L1394.8891881728873,767.2304410117093A675,675 0,0,0 1394.9032283004528,766.429454476346L1057.4516141502263,760.7147272381729A337.5,337.5 0,0,1 1057.4445940864437,761.1152205058546Z" style="pointer-events: none; stroke-width: 1; fill: rgb(182, 232, 128); fill-opacity: 1; stroke: rgb(255, 255, 255); stroke-opacity: 1; opacity: 0.7;"/><g class="slicetext"><text data-notex="1" class="slicetext" text-anchor="middle" x="0" y="0" style="font-family: 'Open Sans', verdana, arial, sans-serif; font-size: 22px; fill: rgb(68, 68, 68); fill-opacity: 1; white-space: pre;" transform="translate(1394.496071315822,766.6940507963915)scale(0.006492341854427002)"><tspan class="line" dy="0em" x="0" y="0">01</tspan><tspan class="line" dy="1.3em" x="0" y="0">0.03 ms</tspan><tspan class="line" dy="2.6em" x="0" y="0">8%</tspan></text></g></g><g class="slice"><path class="surface" d="M1057.4516141502263,760.7147272381729L1394.9032283004528,766.429454476346A675,675 0,0,0 1394.9062211282246,766.2513413609233L1057.4531105641122,760.6256706804617A337.5,337.5 0,0,1 1057.4516141502263,760.7147272381729Z" style="pointer-events: none; stroke-width: 1; fill: rgb(182, 232, 128); fill-opacity: 1; stroke: rgb(255, 255, 255); stroke-opacity: 1; opacity: 0.7;"/><g class="slicetext"><text data-notex="1" class="slicetext" text-anchor="middle" x="0" y="0" style="font-family: 'Open Sans', verdana, arial, sans-serif; font-size: 22px; fill: rgb(68, 68, 68); fill-opacity: 1; white-space: pre;" transform="translate(1394.815685782166,766.3102295565853)scale(0.0014443318668082622)"><tspan class="line" dy="0em" x="0" y="0">02</tspan><tspan class="line" dy="1.3em" x="0" y="0">0.01 ms</tspan><tspan class="line" dy="2.6em" x="0" y="0">2%</tspan></text></g></g><g class="slice"><path class="surface" d="M1057.4531105641122,760.6256706804617L1394.9062211282246,766.2513413609233A675,675 0,0,0 1394.956158664861,762.6931060291043L1057.4780793324305,758.8465530145521A337.5,337.5 0,0,1 1057.4531105641122,760.6256706804617Z" style="pointer-events: none; stroke-width: 1; fill: rgb(255, 151, 255); fill-opacity: 1; stroke: rgb(255, 255, 255); stroke-opacity: 1; opacity: 0.7;"/><g class="slicetext"><text data-notex="1" class="slicetext" text-anchor="middle" x="0" y="0" style="font-family: 'Open Sans', verdana, arial, sans-serif; font-size: 22px; fill: rgb(68, 68, 68); fill-opacity: 1; white-space: pre;" transform="translate(1393.1590945081666,763.8760117631475)scale(0.02878069253647786)"><tspan class="line" dy="0em" x="0" y="0">03</tspan><tspan class="line" dy="1.3em" x="0" y="0">0.14 ms</tspan><tspan class="line" dy="2.6em" x="0" y="0">62%</tspan></text></g></g><g class="slice"><path class="surface" d="M1057.4780793324305,758.8465530145521L1394.956158664861,762.6931060291043A675,675 0,0,0 1394.966370157702,761.7378895906696L1057.483185078851,758.3689447953349A337.5,337.5 0,0,1 1057.4780793324305,758.8465530145521Z" style="pointer-events: none; stroke-width: 1; fill: rgb(255, 151, 255); fill-opacity: 1; stroke: rgb(255, 255, 255); stroke-opacity: 1; opacity: 0.7;"/><g class="slicetext"><text data-notex="1" class="slicetext" text-anchor="middle" x="0" y="0" style="font-family: 'Open Sans', verdana, arial, sans-serif; font-size: 22px; fill: rgb(68, 68, 68); fill-opacity: 1; white-space: pre;" transform="translate(1394.4841628923227,762.0567302753291)scale(0.007740811580176913)"><tspan class="line" dy="0em" x="0" y="0">01</tspan><tspan class="line" dy="1.3em" x="0" y="0">0.04 ms</tspan><tspan class="line" dy="2.6em" x="0" y="0">17%</tspan></text></g></g><g class="slice"><path class="surface" d="M1057.483185078851,758.3689447953349L1394.966370157702,761.7378895906696A675,675 0,0,0 1394.974862618028,760.8253612569599L1057.487431309014,757.91268062848A337.5,337.5 0,0,1 1057.483185078851,758.3689447953349Z" style="pointer-events: none; stroke-width: 1; fill: rgb(255, 151, 255); fill-opacity: 1; stroke: rgb(255, 255, 255); stroke-opacity: 1; opacity: 0.7;"/><g class="slicetext"><text data-notex="1" class="slicetext" text-anchor="middle" x="0" y="0" style="font-family: 'Open Sans', verdana, arial, sans-serif; font-size: 22px; fill: rgb(68, 68, 68); fill-opacity: 1; white-space: pre;" transform="translate(1394.5148146482481,761.1305809868101)scale(0.0073950103639722296)"><tspan class="line" dy="0em" x="0" y="0">04</tspan><tspan class="line" dy="1.3em" x="0" y="0">0.04 ms</tspan><tspan class="line" dy="2.6em" x="0" y="0">16%</tspan></text></g></g><g class="slice"><path class="surface" d="M1057.487431309014,757.91268062848L1394.974862618028,760.8253612569599A675,675 0,0,0 1394.9774532857,760.5170241934213L1057.48872664285,757.7585120967107A337.5,337.5 0,0,1 1057.487431309014,757.91268062848Z" style="pointer-events: none; stroke-width: 1; fill: rgb(255, 151, 255); fill-opacity: 1; stroke: rgb(255, 255, 255); stroke-opacity: 1; opacity: 0.7;"/><g class="slicetext"><text data-notex="1" class="slicetext" text-anchor="middle" x="0" y="0" style="font-family: 'Open Sans', verdana, arial, sans-serif; font-size: 22px; fill: rgb(68, 68, 68); fill-opacity: 1; white-space: pre;" transform="translate(1394.8220422315544,760.6202724753222)scale(0.002499821349483116)"><tspan class="line" dy="0em" x="0" y="0">02</tspan><tspan class="line" dy="1.3em" x="0" y="0">0.01 ms</tspan><tspan class="line" dy="2.6em" x="0" y="0">5%</tspan></text></g></g><g class="slice"><path class="surface" d="M1057.48872664285,757.7585120967107L1394.9774532857,760.5170241934213A675,675 0,0,0 1394.990242340583,758.629427640947L1057.4951211702914,756.8147138204736A337.5,337.5 0,0,1 1057.48872664285,757.7585120967107Z" style="pointer-events: none; stroke-width: 1; fill: rgb(254, 203, 82); fill-opacity: 1; stroke: rgb(255, 255, 255); stroke-opacity: 1; opacity: 0.7;"/><g class="slicetext"><text data-notex="1" class="slicetext" text-anchor="middle" x="0" y="0" style="font-family: 'Open Sans', verdana, arial, sans-serif; font-size: 22px; fill: rgb(68, 68, 68); fill-opacity: 1; white-space: pre;" transform="translate(1394.0420271959779,759.2634038973887)scale(0.015285491588405663)"><tspan class="line" dy="0em" x="0" y="0">01</tspan><tspan class="line" dy="1.3em" x="0" y="0">0.08 ms</tspan><tspan class="line" dy="2.6em" x="0" y="0">34%</tspan></text></g></g><g class="slice"><path class="surface" d="M1057.4951211702914,756.8147138204736L1394.990242340583,758.629427640947A675,675 0,0,0 1394.9968548297084,757.0605751628516L1057.4984274148542,756.0302875814258A337.5,337.5 0,0,1 1057.4951211702914,756.8147138204736Z" style="pointer-events: none; stroke-width: 1; fill: rgb(254, 203, 82); fill-opacity: 1; stroke: rgb(255, 255, 255); stroke-opacity: 1; opacity: 0.7;"/><g class="slicetext"><text data-notex="1" class="slicetext" text-anchor="middle" x="0" y="0" style="font-family: 'Open Sans', verdana, arial, sans-serif; font-size: 22px; fill: rgb(68, 68, 68); fill-opacity: 1; white-space: pre;" transform="translate(1394.2104886880682,757.5894438467177)scale(0.012707164464021049)"><tspan class="line" dy="0em" x="0" y="0">04</tspan><tspan class="line" dy="1.3em" x="0" y="0">0.06 ms</tspan><tspan class="line" dy="2.6em" x="0" y="0">28%</tspan></text></g></g><g class="slice"><path class="surface" d="M1057.4984274148542,756.0302875814258L1394.9968548297084,757.0605751628516A675,675 0,0,0 1394.999617275244,755.7188033627488L1057.499808637622,755.3594016813744A337.5,337.5 0,0,1 1057.4984274148542,756.0302875814258Z" style="pointer-events: none; stroke-width: 1; fill: rgb(254, 203, 82); fill-opacity: 1; stroke: rgb(255, 255, 255); stroke-opacity: 1; opacity: 0.7;"/><g class="slicetext"><text data-notex="1" class="slicetext" text-anchor="middle" x="0" y="0" style="font-family: 'Open Sans', verdana, arial, sans-serif; font-size: 22px; fill: rgb(68, 68, 68); fill-opacity: 1; white-space: pre;" transform="translate(1394.3283496878623,756.1725307194122)scale(0.010869642047973915)"><tspan class="line" dy="0em" x="0" y="0">02</tspan><tspan class="line" dy="1.3em" x="0" y="0">0.05 ms</tspan><tspan class="line" dy="2.6em" x="0" y="0">24%</tspan></text></g></g><g class="slice"><path class="surface" d="M1057.499808637622,755.3594016813744L1394.999617275244,755.7188033627488A675,675 0,0,0 1395,754.9999999999995L1057.5,754.9999999999998A337.5,337.5 0,0,1 1057.499808637622,755.3594016813744Z" style="pointer-events: none; stroke-width: 1; fill: rgb(254, 203, 82); fill-opacity: 1; stroke: rgb(255, 255, 255); stroke-opacity: 1; opacity: 0.7;"/><g class="slicetext"><text data-notex="1" class="slicetext" text-anchor="middle" x="0" y="0" style="font-family: 'Open Sans', verdana, arial, sans-serif; font-size: 22px; fill: rgb(68, 68, 68); fill-opacity: 1; white-space: pre;" transform="translate(1394.6406938979444,755.2435617663054)scale(0.005825672688061549)"><tspan class="line" dy="0em" x="0" y="0">03</tspan><tspan class="line" dy="1.3em" x="0" y="0">0.03 ms</tspan><tspan class="line" dy="2.6em" x="0" y="0">13%</tspan></text></g></g></g></g><g class="glimages"/><defs id="topdefs-7ef695"><g class="clips"/></defs><g class="layer-above"><g class="imagelayer"/><g class="shapelayer"/></g><g class="infolayer"><g class="g-gtitle"><text class="gtitle" x="720" y="40" text-anchor="middle" dy="0em" style="opacity: 1; font-family: 'Open Sans', verdana, arial, sans-serif; font-size: 31px; fill: rgb(42, 63, 95); fill-opacity: 1; white-space: pre;">Total time: 170 ms</text></g></g></svg>