<svg class="main-svg" xmlns="http://www.w3.org/2000/svg" xmlns:xlink="http://www.w3.org/1999/xlink" width="1440" height="1440" style="" viewBox="0 0 1440 1440"><rect x="0" y="0" width="1440" height="1440" style="fill: rgb(255, 255, 255); fill-opacity: 1;"/><defs id="defs-24f1bb"><g class="clips"/><g class="gradients"/><g class="patterns"/></defs><g class="bglayer"/><g class="layer-below"><g class="imagelayer"/><g class="shapelayer"/></g><g class="cartesianlayer"/><g class="polarlayer"/><g class="smithlayer"/><g class="ternarylayer"/><g class="geolayer"/><g class="funnelarealayer"/><g class="pielayer"/><g class="iciclelayer"/><g class="treemaplayer"/><g class="sunburstlayer"><g class="trace sunburst" stroke-linejoin="round" style="opacity: 1;"><g class="slice cursor-pointer"><path class="surface" d="M720,755L1057.5,755A337.5,337.5 0,1,0 383.77674247788445,784.3286737036838L720,755A0,0 0,1,1 720,755Z" style="pointer-events: none; stroke-width: 1; fill: rgb(99, 110, 250); fill-opacity: 1; stroke: rgb(255, 255, 255); stroke-opacity: 1;"/><g class="slicetext"><text data-notex="1" class="slicetext" text-anchor="middle" x="0" y="0" style="font-family: 'Open Sans', verdana, arial, sans-serif; font-size: 22px; fill: rgb(255, 255, 255); fill-opacity: 1; white-space: pre;" transform="translate(720,589.4207087746995)"><tspan class="line" dy="0em" x="0" y="0">2019</tspan><tspan class="line" dy="1.3em" x="0" y="0">12.77 ms</tspan><tspan class="line" dy="2.6em" x="0" y="0">51%</tspan></text></g></g><g class="slice cursor-pointer"><path class="surface" d="M720,755L383.77674247788445,784.3286737036838A337.5,337.5 0,0,0 779.7666624592858,1087.1659164611533L720,755A0,0 0,0,1 720,755Z" style="pointer-events: none; stroke-width: 1; fill: rgb(239, 85, 59); fill-opacity: 1; stroke: rgb(255, 255, 255); stroke-opacity: 1;"/><g class="slicetext"><text data-notex="1" class="slicetext" text-anchor="middle" x="0" y="0" style="font-family: 'Open Sans', verdana, arial, sans-serif; font-size: 22px; fill: rgb(68, 68, 68); fill-opacity: 1; white-space: pre;" transform="translate(602.0715867768557,889.3516077922535)"><tspan class="line" dy="0em" x="0" y="0">2024</tspan><tspan class="line" dy="1.3em" x="0" y="0">6.57 ms</tspan><tspan class="line" dy="2.6em" x="0" y="0">26%</tspan></text></g></g><g class="slice cursor-pointer"><path class="surface" d="M720,755L779.7666624592858,1087.1659164611533A337.5,337.5 0,0,0 963.3790507753404,988.8223420541638L720,755A0,0 0,0,1 720,755Z" style="pointer-events: none; stroke-width: 1; fill: rgb(0, 204, 150); fill-opacity: 1; stroke: rgb(255, 255, 255); stroke-opacity: 1;"/><g class="slicetext"><text data-notex="1" class="slicetext" text-anchor="middle" x="0" y="0" style="font-family: 'Open Sans', verdana, arial, sans-serif; font-size: 22px; fill: rgb(68, 68, 68); fill-opacity: 1; white-space: pre;" transform="translate(841.7728017200586,962.5043688923839)"><tspan class="line" dy="0em" x="0" y="0">2018</tspan><tspan class="line" dy="1.3em" x="0" y="0">2.48 ms</tspan><tspan class="line" dy="2.6em" x="0" y="0">10%</tspan></text></g></g><g class="slice cursor-pointer"><path class="surface" d="M720,755L963.3790507753404,988.8223420541638A337.5,337.5 0,0,0 998.5639275977551,945.5476009854563L720,755A0,0 0,0,1 720,755Z" style="pointer-events: none; stroke-width: 1; fill: rgb(171, 99, 250); fill-opacity: 1; stroke: rgb(255, 255, 255); stroke-opacity: 1;"/><g class="slicetext"><text data-notex="1" class="slicetext" text-anchor="middle" x="0" y="0" style="font-family: 'Open Sans', verdana, arial, sans-serif; font-size: 22px; fill: rgb(68, 68, 68); fill-opacity: 1; white-space: pre;" transform="translate(961.8809575698881,943.3702855354645)scale(0.41774925631388027)"><tspan class="line" dy="0em" x="0" y="0">2016</tspan><tspan class="line" dy="1.3em" x="0" y="0">0.65 ms</tspan><tspan class="line" dy="2.6em" x="0" y="0">3%</tspan></text></g></g><g class="slice cursor-pointer"><path class="surface" d="M720,755L998.5639275977551,945.5476009854563A337.5,337.5 0,0,0 1024.4975470668228,900.5592450869682L720,755A0,0 0,0,1 720,755Z" style="pointer-events: none; stroke-width: 1; fill: rgb(255, 161, 90); fill-opacity: 1; stroke: rgb(255, 255, 255); stroke-opacity: 1;"/><g class="slicetext"><text data-notex="1" class="slicetext" text-anchor="middle" x="0" y="0" style="font-family: 'Open Sans', verdana, arial, sans-serif; font-size: 22px; fill: rgb(68, 68, 68); fill-opacity: 1; white-space: pre;" transform="translate(991.5099491203024,903.7503819093796)scale(0.39100304566480876)"><tspan class="line" dy="0em" x="0" y="0">2017</tspan><tspan class="line" dy="1.3em" x="0" y="0">0.61 ms</tspan><tspan class="line" dy="2.6em" x="0" y="0">2%</tspan></text></g></g><g class="slice cursor-pointer"><path class="surface" d="M720,755L1024.4975470668228,900.5592450869682A337.5,337.5 0,0,0 1040.3664677851955,861.1676801990006L720,755A0,0 0,0,1 720,755Z" style="pointer-events: none; stroke-width: 1; fill: rgb(25, 211, 243); fill-opacity: 1; stroke: rgb(255, 255, 255); stroke-opacity: 1;"/><g class="slicetext"><text data-notex="1" class="slicetext" text-anchor="middle" x="0" y="0" style="font-family: 'Open Sans', verdana, arial, sans-serif; font-size: 22px; fill: rgb(68, 68, 68); fill-opacity: 1; white-space: pre;" transform="translate(1014.5222414033956,867.2168360537507)scale(0.32398780959120066)"><tspan class="line" dy="0em" x="0" y="0">2023</tspan><tspan class="line" dy="1.3em" x="0" y="0">0.50 ms</tspan><tspan class="line" dy="2.6em" x="0" y="0">2%</tspan></text></g></g><g class="slice cursor-pointer"><path class="surface" d="M720,755L1040.3664677851955,861.1676801990006A337.5,337.5 0,0,0 1050.1748513948164,824.9343800030487L720,755A0,0 0,0,1 720,755Z" style="pointer-events: none; stroke-width: 1; fill: rgb(255, 102, 146); fill-opacity: 1; stroke: rgb(255, 255, 255); stroke-opacity: 1;"/><g class="slicetext"><text data-notex="1" class="slicetext" text-anchor="middle" x="0" y="0" style="font-family: 'Open Sans', verdana, arial, sans-serif; font-size: 22px; fill: rgb(68, 68, 68); fill-opacity: 1; white-space: pre;" transform="translate(1028.612550523574,832.8173704022645)scale(0.2883549407501281)"><tspan class="line" dy="0em" x="0" y="0">2015</tspan><tspan class="line" dy="1.3em" x="0" y="0">0.44 ms</tspan><tspan class="line" dy="2.6em" x="0" y="0">2%</tspan></text></g></g><g class="slice cursor-pointer"><path class="surface" d="M720,755L1050.1748513948164,824.9343800030487A337.5,337.5 0,0,0 1055.4192038635006,792.4193489998885L720,755A0,0 0,0,1 720,755Z" style="pointer-events: none; stroke-width: 1; fill: rgb(182, 232, 128); fill-opacity: 1; stroke: rgb(255, 255, 255); stroke-opacity: 1;"/><g class="slicetext"><text data-notex="1" class="slicetext" text-anchor="middle" x="0" y="0" style="font-family: 'Open Sans', verdana, arial, sans-serif; font-size: 22px; fill: rgb(68, 68, 68); fill-opacity: 1; white-space: pre;" transform="translate(1037.6927224362523,801.185552444124)scale(0.25464681806689304)"><tspan class="line" dy="0em" x="0" y="0">2021</tspan><tspan class="line" dy="1.3em" x="0" y="0">0.39 ms</tspan><tspan class="line" dy="2.6em" x="0" y="0">2%</tspan></text></g></g><g class="slice cursor-pointer"><path class="surface" d="M720,755L1055.4192038635006,792.4193489998885A337.5,337.5 0,0,0 1057.0007886978308,773.3498887473477L720,755A0,0 0,0,1 720,755Z" style="pointer-events: none; stroke-width: 1; fill: rgb(255, 151, 255); fill-opacity: 1; stroke: rgb(255, 255, 255); stroke-opacity: 1;"/><g class="slicetext"><text data-notex="1" class="slicetext" text-anchor="middle" x="0" y="0" style="font-family: 'Open Sans', verdana, arial, sans-serif; font-size: 22px; fill: rgb(68, 68, 68); fill-opacity: 1; white-space: pre;" transform="translate(1047.0732788432188,779.1314794956292)scale(0.15088773882148973)"><tspan class="line" dy="0em" x="0" y="0">2020</tspan><tspan class="line" dy="1.3em" x="0" y="0">0.22 ms</tspan><tspan class="line" dy="2.6em" x="0" y="0">1%</tspan></text></g></g><g class="slice cursor-pointer"><path class="surface" d="M720,755L1057.0007886978308,773.3498887473477A337.5,337.5 0,0,0 1057.5,755.0000000000001L720,755A0,0 0,0,1 720,755Z" style="pointer-events: none; stroke-width: 1; fill: rgb(254, 203, 82); fill-opacity: 1; stroke: rgb(255, 255, 255); stroke-opacity: 1;"/><g class="slicetext"><text data-notex="1" class="slicetext" text-anchor="middle" x="0" y="0" style="font-family: 'Open Sans', verdana, arial, sans-serif; font-size: 22px; fill: rgb(68, 68, 68); fill-opacity: 1; white-space: pre;" transform="translate(1048.443137163279,761.0585862022801)scale(0.14491330352119813)"><tspan class="line" dy="0em" x="0" y="0">2022</tspan><tspan class="line" dy="1.3em" x="0" y="0">0.22 ms</tspan><tspan class="line" dy="2.6em" x="0" y="0">1%</tspan></text></g></g><g class="slice"><path class="surface" d="M1057.5,755L1395,755A675,675 0,0,0 174.8179717069096,357.00307033064695L447.4089858534548,556.0015351653235A337.5,337.5 0,0,1 1057.5,755Z" style="pointer-events: none; stroke-width: 1; fill: rgb(99, 110, 250); fill-opacity: 1; stroke: rgb(255, 255, 255); stroke-opacity: 1; opacity: 0.7;"/><g class="slicetext"><text data-notex="1" class="slicetext" text-anchor="middle" x="0" y="0" style="font-family: 'Open Sans', verdana, arial, sans-serif; font-size: 22px; fill: rgb(255, 255, 255); fill-opacity: 1; white-space: pre;" transform="translate(876.9876764788676,253.8544193221648)"><tspan class="line" dy="0em" x="0" y="0">03</tspan><tspan class="line" dy="1.3em" x="0" y="0">9.93 ms</tspan><tspan class="line" dy="2.6em" x="0" y="0">78%</tspan></text></g></g><g class="slice"><path class="surface" d="M447.4089858534548,556.0015351653235L174.8179717069096,357.00307033064695A675,675 0,0,0 58.06880132434537,622.8179731589389L389.0344006621727,688.9089865794695A337.5,337.5 0,0,1 447.4089858534548,556.0015351653235Z" style="pointer-events: none; stroke-width: 1; fill: rgb(99, 110, 250); fill-opacity: 1; stroke: rgb(255, 255, 255); stroke-opacity: 1; opacity: 0.7;"/><g class="slicetext"><text data-notex="1" class="slicetext" text-anchor="middle" x="0" y="0" style="font-family: 'Open Sans', verdana, arial, sans-serif; font-size: 22px; fill: rgb(255, 255, 255); fill-opacity: 1; white-space: pre;" transform="translate(211.36695388815508,511.75055600095686)"><tspan class="line" dy="0em" x="0" y="0">02</tspan><tspan class="line" dy="1.3em" x="0" y="0">1.71 ms</tspan><tspan class="line" dy="2.6em" x="0" y="0">13%</tspan></text></g></g><g class="slice"><path class="surface" d="M389.0344006621727,688.9089865794695L58.06880132434537,622.8179731589389A675,675 0,0,0 47.514698941818324,813.2109943282774L383.75734947090916,784.1054971641387A337.5,337.5 0,0,1 389.0344006621727,688.9089865794695Z" style="pointer-events: none; stroke-width: 1; fill: rgb(99, 110, 250); fill-opacity: 1; stroke: rgb(255, 255, 255); stroke-opacity: 1; opacity: 0.7;"/><g class="slicetext"><text data-notex="1" class="slicetext" text-anchor="middle" x="0" y="0" style="font-family: 'Open Sans', verdana, arial, sans-serif; font-size: 22px; fill: rgb(255, 255, 255); fill-opacity: 1; white-space: pre;" transform="translate(129.4490669834929,702.4122848255299)"><tspan class="line" dy="0em" x="0" y="0">04</tspan><tspan class="line" dy="1.3em" x="0" y="0">1.12 ms</tspan><tspan class="line" dy="2.6em" x="0" y="0">9%</tspan></text></g></g><g class="slice"><path class="surface" d="M383.75734947090916,784.1054971641387L47.514698941818324,813.2109943282774A675,675 0,0,0 47.55348495576891,813.6573474073676L383.77674247788445,784.3286737036838A337.5,337.5 0,0,1 383.75734947090916,784.1054971641387Z" style="pointer-events: none; stroke-width: 1; fill: rgb(99, 110, 250); fill-opacity: 1; stroke: rgb(255, 255, 255); stroke-opacity: 1; opacity: 0.7;"/><g class="slicetext"><text data-notex="1" class="slicetext" text-anchor="middle" x="0" y="0" style="font-family: 'Open Sans', verdana, arial, sans-serif; font-size: 22px; fill: rgb(255, 255, 255); fill-opacity: 1; white-space: pre;" transform="translate(47.75715741189197,813.3472546696371)scale(0.003401890568491438)"><tspan class="line" dy="0em" x="0" y="0">01</tspan><tspan class="line" dy="1.3em" x="0" y="0">0.00 ms</tspan><tspan class="line" dy="2.6em" x="0" y="0">0.0206%</tspan></text></g></g><g class="slice"><path class="surface" d="M383.77674247788445,784.3286737036838L47.55348495576891,813.6573474073676A675,675 0,0,0 786.2676055079705,1426.739238440215L753.1338027539853,1090.8696192201076A337.5,337.5 0,0,1 383.77674247788445,784.3286737036838Z" style="pointer-events: none; stroke-width: 1; fill: rgb(239, 85, 59); fill-opacity: 1; stroke: rgb(255, 255, 255); stroke-opacity: 1; opacity: 0.7;"/><g class="slicetext"><text data-notex="1" class="slicetext" text-anchor="middle" x="0" y="0" style="font-family: 'Open Sans', verdana, arial, sans-serif; font-size: 22px; fill: rgb(68, 68, 68); fill-opacity: 1; white-space: pre;" transform="translate(396.68947590709047,1124.7114844009711)"><tspan class="line" dy="0em" x="0" y="0">04</tspan><tspan class="line" dy="1.3em" x="0" y="0">6.26 ms</tspan><tspan class="line" dy="2.6em" x="0" y="0">95%</tspan></text></g></g><g class="slice"><path class="surface" d="M753.1338027539853,1090.8696192201076L786.2676055079705,1426.739238440215A675,675 0,0,0 812.4953129571186,1423.6326473340685L766.2476564785593,1089.3163236670343A337.5,337.5 0,0,1 753.1338027539853,1090.8696192201076Z" style="pointer-events: none; stroke-width: 1; fill: rgb(239, 85, 59); fill-opacity: 1; stroke: rgb(255, 255, 255); stroke-opacity: 1; opacity: 0.7;"/><g class="slicetext"><text data-notex="1" class="slicetext" text-anchor="middle" x="0" y="0" style="font-family: 'Open Sans', verdana, arial, sans-serif; font-size: 22px; fill: rgb(68, 68, 68); fill-opacity: 1; white-space: pre;" transform="translate(797.8731644397039,1408.2820412438962)scale(0.21005758901594485)"><tspan class="line" dy="0em" x="0" y="0">01</tspan><tspan class="line" dy="1.3em" x="0" y="0">0.15 ms</tspan><tspan class="line" dy="2.6em" x="0" y="0">2%</tspan></text></g></g><g class="slice"><path class="surface" d="M766.2476564785593,1089.3163236670343L812.4953129571186,1423.6326473340685A675,675 0,0,0 830.9706584918603,1420.8156749085163L775.4853292459301,1087.9078374542582A337.5,337.5 0,0,1 766.2476564785593,1089.3163236670343Z" style="pointer-events: none; stroke-width: 1; fill: rgb(239, 85, 59); fill-opacity: 1; stroke: rgb(255, 255, 255); stroke-opacity: 1; opacity: 0.7;"/><g class="slicetext"><text data-notex="1" class="slicetext" text-anchor="middle" x="0" y="0" style="font-family: 'Open Sans', verdana, arial, sans-serif; font-size: 22px; fill: rgb(68, 68, 68); fill-opacity: 1; white-space: pre;" transform="translate(820.3534815243198,1410.2091850408456)scale(0.149478623077533)"><tspan class="line" dy="0em" x="0" y="0">02</tspan><tspan class="line" dy="1.3em" x="0" y="0">0.11 ms</tspan><tspan class="line" dy="2.6em" x="0" y="0">2%</tspan></text></g></g><g class="slice"><path class="surface" d="M775.4853292459301,1087.9078374542582L830.9706584918603,1420.8156749085163A675,675 0,0,0 839.5333249185712,1419.3318329223064L779.7666624592856,1087.1659164611533A337.5,337.5 0,0,1 775.4853292459301,1087.9078374542582Z" style="pointer-events: none; stroke-width: 1; fill: rgb(239, 85, 59); fill-opacity: 1; stroke: rgb(255, 255, 255); stroke-opacity: 1; opacity: 0.7;"/><g class="slicetext"><text data-notex="1" class="slicetext" text-anchor="middle" x="0" y="0" style="font-family: 'Open Sans', verdana, arial, sans-serif; font-size: 22px; fill: rgb(68, 68, 68); fill-opacity: 1; white-space: pre;" transform="translate(834.5172040834838,1414.4436028788282)scale(0.07001875514147597)"><tspan class="line" dy="0em" x="0" y="0">03</tspan><tspan class="line" dy="1.3em" x="0" y="0">0.05 ms</tspan><tspan class="line" dy="2.6em" x="0" y="0">1%</tspan></text></g></g><g class="slice"><path class="surface" d="M779.7666624592858,1087.1659164611533L839.5333249185718,1419.3318329223064A675,675 0,0,0 1039.9234537072682,1349.3685588656363L879.9617268536341,1052.1842794328181A337.5,337.5 0,0,1 779.7666624592858,1087.1659164611533Z" style="pointer-events: none; stroke-width: 1; fill: rgb(0, 204, 150); fill-opacity: 1; stroke: rgb(255, 255, 255); stroke-opacity: 1; opacity: 0.7;"/><g class="slicetext"><text data-notex="1" class="slicetext" text-anchor="middle" x="0" y="0" style="font-family: 'Open Sans', verdana, arial, sans-serif; font-size: 22px; fill: rgb(68, 68, 68); fill-opacity: 1; white-space: pre;" transform="translate(912.2666475844715,1285.8421949135727)"><tspan class="line" dy="0em" x="0" y="0">01</tspan><tspan class="line" dy="1.3em" x="0" y="0">1.25 ms</tspan><tspan class="line" dy="2.6em" x="0" y="0">50%</tspan></text></g></g><g class="slice"><path class="surface" d="M879.9617268536341,1052.1842794328181L1039.9234537072682,1349.3685588656363A675,675 0,0,0 1121.7762485921357,1297.4028448185263L920.8881242960679,1026.2014224092632A337.5,337.5 0,0,1 879.9617268536341,1052.1842794328181Z" style="pointer-events: none; stroke-width: 1; fill: rgb(0, 204, 150); fill-opacity: 1; stroke: rgb(255, 255, 255); stroke-opacity: 1; opacity: 0.7;"/><g class="slicetext"><text data-notex="1" class="slicetext" text-anchor="middle" x="0" y="0" style="font-family: 'Open Sans', verdana, arial, sans-serif; font-size: 22px; fill: rgb(68, 68, 68); fill-opacity: 1; white-space: pre;" transform="translate(1057.5422447204764,1272.1114872430537)scale(0.7335284902615236)"><tspan class="line" dy="0em" x="0" y="0">02</tspan><tspan class="line" dy="1.3em" x="0" y="0">0.57 ms</tspan><tspan class="line" dy="2.6em" x="0" y="0">23%</tspan></text></g></g><g class="slice"><path class="surface" d="M920.8881242960679,1026.2014224092632L1121.7762485921357,1297.4028448185263A675,675 0,0,0 1184.8838575748111,1244.3955444896926L952.4419287874056,999.6977722448463A337.5,337.5 0,0,1 920.8881242960679,1026.2014224092632Z" style="pointer-events: none; stroke-width: 1; fill: rgb(0, 204, 150); fill-opacity: 1; stroke: rgb(255, 255, 255); stroke-opacity: 1; opacity: 0.7;"/><g class="slicetext"><text data-notex="1" class="slicetext" text-anchor="middle" x="0" y="0" style="font-family: 'Open Sans', verdana, arial, sans-serif; font-size: 22px; fill: rgb(68, 68, 68); fill-opacity: 1; white-space: pre;" transform="translate(1129.161082071419,1229.6212957827888)scale(0.6298565368766813)"><tspan class="line" dy="0em" x="0" y="0">03</tspan><tspan class="line" dy="1.3em" x="0" y="0">0.48 ms</tspan><tspan class="line" dy="2.6em" x="0" y="0">19%</tspan></text></g></g><g class="slice"><path class="surface" d="M952.4419287874056,999.6977722448463L1184.8838575748111,1244.3955444896926A675,675 0,0,0 1206.7581015506803,1222.6446841083277L963.3790507753401,988.8223420541639A337.5,337.5 0,0,1 952.4419287874056,999.6977722448463Z" style="pointer-events: none; stroke-width: 1; fill: rgb(0, 204, 150); fill-opacity: 1; stroke: rgb(255, 255, 255); stroke-opacity: 1; opacity: 0.7;"/><g class="slicetext"><text data-notex="1" class="slicetext" text-anchor="middle" x="0" y="0" style="font-family: 'Open Sans', verdana, arial, sans-serif; font-size: 22px; fill: rgb(68, 68, 68); fill-opacity: 1; white-space: pre;" transform="translate(1185.312772212334,1218.0974798756356)scale(0.24455598285124372)"><tspan class="line" dy="0em" x="0" y="0">04</tspan><tspan class="line" dy="1.3em" x="0" y="0">0.18 ms</tspan><tspan class="line" dy="2.6em" x="0" y="0">7%</tspan></text></g></g><g class="slice"><path class="surface" d="M963.3790507753404,988.8223420541638L1206.7581015506807,1222.6446841083275A675,675 0,0,0 1264.793661676374,1153.5283756487715L992.396830838187,954.2641878243858A337.5,337.5 0,0,1 963.3790507753404,988.8223420541638Z" style="pointer-events: none; stroke-width: 1; fill: rgb(171, 99, 250); fill-opacity: 1; stroke: rgb(255, 255, 255); stroke-opacity: 1; opacity: 0.7;"/><g class="slicetext"><text data-notex="1" class="slicetext" text-anchor="middle" x="0" y="0" style="font-family: 'Open Sans', verdana, arial, sans-serif; font-size: 22px; fill: rgb(68, 68, 68); fill-opacity: 1; white-space: pre;" transform="translate(1204.5396925930443,1148.2403011026809)scale(0.6859830511590372)"><tspan class="line" dy="0em" x="0" y="0">04</tspan><tspan class="line" dy="1.3em" x="0" y="0">0.53 ms</tspan><tspan class="line" dy="2.6em" x="0" y="0">81%</tspan></text></g></g><g class="slice"><path class="surface" d="M992.396830838187,954.2641878243858L1264.793661676374,1153.5283756487715A675,675 0,0,0 1270.7400243774932,1145.2696831021829L995.3700121887466,950.1348415510914A337.5,337.5 0,0,1 992.396830838187,954.2641878243858Z" style="pointer-events: none; stroke-width: 1; fill: rgb(171, 99, 250); fill-opacity: 1; stroke: rgb(255, 255, 255); stroke-opacity: 1; opacity: 0.7;"/><g class="slicetext"><text data-notex="1" class="slicetext" text-anchor="middle" x="0" y="0" style="font-family: 'Open Sans', verdana, arial, sans-serif; font-size: 22px; fill: rgb(68, 68, 68); fill-opacity: 1; white-space: pre;" transform="translate(1263.6839564321485,1144.8333494540327)scale(0.08190539786723693)"><tspan class="line" dy="0em" x="0" y="0">03</tspan><tspan class="line" dy="1.3em" x="0" y="0">0.06 ms</tspan><tspan class="line" dy="2.6em" x="0" y="0">9%</tspan></text></g></g><g class="slice"><path class="surface" d="M995.3700121887466,950.1348415510914L1270.7400243774932,1145.2696831021829A675,675 0,0,0 1275.322935773729,1138.7205193935386L997.6614678868644,946.8602596967693A337.5,337.5 0,0,1 995.3700121887466,950.1348415510914Z" style="pointer-events: none; stroke-width: 1; fill: rgb(171, 99, 250); fill-opacity: 1; stroke: rgb(255, 255, 255); stroke-opacity: 1; opacity: 0.7;"/><g class="slicetext"><text data-notex="1" class="slicetext" text-anchor="middle" x="0" y="0" style="font-family: 'Open Sans', verdana, arial, sans-serif; font-size: 22px; fill: rgb(68, 68, 68); fill-opacity: 1; white-space: pre;" transform="translate(1269.7858676004794,1138.4447422094852)scale(0.06443700622966653)"><tspan class="line" dy="0em" x="0" y="0">01</tspan><tspan class="line" dy="1.3em" x="0" y="0">0.05 ms</tspan><tspan class="line" dy="2.6em" x="0" y="0">7%</tspan></text></g></g><g class="slice"><path class="surface" d="M997.6614678868644,946.8602596967693L1275.322935773729,1138.7205193935386A675,675 0,0,0 1277.1278551955102,1136.0952019709125L998.5639275977551,945.5476009854563A337.5,337.5 0,0,1 997.6614678868644,946.8602596967693Z" style="pointer-events: none; stroke-width: 1; fill: rgb(171, 99, 250); fill-opacity: 1; stroke: rgb(255, 255, 255); stroke-opacity: 1; opacity: 0.7;"/><g class="slicetext"><text data-notex="1" class="slicetext" text-anchor="middle" x="0" y="0" style="font-family: 'Open Sans', verdana, arial, sans-serif; font-size: 22px; fill: rgb(68, 68, 68); fill-opacity: 1; white-space: pre;" transform="translate(1274.9173761633974,1135.9969421256449)scale(0.025773711796052742)"><tspan class="line" dy="0em" x="0" y="0">02</tspan><tspan class="line" dy="1.3em" x="0" y="0">0.02 ms</tspan><tspan class="line" dy="2.6em" x="0" y="0">3%</tspan></text></g></g><g class="slice"><path class="surface" d="M998.5639275977551,945.5476009854563L1277.1278551955102,1136.0952019709125A675,675 0,0,0 1308.2578896049351,1086.0251581338612L1014.1289448024676,920.5125790669306A337.5,337.5 0,0,1 998.5639275977551,945.5476009854563Z" style="pointer-events: none; stroke-width: 1; fill: rgb(255, 161, 90); fill-opacity: 1; stroke: rgb(255, 255, 255); stroke-opacity: 1; opacity: 0.7;"/><g class="slicetext"><text data-notex="1" class="slicetext" text-anchor="middle" x="0" y="0" style="font-family: 'Open Sans', verdana, arial, sans-serif; font-size: 22px; fill: rgb(68, 68, 68); fill-opacity: 1; white-space: pre;" transform="translate(1269.2523862531398,1087.392787472867)scale(0.45808714834815745)"><tspan class="line" dy="0em" x="0" y="0">04</tspan><tspan class="line" dy="1.3em" x="0" y="0">0.35 ms</tspan><tspan class="line" dy="2.6em" x="0" y="0">57%</tspan></text></g></g><g class="slice"><path class="surface" d="M1014.1289448024676,920.5125790669306L1308.2578896049351,1086.0251581338612A675,675 0,0,0 1326.8564723416785,1050.550709654052L1023.4282361708392,902.775354827026A337.5,337.5 0,0,1 1014.1289448024676,920.5125790669306Z" style="pointer-events: none; stroke-width: 1; fill: rgb(255, 161, 90); fill-opacity: 1; stroke: rgb(255, 255, 255); stroke-opacity: 1; opacity: 0.7;"/><g class="slicetext"><text data-notex="1" class="slicetext" text-anchor="middle" x="0" y="0" style="font-family: 'Open Sans', verdana, arial, sans-serif; font-size: 22px; fill: rgb(68, 68, 68); fill-opacity: 1; white-space: pre;" transform="translate(1300.5942409771417,1053.1325929022541)scale(0.31544077275647153)"><tspan class="line" dy="0em" x="0" y="0">03</tspan><tspan class="line" dy="1.3em" x="0" y="0">0.23 ms</tspan><tspan class="line" dy="2.6em" x="0" y="0">39%</tspan></text></g></g><g class="slice"><path class="surface" d="M1023.4282361708392,902.775354827026L1326.8564723416785,1050.550709654052A675,675 0,0,0 1328.8477922262214,1046.426433086047L1024.4238961131107,900.7132165430235A337.5,337.5 0,0,1 1023.4282361708392,902.775354827026Z" style="pointer-events: none; stroke-width: 1; fill: rgb(255, 161, 90); fill-opacity: 1; stroke: rgb(255, 255, 255); stroke-opacity: 1; opacity: 0.7;"/><g class="slicetext"><text data-notex="1" class="slicetext" text-anchor="middle" x="0" y="0" style="font-family: 'Open Sans', verdana, arial, sans-serif; font-size: 22px; fill: rgb(68, 68, 68); fill-opacity: 1; white-space: pre;" transform="translate(1325.8004640026888,1046.7632124780812)scale(0.03701240995599189)"><tspan class="line" dy="0em" x="0" y="0">02</tspan><tspan class="line" dy="1.3em" x="0" y="0">0.03 ms</tspan><tspan class="line" dy="2.6em" x="0" y="0">4%</tspan></text></g></g><g class="slice"><path class="surface" d="M1024.4238961131107,900.7132165430235L1328.8477922262214,1046.426433086047A675,675 0,0,0 1328.9950941336451,1046.1184901739368L1024.4975470668226,900.5592450869684A337.5,337.5 0,0,1 1024.4238961131107,900.7132165430235Z" style="pointer-events: none; stroke-width: 1; fill: rgb(255, 161, 90); fill-opacity: 1; stroke: rgb(255, 255, 255); stroke-opacity: 1; opacity: 0.7;"/><g class="slicetext"><text data-notex="1" class="slicetext" text-anchor="middle" x="0" y="0" style="font-family: 'Open Sans', verdana, arial, sans-serif; font-size: 22px; fill: rgb(68, 68, 68); fill-opacity: 1; white-space: pre;" transform="translate(1328.7675301137087,1046.1439016377608)scale(0.002767387645397769)"><tspan class="line" dy="0em" x="0" y="0">01</tspan><tspan class="line" dy="1.3em" x="0" y="0">0.00 ms</tspan><tspan class="line" dy="2.6em" x="0" y="0">0.328%</tspan></text></g></g><g class="slice"><path class="surface" d="M1024.4975470668228,900.5592450869682L1328.9950941336456,1046.1184901739364A675,675 0,0,0 1349.396185786176,998.8963741383084L1034.698092893088,876.9481870691542A337.5,337.5 0,0,1 1024.4975470668228,900.5592450869682Z" style="pointer-events: none; stroke-width: 1; fill: rgb(25, 211, 243); fill-opacity: 1; stroke: rgb(255, 255, 255); stroke-opacity: 1; opacity: 0.7;"/><g class="slicetext"><text data-notex="1" class="slicetext" text-anchor="middle" x="0" y="0" style="font-family: 'Open Sans', verdana, arial, sans-serif; font-size: 22px; fill: rgb(68, 68, 68); fill-opacity: 1; white-space: pre;" transform="translate(1316.9012404142222,1004.8989514983261)scale(0.4018204112769588)"><tspan class="line" dy="0em" x="0" y="0">01</tspan><tspan class="line" dy="1.3em" x="0" y="0">0.30 ms</tspan><tspan class="line" dy="2.6em" x="0" y="0">61%</tspan></text></g></g><g class="slice"><path class="surface" d="M1034.698092893088,876.9481870691542L1349.396185786176,998.8963741383084A675,675 0,0,0 1354.4730923664495,985.3668705846284L1037.2365461832246,870.1834352923141A337.5,337.5 0,0,1 1034.698092893088,876.9481870691542Z" style="pointer-events: none; stroke-width: 1; fill: rgb(25, 211, 243); fill-opacity: 1; stroke: rgb(255, 255, 255); stroke-opacity: 1; opacity: 0.7;"/><g class="slicetext"><text data-notex="1" class="slicetext" text-anchor="middle" x="0" y="0" style="font-family: 'Open Sans', verdana, arial, sans-serif; font-size: 22px; fill: rgb(68, 68, 68); fill-opacity: 1; white-space: pre;" transform="translate(1345.2777384746278,987.3320586923472)scale(0.11593954967333703)"><tspan class="line" dy="0em" x="0" y="0">03</tspan><tspan class="line" dy="1.3em" x="0" y="0">0.08 ms</tspan><tspan class="line" dy="2.6em" x="0" y="0">17%</tspan></text></g></g><g class="slice"><path class="surface" d="M1037.2365461832246,870.1834352923141L1354.4730923664495,985.3668705846284A675,675 0,0,0 1359.103786776064,972.189663033247L1039.551893388032,863.5948315166235A337.5,337.5 0,0,1 1037.2365461832246,870.1834352923141Z" style="pointer-events: none; stroke-width: 1; fill: rgb(25, 211, 243); fill-opacity: 1; stroke: rgb(255, 255, 255); stroke-opacity: 1; opacity: 0.7;"/><g class="slicetext"><text data-notex="1" class="slicetext" text-anchor="middle" x="0" y="0" style="font-family: 'Open Sans', verdana, arial, sans-serif; font-size: 22px; fill: rgb(68, 68, 68); fill-opacity: 1; white-space: pre;" transform="translate(1350.3013878100319,974.2732461642215)scale(0.11210001941071517)"><tspan class="line" dy="0em" x="0" y="0">04</tspan><tspan class="line" dy="1.3em" x="0" y="0">0.08 ms</tspan><tspan class="line" dy="2.6em" x="0" y="0">16%</tspan></text></g></g><g class="slice"><path class="surface" d="M1039.551893388032,863.5948315166235L1359.103786776064,972.189663033247A675,675 0,0,0 1360.732935570391,967.3353603980014L1040.3664677851955,861.1676801990006A337.5,337.5 0,0,1 1039.551893388032,863.5948315166235Z" style="pointer-events: none; stroke-width: 1; fill: rgb(25, 211, 243); fill-opacity: 1; stroke: rgb(255, 255, 255); stroke-opacity: 1; opacity: 0.7;"/><g class="slicetext"><text data-notex="1" class="slicetext" text-anchor="middle" x="0" y="0" style="font-family: 'Open Sans', verdana, arial, sans-serif; font-size: 22px; fill: rgb(68, 68, 68); fill-opacity: 1; white-space: pre;" transform="translate(1357.5049839295075,968.1314136007135)scale(0.04136432203529451)"><tspan class="line" dy="0em" x="0" y="0">02</tspan><tspan class="line" dy="1.3em" x="0" y="0">0.03 ms</tspan><tspan class="line" dy="2.6em" x="0" y="0">6%</tspan></text></g></g><g class="slice"><path class="surface" d="M1040.3664677851955,861.1676801990006L1360.732935570391,967.3353603980014A675,675 0,0,0 1378.6936984242584,902.4707145713077L1049.3468492121292,828.7353572856538A337.5,337.5 0,0,1 1040.3664677851955,861.1676801990006Z" style="pointer-events: none; stroke-width: 1; fill: rgb(255, 102, 146); fill-opacity: 1; stroke: rgb(255, 255, 255); stroke-opacity: 1; opacity: 0.7;"/><g class="slicetext"><text data-notex="1" class="slicetext" text-anchor="middle" x="0" y="0" style="font-family: 'Open Sans', verdana, arial, sans-serif; font-size: 22px; fill: rgb(68, 68, 68); fill-opacity: 1; white-space: pre;" transform="translate(1339.630121563147,916.2530708165609)scale(0.5198608075221998)"><tspan class="line" dy="0em" x="0" y="0">03</tspan><tspan class="line" dy="1.3em" x="0" y="0">0.39 ms</tspan><tspan class="line" dy="2.6em" x="0" y="0">90%</tspan></text></g></g><g class="slice"><path class="surface" d="M1049.3468492121292,828.7353572856538L1378.6936984242584,902.4707145713077A675,675 0,0,0 1379.749867347186,897.671344478737L1049.874933673593,826.3356722393685A337.5,337.5 0,0,1 1049.3468492121292,828.7353572856538Z" style="pointer-events: none; stroke-width: 1; fill: rgb(255, 102, 146); fill-opacity: 1; stroke: rgb(255, 255, 255); stroke-opacity: 1; opacity: 0.7;"/><g class="slicetext"><text data-notex="1" class="slicetext" text-anchor="middle" x="0" y="0" style="font-family: 'Open Sans', verdana, arial, sans-serif; font-size: 22px; fill: rgb(68, 68, 68); fill-opacity: 1; white-space: pre;" transform="translate(1376.8351690081909,898.7576198902532)scale(0.03970476721516417)"><tspan class="line" dy="0em" x="0" y="0">02</tspan><tspan class="line" dy="1.3em" x="0" y="0">0.03 ms</tspan><tspan class="line" dy="2.6em" x="0" y="0">7%</tspan></text></g></g><g class="slice"><path class="surface" d="M1049.874933673593,826.3356722393685L1379.749867347186,897.671344478737A675,675 0,0,0 1380.349702789633,894.8687600060973L1050.1748513948164,824.9343800030487A337.5,337.5 0,0,1 1049.874933673593,826.3356722393685Z" style="pointer-events: none; stroke-width: 1; fill: rgb(255, 102, 146); fill-opacity: 1; stroke: rgb(255, 255, 255); stroke-opacity: 1; opacity: 0.7;"/><g class="slicetext"><text data-notex="1" class="slicetext" text-anchor="middle" x="0" y="0" style="font-family: 'Open Sans', verdana, arial, sans-serif; font-size: 22px; fill: rgb(68, 68, 68); fill-opacity: 1; white-space: pre;" transform="translate(1378.6529489572158,895.5106985925877)scale(0.02319160873829605)"><tspan class="line" dy="0em" x="0" y="0">01</tspan><tspan class="line" dy="1.3em" x="0" y="0">0.02 ms</tspan><tspan class="line" dy="2.6em" x="0" y="0">4%</tspan></text></g></g><g class="slice"><path class="surface" d="M1050.1748513948164,824.9343800030487L1380.349702789633,894.8687600060973A675,675 0,0,0 1385.9869034261055,864.9383666647241L1052.9934517130528,809.969183332362A337.5,337.5 0,0,1 1050.1748513948164,824.9343800030487Z" style="pointer-events: none; stroke-width: 1; fill: rgb(182, 232, 128); fill-opacity: 1; stroke: rgb(255, 255, 255); stroke-opacity: 1; opacity: 0.7;"/><g class="slicetext"><text data-notex="1" class="slicetext" text-anchor="middle" x="0" y="0" style="font-family: 'Open Sans', verdana, arial, sans-serif; font-size: 22px; fill: rgb(68, 68, 68); fill-opacity: 1; white-space: pre;" transform="translate(1368.7021118414868,872.3843221745838)scale(0.24152382767304073)"><tspan class="line" dy="0em" x="0" y="0">03</tspan><tspan class="line" dy="1.3em" x="0" y="0">0.18 ms</tspan><tspan class="line" dy="2.6em" x="0" y="0">46%</tspan></text></g></g><g class="slice"><path class="surface" d="M1052.9934517130528,809.969183332362L1385.9869034261055,864.9383666647241A675,675 0,0,0 1390.0754981402529,836.3868957025147L1055.0377490701264,795.6934478512574A337.5,337.5 0,0,1 1052.9934517130528,809.969183332362Z" style="pointer-events: none; stroke-width: 1; fill: rgb(182, 232, 128); fill-opacity: 1; stroke: rgb(255, 255, 255); stroke-opacity: 1; opacity: 0.7;"/><g class="slicetext"><text data-notex="1" class="slicetext" text-anchor="middle" x="0" y="0" style="font-family: 'Open Sans', verdana, arial, sans-serif; font-size: 22px; fill: rgb(68, 68, 68); fill-opacity: 1; white-space: pre;" transform="translate(1374.2066040015693,844.1370653248277)scale(0.22899315577051216)"><tspan class="line" dy="0em" x="0" y="0">04</tspan><tspan class="line" dy="1.3em" x="0" y="0">0.17 ms</tspan><tspan class="line" dy="2.6em" x="0" y="0">44%</tspan></text></g></g><g class="slice"><path class="surface" d="M1055.0377490701264,795.6934478512574L1390.0754981402529,836.3868957025147A675,675 0,0,0 1390.7032955862983,831.0400505633606L1055.3516477931491,793.0200252816803A337.5,337.5 0,0,1 1055.0377490701264,795.6934478512574Z" style="pointer-events: none; stroke-width: 1; fill: rgb(182, 232, 128); fill-opacity: 1; stroke: rgb(255, 255, 255); stroke-opacity: 1; opacity: 0.7;"/><g class="slicetext"><text data-notex="1" class="slicetext" text-anchor="middle" x="0" y="0" style="font-family: 'Open Sans', verdana, arial, sans-serif; font-size: 22px; fill: rgb(68, 68, 68); fill-opacity: 1; white-space: pre;" transform="translate(1387.7319237150393,832.538261616833)scale(0.04348199227648435)"><tspan class="line" dy="0em" x="0" y="0">01</tspan><tspan class="line" dy="1.3em" x="0" y="0">0.03 ms</tspan><tspan class="line" dy="2.6em" x="0" y="0">8%</tspan></text></g></g><g class="slice"><path class="surface" d="M1055.3516477931491,793.0200252816803L1390.7032955862983,831.0400505633606A675,675 0,0,0 1390.8384077270011,829.838697999777L1055.4192038635006,792.4193489998885A337.5,337.5 0,0,1 1055.3516477931491,793.0200252816803Z" style="pointer-events: none; stroke-width: 1; fill: rgb(182, 232, 128); fill-opacity: 1; stroke: rgb(255, 255, 255); stroke-opacity: 1; opacity: 0.7;"/><g class="slicetext"><text data-notex="1" class="slicetext" text-anchor="middle" x="0" y="0" style="font-family: 'Open Sans', verdana, arial, sans-serif; font-size: 22px; fill: rgb(68, 68, 68); fill-opacity: 1; white-space: pre;" transform="translate(1390.1709817530611,830.1774745708532)scale(0.009794409434917942)"><tspan class="line" dy="0em" x="0" y="0">02</tspan><tspan class="line" dy="1.3em" x="0" y="0">0.01 ms</tspan><tspan class="line" dy="2.6em" x="0" y="0">2%</tspan></text></g></g><g class="slice"><path class="surface" d="M1055.4192038635006,792.4193489998885L1390.8384077270011,829.838697999777A675,675 0,0,0 1392.1974958618025,816.4453135488943L1056.0987479309013,785.7226567744472A337.5,337.5 0,0,1 1055.4192038635006,792.4193489998885Z" style="pointer-events: none; stroke-width: 1; fill: rgb(255, 151, 255); fill-opacity: 1; stroke: rgb(255, 255, 255); stroke-opacity: 1; opacity: 0.7;"/><g class="slicetext"><text data-notex="1" class="slicetext" text-anchor="middle" x="0" y="0" style="font-family: 'Open Sans', verdana, arial, sans-serif; font-size: 22px; fill: rgb(68, 68, 68); fill-opacity: 1; white-space: pre;" transform="translate(1384.9207699099193,820.3268676083004)scale(0.10808680018161969)"><tspan class="line" dy="0em" x="0" y="0">01</tspan><tspan class="line" dy="1.3em" x="0" y="0">0.08 ms</tspan><tspan class="line" dy="2.6em" x="0" y="0">35%</tspan></text></g></g><g class="slice"><path class="surface" d="M1056.0987479309013,785.7226567744472L1392.1974958618025,816.4453135488943A675,675 0,0,0 1393.123465402372,805.2971204414522L1056.561732701186,780.148560220726A337.5,337.5 0,0,1 1056.0987479309013,785.7226567744472Z" style="pointer-events: none; stroke-width: 1; fill: rgb(255, 151, 255); fill-opacity: 1; stroke: rgb(255, 255, 255); stroke-opacity: 1; opacity: 0.7;"/><g class="slicetext"><text data-notex="1" class="slicetext" text-anchor="middle" x="0" y="0" style="font-family: 'Open Sans', verdana, arial, sans-serif; font-size: 22px; fill: rgb(68, 68, 68); fill-opacity: 1; white-space: pre;" transform="translate(1387.1552883167678,808.6279805926996)scale(0.0899664609306792)"><tspan class="line" dy="0em" x="0" y="0">04</tspan><tspan class="line" dy="1.3em" x="0" y="0">0.07 ms</tspan><tspan class="line" dy="2.6em" x="0" y="0">29%</tspan></text></g></g><g class="slice"><path class="surface" d="M1056.561732701186,780.148560220726L1393.123465402372,805.2971204414522A675,675 0,0,0 1393.795497129185,795.3066749860928L1056.8977485645923,775.1533374930464A337.5,337.5 0,0,1 1056.561732701186,780.148560220726Z" style="pointer-events: none; stroke-width: 1; fill: rgb(255, 151, 255); fill-opacity: 1; stroke: rgb(255, 255, 255); stroke-opacity: 1; opacity: 0.7;"/><g class="slicetext"><text data-notex="1" class="slicetext" text-anchor="middle" x="0" y="0" style="font-family: 'Open Sans', verdana, arial, sans-serif; font-size: 22px; fill: rgb(68, 68, 68); fill-opacity: 1; white-space: pre;" transform="translate(1388.5195607703645,798.3696102960171)scale(0.08059776625351087)"><tspan class="line" dy="0em" x="0" y="0">02</tspan><tspan class="line" dy="1.3em" x="0" y="0">0.06 ms</tspan><tspan class="line" dy="2.6em" x="0" y="0">26%</tspan></text></g></g><g class="slice"><path class="surface" d="M1056.8977485645923,775.1533374930464L1393.795497129185,795.3066749860928A675,675 0,0,0 1394.0015773956616,791.6997774946952L1057.0007886978308,773.3498887473477A337.5,337.5 0,0,1 1056.8977485645923,775.1533374930464Z" style="pointer-events: none; stroke-width: 1; fill: rgb(255, 151, 255); fill-opacity: 1; stroke: rgb(255, 255, 255); stroke-opacity: 1; opacity: 0.7;"/><g class="slicetext"><text data-notex="1" class="slicetext" text-anchor="middle" x="0" y="0" style="font-family: 'Open Sans', verdana, arial, sans-serif; font-size: 22px; fill: rgb(68, 68, 68); fill-opacity: 1; white-space: pre;" transform="translate(1392.1023150435276,792.8205794644916)scale(0.029217827595716953)"><tspan class="line" dy="0em" x="0" y="0">03</tspan><tspan class="line" dy="1.3em" x="0" y="0">0.02 ms</tspan><tspan class="line" dy="2.6em" x="0" y="0">9%</tspan></text></g></g><g class="slice"><path class="surface" d="M1057.0007886978308,773.3498887473477L1394.0015773956616,791.6997774946952A675,675 0,0,0 1394.844398247547,769.4926931212369L1057.4221991237735,762.2463465606185A337.5,337.5 0,0,1 1057.0007886978308,773.3498887473477Z" style="pointer-events: none; stroke-width: 1; fill: rgb(254, 203, 82); fill-opacity: 1; stroke: rgb(255, 255, 255); stroke-opacity: 1; opacity: 0.7;"/><g class="slicetext"><text data-notex="1" class="slicetext" text-anchor="middle" x="0" y="0" style="font-family: 'Open Sans', verdana, arial, sans-serif; font-size: 22px; fill: rgb(68, 68, 68); fill-opacity: 1; white-space: pre;" transform="translate(1383.5906637171443,776.6656672103771)scale(0.17728836987424068)"><tspan class="line" dy="0em" x="0" y="0">03</tspan><tspan class="line" dy="1.3em" x="0" y="0">0.13 ms</tspan><tspan class="line" dy="2.6em" x="0" y="0">61%</tspan></text></g></g><g class="slice"><path class="surface" d="M1057.4221991237735,762.2463465606185L1394.844398247547,769.4926931212369A675,675 0,0,0 1394.954832298075,762.8086079090692L1057.4774161490375,758.9043039545346A337.5,337.5 0,0,1 1057.4221991237735,762.2463465606185Z" style="pointer-events: none; stroke-width: 1; fill: rgb(254, 203, 82); fill-opacity: 1; stroke: rgb(255, 255, 255); stroke-opacity: 1; opacity: 0.7;"/><g class="slicetext"><text data-notex="1" class="slicetext" text-anchor="middle" x="0" y="0" style="font-family: 'Open Sans', verdana, arial, sans-serif; font-size: 22px; fill: rgb(68, 68, 68); fill-opacity: 1; white-space: pre;" transform="translate(1391.5823151119412,765.0250190561982)scale(0.0539415084767428)"><tspan class="line" dy="0em" x="0" y="0">01</tspan><tspan class="line" dy="1.3em" x="0" y="0">0.04 ms</tspan><tspan class="line" dy="2.6em" x="0" y="0">18%</tspan></text></g></g><g class="slice"><path class="surface" d="M1057.4774161490375,758.9043039545346L1394.954832298075,762.8086079090692A675,675 0,0,0 1394.9979658618727,756.6571307535556L1057.4989829309363,755.8285653767779A337.5,337.5 0,0,1 1057.4774161490375,758.9043039545346Z" style="pointer-events: none; stroke-width: 1; fill: rgb(254, 203, 82); fill-opacity: 1; stroke: rgb(255, 255, 255); stroke-opacity: 1; opacity: 0.7;"/><g class="slicetext"><text data-notex="1" class="slicetext" text-anchor="middle" x="0" y="0" style="font-family: 'Open Sans', verdana, arial, sans-serif; font-size: 22px; fill: rgb(68, 68, 68); fill-opacity: 1; white-space: pre;" transform="translate(1391.9216200753249,758.7256754197306)scale(0.04965725474687342)"><tspan class="line" dy="0em" x="0" y="0">04</tspan><tspan class="line" dy="1.3em" x="0" y="0">0.04 ms</tspan><tspan class="line" dy="2.6em" x="0" y="0">17%</tspan></text></g></g><g class="slice"><path class="surface" d="M1057.4989829309363,755.8285653767779L1394.9979658618727,756.6571307535556A675,675 0,0,0 1395,755.0000000000001L1057.5,755.0000000000001A337.5,337.5 0,0,1 1057.4989829309363,755.8285653767779Z" style="pointer-events: none; stroke-width: 1; fill: rgb(254, 203, 82); fill-opacity: 1; stroke: rgb(255, 255, 255); stroke-opacity: 1; opacity: 0.7;"/><g class="slicetext"><text data-notex="1" class="slicetext" text-anchor="middle" x="0" y="0" style="font-family: 'Open Sans', verdana, arial, sans-serif; font-size: 22px; fill: rgb(68, 68, 68); fill-opacity: 1; white-space: pre;" transform="translate(1394.1719419098704,755.5611183389927)scale(0.01342120248104955)"><tspan class="line" dy="0em" x="0" y="0">02</tspan><tspan class="line" dy="1.3em" x="0" y="0">0.01 ms</tspan><tspan class="line" dy="2.6em" x="0" y="0">5%</tspan></text></g></g></g></g><g class="glimages"/><defs id="topdefs-24f1bb"><g class="clips"/></defs><g class="layer-above"><g class="imagelayer"/><g class="shapelayer"/></g><g class="infolayer"><g class="g-gtitle"><text class="gtitle" x="720" y="40" text-anchor="middle" dy="0em" style="opacity: 1; font-family: 'Open Sans', verdana, arial, sans-serif; font-size: 31px; fill: rgb(42, 63, 95); fill-opacity: 1; white-space: pre;">Total time: 25 ms</text></g></g></svg>