<svg class="main-svg" xmlns="http://www.w3.org/2000/svg" xmlns:xlink="http://www.w3.org/1999/xlink" width="1440" height="1440" style="" viewBox="0 0 1440 1440"><rect x="0" y="0" width="1440" height="1440" style="fill: rgb(255, 255, 255); fill-opacity: 1;"/><defs id="defs-1a7256"><g class="clips"/><g class="gradients"/><g class="patterns"/></defs><g class="bglayer"/><g class="layer-below"><g class="imagelayer"/><g class="shapelayer"/></g><g class="cartesianlayer"/><g class="polarlayer"/><g class="smithlayer"/><g class="ternarylayer"/><g class="geolayer"/><g class="funnelarealayer"/><g class="pielayer"/><g class="iciclelayer"/><g class="treemaplayer"/><g class="sunburstlayer"><g class="trace sunburst" stroke-linejoin="round" style="opacity: 1;"><g class="slice cursor-pointer"><path class="surface" d="M720,755L1057.5,755A337.5,337.5 0,1,0 563.8586215923395,1054.2091575285685L720,755A0,0 0,1,1 720,755Z" style="pointer-events: none; stroke-width: 1; fill: rgb(99, 110, 250); fill-opacity: 1; stroke: rgb(255, 255, 255); stroke-opacity: 1;"/><g class="slicetext"><text data-notex="1" class="slicetext" text-anchor="middle" x="0" y="0" style="font-family: 'Open Sans', verdana, arial, sans-serif; font-size: 22px; fill: rgb(255, 255, 255); fill-opacity: 1; white-space: pre;" transform="translate(720,593.7625787438834)"><tspan class="line" dy="0em" x="0" y="0">2016</tspan><tspan class="line" dy="1.3em" x="0" y="0">335.26 ms</tspan><tspan class="line" dy="2.6em" x="0" y="0">67%</tspan></text></g></g><g class="slice cursor-pointer"><path class="surface" d="M720,755L563.8586215923395,1054.2091575285685A337.5,337.5 0,0,0 1039.5934132497055,863.4725781356887L720,755A0,0 0,0,1 720,755Z" style="pointer-events: none; stroke-width: 1; fill: rgb(239, 85, 59); fill-opacity: 1; stroke: rgb(255, 255, 255); stroke-opacity: 1;"/><g class="slicetext"><text data-notex="1" class="slicetext" text-anchor="middle" x="0" y="0" style="font-family: 'Open Sans', verdana, arial, sans-serif; font-size: 22px; fill: rgb(68, 68, 68); fill-opacity: 1; white-space: pre;" transform="translate(791.3883758650002,913.205180611339)"><tspan class="line" dy="0em" x="0" y="0">2015</tspan><tspan class="line" dy="1.3em" x="0" y="0">136.64 ms</tspan><tspan class="line" dy="2.6em" x="0" y="0">27%</tspan></text></g></g><g class="slice cursor-pointer"><path class="surface" d="M720,755L1039.5934132497055,863.4725781356887A337.5,337.5 0,0,0 1053.5552849674366,806.4501882435053L720,755A0,0 0,0,1 720,755Z" style="pointer-events: none; stroke-width: 1; fill: rgb(0, 204, 150); fill-opacity: 1; stroke: rgb(255, 255, 255); stroke-opacity: 1;"/><g class="slicetext"><text data-notex="1" class="slicetext" text-anchor="middle" x="0" y="0" style="font-family: 'Open Sans', verdana, arial, sans-serif; font-size: 22px; fill: rgb(68, 68, 68); fill-opacity: 1; white-space: pre;" transform="translate(1021.5866537164096,820.8382207294809)scale(0.40324038633714904)"><tspan class="line" dy="0em" x="0" y="0">2019</tspan><tspan class="line" dy="1.3em" x="0" y="0">13.80 ms</tspan><tspan class="line" dy="2.6em" x="0" y="0">3%</tspan></text></g></g><g class="slice cursor-pointer"><path class="surface" d="M720,755L1053.5552849674366,806.4501882435053A337.5,337.5 0,0,0 1057.0043870195148,773.2836847927633L720,755A0,0 0,0,1 720,755Z" style="pointer-events: none; stroke-width: 1; fill: rgb(171, 99, 250); fill-opacity: 1; stroke: rgb(255, 255, 255); stroke-opacity: 1;"/><g class="slicetext"><text data-notex="1" class="slicetext" text-anchor="middle" x="0" y="0" style="font-family: 'Open Sans', verdana, arial, sans-serif; font-size: 22px; fill: rgb(68, 68, 68); fill-opacity: 1; white-space: pre;" transform="translate(1039.8871019596286,783.1510700379675)scale(0.25766846319851655)"><tspan class="line" dy="0em" x="0" y="0">2024</tspan><tspan class="line" dy="1.3em" x="0" y="0">7.83 ms</tspan><tspan class="line" dy="2.6em" x="0" y="0">2%</tspan></text></g></g><g class="slice cursor-pointer"><path class="surface" d="M720,755L1057.0043870195148,773.2836847927633A337.5,337.5 0,0,0 1057.395655664635,763.3917542046418L720,755A0,0 0,0,1 720,755Z" style="pointer-events: none; stroke-width: 1; fill: rgb(255, 161, 90); fill-opacity: 1; stroke: rgb(255, 255, 255); stroke-opacity: 1;"/><g class="slicetext"><text data-notex="1" class="slicetext" text-anchor="middle" x="0" y="0" style="font-family: 'Open Sans', verdana, arial, sans-serif; font-size: 22px; fill: rgb(68, 68, 68); fill-opacity: 1; white-space: pre;" transform="translate(1052.3618170782408,766.5757709238079)scale(0.0791160225917158)"><tspan class="line" dy="0em" x="0" y="0">2018</tspan><tspan class="line" dy="1.3em" x="0" y="0">2.32 ms</tspan><tspan class="line" dy="2.6em" x="0" y="0">0.467%</tspan></text></g></g><g class="slice cursor-pointer"><path class="surface" d="M720,755L1057.395655664635,763.3917542046418A337.5,337.5 0,0,0 1057.4529620803933,760.6345703623766L720,755A0,0 0,0,1 720,755Z" style="pointer-events: none; stroke-width: 1; fill: rgb(25, 211, 243); fill-opacity: 1; stroke: rgb(255, 255, 255); stroke-opacity: 1;"/><g class="slicetext"><text data-notex="1" class="slicetext" text-anchor="middle" x="0" y="0" style="font-family: 'Open Sans', verdana, arial, sans-serif; font-size: 22px; fill: rgb(68, 68, 68); fill-opacity: 1; white-space: pre;" transform="translate(1056.0541426057862,761.5425536083435)scale(0.022271828198397365)"><tspan class="line" dy="0em" x="0" y="0">2017</tspan><tspan class="line" dy="1.3em" x="0" y="0">0.65 ms</tspan><tspan class="line" dy="2.6em" x="0" y="0">0.13%</tspan></text></g></g><g class="slice cursor-pointer"><path class="surface" d="M720,755L1057.4529620803933,760.6345703623766A337.5,337.5 0,0,0 1057.4816487195283,758.5194854096763L720,755A0,0 0,0,1 720,755Z" style="pointer-events: none; stroke-width: 1; fill: rgb(255, 102, 146); fill-opacity: 1; stroke: rgb(255, 255, 255); stroke-opacity: 1;"/><g class="slicetext"><text data-notex="1" class="slicetext" text-anchor="middle" x="0" y="0" style="font-family: 'Open Sans', verdana, arial, sans-serif; font-size: 22px; fill: rgb(68, 68, 68); fill-opacity: 1; white-space: pre;" transform="translate(1056.4147236811057,759.2448038858519)scale(0.016016268883409106)"><tspan class="line" dy="0em" x="0" y="0">2023</tspan><tspan class="line" dy="1.3em" x="0" y="0">0.50 ms</tspan><tspan class="line" dy="2.6em" x="0" y="0">0.0998%</tspan></text></g></g><g class="slice cursor-pointer"><path class="surface" d="M720,755L1057.4816487195283,758.5194854096763A337.5,337.5 0,0,0 1057.4947701767107,756.8788569315308L720,755A0,0 0,0,1 720,755Z" style="pointer-events: none; stroke-width: 1; fill: rgb(182, 232, 128); fill-opacity: 1; stroke: rgb(255, 255, 255); stroke-opacity: 1;"/><g class="slicetext"><text data-notex="1" class="slicetext" text-anchor="middle" x="0" y="0" style="font-family: 'Open Sans', verdana, arial, sans-serif; font-size: 22px; fill: rgb(68, 68, 68); fill-opacity: 1; white-space: pre;" transform="translate(1056.6708812068382,757.4458503602893)scale(0.012431462924225005)"><tspan class="line" dy="0em" x="0" y="0">2021</tspan><tspan class="line" dy="1.3em" x="0" y="0">0.39 ms</tspan><tspan class="line" dy="2.6em" x="0" y="0">0.0774%</tspan></text></g></g><g class="slice cursor-pointer"><path class="surface" d="M720,755L1057.4947701767107,756.8788569315308A337.5,337.5 0,0,0 1057.498759344554,755.9151179633099L720,755A0,0 0,0,1 720,755Z" style="pointer-events: none; stroke-width: 1; fill: rgb(255, 151, 255); fill-opacity: 1; stroke: rgb(255, 255, 255); stroke-opacity: 1;"/><g class="slicetext"><text data-notex="1" class="slicetext" text-anchor="middle" x="0" y="0" style="font-family: 'Open Sans', verdana, arial, sans-serif; font-size: 22px; fill: rgb(68, 68, 68); fill-opacity: 1; white-space: pre;" transform="translate(1057.015926296628,756.2498893706597)scale(0.007309639253887795)"><tspan class="line" dy="0em" x="0" y="0">2020</tspan><tspan class="line" dy="1.3em" x="0" y="0">0.23 ms</tspan><tspan class="line" dy="2.6em" x="0" y="0">0.0454%</tspan></text></g></g><g class="slice cursor-pointer"><path class="surface" d="M720,755L1057.498759344554,755.9151179633099A337.5,337.5 0,0,0 1057.5,755.0000000000003L720,755A0,0 0,0,1 720,755Z" style="pointer-events: none; stroke-width: 1; fill: rgb(254, 203, 82); fill-opacity: 1; stroke: rgb(255, 255, 255); stroke-opacity: 1;"/><g class="slicetext"><text data-notex="1" class="slicetext" text-anchor="middle" x="0" y="0" style="font-family: 'Open Sans', verdana, arial, sans-serif; font-size: 22px; fill: rgb(68, 68, 68); fill-opacity: 1; white-space: pre;" transform="translate(1057.0427503416356,755.3191440374073)scale(0.00694131138962855)"><tspan class="line" dy="0em" x="0" y="0">2022</tspan><tspan class="line" dy="1.3em" x="0" y="0">0.21 ms</tspan><tspan class="line" dy="2.6em" x="0" y="0">0.0432%</tspan></text></g></g><g class="slice"><path class="surface" d="M1057.5,755L1395,755A675,675 0,1,0 402.888054004087,1350.8733201836487L561.4440270020435,1052.9366600918243A337.5,337.5 0,1,1 1057.5,755Z" style="pointer-events: none; stroke-width: 1; fill: rgb(99, 110, 250); fill-opacity: 1; stroke: rgb(255, 255, 255); stroke-opacity: 1; opacity: 0.7;"/><g class="slicetext"><text data-notex="1" class="slicetext" text-anchor="middle" x="0" y="0" style="font-family: 'Open Sans', verdana, arial, sans-serif; font-size: 22px; fill: rgb(255, 255, 255); fill-opacity: 1; white-space: pre;" transform="translate(720,245.69532006184727)"><tspan class="line" dy="0em" x="0" y="0">05</tspan><tspan class="line" dy="1.3em" x="0" y="0">334.62 ms</tspan><tspan class="line" dy="2.6em" x="0" y="0">100%</tspan></text></g></g><g class="slice"><path class="surface" d="M561.4440270020435,1052.9366600918243L402.888054004087,1350.8733201836487A675,675 0,0,0 406.5657116932098,1352.8159808115001L563.2828558466049,1053.90799040575A337.5,337.5 0,0,1 561.4440270020435,1052.9366600918243Z" style="pointer-events: none; stroke-width: 1; fill: rgb(99, 110, 250); fill-opacity: 1; stroke: rgb(255, 255, 255); stroke-opacity: 1; opacity: 0.7;"/><g class="slicetext"><text data-notex="1" class="slicetext" text-anchor="middle" x="0" y="0" style="font-family: 'Open Sans', verdana, arial, sans-serif; font-size: 22px; fill: rgb(255, 255, 255); fill-opacity: 1; white-space: pre;" transform="translate(405.693733489687,1349.346823242026)scale(0.03362349414741837)"><tspan class="line" dy="0em" x="0" y="0">04</tspan><tspan class="line" dy="1.3em" x="0" y="0">0.49 ms</tspan><tspan class="line" dy="2.6em" x="0" y="0">0.146%</tspan></text></g></g><g class="slice"><path class="surface" d="M563.2828558466049,1053.90799040575L406.5657116932098,1352.8159808115001A675,675 0,0,0 407.1235660544317,1353.108131596206L563.5617830272158,1054.054065798103A337.5,337.5 0,0,1 563.2828558466049,1053.90799040575Z" style="pointer-events: none; stroke-width: 1; fill: rgb(99, 110, 250); fill-opacity: 1; stroke: rgb(255, 255, 255); stroke-opacity: 1; opacity: 0.7;"/><g class="slicetext"><text data-notex="1" class="slicetext" text-anchor="middle" x="0" y="0" style="font-family: 'Open Sans', verdana, arial, sans-serif; font-size: 22px; fill: rgb(255, 255, 255); fill-opacity: 1; white-space: pre;" transform="translate(406.9906120898016,1352.5820006252688)scale(0.005104056726566761)"><tspan class="line" dy="0em" x="0" y="0">03</tspan><tspan class="line" dy="1.3em" x="0" y="0">0.07 ms</tspan><tspan class="line" dy="2.6em" x="0" y="0">0.022%</tspan></text></g></g><g class="slice"><path class="surface" d="M563.5617830272158,1054.054065798103L407.1235660544317,1353.108131596206A675,675 0,0,0 407.54197130862616,1353.3268173049746L563.7709856543131,1054.1634086524873A337.5,337.5 0,0,1 563.5617830272158,1054.054065798103Z" style="pointer-events: none; stroke-width: 1; fill: rgb(99, 110, 250); fill-opacity: 1; stroke: rgb(255, 255, 255); stroke-opacity: 1; opacity: 0.7;"/><g class="slicetext"><text data-notex="1" class="slicetext" text-anchor="middle" x="0" y="0" style="font-family: 'Open Sans', verdana, arial, sans-serif; font-size: 22px; fill: rgb(255, 255, 255); fill-opacity: 1; white-space: pre;" transform="translate(407.4420541918511,1352.9372213544084)scale(0.003584613748975763)"><tspan class="line" dy="0em" x="0" y="0">01</tspan><tspan class="line" dy="1.3em" x="0" y="0">0.06 ms</tspan><tspan class="line" dy="2.6em" x="0" y="0">0.0165%</tspan></text></g></g><g class="slice"><path class="surface" d="M563.7709856543131,1054.1634086524873L407.54197130862616,1353.3268173049746A675,675 0,0,0 407.67287137033014,1353.3951576691993L563.836435685165,1054.1975788345997A337.5,337.5 0,0,1 563.7709856543131,1054.1634086524873Z" style="pointer-events: none; stroke-width: 1; fill: rgb(99, 110, 250); fill-opacity: 1; stroke: rgb(255, 255, 255); stroke-opacity: 1; opacity: 0.7;"/><g class="slicetext"><text data-notex="1" class="slicetext" text-anchor="middle" x="0" y="0" style="font-family: 'Open Sans', verdana, arial, sans-serif; font-size: 22px; fill: rgb(255, 255, 255); fill-opacity: 1; white-space: pre;" transform="translate(407.64158591558555,1353.2750141274507)scale(0.0010343803719134509)"><tspan class="line" dy="0em" x="0" y="0">02</tspan><tspan class="line" dy="1.3em" x="0" y="0">0.02 ms</tspan><tspan class="line" dy="2.6em" x="0" y="0">0.00517%</tspan></text></g></g><g class="slice"><path class="surface" d="M563.836435685165,1054.1975788345997L407.67287137033014,1353.3951576691993A675,675 0,0,0 407.7172431846791,1353.418315057137L563.8586215923395,1054.2091575285685A337.5,337.5 0,0,1 563.836435685165,1054.1975788345997Z" style="pointer-events: none; stroke-width: 1; fill: rgb(99, 110, 250); fill-opacity: 1; stroke: rgb(255, 255, 255); stroke-opacity: 1; opacity: 0.7;"/><g class="slicetext"><text data-notex="1" class="slicetext" text-anchor="middle" x="0" y="0" style="font-family: 'Open Sans', verdana, arial, sans-serif; font-size: 22px; fill: rgb(255, 255, 255); fill-opacity: 1; white-space: pre;" transform="translate(407.7066353275701,1353.3775911887578)scale(0.0003506273633693492)"><tspan class="line" dy="0em" x="0" y="0">06</tspan><tspan class="line" dy="1.3em" x="0" y="0">0.01 ms</tspan><tspan class="line" dy="2.6em" x="0" y="0">0.00175%</tspan></text></g></g><g class="slice"><path class="surface" d="M563.8586215923395,1054.2091575285685L407.7172431846791,1353.418315057137A675,675 0,0,0 1322.9727661204383,1058.3955229021471L1021.4863830602192,906.6977614510736A337.5,337.5 0,0,1 563.8586215923395,1054.2091575285685Z" style="pointer-events: none; stroke-width: 1; fill: rgb(239, 85, 59); fill-opacity: 1; stroke: rgb(255, 255, 255); stroke-opacity: 1; opacity: 0.7;"/><g class="slicetext"><text data-notex="1" class="slicetext" text-anchor="middle" x="0" y="0" style="font-family: 'Open Sans', verdana, arial, sans-serif; font-size: 22px; fill: rgb(68, 68, 68); fill-opacity: 1; white-space: pre;" transform="translate(875.3148095706861,1216.9848956764456)"><tspan class="line" dy="0em" x="0" y="0">04</tspan><tspan class="line" dy="1.3em" x="0" y="0">125.63 ms</tspan><tspan class="line" dy="2.6em" x="0" y="0">92%</tspan></text></g></g><g class="slice"><path class="surface" d="M1021.4863830602192,906.6977614510736L1322.9727661204383,1058.3955229021471A675,675 0,0,0 1357.7738990453813,976.0643655057313L1038.8869495226907,865.5321827528657A337.5,337.5 0,0,1 1021.4863830602192,906.6977614510736Z" style="pointer-events: none; stroke-width: 1; fill: rgb(239, 85, 59); fill-opacity: 1; stroke: rgb(255, 255, 255); stroke-opacity: 1; opacity: 0.7;"/><g class="slicetext"><text data-notex="1" class="slicetext" text-anchor="middle" x="0" y="0" style="font-family: 'Open Sans', verdana, arial, sans-serif; font-size: 22px; fill: rgb(68, 68, 68); fill-opacity: 1; white-space: pre;" transform="translate(1303.1283864827833,989.0613127363486)scale(0.6259106620711807)"><tspan class="line" dy="0em" x="0" y="0">06</tspan><tspan class="line" dy="1.3em" x="0" y="0">10.50 ms</tspan><tspan class="line" dy="2.6em" x="0" y="0">8%</tspan></text></g></g><g class="slice"><path class="surface" d="M1038.8869495226907,865.5321827528657L1357.7738990453813,976.0643655057313A675,675 0,0,0 1358.8625628236382,972.8982005947114L1039.431281411819,863.9491002973557A337.5,337.5 0,0,1 1038.8869495226907,865.5321827528657Z" style="pointer-events: none; stroke-width: 1; fill: rgb(239, 85, 59); fill-opacity: 1; stroke: rgb(255, 255, 255); stroke-opacity: 1; opacity: 0.7;"/><g class="slicetext"><text data-notex="1" class="slicetext" text-anchor="middle" x="0" y="0" style="font-family: 'Open Sans', verdana, arial, sans-serif; font-size: 22px; fill: rgb(68, 68, 68); fill-opacity: 1; white-space: pre;" transform="translate(1356.7410280156148,973.4013412300849)scale(0.02708258197664057)"><tspan class="line" dy="0em" x="0" y="0">03</tspan><tspan class="line" dy="1.3em" x="0" y="0">0.39 ms</tspan><tspan class="line" dy="2.6em" x="0" y="0">0.288%</tspan></text></g></g><g class="slice"><path class="surface" d="M1039.431281411819,863.9491002973557L1358.8625628236382,972.8982005947114A675,675 0,0,0 1359.0619089081374,972.3128541589007L1039.5309544540687,863.6564270794504A337.5,337.5 0,0,1 1039.431281411819,863.9491002973557Z" style="pointer-events: none; stroke-width: 1; fill: rgb(239, 85, 59); fill-opacity: 1; stroke: rgb(255, 255, 255); stroke-opacity: 1; opacity: 0.7;"/><g class="slicetext"><text data-notex="1" class="slicetext" text-anchor="middle" x="0" y="0" style="font-family: 'Open Sans', verdana, arial, sans-serif; font-size: 22px; fill: rgb(68, 68, 68); fill-opacity: 1; white-space: pre;" transform="translate(1358.6697636726803,972.4127284067733)scale(0.004694561897919576)"><tspan class="line" dy="0em" x="0" y="0">05</tspan><tspan class="line" dy="1.3em" x="0" y="0">0.07 ms</tspan><tspan class="line" dy="2.6em" x="0" y="0">0.0531%</tspan></text></g></g><g class="slice"><path class="surface" d="M1039.5309544540687,863.6564270794504L1359.0619089081374,972.3128541589007A675,675 0,0,0 1359.1396938205457,972.0839740353465L1039.5698469102729,863.5419870176733A337.5,337.5 0,0,1 1039.5309544540687,863.6564270794504Z" style="pointer-events: none; stroke-width: 1; fill: rgb(239, 85, 59); fill-opacity: 1; stroke: rgb(255, 255, 255); stroke-opacity: 1; opacity: 0.7;"/><g class="slicetext"><text data-notex="1" class="slicetext" text-anchor="middle" x="0" y="0" style="font-family: 'Open Sans', verdana, arial, sans-serif; font-size: 22px; fill: rgb(68, 68, 68); fill-opacity: 1; white-space: pre;" transform="translate(1358.9863920370692,972.1230892762196)scale(0.001835765311745311)"><tspan class="line" dy="0em" x="0" y="0">02</tspan><tspan class="line" dy="1.3em" x="0" y="0">0.03 ms</tspan><tspan class="line" dy="2.6em" x="0" y="0">0.0208%</tspan></text></g></g><g class="slice"><path class="surface" d="M1039.5698469102729,863.5419870176733L1359.1396938205457,972.0839740353465A675,675 0,0,0 1359.1868264994107,971.9451562713772L1039.5934132497055,863.4725781356887A337.5,337.5 0,0,1 1039.5698469102729,863.5419870176733Z" style="pointer-events: none; stroke-width: 1; fill: rgb(239, 85, 59); fill-opacity: 1; stroke: rgb(255, 255, 255); stroke-opacity: 1; opacity: 0.7;"/><g class="slicetext"><text data-notex="1" class="slicetext" text-anchor="middle" x="0" y="0" style="font-family: 'Open Sans', verdana, arial, sans-serif; font-size: 22px; fill: rgb(68, 68, 68); fill-opacity: 1; white-space: pre;" transform="translate(1359.09386258319,971.968900377077)scale(0.0011133771105645042)"><tspan class="line" dy="0em" x="0" y="0">01</tspan><tspan class="line" dy="1.3em" x="0" y="0">0.02 ms</tspan><tspan class="line" dy="2.6em" x="0" y="0">0.0126%</tspan></text></g></g><g class="slice"><path class="surface" d="M1039.5934132497055,863.4725781356887L1359.1868264994107,971.9451562713772A675,675 0,0,0 1382.014000427233,886.7667000358265L1051.0070002136165,820.8833500179132A337.5,337.5 0,0,1 1039.5934132497055,863.4725781356887Z" style="pointer-events: none; stroke-width: 1; fill: rgb(0, 204, 150); fill-opacity: 1; stroke: rgb(255, 255, 255); stroke-opacity: 1; opacity: 0.7;"/><g class="slicetext"><text data-notex="1" class="slicetext" text-anchor="middle" x="0" y="0" style="font-family: 'Open Sans', verdana, arial, sans-serif; font-size: 22px; fill: rgb(68, 68, 68); fill-opacity: 1; white-space: pre;" transform="translate(1332.0150861244485,906.7466401937432)scale(0.6180226740653992)"><tspan class="line" dy="0em" x="0" y="0">03</tspan><tspan class="line" dy="1.3em" x="0" y="0">10.36 ms</tspan><tspan class="line" dy="2.6em" x="0" y="0">75%</tspan></text></g></g><g class="slice"><path class="surface" d="M1051.0070002136165,820.8833500179132L1382.014000427233,886.7667000358265A675,675 0,0,0 1385.578220276524,867.3860876333672L1052.789110138262,811.1930438166836A337.5,337.5 0,0,1 1051.0070002136165,820.8833500179132Z" style="pointer-events: none; stroke-width: 1; fill: rgb(0, 204, 150); fill-opacity: 1; stroke: rgb(255, 255, 255); stroke-opacity: 1; opacity: 0.7;"/><g class="slicetext"><text data-notex="1" class="slicetext" text-anchor="middle" x="0" y="0" style="font-family: 'Open Sans', verdana, arial, sans-serif; font-size: 22px; fill: rgb(68, 68, 68); fill-opacity: 1; white-space: pre;" transform="translate(1374.31594359198,872.2064286115361)scale(0.15749396550014635)"><tspan class="line" dy="0em" x="0" y="0">02</tspan><tspan class="line" dy="1.3em" x="0" y="0">2.31 ms</tspan><tspan class="line" dy="2.6em" x="0" y="0">17%</tspan></text></g></g><g class="slice"><path class="surface" d="M1052.789110138262,811.1930438166836L1385.578220276524,867.3860876333672A675,675 0,0,0 1387.1073227708075,857.9214258819118L1053.5536613854038,806.4607129409559A337.5,337.5 0,0,1 1052.789110138262,811.1930438166836Z" style="pointer-events: none; stroke-width: 1; fill: rgb(0, 204, 150); fill-opacity: 1; stroke: rgb(255, 255, 255); stroke-opacity: 1; opacity: 0.7;"/><g class="slicetext"><text data-notex="1" class="slicetext" text-anchor="middle" x="0" y="0" style="font-family: 'Open Sans', verdana, arial, sans-serif; font-size: 22px; fill: rgb(68, 68, 68); fill-opacity: 1; white-space: pre;" transform="translate(1381.6606157387482,860.3648534720774)scale(0.07719585208024389)"><tspan class="line" dy="0em" x="0" y="0">04</tspan><tspan class="line" dy="1.3em" x="0" y="0">1.13 ms</tspan><tspan class="line" dy="2.6em" x="0" y="0">8%</tspan></text></g></g><g class="slice"><path class="surface" d="M1053.5536613854038,806.4607129409559L1387.1073227708075,857.9214258819118A675,675 0,0,0 1387.1105699348732,857.9003764870106L1053.5552849674366,806.4501882435053A337.5,337.5 0,0,1 1053.5536613854038,806.4607129409559Z" style="pointer-events: none; stroke-width: 1; fill: rgb(0, 204, 150); fill-opacity: 1; stroke: rgb(255, 255, 255); stroke-opacity: 1; opacity: 0.7;"/><g class="slicetext"><text data-notex="1" class="slicetext" text-anchor="middle" x="0" y="0" style="font-family: 'Open Sans', verdana, arial, sans-serif; font-size: 22px; fill: rgb(68, 68, 68); fill-opacity: 1; white-space: pre;" transform="translate(1387.0984219044526,857.9060662963051)scale(0.00016176784797227535)"><tspan class="line" dy="0em" x="0" y="0">01</tspan><tspan class="line" dy="1.3em" x="0" y="0">0.00 ms</tspan><tspan class="line" dy="2.6em" x="0" y="0">0.0181%</tspan></text></g></g><g class="slice"><path class="surface" d="M1053.5552849674366,806.4501882435053L1387.1105699348732,857.9003764870106A675,675 0,0,0 1393.858479936574,794.2396357981321L1056.929239968287,774.6198178990661A337.5,337.5 0,0,1 1053.5552849674366,806.4501882435053Z" style="pointer-events: none; stroke-width: 1; fill: rgb(171, 99, 250); fill-opacity: 1; stroke: rgb(255, 255, 255); stroke-opacity: 1; opacity: 0.7;"/><g class="slicetext"><text data-notex="1" class="slicetext" text-anchor="middle" x="0" y="0" style="font-family: 'Open Sans', verdana, arial, sans-serif; font-size: 22px; fill: rgb(68, 68, 68); fill-opacity: 1; white-space: pre;" transform="translate(1360.850350920602,813.0901219471348)scale(0.4956144672266451)"><tspan class="line" dy="0em" x="0" y="0">04</tspan><tspan class="line" dy="1.3em" x="0" y="0">7.52 ms</tspan><tspan class="line" dy="2.6em" x="0" y="0">96%</tspan></text></g></g><g class="slice"><path class="surface" d="M1056.929239968287,774.6198178990661L1393.858479936574,794.2396357981321A675,675 0,0,0 1393.9321592063293,792.9531920593638L1056.9660796031646,773.9765960296819A337.5,337.5 0,0,1 1056.929239968287,774.6198178990661Z" style="pointer-events: none; stroke-width: 1; fill: rgb(171, 99, 250); fill-opacity: 1; stroke: rgb(255, 255, 255); stroke-opacity: 1; opacity: 0.7;"/><g class="slicetext"><text data-notex="1" class="slicetext" text-anchor="middle" x="0" y="0" style="font-family: 'Open Sans', verdana, arial, sans-serif; font-size: 22px; fill: rgb(68, 68, 68); fill-opacity: 1; white-space: pre;" transform="translate(1393.2530180331346,793.352398546807)scale(0.010438899091244904)"><tspan class="line" dy="0em" x="0" y="0">01</tspan><tspan class="line" dy="1.3em" x="0" y="0">0.15 ms</tspan><tspan class="line" dy="2.6em" x="0" y="0">2%</tspan></text></g></g><g class="slice"><path class="surface" d="M1056.9660796031646,773.9765960296819L1393.9321592063293,792.9531920593638A675,675 0,0,0 1393.9851745503672,791.9997903549611L1056.9925872751837,773.4998951774805A337.5,337.5 0,0,1 1056.9660796031646,773.9765960296819Z" style="pointer-events: none; stroke-width: 1; fill: rgb(171, 99, 250); fill-opacity: 1; stroke: rgb(255, 255, 255); stroke-opacity: 1; opacity: 0.7;"/><g class="slicetext"><text data-notex="1" class="slicetext" text-anchor="middle" x="0" y="0" style="font-family: 'Open Sans', verdana, arial, sans-serif; font-size: 22px; fill: rgb(68, 68, 68); fill-opacity: 1; white-space: pre;" transform="translate(1393.4824715539785,792.2964081701455)scale(0.007737601291486787)"><tspan class="line" dy="0em" x="0" y="0">02</tspan><tspan class="line" dy="1.3em" x="0" y="0">0.11 ms</tspan><tspan class="line" dy="2.6em" x="0" y="0">1%</tspan></text></g></g><g class="slice"><path class="surface" d="M1056.9925872751837,773.4998951774805L1393.9851745503672,791.9997903549611A675,675 0,0,0 1394.0087740390295,791.5673695855265L1057.0043870195148,773.2836847927633A337.5,337.5 0,0,1 1056.9925872751837,773.4998951774805Z" style="pointer-events: none; stroke-width: 1; fill: rgb(171, 99, 250); fill-opacity: 1; stroke: rgb(255, 255, 255); stroke-opacity: 1; opacity: 0.7;"/><g class="slicetext"><text data-notex="1" class="slicetext" text-anchor="middle" x="0" y="0" style="font-family: 'Open Sans', verdana, arial, sans-serif; font-size: 22px; fill: rgb(68, 68, 68); fill-opacity: 1; white-space: pre;" transform="translate(1393.7808679243972,791.7020951994676)scale(0.0035105903155904818)"><tspan class="line" dy="0em" x="0" y="0">03</tspan><tspan class="line" dy="1.3em" x="0" y="0">0.05 ms</tspan><tspan class="line" dy="2.6em" x="0" y="0">1%</tspan></text></g></g><g class="slice"><path class="surface" d="M1057.0043870195148,773.2836847927633L1394.0087740390295,791.5673695855265A675,675 0,0,0 1394.420773740595,782.9574667510733L1057.2103868702975,768.9787333755366A337.5,337.5 0,0,1 1057.0043870195148,773.2836847927633Z" style="pointer-events: none; stroke-width: 1; fill: rgb(255, 161, 90); fill-opacity: 1; stroke: rgb(255, 255, 255); stroke-opacity: 1; opacity: 0.7;"/><g class="slicetext"><text data-notex="1" class="slicetext" text-anchor="middle" x="0" y="0" style="font-family: 'Open Sans', verdana, arial, sans-serif; font-size: 22px; fill: rgb(68, 68, 68); fill-opacity: 1; white-space: pre;" transform="translate(1389.9508789152756,785.6796106741975)scale(0.06945409308148284)"><tspan class="line" dy="0em" x="0" y="0">01</tspan><tspan class="line" dy="1.3em" x="0" y="0">1.01 ms</tspan><tspan class="line" dy="2.6em" x="0" y="0">44%</tspan></text></g></g><g class="slice"><path class="surface" d="M1057.2103868702975,768.9787333755366L1394.420773740595,782.9574667510733A675,675 0,0,0 1394.6181914472525,777.7001270577548L1057.3090957236263,766.3500635288774A337.5,337.5 0,0,1 1057.2103868702975,768.9787333755366Z" style="pointer-events: none; stroke-width: 1; fill: rgb(255, 161, 90); fill-opacity: 1; stroke: rgb(255, 255, 255); stroke-opacity: 1; opacity: 0.7;"/><g class="slicetext"><text data-notex="1" class="slicetext" text-anchor="middle" x="0" y="0" style="font-family: 'Open Sans', verdana, arial, sans-serif; font-size: 22px; fill: rgb(68, 68, 68); fill-opacity: 1; white-space: pre;" transform="translate(1391.9061391666985,779.3870479361168)scale(0.042496183130774266)"><tspan class="line" dy="0em" x="0" y="0">02</tspan><tspan class="line" dy="1.3em" x="0" y="0">0.62 ms</tspan><tspan class="line" dy="2.6em" x="0" y="0">27%</tspan></text></g></g><g class="slice"><path class="surface" d="M1057.3090957236263,766.3500635288774L1394.6181914472525,777.7001270577548A675,675 0,0,0 1394.7493075259426,773.3948904117627L1057.3746537629713,764.1974452058814A337.5,337.5 0,0,1 1057.3090957236263,766.3500635288774Z" style="pointer-events: none; stroke-width: 1; fill: rgb(255, 161, 90); fill-opacity: 1; stroke: rgb(255, 255, 255); stroke-opacity: 1; opacity: 0.7;"/><g class="slicetext"><text data-notex="1" class="slicetext" text-anchor="middle" x="0" y="0" style="font-family: 'Open Sans', verdana, arial, sans-serif; font-size: 22px; fill: rgb(68, 68, 68); fill-opacity: 1; white-space: pre;" transform="translate(1392.5414113605946,774.7911067918766)scale(0.03481625122290812)"><tspan class="line" dy="0em" x="0" y="0">03</tspan><tspan class="line" dy="1.3em" x="0" y="0">0.51 ms</tspan><tspan class="line" dy="2.6em" x="0" y="0">22%</tspan></text></g></g><g class="slice"><path class="surface" d="M1057.3746537629713,764.1974452058814L1394.7493075259426,773.3948904117627A675,675 0,0,0 1394.7913113292698,771.7835084092835L1057.395655664635,763.3917542046418A337.5,337.5 0,0,1 1057.3746537629713,764.1974452058814Z" style="pointer-events: none; stroke-width: 1; fill: rgb(255, 161, 90); fill-opacity: 1; stroke: rgb(255, 255, 255); stroke-opacity: 1; opacity: 0.7;"/><g class="slicetext"><text data-notex="1" class="slicetext" text-anchor="middle" x="0" y="0" style="font-family: 'Open Sans', verdana, arial, sans-serif; font-size: 22px; fill: rgb(68, 68, 68); fill-opacity: 1; white-space: pre;" transform="translate(1393.9660602981148,772.3090622165244)scale(0.013055540465610967)"><tspan class="line" dy="0em" x="0" y="0">04</tspan><tspan class="line" dy="1.3em" x="0" y="0">0.19 ms</tspan><tspan class="line" dy="2.6em" x="0" y="0">8%</tspan></text></g></g><g class="slice"><path class="surface" d="M1057.395655664635,763.3917542046418L1394.7913113292698,771.7835084092835A675,675 0,0,0 1394.860914160324,768.7020633005318L1057.430457080162,761.8510316502659A337.5,337.5 0,0,1 1057.395655664635,763.3917542046418Z" style="pointer-events: none; stroke-width: 1; fill: rgb(25, 211, 243); fill-opacity: 1; stroke: rgb(255, 255, 255); stroke-opacity: 1; opacity: 0.7;"/><g class="slicetext"><text data-notex="1" class="slicetext" text-anchor="middle" x="0" y="0" style="font-family: 'Open Sans', verdana, arial, sans-serif; font-size: 22px; fill: rgb(68, 68, 68); fill-opacity: 1; white-space: pre;" transform="translate(1393.2906586940849,769.7130676898058)scale(0.024936865956021473)"><tspan class="line" dy="0em" x="0" y="0">04</tspan><tspan class="line" dy="1.3em" x="0" y="0">0.36 ms</tspan><tspan class="line" dy="2.6em" x="0" y="0">56%</tspan></text></g></g><g class="slice"><path class="surface" d="M1057.430457080162,761.8510316502659L1394.860914160324,768.7020633005318A675,675 0,0,0 1394.9011416811318,766.5520109723311L1057.450570840566,760.7760054861656A337.5,337.5 0,0,1 1057.430457080162,761.8510316502659Z" style="pointer-events: none; stroke-width: 1; fill: rgb(25, 211, 243); fill-opacity: 1; stroke: rgb(255, 255, 255); stroke-opacity: 1; opacity: 0.7;"/><g class="slicetext"><text data-notex="1" class="slicetext" text-anchor="middle" x="0" y="0" style="font-family: 'Open Sans', verdana, arial, sans-serif; font-size: 22px; fill: rgb(68, 68, 68); fill-opacity: 1; white-space: pre;" transform="translate(1393.8085676638166,767.2613539976243)scale(0.017410084801968134)"><tspan class="line" dy="0em" x="0" y="0">03</tspan><tspan class="line" dy="1.3em" x="0" y="0">0.25 ms</tspan><tspan class="line" dy="2.6em" x="0" y="0">39%</tspan></text></g></g><g class="slice"><path class="surface" d="M1057.450570840566,760.7760054861656L1394.9011416811318,766.5520109723311A675,675 0,0,0 1394.9056216776053,766.2872418227533L1057.4528108388026,760.6436209113767A337.5,337.5 0,0,1 1057.450570840566,760.7760054861656Z" style="pointer-events: none; stroke-width: 1; fill: rgb(25, 211, 243); fill-opacity: 1; stroke: rgb(255, 255, 255); stroke-opacity: 1; opacity: 0.7;"/><g class="slicetext"><text data-notex="1" class="slicetext" text-anchor="middle" x="0" y="0" style="font-family: 'Open Sans', verdana, arial, sans-serif; font-size: 22px; fill: rgb(68, 68, 68); fill-opacity: 1; white-space: pre;" transform="translate(1394.7710360510077,766.3747677740224)scale(0.002146898223841142)"><tspan class="line" dy="0em" x="0" y="0">02</tspan><tspan class="line" dy="1.3em" x="0" y="0">0.03 ms</tspan><tspan class="line" dy="2.6em" x="0" y="0">5%</tspan></text></g></g><g class="slice"><path class="surface" d="M1057.4528108388026,760.6436209113767L1394.9056216776053,766.2872418227533A675,675 0,0,0 1394.9059241607868,766.2691407247534L1057.4529620803933,760.6345703623766A337.5,337.5 0,0,1 1057.4528108388026,760.6436209113767Z" style="pointer-events: none; stroke-width: 1; fill: rgb(25, 211, 243); fill-opacity: 1; stroke: rgb(255, 255, 255); stroke-opacity: 1; opacity: 0.7;"/><g class="slicetext"><text data-notex="1" class="slicetext" text-anchor="middle" x="0" y="0" style="font-family: 'Open Sans', verdana, arial, sans-serif; font-size: 22px; fill: rgb(68, 68, 68); fill-opacity: 1; white-space: pre;" transform="translate(1394.8967225522474,766.2751258206904)scale(0.00014680025890267693)"><tspan class="line" dy="0em" x="0" y="0">01</tspan><tspan class="line" dy="1.3em" x="0" y="0">0.00 ms</tspan><tspan class="line" dy="2.6em" x="0" y="0">0.328%</tspan></text></g></g><g class="slice"><path class="surface" d="M1057.4529620803933,760.6345703623766L1394.9059241607868,766.2691407247534A675,675 0,0,0 1394.9435581019484,763.7288817543794L1057.4717790509742,759.3644408771896A337.5,337.5 0,0,1 1057.4529620803933,760.6345703623766Z" style="pointer-events: none; stroke-width: 1; fill: rgb(255, 102, 146); fill-opacity: 1; stroke: rgb(255, 255, 255); stroke-opacity: 1; opacity: 0.7;"/><g class="slicetext"><text data-notex="1" class="slicetext" text-anchor="middle" x="0" y="0" style="font-family: 'Open Sans', verdana, arial, sans-serif; font-size: 22px; fill: rgb(68, 68, 68); fill-opacity: 1; white-space: pre;" transform="translate(1393.6581925040905,764.5720492764754)scale(0.020562514559067577)"><tspan class="line" dy="0em" x="0" y="0">01</tspan><tspan class="line" dy="1.3em" x="0" y="0">0.30 ms</tspan><tspan class="line" dy="2.6em" x="0" y="0">60%</tspan></text></g></g><g class="slice"><path class="surface" d="M1057.4717790509742,759.3644408771896L1394.9435581019484,763.7288817543794A675,675 0,0,0 1394.9527485549652,762.986690058971L1057.4763742774826,758.9933450294855A337.5,337.5 0,0,1 1057.4717790509742,759.3644408771896Z" style="pointer-events: none; stroke-width: 1; fill: rgb(255, 102, 146); fill-opacity: 1; stroke: rgb(255, 255, 255); stroke-opacity: 1; opacity: 0.7;"/><g class="slicetext"><text data-notex="1" class="slicetext" text-anchor="middle" x="0" y="0" style="font-family: 'Open Sans', verdana, arial, sans-serif; font-size: 22px; fill: rgb(68, 68, 68); fill-opacity: 1; white-space: pre;" transform="translate(1394.5773634190546,763.2337757352633)scale(0.006015583574008365)"><tspan class="line" dy="0em" x="0" y="0">03</tspan><tspan class="line" dy="1.3em" x="0" y="0">0.09 ms</tspan><tspan class="line" dy="2.6em" x="0" y="0">18%</tspan></text></g></g><g class="slice"><path class="surface" d="M1057.4763742774826,758.9933450294855L1394.9527485549652,762.986690058971A675,675 0,0,0 1394.9605493018714,762.2977315733067L1057.4802746509358,758.6488657866533A337.5,337.5 0,0,1 1057.4763742774826,758.9933450294855Z" style="pointer-events: none; stroke-width: 1; fill: rgb(255, 102, 146); fill-opacity: 1; stroke: rgb(255, 255, 255); stroke-opacity: 1; opacity: 0.7;"/><g class="slicetext"><text data-notex="1" class="slicetext" text-anchor="middle" x="0" y="0" style="font-family: 'Open Sans', verdana, arial, sans-serif; font-size: 22px; fill: rgb(68, 68, 68); fill-opacity: 1; white-space: pre;" transform="translate(1394.6124333149187,762.5274569472539)scale(0.005584269771244596)"><tspan class="line" dy="0em" x="0" y="0">04</tspan><tspan class="line" dy="1.3em" x="0" y="0">0.08 ms</tspan><tspan class="line" dy="2.6em" x="0" y="0">16%</tspan></text></g></g><g class="slice"><path class="surface" d="M1057.4802746509358,758.6488657866533L1394.9605493018714,762.2977315733067A675,675 0,0,0 1394.9632974390565,762.0389708193528L1057.4816487195283,758.5194854096763A337.5,337.5 0,0,1 1057.4802746509358,758.6488657866533Z" style="pointer-events: none; stroke-width: 1; fill: rgb(255, 102, 146); fill-opacity: 1; stroke: rgb(255, 255, 255); stroke-opacity: 1; opacity: 0.7;"/><g class="slicetext"><text data-notex="1" class="slicetext" text-anchor="middle" x="0" y="0" style="font-family: 'Open Sans', verdana, arial, sans-serif; font-size: 22px; fill: rgb(68, 68, 68); fill-opacity: 1; white-space: pre;" transform="translate(1394.8325801892363,762.1253288227407)scale(0.002098006140810049)"><tspan class="line" dy="0em" x="0" y="0">02</tspan><tspan class="line" dy="1.3em" x="0" y="0">0.03 ms</tspan><tspan class="line" dy="2.6em" x="0" y="0">6%</tspan></text></g></g><g class="slice"><path class="surface" d="M1057.4816487195283,758.5194854096763L1394.9632974390565,762.0389708193528A675,675 0,0,0 1394.9767672459184,760.6003284054827L1057.4883836229592,757.8001642027414A337.5,337.5 0,0,1 1057.4816487195283,758.5194854096763Z" style="pointer-events: none; stroke-width: 1; fill: rgb(182, 232, 128); fill-opacity: 1; stroke: rgb(255, 255, 255); stroke-opacity: 1; opacity: 0.7;"/><g class="slicetext"><text data-notex="1" class="slicetext" text-anchor="middle" x="0" y="0" style="font-family: 'Open Sans', verdana, arial, sans-serif; font-size: 22px; fill: rgb(68, 68, 68); fill-opacity: 1; white-space: pre;" transform="translate(1394.251860198858,761.0815746163123)scale(0.011654037368234407)"><tspan class="line" dy="0em" x="0" y="0">03</tspan><tspan class="line" dy="1.3em" x="0" y="0">0.17 ms</tspan><tspan class="line" dy="2.6em" x="0" y="0">44%</tspan></text></g></g><g class="slice"><path class="surface" d="M1057.4883836229592,757.8001642027414L1394.9767672459184,760.6003284054827A675,675 0,0,0 1394.987050008493,759.1811865339739L1057.4935250042465,757.090593266987A337.5,337.5 0,0,1 1057.4883836229592,757.8001642027414Z" style="pointer-events: none; stroke-width: 1; fill: rgb(182, 232, 128); fill-opacity: 1; stroke: rgb(255, 255, 255); stroke-opacity: 1; opacity: 0.7;"/><g class="slicetext"><text data-notex="1" class="slicetext" text-anchor="middle" x="0" y="0" style="font-family: 'Open Sans', verdana, arial, sans-serif; font-size: 22px; fill: rgb(68, 68, 68); fill-opacity: 1; white-space: pre;" transform="translate(1394.273455806287,759.6574099731051)scale(0.0114960329661051)"><tspan class="line" dy="0em" x="0" y="0">04</tspan><tspan class="line" dy="1.3em" x="0" y="0">0.17 ms</tspan><tspan class="line" dy="2.6em" x="0" y="0">43%</tspan></text></g></g><g class="slice"><path class="surface" d="M1057.4935250042465,757.090593266987L1394.987050008493,759.1811865339739A675,675 0,0,0 1394.9890970527858,758.836516631663L1057.494548526393,756.9182583158315A337.5,337.5 0,0,1 1057.4935250042465,757.090593266987Z" style="pointer-events: none; stroke-width: 1; fill: rgb(182, 232, 128); fill-opacity: 1; stroke: rgb(255, 255, 255); stroke-opacity: 1; opacity: 0.7;"/><g class="slicetext"><text data-notex="1" class="slicetext" text-anchor="middle" x="0" y="0" style="font-family: 'Open Sans', verdana, arial, sans-serif; font-size: 22px; fill: rgb(68, 68, 68); fill-opacity: 1; white-space: pre;" transform="translate(1394.8158045679404,758.9523579700526)scale(0.0027942627959292345)"><tspan class="line" dy="0em" x="0" y="0">01</tspan><tspan class="line" dy="1.3em" x="0" y="0">0.04 ms</tspan><tspan class="line" dy="2.6em" x="0" y="0">11%</tspan></text></g></g><g class="slice"><path class="surface" d="M1057.494548526393,756.9182583158315L1394.9890970527858,758.836516631663A675,675 0,0,0 1394.9895403534215,758.7577138630611L1057.4947701767107,756.8788569315305A337.5,337.5 0,0,1 1057.494548526393,756.9182583158315Z" style="pointer-events: none; stroke-width: 1; fill: rgb(182, 232, 128); fill-opacity: 1; stroke: rgb(255, 255, 255); stroke-opacity: 1; opacity: 0.7;"/><g class="slicetext"><text data-notex="1" class="slicetext" text-anchor="middle" x="0" y="0" style="font-family: 'Open Sans', verdana, arial, sans-serif; font-size: 22px; fill: rgb(68, 68, 68); fill-opacity: 1; white-space: pre;" transform="translate(1394.9499207686545,758.7842087824436)scale(0.0006389841609270681)"><tspan class="line" dy="0em" x="0" y="0">02</tspan><tspan class="line" dy="1.3em" x="0" y="0">0.01 ms</tspan><tspan class="line" dy="2.6em" x="0" y="0">2%</tspan></text></g></g><g class="slice"><path class="surface" d="M1057.4947701767107,756.8788569315308L1394.9895403534215,758.7577138630617A675,675 0,0,0 1394.9930775305015,758.0570060356775L1057.4965387652508,756.5285030178387A337.5,337.5 0,0,1 1057.4947701767107,756.8788569315308Z" style="pointer-events: none; stroke-width: 1; fill: rgb(255, 151, 255); fill-opacity: 1; stroke: rgb(255, 255, 255); stroke-opacity: 1; opacity: 0.7;"/><g class="slicetext"><text data-notex="1" class="slicetext" text-anchor="middle" x="0" y="0" style="font-family: 'Open Sans', verdana, arial, sans-serif; font-size: 22px; fill: rgb(68, 68, 68); fill-opacity: 1; white-space: pre;" transform="translate(1394.6412277104432,758.2928525033733)scale(0.005679161726301986)"><tspan class="line" dy="0em" x="0" y="0">01</tspan><tspan class="line" dy="1.3em" x="0" y="0">0.08 ms</tspan><tspan class="line" dy="2.6em" x="0" y="0">36%</tspan></text></g></g><g class="slice"><path class="surface" d="M1057.4965387652508,756.5285030178387L1394.9930775305015,758.0570060356775A675,675 0,0,0 1394.9953200231735,757.5135526279461L1057.4976600115867,756.2567763139731A337.5,337.5 0,0,1 1057.4965387652508,756.5285030178387Z" style="pointer-events: none; stroke-width: 1; fill: rgb(255, 151, 255); fill-opacity: 1; stroke: rgb(255, 255, 255); stroke-opacity: 1; opacity: 0.7;"/><g class="slicetext"><text data-notex="1" class="slicetext" text-anchor="middle" x="0" y="0" style="font-family: 'Open Sans', verdana, arial, sans-serif; font-size: 22px; fill: rgb(68, 68, 68); fill-opacity: 1; white-space: pre;" transform="translate(1394.722636109024,757.6967101323766)scale(0.004405125791681102)"><tspan class="line" dy="0em" x="0" y="0">04</tspan><tspan class="line" dy="1.3em" x="0" y="0">0.06 ms</tspan><tspan class="line" dy="2.6em" x="0" y="0">28%</tspan></text></g></g><g class="slice"><path class="surface" d="M1057.4976600115867,756.2567763139731L1394.9953200231735,757.5135526279461A675,675 0,0,0 1394.9969982570426,757.0130434625538L1057.4984991285214,756.0065217312768A337.5,337.5 0,0,1 1057.4976600115867,756.2567763139731Z" style="pointer-events: none; stroke-width: 1; fill: rgb(255, 151, 255); fill-opacity: 1; stroke: rgb(255, 255, 255); stroke-opacity: 1; opacity: 0.7;"/><g class="slicetext"><text data-notex="1" class="slicetext" text-anchor="middle" x="0" y="0" style="font-family: 'Open Sans', verdana, arial, sans-serif; font-size: 22px; fill: rgb(68, 68, 68); fill-opacity: 1; white-space: pre;" transform="translate(1394.7460436957124,757.1819187165687)scale(0.004057145541308023)"><tspan class="line" dy="0em" x="0" y="0">02</tspan><tspan class="line" dy="1.3em" x="0" y="0">0.06 ms</tspan><tspan class="line" dy="2.6em" x="0" y="0">26%</tspan></text></g></g><g class="slice"><path class="surface" d="M1057.4984991285214,756.0065217312768L1394.9969982570426,757.0130434625538A675,675 0,0,0 1394.9975186891081,756.8302359266196L1057.498759344554,755.9151179633099A337.5,337.5 0,0,1 1057.4984991285214,756.0065217312768Z" style="pointer-events: none; stroke-width: 1; fill: rgb(255, 151, 255); fill-opacity: 1; stroke: rgb(255, 255, 255); stroke-opacity: 1; opacity: 0.7;"/><g class="slicetext"><text data-notex="1" class="slicetext" text-anchor="middle" x="0" y="0" style="font-family: 'Open Sans', verdana, arial, sans-serif; font-size: 22px; fill: rgb(68, 68, 68); fill-opacity: 1; white-space: pre;" transform="translate(1394.9058732693939,756.8919557259314)scale(0.0014821909093130862)"><tspan class="line" dy="0em" x="0" y="0">03</tspan><tspan class="line" dy="1.3em" x="0" y="0">0.02 ms</tspan><tspan class="line" dy="2.6em" x="0" y="0">9%</tspan></text></g></g><g class="slice"><path class="surface" d="M1057.498759344554,755.9151179633099L1394.9975186891081,756.8302359266196A675,675 0,0,0 1394.999578128502,755.7546696921477L1057.499789064251,755.3773348460738A337.5,337.5 0,0,1 1057.498759344554,755.9151179633099Z" style="pointer-events: none; stroke-width: 1; fill: rgb(254, 203, 82); fill-opacity: 1; stroke: rgb(255, 255, 255); stroke-opacity: 1; opacity: 0.7;"/><g class="slicetext"><text data-notex="1" class="slicetext" text-anchor="middle" x="0" y="0" style="font-family: 'Open Sans', verdana, arial, sans-serif; font-size: 22px; fill: rgb(68, 68, 68); fill-opacity: 1; white-space: pre;" transform="translate(1394.4614076420933,756.1184212236298)scale(0.008714835217475628)"><tspan class="line" dy="0em" x="0" y="0">03</tspan><tspan class="line" dy="1.3em" x="0" y="0">0.13 ms</tspan><tspan class="line" dy="2.6em" x="0" y="0">59%</tspan></text></g></g><g class="slice"><path class="surface" d="M1057.499789064251,755.3773348460738L1394.999578128502,755.7546696921477A675,675 0,0,0 1394.9998649208812,755.4270325420939L1057.4999324604405,755.213516271047A337.5,337.5 0,0,1 1057.499789064251,755.3773348460738Z" style="pointer-events: none; stroke-width: 1; fill: rgb(254, 203, 82); fill-opacity: 1; stroke: rgb(255, 255, 255); stroke-opacity: 1; opacity: 0.7;"/><g class="slicetext"><text data-notex="1" class="slicetext" text-anchor="middle" x="0" y="0" style="font-family: 'Open Sans', verdana, arial, sans-serif; font-size: 22px; fill: rgb(68, 68, 68); fill-opacity: 1; white-space: pre;" transform="translate(1394.8359625767646,755.5379787519729)scale(0.002656164780575963)"><tspan class="line" dy="0em" x="0" y="0">01</tspan><tspan class="line" dy="1.3em" x="0" y="0">0.04 ms</tspan><tspan class="line" dy="2.6em" x="0" y="0">18%</tspan></text></g></g><g class="slice"><path class="surface" d="M1057.4999324604405,755.213516271047L1394.9998649208812,755.4270325420939A675,675 0,0,0 1394.999991766777,755.1054269933054L1057.4999958833885,755.0527134966527A337.5,337.5 0,0,1 1057.4999324604405,755.213516271047Z" style="pointer-events: none; stroke-width: 1; fill: rgb(254, 203, 82); fill-opacity: 1; stroke: rgb(255, 255, 255); stroke-opacity: 1; opacity: 0.7;"/><g class="slicetext"><text data-notex="1" class="slicetext" text-anchor="middle" x="0" y="0" style="font-family: 'Open Sans', verdana, arial, sans-serif; font-size: 22px; fill: rgb(68, 68, 68); fill-opacity: 1; white-space: pre;" transform="translate(1394.8391830214987,755.2144078401717)scale(0.002607277247803091)"><tspan class="line" dy="0em" x="0" y="0">04</tspan><tspan class="line" dy="1.3em" x="0" y="0">0.04 ms</tspan><tspan class="line" dy="2.6em" x="0" y="0">18%</tspan></text></g></g><g class="slice"><path class="surface" d="M1057.4999958833885,755.0527134966527L1394.999991766777,755.1054269933054A675,675 0,0,0 1395,755.0000000000001L1057.5,755.0000000000001A337.5,337.5 0,0,1 1057.4999958833885,755.0527134966527Z" style="pointer-events: none; stroke-width: 1; fill: rgb(254, 203, 82); fill-opacity: 1; stroke: rgb(255, 255, 255); stroke-opacity: 1; opacity: 0.7;"/><g class="slicetext"><text data-notex="1" class="slicetext" text-anchor="middle" x="0" y="0" style="font-family: 'Open Sans', verdana, arial, sans-serif; font-size: 22px; fill: rgb(68, 68, 68); fill-opacity: 1; white-space: pre;" transform="translate(1394.9472885613316,755.0357394642691)scale(0.0008548403307945947)"><tspan class="line" dy="0em" x="0" y="0">02</tspan><tspan class="line" dy="1.3em" x="0" y="0">0.01 ms</tspan><tspan class="line" dy="2.6em" x="0" y="0">6%</tspan></text></g></g></g></g><g class="glimages"/><defs id="topdefs-1a7256"><g class="clips"/></defs><g class="layer-above"><g class="imagelayer"/><g class="shapelayer"/></g><g class="infolayer"><g class="g-gtitle"><text class="gtitle" x="720" y="40" text-anchor="middle" dy="0em" style="opacity: 1; font-family: 'Open Sans', verdana, arial, sans-serif; font-size: 31px; fill: rgb(42, 63, 95); fill-opacity: 1; white-space: pre;">Total time: 498 ms</text></g></g></svg>