<svg class="main-svg" xmlns="http://www.w3.org/2000/svg" xmlns:xlink="http://www.w3.org/1999/xlink" width="700" height="500" style="" viewBox="0 0 700 500"><rect x="0" y="0" width="700" height="500" style="fill: rgb(255, 255, 255); fill-opacity: 1;"/><defs id="defs-c8846d"><g class="clips"/><g class="gradients"/><g class="patterns"/></defs><g class="bglayer"/><g class="layer-below"><g class="imagelayer"/><g class="shapelayer"/></g><g class="cartesianlayer"/><g class="polarlayer"/><g class="smithlayer"/><g class="ternarylayer"/><g class="geolayer"/><g class="funnelarealayer"/><g class="pielayer"/><g class="iciclelayer"/><g class="treemaplayer"/><g class="sunburstlayer"><g class="trace sunburst" stroke-linejoin="round" style="opacity: 1;"><g class="slice cursor-pointer"><path class="surface" d="M350,240L440,240A90,90 0,1,0 319.42054615184554,324.6457146130186L350,240A0,0 0,1,1 350,240Z" style="pointer-events: none; stroke-width: 1; fill: rgb(99, 110, 250); fill-opacity: 1; stroke: rgb(255, 255, 255); stroke-opacity: 1;"/><g class="slicetext"><text data-notex="1" class="slicetext" text-anchor="middle" x="0" y="0" style="font-family: 'Open Sans', verdana, arial, sans-serif; font-size: 18px; fill: rgb(255, 255, 255); fill-opacity: 1; white-space: pre;" transform="translate(350,184.69244629741962)"><tspan class="line" dy="0em" x="0" y="0">2019</tspan><tspan class="line" dy="1.3em" x="0" y="0">11.76 ms</tspan><tspan class="line" dy="2.6em" x="0" y="0">69%</tspan></text></g></g><g class="slice cursor-pointer"><path class="surface" d="M350,240L319.42054615184554,324.6457146130186A90,90 0,0,0 411.45465782298453,305.75199640969L350,240A0,0 0,0,1 350,240Z" style="pointer-events: none; stroke-width: 1; fill: rgb(239, 85, 59); fill-opacity: 1; stroke: rgb(255, 255, 255); stroke-opacity: 1;"/><g class="slicetext"><text data-notex="1" class="slicetext" text-anchor="middle" x="0" y="0" style="font-family: 'Open Sans', verdana, arial, sans-serif; font-size: 18px; fill: rgb(68, 68, 68); fill-opacity: 1; white-space: pre;" transform="translate(361.89167297495874,287.9103183453124)scale(0.6104862180753861)"><tspan class="line" dy="0em" x="0" y="0">2018</tspan><tspan class="line" dy="1.3em" x="0" y="0">2.96 ms</tspan><tspan class="line" dy="2.6em" x="0" y="0">17%</tspan></text></g></g><g class="slice cursor-pointer"><path class="surface" d="M350,240L411.45465782298453,305.75199640969A90,90 0,0,0 421.49724522216746,294.66391794997185L350,240A0,0 0,0,1 350,240Z" style="pointer-events: none; stroke-width: 1; fill: rgb(0, 204, 150); fill-opacity: 1; stroke: rgb(255, 255, 255); stroke-opacity: 1;"/><g class="slicetext"><text data-notex="1" class="slicetext" text-anchor="middle" x="0" y="0" style="font-family: 'Open Sans', verdana, arial, sans-serif; font-size: 18px; fill: rgb(68, 68, 68); fill-opacity: 1; white-space: pre;" transform="translate(411.5881081663783,293.54003243062044)scale(0.1365915088845289)"><tspan class="line" dy="0em" x="0" y="0">2015</tspan><tspan class="line" dy="1.3em" x="0" y="0">0.45 ms</tspan><tspan class="line" dy="2.6em" x="0" y="0">3%</tspan></text></g></g><g class="slice cursor-pointer"><path class="surface" d="M350,240L421.49724522216746,294.66391794997185A90,90 0,0,0 429.24533625410646,282.6635287098196L350,240A0,0 0,0,1 350,240Z" style="pointer-events: none; stroke-width: 1; fill: rgb(171, 99, 250); fill-opacity: 1; stroke: rgb(255, 255, 255); stroke-opacity: 1;"/><g class="slicetext"><text data-notex="1" class="slicetext" text-anchor="middle" x="0" y="0" style="font-family: 'Open Sans', verdana, arial, sans-serif; font-size: 18px; fill: rgb(68, 68, 68); fill-opacity: 1; white-space: pre;" transform="translate(420.0507034720152,283.08127343864817)scale(0.13087665449029157)"><tspan class="line" dy="0em" x="0" y="0">2023</tspan><tspan class="line" dy="1.3em" x="0" y="0">0.43 ms</tspan><tspan class="line" dy="2.6em" x="0" y="0">3%</tspan></text></g></g><g class="slice cursor-pointer"><path class="surface" d="M350,240L429.24533625410646,282.6635287098196A90,90 0,0,0 433.96161233355457,272.4106102125507L350,240A0,0 0,0,1 350,240Z" style="pointer-events: none; stroke-width: 1; fill: rgb(255, 161, 90); fill-opacity: 1; stroke: rgb(255, 255, 255); stroke-opacity: 1;"/><g class="slicetext"><text data-notex="1" class="slicetext" text-anchor="middle" x="0" y="0" style="font-family: 'Open Sans', verdana, arial, sans-serif; font-size: 18px; fill: rgb(68, 68, 68); fill-opacity: 1; white-space: pre;" transform="translate(426.94033793300906,273.6690265212418)scale(0.10502280696170897)"><tspan class="line" dy="0em" x="0" y="0">2024</tspan><tspan class="line" dy="1.3em" x="0" y="0">0.34 ms</tspan><tspan class="line" dy="2.6em" x="0" y="0">2%</tspan></text></g></g><g class="slice cursor-pointer"><path class="surface" d="M350,240L433.96161233355457,272.4106102125507A90,90 0,0,0 436.64042271590944,264.36056550264226L350,240A0,0 0,0,1 350,240Z" style="pointer-events: none; stroke-width: 1; fill: rgb(25, 211, 243); fill-opacity: 1; stroke: rgb(255, 255, 255); stroke-opacity: 1;"/><g class="slicetext"><text data-notex="1" class="slicetext" text-anchor="middle" x="0" y="0" style="font-family: 'Open Sans', verdana, arial, sans-serif; font-size: 18px; fill: rgb(68, 68, 68); fill-opacity: 1; white-space: pre;" transform="translate(431.55207952527127,265.82350167925887)scale(0.08012516421456023)"><tspan class="line" dy="0em" x="0" y="0">2017</tspan><tspan class="line" dy="1.3em" x="0" y="0">0.25 ms</tspan><tspan class="line" dy="2.6em" x="0" y="0">2%</tspan></text></g></g><g class="slice cursor-pointer"><path class="surface" d="M350,240L436.64042271590944,264.36056550264226A90,90 0,0,0 438.48847578239685,256.4252748442199L350,240A0,0 0,0,1 350,240Z" style="pointer-events: none; stroke-width: 1; fill: rgb(255, 102, 146); fill-opacity: 1; stroke: rgb(255, 255, 255); stroke-opacity: 1;"/><g class="slicetext"><text data-notex="1" class="slicetext" text-anchor="middle" x="0" y="0" style="font-family: 'Open Sans', verdana, arial, sans-serif; font-size: 18px; fill: rgb(68, 68, 68); fill-opacity: 1; white-space: pre;" transform="translate(433.8584641353576,258.2651460903581)scale(0.07708560479944768)"><tspan class="line" dy="0em" x="0" y="0">2021</tspan><tspan class="line" dy="1.3em" x="0" y="0">0.24 ms</tspan><tspan class="line" dy="2.6em" x="0" y="0">1%</tspan></text></g></g><g class="slice cursor-pointer"><path class="surface" d="M350,240L438.48847578239685,256.4252748442199A90,90 0,0,0 439.42837747206477,250.12745292331223L350,240A0,0 0,0,1 350,240Z" style="pointer-events: none; stroke-width: 1; fill: rgb(182, 232, 128); fill-opacity: 1; stroke: rgb(255, 255, 255); stroke-opacity: 1;"/><g class="slicetext"><text data-notex="1" class="slicetext" text-anchor="middle" x="0" y="0" style="font-family: 'Open Sans', verdana, arial, sans-serif; font-size: 18px; fill: rgb(68, 68, 68); fill-opacity: 1; white-space: pre;" transform="translate(435.9728181166762,251.83296337748573)scale(0.060819584087647045)"><tspan class="line" dy="0em" x="0" y="0">2022</tspan><tspan class="line" dy="1.3em" x="0" y="0">0.19 ms</tspan><tspan class="line" dy="2.6em" x="0" y="0">1%</tspan></text></g></g><g class="slice cursor-pointer"><path class="surface" d="M350,240L439.42837747206477,250.12745292331223A90,90 0,0,0 439.8621871687311,244.97868629780388L350,240A0,0 0,0,1 350,240Z" style="pointer-events: none; stroke-width: 1; fill: rgb(255, 151, 255); fill-opacity: 1; stroke: rgb(255, 255, 255); stroke-opacity: 1;"/><g class="slicetext"><text data-notex="1" class="slicetext" text-anchor="middle" x="0" y="0" style="font-family: 'Open Sans', verdana, arial, sans-serif; font-size: 18px; fill: rgb(68, 68, 68); fill-opacity: 1; white-space: pre;" transform="translate(437.17969335604,246.5303926217787)scale(0.04967244897371853)"><tspan class="line" dy="0em" x="0" y="0">2020</tspan><tspan class="line" dy="1.3em" x="0" y="0">0.15 ms</tspan><tspan class="line" dy="2.6em" x="0" y="0">1%</tspan></text></g></g><g class="slice cursor-pointer"><path class="surface" d="M350,240L439.8621871687311,244.97868629780388A90,90 0,0,0 440,240.00000000000003L350,240A0,0 0,0,1 350,240Z" style="pointer-events: none; stroke-width: 1; fill: rgb(254, 203, 82); fill-opacity: 1; stroke: rgb(255, 255, 255); stroke-opacity: 1;"/><g class="slicetext"><text data-notex="1" class="slicetext" text-anchor="middle" x="0" y="0" style="font-family: 'Open Sans', verdana, arial, sans-serif; font-size: 18px; fill: rgb(68, 68, 68); fill-opacity: 1; white-space: pre;" transform="translate(437.54322248700964,241.6369167941019)scale(0.0479286090672057)"><tspan class="line" dy="0em" x="0" y="0">2016</tspan><tspan class="line" dy="1.3em" x="0" y="0">0.15 ms</tspan><tspan class="line" dy="2.6em" x="0" y="0">1%</tspan></text></g></g><g class="slice"><path class="surface" d="M440,240L530,240A180,180 0,1,0 199.5003739864568,338.74139238325347L274.7501869932284,289.37069619162673A90,90 0,1,1 440,240Z" style="pointer-events: none; stroke-width: 1; fill: rgb(99, 110, 250); fill-opacity: 1; stroke: rgb(255, 255, 255); stroke-opacity: 1; opacity: 0.7;"/><g class="slicetext"><text data-notex="1" class="slicetext" text-anchor="middle" x="0" y="0" style="font-family: 'Open Sans', verdana, arial, sans-serif; font-size: 18px; fill: rgb(255, 255, 255); fill-opacity: 1; white-space: pre;" transform="translate(350,92.21235675757794)"><tspan class="line" dy="0em" x="0" y="0">03</tspan><tspan class="line" dy="1.3em" x="0" y="0">10.03 ms</tspan><tspan class="line" dy="2.6em" x="0" y="0">85%</tspan></text></g></g><g class="slice"><path class="surface" d="M274.7501869932284,289.37069619162673L199.5003739864568,338.74139238325347A180,180 0,0,0 288.6656980062444,409.22796281625205L319.3328490031222,324.61398140812605A90,90 0,0,1 274.7501869932284,289.37069619162673Z" style="pointer-events: none; stroke-width: 1; fill: rgb(99, 110, 250); fill-opacity: 1; stroke: rgb(255, 255, 255); stroke-opacity: 1; opacity: 0.7;"/><g class="slicetext"><text data-notex="1" class="slicetext" text-anchor="middle" x="0" y="0" style="font-family: 'Open Sans', verdana, arial, sans-serif; font-size: 18px; fill: rgb(255, 255, 255); fill-opacity: 1; white-space: pre;" transform="translate(265.15963633730064,333.3068714938892)scale(0.8543063017654728)"><tspan class="line" dy="0em" x="0" y="0">02</tspan><tspan class="line" dy="1.3em" x="0" y="0">1.73 ms</tspan><tspan class="line" dy="2.6em" x="0" y="0">15%</tspan></text></g></g><g class="slice"><path class="surface" d="M319.3328490031222,324.61398140812605L288.6656980062444,409.22796281625205A180,180 0,0,0 288.8410923036909,409.29142922603717L319.42054615184543,324.6457146130186A90,90 0,0,1 319.3328490031222,324.61398140812605Z" style="pointer-events: none; stroke-width: 1; fill: rgb(99, 110, 250); fill-opacity: 1; stroke: rgb(255, 255, 255); stroke-opacity: 1; opacity: 0.7;"/><g class="slicetext"><text data-notex="1" class="slicetext" text-anchor="middle" x="0" y="0" style="font-family: 'Open Sans', verdana, arial, sans-serif; font-size: 18px; fill: rgb(255, 255, 255); fill-opacity: 1; white-space: pre;" transform="translate(288.78510370587657,409.14373003057807)scale(0.001727206096483052)"><tspan class="line" dy="0em" x="0" y="0">01</tspan><tspan class="line" dy="1.3em" x="0" y="0">0.00 ms</tspan><tspan class="line" dy="2.6em" x="0" y="0">0.0237%</tspan></text></g></g><g class="slice"><path class="surface" d="M319.42054615184554,324.6457146130186L288.8410923036911,409.29142922603717A180,180 0,0,0 377.7212685142872,417.8525548648621L363.8606342571436,328.92627743243105A90,90 0,0,1 319.42054615184554,324.6457146130186Z" style="pointer-events: none; stroke-width: 1; fill: rgb(239, 85, 59); fill-opacity: 1; stroke: rgb(255, 255, 255); stroke-opacity: 1; opacity: 0.7;"/><g class="slicetext"><text data-notex="1" class="slicetext" text-anchor="middle" x="0" y="0" style="font-family: 'Open Sans', verdana, arial, sans-serif; font-size: 18px; fill: rgb(68, 68, 68); fill-opacity: 1; white-space: pre;" transform="translate(336.1717462871661,371.95451585387536)scale(0.7075415847866691)"><tspan class="line" dy="0em" x="0" y="0">02</tspan><tspan class="line" dy="1.3em" x="0" y="0">1.35 ms</tspan><tspan class="line" dy="2.6em" x="0" y="0">46%</tspan></text></g></g><g class="slice"><path class="surface" d="M363.8606342571436,328.92627743243105L377.7212685142872,417.8525548648621A180,180 0,0,0 446.6173698802477,391.87193235559823L398.30868494012384,315.9359661777991A90,90 0,0,1 363.8606342571436,328.92627743243105Z" style="pointer-events: none; stroke-width: 1; fill: rgb(239, 85, 59); fill-opacity: 1; stroke: rgb(255, 255, 255); stroke-opacity: 1; opacity: 0.7;"/><g class="slicetext"><text data-notex="1" class="slicetext" text-anchor="middle" x="0" y="0" style="font-family: 'Open Sans', verdana, arial, sans-serif; font-size: 18px; fill: rgb(68, 68, 68); fill-opacity: 1; white-space: pre;" transform="translate(402.7274676908698,369.9060875206518)scale(0.6045260033785174)"><tspan class="line" dy="0em" x="0" y="0">01</tspan><tspan class="line" dy="1.3em" x="0" y="0">1.11 ms</tspan><tspan class="line" dy="2.6em" x="0" y="0">38%</tspan></text></g></g><g class="slice"><path class="surface" d="M398.30868494012384,315.9359661777991L446.6173698802477,391.87193235559823A180,180 0,0,0 472.90931564596906,371.50399281937996L411.45465782298453,305.75199640969A90,90 0,0,1 398.30868494012384,315.9359661777991Z" style="pointer-events: none; stroke-width: 1; fill: rgb(239, 85, 59); fill-opacity: 1; stroke: rgb(255, 255, 255); stroke-opacity: 1; opacity: 0.7;"/><g class="slicetext"><text data-notex="1" class="slicetext" text-anchor="middle" x="0" y="0" style="font-family: 'Open Sans', verdana, arial, sans-serif; font-size: 18px; fill: rgb(68, 68, 68); fill-opacity: 1; white-space: pre;" transform="translate(450.91207244893434,365.3225850799171)scale(0.3010876420235929)"><tspan class="line" dy="0em" x="0" y="0">03</tspan><tspan class="line" dy="1.3em" x="0" y="0">0.50 ms</tspan><tspan class="line" dy="2.6em" x="0" y="0">17%</tspan></text></g></g><g class="slice"><path class="surface" d="M411.45465782298453,305.75199640969L472.90931564596906,371.50399281937996A180,180 0,0,0 491.1245054897728,351.73125771361873L420.5622527448864,295.8656288568094A90,90 0,0,1 411.45465782298453,305.75199640969Z" style="pointer-events: none; stroke-width: 1; fill: rgb(0, 204, 150); fill-opacity: 1; stroke: rgb(255, 255, 255); stroke-opacity: 1; opacity: 0.7;"/><g class="slicetext"><text data-notex="1" class="slicetext" text-anchor="middle" x="0" y="0" style="font-family: 'Open Sans', verdana, arial, sans-serif; font-size: 18px; fill: rgb(68, 68, 68); fill-opacity: 1; white-space: pre;" transform="translate(473.1871975430785,349.4246868405263)scale(0.24739125928851916)"><tspan class="line" dy="0em" x="0" y="0">03</tspan><tspan class="line" dy="1.3em" x="0" y="0">0.40 ms</tspan><tspan class="line" dy="2.6em" x="0" y="0">90%</tspan></text></g></g><g class="slice"><path class="surface" d="M420.5622527448864,295.8656288568094L491.1245054897728,351.73125771361873A180,180 0,0,0 492.312071146634,350.21467418613264L421.156035573317,295.1073370930663A90,90 0,0,1 420.5622527448864,295.8656288568094Z" style="pointer-events: none; stroke-width: 1; fill: rgb(0, 204, 150); fill-opacity: 1; stroke: rgb(255, 255, 255); stroke-opacity: 1; opacity: 0.7;"/><g class="slicetext"><text data-notex="1" class="slicetext" text-anchor="middle" x="0" y="0" style="font-family: 'Open Sans', verdana, arial, sans-serif; font-size: 18px; fill: rgb(68, 68, 68); fill-opacity: 1; white-space: pre;" transform="translate(490.96606097350195,350.0730711223977)scale(0.018947703593100808)"><tspan class="line" dy="0em" x="0" y="0">02</tspan><tspan class="line" dy="1.3em" x="0" y="0">0.03 ms</tspan><tspan class="line" dy="2.6em" x="0" y="0">6%</tspan></text></g></g><g class="slice"><path class="surface" d="M421.156035573317,295.1073370930663L492.312071146634,350.21467418613264A180,180 0,0,0 492.99449044433493,349.3278358999437L421.49724522216746,294.66391794997185A90,90 0,0,1 421.156035573317,295.1073370930663Z" style="pointer-events: none; stroke-width: 1; fill: rgb(0, 204, 150); fill-opacity: 1; stroke: rgb(255, 255, 255); stroke-opacity: 1; opacity: 0.7;"/><g class="slicetext"><text data-notex="1" class="slicetext" text-anchor="middle" x="0" y="0" style="font-family: 'Open Sans', verdana, arial, sans-serif; font-size: 18px; fill: rgb(68, 68, 68); fill-opacity: 1; white-space: pre;" transform="translate(492.2119248390627,349.2506399331617)scale(0.01103195896329682)"><tspan class="line" dy="0em" x="0" y="0">01</tspan><tspan class="line" dy="1.3em" x="0" y="0">0.02 ms</tspan><tspan class="line" dy="2.6em" x="0" y="0">4%</tspan></text></g></g><g class="slice"><path class="surface" d="M421.49724522216746,294.66391794997185L492.99449044433493,349.3278358999437A180,180 0,0,0 503.9230910452744,333.3149615177982L426.9615455226372,286.6574807588991A90,90 0,0,1 421.49724522216746,294.66391794997185Z" style="pointer-events: none; stroke-width: 1; fill: rgb(171, 99, 250); fill-opacity: 1; stroke: rgb(255, 255, 255); stroke-opacity: 1; opacity: 0.7;"/><g class="slicetext"><text data-notex="1" class="slicetext" text-anchor="middle" x="0" y="0" style="font-family: 'Open Sans', verdana, arial, sans-serif; font-size: 18px; fill: rgb(68, 68, 68); fill-opacity: 1; white-space: pre;" transform="translate(491.0772228261744,333.2988533670859)scale(0.18192524526070514)"><tspan class="line" dy="0em" x="0" y="0">01</tspan><tspan class="line" dy="1.3em" x="0" y="0">0.29 ms</tspan><tspan class="line" dy="2.6em" x="0" y="0">68%</tspan></text></g></g><g class="slice"><path class="surface" d="M426.9615455226372,286.6574807588991L503.9230910452744,333.3149615177982A180,180 0,0,0 507.4984674678895,327.1448951187972L428.7492337339447,283.5724475593986A90,90 0,0,1 426.9615455226372,286.6574807588991Z" style="pointer-events: none; stroke-width: 1; fill: rgb(171, 99, 250); fill-opacity: 1; stroke: rgb(255, 255, 255); stroke-opacity: 1; opacity: 0.7;"/><g class="slicetext"><text data-notex="1" class="slicetext" text-anchor="middle" x="0" y="0" style="font-family: 'Open Sans', verdana, arial, sans-serif; font-size: 18px; fill: rgb(68, 68, 68); fill-opacity: 1; white-space: pre;" transform="translate(502.7162277875441,327.3601404195254)scale(0.06915238118480214)"><tspan class="line" dy="0em" x="0" y="0">03</tspan><tspan class="line" dy="1.3em" x="0" y="0">0.11 ms</tspan><tspan class="line" dy="2.6em" x="0" y="0">25%</tspan></text></g></g><g class="slice"><path class="surface" d="M428.7492337339447,283.5724475593986L507.4984674678895,327.1448951187972A180,180 0,0,0 508.490672508213,325.327057419639L429.2453362541065,282.6635287098195A90,90 0,0,1 428.7492337339447,283.5724475593986Z" style="pointer-events: none; stroke-width: 1; fill: rgb(171, 99, 250); fill-opacity: 1; stroke: rgb(255, 255, 255); stroke-opacity: 1; opacity: 0.7;"/><g class="slicetext"><text data-notex="1" class="slicetext" text-anchor="middle" x="0" y="0" style="font-family: 'Open Sans', verdana, arial, sans-serif; font-size: 18px; fill: rgb(68, 68, 68); fill-opacity: 1; white-space: pre;" transform="translate(507.0934644313263,325.4100481468248)scale(0.020363594549659466)"><tspan class="line" dy="0em" x="0" y="0">02</tspan><tspan class="line" dy="1.3em" x="0" y="0">0.03 ms</tspan><tspan class="line" dy="2.6em" x="0" y="0">7%</tspan></text></g></g><g class="slice"><path class="surface" d="M429.24533625410646,282.6635287098196L508.4906725082129,325.3270574196392A180,180 0,0,0 513.4098267133269,315.4799876359323L431.70491335666344,277.73999381796614A90,90 0,0,1 429.24533625410646,282.6635287098196Z" style="pointer-events: none; stroke-width: 1; fill: rgb(255, 161, 90); fill-opacity: 1; stroke: rgb(255, 255, 255); stroke-opacity: 1; opacity: 0.7;"/><g class="slicetext"><text data-notex="1" class="slicetext" text-anchor="middle" x="0" y="0" style="font-family: 'Open Sans', verdana, arial, sans-serif; font-size: 18px; fill: rgb(68, 68, 68); fill-opacity: 1; white-space: pre;" transform="translate(506.24807971134453,316.3215978369495)scale(0.10562630737563483)"><tspan class="line" dy="0em" x="0" y="0">01</tspan><tspan class="line" dy="1.3em" x="0" y="0">0.16 ms</tspan><tspan class="line" dy="2.6em" x="0" y="0">49%</tspan></text></g></g><g class="slice"><path class="surface" d="M431.70491335666344,277.73999381796614L513.4098267133269,315.4799876359323A180,180 0,0,0 516.6073142629025,308.13224518612657L433.30365713145125,274.0661225930633A90,90 0,0,1 431.70491335666344,277.73999381796614Z" style="pointer-events: none; stroke-width: 1; fill: rgb(255, 161, 90); fill-opacity: 1; stroke: rgb(255, 255, 255); stroke-opacity: 1; opacity: 0.7;"/><g class="slicetext"><text data-notex="1" class="slicetext" text-anchor="middle" x="0" y="0" style="font-family: 'Open Sans', verdana, arial, sans-serif; font-size: 18px; fill: rgb(68, 68, 68); fill-opacity: 1; white-space: pre;" transform="translate(511.4555898877223,308.98815320894266)scale(0.07752087859683968)"><tspan class="line" dy="0em" x="0" y="0">02</tspan><tspan class="line" dy="1.3em" x="0" y="0">0.12 ms</tspan><tspan class="line" dy="2.6em" x="0" y="0">35%</tspan></text></g></g><g class="slice"><path class="surface" d="M433.30365713145125,274.0661225930633L516.6073142629025,308.13224518612657A180,180 0,0,0 517.9232246671091,304.82122042510133L433.96161233355457,272.4106102125507A90,90 0,0,1 433.30365713145125,274.0661225930633Z" style="pointer-events: none; stroke-width: 1; fill: rgb(255, 161, 90); fill-opacity: 1; stroke: rgb(255, 255, 255); stroke-opacity: 1; opacity: 0.7;"/><g class="slicetext"><text data-notex="1" class="slicetext" text-anchor="middle" x="0" y="0" style="font-family: 'Open Sans', verdana, arial, sans-serif; font-size: 18px; fill: rgb(68, 68, 68); fill-opacity: 1; white-space: pre;" transform="translate(515.6341737263682,305.25607117401864)scale(0.03488977724876525)"><tspan class="line" dy="0em" x="0" y="0">03</tspan><tspan class="line" dy="1.3em" x="0" y="0">0.05 ms</tspan><tspan class="line" dy="2.6em" x="0" y="0">16%</tspan></text></g></g><g class="slice"><path class="surface" d="M433.96161233355457,272.4106102125507L517.9232246671091,304.82122042510133A180,180 0,0,0 522.6986383314494,290.7462345249698L436.3493191657247,265.37311726248487A90,90 0,0,1 433.96161233355457,272.4106102125507Z" style="pointer-events: none; stroke-width: 1; fill: rgb(25, 211, 243); fill-opacity: 1; stroke: rgb(255, 255, 255); stroke-opacity: 1; opacity: 0.7;"/><g class="slicetext"><text data-notex="1" class="slicetext" text-anchor="middle" x="0" y="0" style="font-family: 'Open Sans', verdana, arial, sans-serif; font-size: 18px; fill: rgb(68, 68, 68); fill-opacity: 1; white-space: pre;" transform="translate(513.6978074616931,293.22413245283997)scale(0.14115776950815545)"><tspan class="line" dy="0em" x="0" y="0">03</tspan><tspan class="line" dy="1.3em" x="0" y="0">0.22 ms</tspan><tspan class="line" dy="2.6em" x="0" y="0">88%</tspan></text></g></g><g class="slice"><path class="surface" d="M436.3493191657247,265.37311726248487L522.6986383314494,290.7462345249698A180,180 0,0,0 523.2446322508303,288.84974305228826L436.6223161254151,264.4248715261441A90,90 0,0,1 436.3493191657247,265.37311726248487Z" style="pointer-events: none; stroke-width: 1; fill: rgb(25, 211, 243); fill-opacity: 1; stroke: rgb(255, 255, 255); stroke-opacity: 1; opacity: 0.7;"/><g class="slicetext"><text data-notex="1" class="slicetext" text-anchor="middle" x="0" y="0" style="font-family: 'Open Sans', verdana, arial, sans-serif; font-size: 18px; fill: rgb(68, 68, 68); fill-opacity: 1; white-space: pre;" transform="translate(522.0311586654227,289.20877621452513)scale(0.019410426933789474)"><tspan class="line" dy="0em" x="0" y="0">02</tspan><tspan class="line" dy="1.3em" x="0" y="0">0.03 ms</tspan><tspan class="line" dy="2.6em" x="0" y="0">12%</tspan></text></g></g><g class="slice"><path class="surface" d="M436.6223161254151,264.4248715261441L523.2446322508303,288.84974305228826A180,180 0,0,0 523.2808454318189,288.7211310052845L436.64042271590944,264.36056550264226A90,90 0,0,1 436.6223161254151,264.4248715261441Z" style="pointer-events: none; stroke-width: 1; fill: rgb(25, 211, 243); fill-opacity: 1; stroke: rgb(255, 255, 255); stroke-opacity: 1; opacity: 0.7;"/><g class="slicetext"><text data-notex="1" class="slicetext" text-anchor="middle" x="0" y="0" style="font-family: 'Open Sans', verdana, arial, sans-serif; font-size: 18px; fill: rgb(68, 68, 68); fill-opacity: 1; white-space: pre;" transform="translate(523.1984686094906,288.7456702359296)scale(0.0013208551735360418)"><tspan class="line" dy="0em" x="0" y="0">01</tspan><tspan class="line" dy="1.3em" x="0" y="0">0.00 ms</tspan><tspan class="line" dy="2.6em" x="0" y="0">1%</tspan></text></g></g><g class="slice"><path class="surface" d="M436.64042271590944,264.36056550264226L523.2808454318189,288.7211310052845A180,180 0,0,0 525.9472158167528,277.98127494349086L437.9736079083764,258.9906374717454A90,90 0,0,1 436.64042271590944,264.36056550264226Z" style="pointer-events: none; stroke-width: 1; fill: rgb(255, 102, 146); fill-opacity: 1; stroke: rgb(255, 255, 255); stroke-opacity: 1; opacity: 0.7;"/><g class="slicetext"><text data-notex="1" class="slicetext" text-anchor="middle" x="0" y="0" style="font-family: 'Open Sans', verdana, arial, sans-serif; font-size: 18px; fill: rgb(68, 68, 68); fill-opacity: 1; white-space: pre;" transform="translate(519.4867956611662,280.33640484215294)scale(0.10617088235170992)"><tspan class="line" dy="0em" x="0" y="0">03</tspan><tspan class="line" dy="1.3em" x="0" y="0">0.17 ms</tspan><tspan class="line" dy="2.6em" x="0" y="0">68%</tspan></text></g></g><g class="slice"><path class="surface" d="M437.9736079083764,258.9906374717454L525.9472158167528,277.98127494349086A180,180 0,0,0 526.8657115457211,273.44428320992665L438.43285577286053,256.7221416049633A90,90 0,0,1 437.9736079083764,258.9906374717454Z" style="pointer-events: none; stroke-width: 1; fill: rgb(255, 102, 146); fill-opacity: 1; stroke: rgb(255, 255, 255); stroke-opacity: 1; opacity: 0.7;"/><g class="slicetext"><text data-notex="1" class="slicetext" text-anchor="middle" x="0" y="0" style="font-family: 'Open Sans', verdana, arial, sans-serif; font-size: 18px; fill: rgb(68, 68, 68); fill-opacity: 1; white-space: pre;" transform="translate(524.1813520156626,274.52080233927694)scale(0.04519691154246742)"><tspan class="line" dy="0em" x="0" y="0">01</tspan><tspan class="line" dy="1.3em" x="0" y="0">0.07 ms</tspan><tspan class="line" dy="2.6em" x="0" y="0">28%</tspan></text></g></g><g class="slice"><path class="surface" d="M438.43285577286053,256.7221416049633L526.8657115457211,273.44428320992665A180,180 0,0,0 526.9769515647937,272.85054968843986L438.48847578239685,256.4252748442199A90,90 0,0,1 438.43285577286053,256.7221416049633Z" style="pointer-events: none; stroke-width: 1; fill: rgb(255, 102, 146); fill-opacity: 1; stroke: rgb(255, 255, 255); stroke-opacity: 1; opacity: 0.7;"/><g class="slicetext"><text data-notex="1" class="slicetext" text-anchor="middle" x="0" y="0" style="font-family: 'Open Sans', verdana, arial, sans-serif; font-size: 18px; fill: rgb(68, 68, 68); fill-opacity: 1; white-space: pre;" transform="translate(526.625211154628,272.9940927976105)scale(0.0059637929256952625)"><tspan class="line" dy="0em" x="0" y="0">02</tspan><tspan class="line" dy="1.3em" x="0" y="0">0.01 ms</tspan><tspan class="line" dy="2.6em" x="0" y="0">4%</tspan></text></g></g><g class="slice"><path class="surface" d="M438.48847578239685,256.4252748442199L526.9769515647937,272.85054968843986A180,180 0,0,0 528.3195338114278,264.53861979156585L439.1597669057139,252.26930989578292A90,90 0,0,1 438.48847578239685,256.4252748442199Z" style="pointer-events: none; stroke-width: 1; fill: rgb(182, 232, 128); fill-opacity: 1; stroke: rgb(255, 255, 255); stroke-opacity: 1; opacity: 0.7;"/><g class="slicetext"><text data-notex="1" class="slicetext" text-anchor="middle" x="0" y="0" style="font-family: 'Open Sans', verdana, arial, sans-serif; font-size: 18px; fill: rgb(68, 68, 68); fill-opacity: 1; white-space: pre;" transform="translate(523.6358622912321,266.7116403185626)scale(0.08136202692828806)"><tspan class="line" dy="0em" x="0" y="0">03</tspan><tspan class="line" dy="1.3em" x="0" y="0">0.13 ms</tspan><tspan class="line" dy="2.6em" x="0" y="0">66%</tspan></text></g></g><g class="slice"><path class="surface" d="M439.1597669057139,252.26930989578292L528.3195338114278,264.53861979156585A180,180 0,0,0 528.761839007329,261.07616935588175L439.3809195036645,250.53808467794087A90,90 0,0,1 439.1597669057139,252.26930989578292Z" style="pointer-events: none; stroke-width: 1; fill: rgb(182, 232, 128); fill-opacity: 1; stroke: rgb(255, 255, 255); stroke-opacity: 1; opacity: 0.7;"/><g class="slicetext"><text data-notex="1" class="slicetext" text-anchor="middle" x="0" y="0" style="font-family: 'Open Sans', verdana, arial, sans-serif; font-size: 18px; fill: rgb(68, 68, 68); fill-opacity: 1; white-space: pre;" transform="translate(526.834479326217,262.0285390655568)scale(0.034188118054871965)"><tspan class="line" dy="0em" x="0" y="0">01</tspan><tspan class="line" dy="1.3em" x="0" y="0">0.05 ms</tspan><tspan class="line" dy="2.6em" x="0" y="0">27%</tspan></text></g></g><g class="slice"><path class="surface" d="M439.3809195036645,250.53808467794087L528.761839007329,261.07616935588175A180,180 0,0,0 528.8567549441295,260.25490584662447L439.42837747206477,250.12745292331223A90,90 0,0,1 439.3809195036645,250.53808467794087Z" style="pointer-events: none; stroke-width: 1; fill: rgb(182, 232, 128); fill-opacity: 1; stroke: rgb(255, 255, 255); stroke-opacity: 1; opacity: 0.7;"/><g class="slicetext"><text data-notex="1" class="slicetext" text-anchor="middle" x="0" y="0" style="font-family: 'Open Sans', verdana, arial, sans-serif; font-size: 18px; fill: rgb(68, 68, 68); fill-opacity: 1; white-space: pre;" transform="translate(528.4000775680307,260.4844156834635)scale(0.008157085174604783)"><tspan class="line" dy="0em" x="0" y="0">02</tspan><tspan class="line" dy="1.3em" x="0" y="0">0.01 ms</tspan><tspan class="line" dy="2.6em" x="0" y="0">6%</tspan></text></g></g><g class="slice"><path class="surface" d="M439.42837747206477,250.12745292331223L528.8567549441295,260.25490584662447A180,180 0,0,0 529.3741427792271,254.99722981811766L439.68707138961355,247.49861490905883A90,90 0,0,1 439.42837747206477,250.12745292331223Z" style="pointer-events: none; stroke-width: 1; fill: rgb(255, 151, 255); fill-opacity: 1; stroke: rgb(255, 255, 255); stroke-opacity: 1; opacity: 0.7;"/><g class="slicetext"><text data-notex="1" class="slicetext" text-anchor="middle" x="0" y="0" style="font-family: 'Open Sans', verdana, arial, sans-serif; font-size: 18px; fill: rgb(68, 68, 68); fill-opacity: 1; white-space: pre;" transform="translate(526.543922006842,256.5282481290043)scale(0.05149047212625765)"><tspan class="line" dy="0em" x="0" y="0">01</tspan><tspan class="line" dy="1.3em" x="0" y="0">0.08 ms</tspan><tspan class="line" dy="2.6em" x="0" y="0">51%</tspan></text></g></g><g class="slice"><path class="surface" d="M439.68707138961355,247.49861490905883L529.3741427792271,254.99722981811766A180,180 0,0,0 529.6406073869332,251.36891277359916L439.8203036934666,245.68445638679958A90,90 0,0,1 439.68707138961355,247.49861490905883Z" style="pointer-events: none; stroke-width: 1; fill: rgb(255, 151, 255); fill-opacity: 1; stroke: rgb(255, 255, 255); stroke-opacity: 1; opacity: 0.7;"/><g class="slicetext"><text data-notex="1" class="slicetext" text-anchor="middle" x="0" y="0" style="font-family: 'Open Sans', verdana, arial, sans-serif; font-size: 18px; fill: rgb(68, 68, 68); fill-opacity: 1; white-space: pre;" transform="translate(527.7205336621274,252.4674816050045)scale(0.03561835047493676)"><tspan class="line" dy="0em" x="0" y="0">02</tspan><tspan class="line" dy="1.3em" x="0" y="0">0.05 ms</tspan><tspan class="line" dy="2.6em" x="0" y="0">35%</tspan></text></g></g><g class="slice"><path class="surface" d="M439.8203036934666,245.68445638679958L529.6406073869332,251.36891277359916A180,180 0,0,0 529.7243743374622,249.95737259560778L439.8621871687311,244.97868629780388A90,90 0,0,1 439.8203036934666,245.68445638679958Z" style="pointer-events: none; stroke-width: 1; fill: rgb(255, 151, 255); fill-opacity: 1; stroke: rgb(255, 255, 255); stroke-opacity: 1; opacity: 0.7;"/><g class="slicetext"><text data-notex="1" class="slicetext" text-anchor="middle" x="0" y="0" style="font-family: 'Open Sans', verdana, arial, sans-serif; font-size: 18px; fill: rgb(68, 68, 68); fill-opacity: 1; white-space: pre;" transform="translate(528.980868163899,250.39298182979027)scale(0.013929051660271011)"><tspan class="line" dy="0em" x="0" y="0">03</tspan><tspan class="line" dy="1.3em" x="0" y="0">0.02 ms</tspan><tspan class="line" dy="2.6em" x="0" y="0">14%</tspan></text></g></g><g class="slice"><path class="surface" d="M439.8621871687311,244.97868629780388L529.7243743374622,249.95737259560778A180,180 0,0,0 529.9146865183541,245.54126113826013L439.95734325917704,242.77063056913008A90,90 0,0,1 439.8621871687311,244.97868629780388Z" style="pointer-events: none; stroke-width: 1; fill: rgb(254, 203, 82); fill-opacity: 1; stroke: rgb(255, 255, 255); stroke-opacity: 1; opacity: 0.7;"/><g class="slicetext"><text data-notex="1" class="slicetext" text-anchor="middle" x="0" y="0" style="font-family: 'Open Sans', verdana, arial, sans-serif; font-size: 18px; fill: rgb(68, 68, 68); fill-opacity: 1; white-space: pre;" transform="translate(527.6518133265887,246.94743202707915)scale(0.04318275908597502)"><tspan class="line" dy="0em" x="0" y="0">01</tspan><tspan class="line" dy="1.3em" x="0" y="0">0.07 ms</tspan><tspan class="line" dy="2.6em" x="0" y="0">44%</tspan></text></g></g><g class="slice"><path class="surface" d="M439.95734325917704,242.77063056913008L529.9146865183541,245.54126113826013A180,180 0,0,0 529.995225225787,241.3110667100607L439.9976126128935,240.65553335503034A90,90 0,0,1 439.95734325917704,242.77063056913008Z" style="pointer-events: none; stroke-width: 1; fill: rgb(254, 203, 82); fill-opacity: 1; stroke: rgb(255, 255, 255); stroke-opacity: 1; opacity: 0.7;"/><g class="slicetext"><text data-notex="1" class="slicetext" text-anchor="middle" x="0" y="0" style="font-family: 'Open Sans', verdana, arial, sans-serif; font-size: 18px; fill: rgb(68, 68, 68); fill-opacity: 1; white-space: pre;" transform="translate(527.8768573905313,242.70811219175968)scale(0.04135538577468567)"><tspan class="line" dy="0em" x="0" y="0">03</tspan><tspan class="line" dy="1.3em" x="0" y="0">0.06 ms</tspan><tspan class="line" dy="2.6em" x="0" y="0">42%</tspan></text></g></g><g class="slice"><path class="surface" d="M439.9976126128935,240.65553335503034L529.995225225787,241.3110667100607A180,180 0,0,0 530,239.9999999999999L440,239.99999999999994A90,90 0,0,1 439.9976126128935,240.65553335503034Z" style="pointer-events: none; stroke-width: 1; fill: rgb(254, 203, 82); fill-opacity: 1; stroke: rgb(255, 255, 255); stroke-opacity: 1; opacity: 0.7;"/><g class="slicetext"><text data-notex="1" class="slicetext" text-anchor="middle" x="0" y="0" style="font-family: 'Open Sans', verdana, arial, sans-serif; font-size: 18px; fill: rgb(68, 68, 68); fill-opacity: 1; white-space: pre;" transform="translate(529.3456516557715,240.44121278035897)scale(0.01291862539469423)"><tspan class="line" dy="0em" x="0" y="0">02</tspan><tspan class="line" dy="1.3em" x="0" y="0">0.02 ms</tspan><tspan class="line" dy="2.6em" x="0" y="0">13%</tspan></text></g></g></g></g><g class="glimages"/><defs id="topdefs-c8846d"><g class="clips"/></defs><g class="layer-above"><g class="imagelayer"/><g class="shapelayer"/></g><g class="infolayer"><g class="g-gtitle"><text class="gtitle" x="350" y="30" text-anchor="middle" dy="0em" style="opacity: 1; font-family: 'Open Sans', verdana, arial, sans-serif; font-size: 25px; fill: rgb(42, 63, 95); fill-opacity: 1; white-space: pre;">Total time: 17 ms</text></g></g></svg>