<svg class="main-svg" xmlns="http://www.w3.org/2000/svg" xmlns:xlink="http://www.w3.org/1999/xlink" width="1440" height="1440" style="" viewBox="0 0 1440 1440"><rect x="0" y="0" width="1440" height="1440" style="fill: rgb(255, 255, 255); fill-opacity: 1;"/><defs id="defs-34bd44"><g class="clips"/><g class="gradients"/><g class="patterns"/></defs><g class="bglayer"/><g class="layer-below"><g class="imagelayer"/><g class="shapelayer"/></g><g class="cartesianlayer"/><g class="polarlayer"/><g class="smithlayer"/><g class="ternarylayer"/><g class="geolayer"/><g class="funnelarealayer"/><g class="pielayer"/><g class="iciclelayer"/><g class="treemaplayer"/><g class="sunburstlayer"><g class="trace sunburst" stroke-linejoin="round" style="opacity: 1;"><g class="slice cursor-pointer"><path class="surface" d="M720,755L1057.5,755A337.5,337.5 0,0,0 382.5009181762309,754.212746474879L720,755A0,0 0,0,1 720,755Z" style="pointer-events: none; stroke-width: 1; fill: rgb(99, 110, 250); fill-opacity: 1; stroke: rgb(255, 255, 255); stroke-opacity: 1;"/><g class="slicetext"><text data-notex="1" class="slicetext" text-anchor="middle" x="0" y="0" style="font-family: 'Open Sans', verdana, arial, sans-serif; font-size: 22px; fill: rgb(255, 255, 255); fill-opacity: 1; white-space: pre;" transform="translate(720.1968135820687,566.3984948860534)"><tspan class="line" dy="0em" x="0" y="0">2019</tspan><tspan class="line" dy="1.3em" x="0" y="0">12.37 ms</tspan><tspan class="line" dy="2.6em" x="0" y="0">50%</tspan></text></g></g><g class="slice cursor-pointer"><path class="surface" d="M720,755L382.5009181762309,754.212746474879A337.5,337.5 0,0,0 839.1310656952176,1070.7752985689694L720,755A0,0 0,0,1 720,755Z" style="pointer-events: none; stroke-width: 1; fill: rgb(239, 85, 59); fill-opacity: 1; stroke: rgb(255, 255, 255); stroke-opacity: 1;"/><g class="slicetext"><text data-notex="1" class="slicetext" text-anchor="middle" x="0" y="0" style="font-family: 'Open Sans', verdana, arial, sans-serif; font-size: 22px; fill: rgb(68, 68, 68); fill-opacity: 1; white-space: pre;" transform="translate(614.5307891033585,887.2839981083503)"><tspan class="line" dy="0em" x="0" y="0">2024</tspan><tspan class="line" dy="1.3em" x="0" y="0">7.62 ms</tspan><tspan class="line" dy="2.6em" x="0" y="0">31%</tspan></text></g></g><g class="slice cursor-pointer"><path class="surface" d="M720,755L839.1310656952176,1070.7752985689694A337.5,337.5 0,0,0 1019.5140243161634,910.5557753281332L720,755A0,0 0,0,1 720,755Z" style="pointer-events: none; stroke-width: 1; fill: rgb(0, 204, 150); fill-opacity: 1; stroke: rgb(255, 255, 255); stroke-opacity: 1;"/><g class="slicetext"><text data-notex="1" class="slicetext" text-anchor="middle" x="0" y="0" style="font-family: 'Open Sans', verdana, arial, sans-serif; font-size: 22px; fill: rgb(68, 68, 68); fill-opacity: 1; white-space: pre;" transform="translate(885.1124745791382,921.0401195332889)"><tspan class="line" dy="0em" x="0" y="0">2018</tspan><tspan class="line" dy="1.3em" x="0" y="0">2.88 ms</tspan><tspan class="line" dy="2.6em" x="0" y="0">12%</tspan></text></g></g><g class="slice cursor-pointer"><path class="surface" d="M720,755L1019.5140243161634,910.5557753281332A337.5,337.5 0,0,0 1035.2781946538926,875.4404831266554L720,755A0,0 0,0,1 720,755Z" style="pointer-events: none; stroke-width: 1; fill: rgb(171, 99, 250); fill-opacity: 1; stroke: rgb(255, 255, 255); stroke-opacity: 1;"/><g class="slicetext"><text data-notex="1" class="slicetext" text-anchor="middle" x="0" y="0" style="font-family: 'Open Sans', verdana, arial, sans-serif; font-size: 22px; fill: rgb(68, 68, 68); fill-opacity: 1; white-space: pre;" transform="translate(1011.2866786021823,879.9042477291928)scale(0.2952884894776772)"><tspan class="line" dy="0em" x="0" y="0">2015</tspan><tspan class="line" dy="1.3em" x="0" y="0">0.45 ms</tspan><tspan class="line" dy="2.6em" x="0" y="0">2%</tspan></text></g></g><g class="slice cursor-pointer"><path class="surface" d="M720,755L1035.2781946538926,875.4404831266554A337.5,337.5 0,0,0 1046.6561508861507,839.8646515826488L720,755A0,0 0,0,1 720,755Z" style="pointer-events: none; stroke-width: 1; fill: rgb(255, 161, 90); fill-opacity: 1; stroke: rgb(255, 255, 255); stroke-opacity: 1;"/><g class="slicetext"><text data-notex="1" class="slicetext" text-anchor="middle" x="0" y="0" style="font-family: 'Open Sans', verdana, arial, sans-serif; font-size: 22px; fill: rgb(68, 68, 68); fill-opacity: 1; white-space: pre;" transform="translate(1024.6044613334648,846.7220396457543)scale(0.28699817460558946)"><tspan class="line" dy="0em" x="0" y="0">2023</tspan><tspan class="line" dy="1.3em" x="0" y="0">0.44 ms</tspan><tspan class="line" dy="2.6em" x="0" y="0">2%</tspan></text></g></g><g class="slice cursor-pointer"><path class="surface" d="M720,755L1046.6561508861507,839.8646515826488A337.5,337.5 0,0,0 1051.5755421822225,817.9595888373262L720,755A0,0 0,0,1 720,755Z" style="pointer-events: none; stroke-width: 1; fill: rgb(25, 211, 243); fill-opacity: 1; stroke: rgb(255, 255, 255); stroke-opacity: 1;"/><g class="slicetext"><text data-notex="1" class="slicetext" text-anchor="middle" x="0" y="0" style="font-family: 'Open Sans', verdana, arial, sans-serif; font-size: 22px; fill: rgb(68, 68, 68); fill-opacity: 1; white-space: pre;" transform="translate(1038.6980651225483,823.0748284060105)scale(0.17619213287835572)"><tspan class="line" dy="0em" x="0" y="0">2017</tspan><tspan class="line" dy="1.3em" x="0" y="0">0.26 ms</tspan><tspan class="line" dy="2.6em" x="0" y="0">1%</tspan></text></g></g><g class="slice cursor-pointer"><path class="surface" d="M720,755L1051.5755421822225,817.9595888373262A337.5,337.5 0,0,0 1054.85532140072,797.1682787130396L720,755A0,0 0,0,1 720,755Z" style="pointer-events: none; stroke-width: 1; fill: rgb(255, 102, 146); fill-opacity: 1; stroke: rgb(255, 255, 255); stroke-opacity: 1;"/><g class="slicetext"><text data-notex="1" class="slicetext" text-anchor="middle" x="0" y="0" style="font-family: 'Open Sans', verdana, arial, sans-serif; font-size: 22px; fill: rgb(68, 68, 68); fill-opacity: 1; white-space: pre;" transform="translate(1043.2962623078215,802.7133763059203)scale(0.16552008514229719)"><tspan class="line" dy="0em" x="0" y="0">2021</tspan><tspan class="line" dy="1.3em" x="0" y="0">0.25 ms</tspan><tspan class="line" dy="2.6em" x="0" y="0">1%</tspan></text></g></g><g class="slice cursor-pointer"><path class="surface" d="M720,755L1054.85532140072,797.1682787130396A337.5,337.5 0,0,0 1056.502867760353,780.9243127017558L720,755A0,0 0,0,1 720,755Z" style="pointer-events: none; stroke-width: 1; fill: rgb(182, 232, 128); fill-opacity: 1; stroke: rgb(255, 255, 255); stroke-opacity: 1;"/><g class="slicetext"><text data-notex="1" class="slicetext" text-anchor="middle" x="0" y="0" style="font-family: 'Open Sans', verdana, arial, sans-serif; font-size: 22px; fill: rgb(68, 68, 68); fill-opacity: 1; white-space: pre;" transform="translate(1047.8471751725585,785.6857078709673)scale(0.12927115407816522)"><tspan class="line" dy="0em" x="0" y="0">2022</tspan><tspan class="line" dy="1.3em" x="0" y="0">0.19 ms</tspan><tspan class="line" dy="2.6em" x="0" y="0">1%</tspan></text></g></g><g class="slice cursor-pointer"><path class="surface" d="M720,755L1056.502867760353,780.9243127017558A337.5,337.5 0,0,0 1057.2604738554496,767.7130946192306L720,755A0,0 0,0,1 720,755Z" style="pointer-events: none; stroke-width: 1; fill: rgb(255, 151, 255); fill-opacity: 1; stroke: rgb(255, 255, 255); stroke-opacity: 1;"/><g class="slicetext"><text data-notex="1" class="slicetext" text-anchor="middle" x="0" y="0" style="font-family: 'Open Sans', verdana, arial, sans-serif; font-size: 22px; fill: rgb(68, 68, 68); fill-opacity: 1; white-space: pre;" transform="translate(1050.4678258825234,771.8616691329936)scale(0.10524251281610413)"><tspan class="line" dy="0em" x="0" y="0">2020</tspan><tspan class="line" dy="1.3em" x="0" y="0">0.15 ms</tspan><tspan class="line" dy="2.6em" x="0" y="0">1%</tspan></text></g></g><g class="slice cursor-pointer"><path class="surface" d="M720,755L1057.2604738554496,767.7130946192306A337.5,337.5 0,0,0 1057.5,755.0000000000001L720,755A0,0 0,0,1 720,755Z" style="pointer-events: none; stroke-width: 1; fill: rgb(254, 203, 82); fill-opacity: 1; stroke: rgb(255, 255, 255); stroke-opacity: 1;"/><g class="slicetext"><text data-notex="1" class="slicetext" text-anchor="middle" x="0" y="0" style="font-family: 'Open Sans', verdana, arial, sans-serif; font-size: 22px; fill: rgb(68, 68, 68); fill-opacity: 1; white-space: pre;" transform="translate(1051.2010937240484,759.2311023705878)scale(0.1012023270094731)"><tspan class="line" dy="0em" x="0" y="0">2016</tspan><tspan class="line" dy="1.3em" x="0" y="0">0.15 ms</tspan><tspan class="line" dy="2.6em" x="0" y="0">1%</tspan></text></g></g><g class="slice"><path class="surface" d="M1057.5,755L1395,755A675,675 0,0,0 130.67532503671111,425.8777924852019L425.33766251835556,590.438896242601A337.5,337.5 0,0,1 1057.5,755Z" style="pointer-events: none; stroke-width: 1; fill: rgb(99, 110, 250); fill-opacity: 1; stroke: rgb(255, 255, 255); stroke-opacity: 1; opacity: 0.7;"/><g class="slicetext"><text data-notex="1" class="slicetext" text-anchor="middle" x="0" y="0" style="font-family: 'Open Sans', verdana, arial, sans-serif; font-size: 22px; fill: rgb(255, 255, 255); fill-opacity: 1; white-space: pre;" transform="translate(847.534015021241,245.22585431714458)"><tspan class="line" dy="0em" x="0" y="0">03</tspan><tspan class="line" dy="1.3em" x="0" y="0">10.37 ms</tspan><tspan class="line" dy="2.6em" x="0" y="0">84%</tspan></text></g></g><g class="slice"><path class="surface" d="M425.33766251835556,590.438896242601L130.67532503671111,425.8777924852019A675,675 0,0,0 45.00301391007201,752.9828808876287L382.501506955036,753.9914404438143A337.5,337.5 0,0,1 425.33766251835556,590.438896242601Z" style="pointer-events: none; stroke-width: 1; fill: rgb(99, 110, 250); fill-opacity: 1; stroke: rgb(255, 255, 255); stroke-opacity: 1; opacity: 0.7;"/><g class="slicetext"><text data-notex="1" class="slicetext" text-anchor="middle" x="0" y="0" style="font-family: 'Open Sans', verdana, arial, sans-serif; font-size: 22px; fill: rgb(255, 255, 255); fill-opacity: 1; white-space: pre;" transform="translate(197.81725973788355,598.3832089088171)"><tspan class="line" dy="0em" x="0" y="0">02</tspan><tspan class="line" dy="1.3em" x="0" y="0">1.99 ms</tspan><tspan class="line" dy="2.6em" x="0" y="0">16%</tspan></text></g></g><g class="slice"><path class="surface" d="M382.501506955036,753.9914404438143L45.00301391007201,752.9828808876287A675,675 0,0,0 45.00183635246185,753.4254929497579L382.5009181762309,754.2127464748789A337.5,337.5 0,0,1 382.501506955036,753.9914404438143Z" style="pointer-events: none; stroke-width: 1; fill: rgb(99, 110, 250); fill-opacity: 1; stroke: rgb(255, 255, 255); stroke-opacity: 1; opacity: 0.7;"/><g class="slicetext"><text data-notex="1" class="slicetext" text-anchor="middle" x="0" y="0" style="font-family: 'Open Sans', verdana, arial, sans-serif; font-size: 22px; fill: rgb(255, 255, 255); fill-opacity: 1; white-space: pre;" transform="translate(45.22362234937225,753.1380594774134)scale(0.003360739518156812)"><tspan class="line" dy="0em" x="0" y="0">01</tspan><tspan class="line" dy="1.3em" x="0" y="0">0.00 ms</tspan><tspan class="line" dy="2.6em" x="0" y="0">0.0209%</tspan></text></g></g><g class="slice"><path class="surface" d="M382.5009181762309,754.212746474879L45.00183635246185,753.4254929497582A675,675 0,0,0 904.8553116961407,1404.1945114815148L812.4276558480703,1079.5972557407574A337.5,337.5 0,0,1 382.5009181762309,754.212746474879Z" style="pointer-events: none; stroke-width: 1; fill: rgb(239, 85, 59); fill-opacity: 1; stroke: rgb(255, 255, 255); stroke-opacity: 1; opacity: 0.7;"/><g class="slicetext"><text data-notex="1" class="slicetext" text-anchor="middle" x="0" y="0" style="font-family: 'Open Sans', verdana, arial, sans-serif; font-size: 22px; fill: rgb(68, 68, 68); fill-opacity: 1; white-space: pre;" transform="translate(414.48652399816007,1138.8198118644368)"><tspan class="line" dy="0em" x="0" y="0">04</tspan><tspan class="line" dy="1.3em" x="0" y="0">7.29 ms</tspan><tspan class="line" dy="2.6em" x="0" y="0">96%</tspan></text></g></g><g class="slice"><path class="surface" d="M812.4276558480703,1079.5972557407574L904.8553116961407,1404.1945114815148A675,675 0,0,0 932.1966410070327,1395.7788897469488L826.0983205035163,1075.3894448734745A337.5,337.5 0,0,1 812.4276558480703,1079.5972557407574Z" style="pointer-events: none; stroke-width: 1; fill: rgb(239, 85, 59); fill-opacity: 1; stroke: rgb(255, 255, 255); stroke-opacity: 1; opacity: 0.7;"/><g class="slicetext"><text data-notex="1" class="slicetext" text-anchor="middle" x="0" y="0" style="font-family: 'Open Sans', verdana, arial, sans-serif; font-size: 22px; fill: rgb(68, 68, 68); fill-opacity: 1; white-space: pre;" transform="translate(914.4500686994319,1382.2350553512942)scale(0.22716187085735828)"><tspan class="line" dy="0em" x="0" y="0">01</tspan><tspan class="line" dy="1.3em" x="0" y="0">0.17 ms</tspan><tspan class="line" dy="2.6em" x="0" y="0">2%</tspan></text></g></g><g class="slice"><path class="surface" d="M826.0983205035163,1075.3894448734745L932.1966410070327,1395.7788897469488A675,675 0,0,0 950.3743824577044,1389.4703648770612L835.1871912288523,1072.2351824385305A337.5,337.5 0,0,1 826.0983205035163,1075.3894448734745Z" style="pointer-events: none; stroke-width: 1; fill: rgb(239, 85, 59); fill-opacity: 1; stroke: rgb(255, 255, 255); stroke-opacity: 1; opacity: 0.7;"/><g class="slicetext"><text data-notex="1" class="slicetext" text-anchor="middle" x="0" y="0" style="font-family: 'Open Sans', verdana, arial, sans-serif; font-size: 22px; fill: rgb(68, 68, 68); fill-opacity: 1; white-space: pre;" transform="translate(938.1980543684892,1380.6743858938476)scale(0.15383507542655597)"><tspan class="line" dy="0em" x="0" y="0">02</tspan><tspan class="line" dy="1.3em" x="0" y="0">0.11 ms</tspan><tspan class="line" dy="2.6em" x="0" y="0">1%</tspan></text></g></g><g class="slice"><path class="surface" d="M835.1871912288523,1072.2351824385305L950.3743824577044,1389.4703648770612A675,675 0,0,0 958.2621313904345,1386.550597137939L839.1310656952173,1070.7752985689694A337.5,337.5 0,0,1 835.1871912288523,1072.2351824385305Z" style="pointer-events: none; stroke-width: 1; fill: rgb(239, 85, 59); fill-opacity: 1; stroke: rgb(255, 255, 255); stroke-opacity: 1; opacity: 0.7;"/><g class="slicetext"><text data-notex="1" class="slicetext" text-anchor="middle" x="0" y="0" style="font-family: 'Open Sans', verdana, arial, sans-serif; font-size: 22px; fill: rgb(68, 68, 68); fill-opacity: 1; white-space: pre;" transform="translate(952.8719598912351,1382.7577548147408)scale(0.06778088873314936)"><tspan class="line" dy="0em" x="0" y="0">03</tspan><tspan class="line" dy="1.3em" x="0" y="0">0.05 ms</tspan><tspan class="line" dy="2.6em" x="0" y="0">1%</tspan></text></g></g><g class="slice"><path class="surface" d="M839.1310656952176,1070.7752985689694L958.2621313904351,1386.550597137939A675,675 0,0,0 1138.4155154317632,1284.6729712246715L929.2077577158816,1019.8364856123358A337.5,337.5 0,0,1 839.1310656952176,1070.7752985689694Z" style="pointer-events: none; stroke-width: 1; fill: rgb(0, 204, 150); fill-opacity: 1; stroke: rgb(255, 255, 255); stroke-opacity: 1; opacity: 0.7;"/><g class="slicetext"><text data-notex="1" class="slicetext" text-anchor="middle" x="0" y="0" style="font-family: 'Open Sans', verdana, arial, sans-serif; font-size: 22px; fill: rgb(68, 68, 68); fill-opacity: 1; white-space: pre;" transform="translate(1008.0990698022986,1244.6030100695393)"><tspan class="line" dy="0em" x="0" y="0">02</tspan><tspan class="line" dy="1.3em" x="0" y="0">1.21 ms</tspan><tspan class="line" dy="2.6em" x="0" y="0">42%</tspan></text></g></g><g class="slice"><path class="surface" d="M929.2077577158816,1019.8364856123358L1138.4155154317632,1284.6729712246715A675,675 0,0,0 1272.8007744266451,1142.345199780895L996.4003872133226,948.6725998904475A337.5,337.5 0,0,1 929.2077577158816,1019.8364856123358Z" style="pointer-events: none; stroke-width: 1; fill: rgb(0, 204, 150); fill-opacity: 1; stroke: rgb(255, 255, 255); stroke-opacity: 1; opacity: 0.7;"/><g class="slicetext"><text data-notex="1" class="slicetext" text-anchor="middle" x="0" y="0" style="font-family: 'Open Sans', verdana, arial, sans-serif; font-size: 22px; fill: rgb(68, 68, 68); fill-opacity: 1; white-space: pre;" transform="translate(1148.6428177220248,1139.8711103244323)"><tspan class="line" dy="0em" x="0" y="0">01</tspan><tspan class="line" dy="1.3em" x="0" y="0">1.15 ms</tspan><tspan class="line" dy="2.6em" x="0" y="0">40%</tspan></text></g></g><g class="slice"><path class="surface" d="M996.4003872133226,948.6725998904475L1272.8007744266451,1142.345199780895A675,675 0,0,0 1319.0280486323268,1066.1115506562664L1019.5140243161634,910.5557753281332A337.5,337.5 0,0,1 996.4003872133226,948.6725998904475Z" style="pointer-events: none; stroke-width: 1; fill: rgb(0, 204, 150); fill-opacity: 1; stroke: rgb(255, 255, 255); stroke-opacity: 1; opacity: 0.7;"/><g class="slicetext"><text data-notex="1" class="slicetext" text-anchor="middle" x="0" y="0" style="font-family: 'Open Sans', verdana, arial, sans-serif; font-size: 22px; fill: rgb(68, 68, 68); fill-opacity: 1; white-space: pre;" transform="translate(1261.418895629863,1069.8479805439824)scale(0.6781673048638329)"><tspan class="line" dy="0em" x="0" y="0">03</tspan><tspan class="line" dy="1.3em" x="0" y="0">0.52 ms</tspan><tspan class="line" dy="2.6em" x="0" y="0">18%</tspan></text></g></g><g class="slice"><path class="surface" d="M1019.5140243161634,910.5557753281332L1319.0280486323268,1066.1115506562664A675,675 0,0,0 1347.695312742831,1003.2410005633229L1033.8476563714155,879.1205002816614A337.5,337.5 0,0,1 1019.5140243161634,910.5557753281332Z" style="pointer-events: none; stroke-width: 1; fill: rgb(171, 99, 250); fill-opacity: 1; stroke: rgb(255, 255, 255); stroke-opacity: 1; opacity: 0.7;"/><g class="slicetext"><text data-notex="1" class="slicetext" text-anchor="middle" x="0" y="0" style="font-family: 'Open Sans', verdana, arial, sans-serif; font-size: 22px; fill: rgb(68, 68, 68); fill-opacity: 1; white-space: pre;" transform="translate(1304.2620469220212,1010.8261144960476)scale(0.5330320007552601)"><tspan class="line" dy="0em" x="0" y="0">03</tspan><tspan class="line" dy="1.3em" x="0" y="0">0.40 ms</tspan><tspan class="line" dy="2.6em" x="0" y="0">90%</tspan></text></g></g><g class="slice"><path class="surface" d="M1033.8476563714155,879.1205002816614L1347.695312742831,1003.2410005633229A675,675 0,0,0 1349.4903690764068,998.6531863942048L1034.7451845382034,876.8265931971024A337.5,337.5 0,0,1 1033.8476563714155,879.1205002816614Z" style="pointer-events: none; stroke-width: 1; fill: rgb(171, 99, 250); fill-opacity: 1; stroke: rgb(255, 255, 255); stroke-opacity: 1; opacity: 0.7;"/><g class="slicetext"><text data-notex="1" class="slicetext" text-anchor="middle" x="0" y="0" style="font-family: 'Open Sans', verdana, arial, sans-serif; font-size: 22px; fill: rgb(68, 68, 68); fill-opacity: 1; white-space: pre;" transform="translate(1346.3114599593441,999.2643026243774)scale(0.039803604365589114)"><tspan class="line" dy="0em" x="0" y="0">02</tspan><tspan class="line" dy="1.3em" x="0" y="0">0.03 ms</tspan><tspan class="line" dy="2.6em" x="0" y="0">6%</tspan></text></g></g><g class="slice"><path class="surface" d="M1034.7451845382034,876.8265931971024L1349.4903690764068,998.6531863942048A675,675 0,0,0 1350.5563893077854,995.8809662533107L1035.2781946538926,875.4404831266554A337.5,337.5 0,0,1 1034.7451845382034,876.8265931971024Z" style="pointer-events: none; stroke-width: 1; fill: rgb(171, 99, 250); fill-opacity: 1; stroke: rgb(255, 255, 255); stroke-opacity: 1; opacity: 0.7;"/><g class="slicetext"><text data-notex="1" class="slicetext" text-anchor="middle" x="0" y="0" style="font-family: 'Open Sans', verdana, arial, sans-serif; font-size: 22px; fill: rgb(68, 68, 68); fill-opacity: 1; white-space: pre;" transform="translate(1348.6418367745844,996.2587537166734)scale(0.02403180713501933)"><tspan class="line" dy="0em" x="0" y="0">01</tspan><tspan class="line" dy="1.3em" x="0" y="0">0.02 ms</tspan><tspan class="line" dy="2.6em" x="0" y="0">4%</tspan></text></g></g><g class="slice"><path class="surface" d="M1035.2781946538926,875.4404831266554L1350.5563893077854,995.8809662533107A675,675 0,0,0 1366.8135766356677,948.02123478979L1043.4067883178338,851.510617394895A337.5,337.5 0,0,1 1035.2781946538926,875.4404831266554Z" style="pointer-events: none; stroke-width: 1; fill: rgb(255, 161, 90); fill-opacity: 1; stroke: rgb(255, 255, 255); stroke-opacity: 1; opacity: 0.7;"/><g class="slicetext"><text data-notex="1" class="slicetext" text-anchor="middle" x="0" y="0" style="font-family: 'Open Sans', verdana, arial, sans-serif; font-size: 22px; fill: rgb(68, 68, 68); fill-opacity: 1; white-space: pre;" transform="translate(1336.066881005368,956.4251133701364)scale(0.3950811788013063)"><tspan class="line" dy="0em" x="0" y="0">01</tspan><tspan class="line" dy="1.3em" x="0" y="0">0.30 ms</tspan><tspan class="line" dy="2.6em" x="0" y="0">68%</tspan></text></g></g><g class="slice"><path class="surface" d="M1043.4067883178338,851.510617394895L1366.8135766356677,948.02123478979A675,675 0,0,0 1371.8600708766987,930.223993781175L1045.9300354383495,842.6119968905874A337.5,337.5 0,0,1 1043.4067883178338,851.510617394895Z" style="pointer-events: none; stroke-width: 1; fill: rgb(255, 161, 90); fill-opacity: 1; stroke: rgb(255, 255, 255); stroke-opacity: 1; opacity: 0.7;"/><g class="slicetext"><text data-notex="1" class="slicetext" text-anchor="middle" x="0" y="0" style="font-family: 'Open Sans', verdana, arial, sans-serif; font-size: 22px; fill: rgb(68, 68, 68); fill-opacity: 1; white-space: pre;" transform="translate(1360.6194629186348,933.7131365193799)scale(0.14797967190814668)"><tspan class="line" dy="0em" x="0" y="0">03</tspan><tspan class="line" dy="1.3em" x="0" y="0">0.11 ms</tspan><tspan class="line" dy="2.6em" x="0" y="0">25%</tspan></text></g></g><g class="slice"><path class="surface" d="M1045.9300354383495,842.6119968905874L1371.8600708766987,930.223993781175A675,675 0,0,0 1373.3123017723015,924.7293031652976L1046.6561508861507,839.8646515826488A337.5,337.5 0,0,1 1045.9300354383495,842.6119968905874Z" style="pointer-events: none; stroke-width: 1; fill: rgb(255, 161, 90); fill-opacity: 1; stroke: rgb(255, 255, 255); stroke-opacity: 1; opacity: 0.7;"/><g class="slicetext"><text data-notex="1" class="slicetext" text-anchor="middle" x="0" y="0" style="font-family: 'Open Sans', verdana, arial, sans-serif; font-size: 22px; fill: rgb(68, 68, 68); fill-opacity: 1; white-space: pre;" transform="translate(1369.8561416177242,925.844054741781)scale(0.045893152374564525)"><tspan class="line" dy="0em" x="0" y="0">02</tspan><tspan class="line" dy="1.3em" x="0" y="0">0.03 ms</tspan><tspan class="line" dy="2.6em" x="0" y="0">8%</tspan></text></g></g><g class="slice"><path class="surface" d="M1046.6561508861507,839.8646515826488L1373.3123017723015,924.7293031652976A675,675 0,0,0 1382.225458405506,885.6998172899159L1051.1127292027531,820.349908644958A337.5,337.5 0,0,1 1046.6561508861507,839.8646515826488Z" style="pointer-events: none; stroke-width: 1; fill: rgb(25, 211, 243); fill-opacity: 1; stroke: rgb(255, 255, 255); stroke-opacity: 1; opacity: 0.7;"/><g class="slicetext"><text data-notex="1" class="slicetext" text-anchor="middle" x="0" y="0" style="font-family: 'Open Sans', verdana, arial, sans-serif; font-size: 22px; fill: rgb(68, 68, 68); fill-opacity: 1; white-space: pre;" transform="translate(1359.1055990134287,894.6934686632064)scale(0.31528810084022396)"><tspan class="line" dy="0em" x="0" y="0">03</tspan><tspan class="line" dy="1.3em" x="0" y="0">0.23 ms</tspan><tspan class="line" dy="2.6em" x="0" y="0">89%</tspan></text></g></g><g class="slice"><path class="surface" d="M1051.1127292027531,820.349908644958L1382.225458405506,885.6998172899159A675,675 0,0,0 1383.0857206641642,881.2629282540446L1051.542860332082,818.1314641270222A337.5,337.5 0,0,1 1051.1127292027531,820.349908644958Z" style="pointer-events: none; stroke-width: 1; fill: rgb(25, 211, 243); fill-opacity: 1; stroke: rgb(255, 255, 255); stroke-opacity: 1; opacity: 0.7;"/><g class="slicetext"><text data-notex="1" class="slicetext" text-anchor="middle" x="0" y="0" style="font-family: 'Open Sans', verdana, arial, sans-serif; font-size: 22px; fill: rgb(68, 68, 68); fill-opacity: 1; white-space: pre;" transform="translate(1380.4482605778178,882.3282894295841)scale(0.036526464541497786)"><tspan class="line" dy="0em" x="0" y="0">02</tspan><tspan class="line" dy="1.3em" x="0" y="0">0.03 ms</tspan><tspan class="line" dy="2.6em" x="0" y="0">10%</tspan></text></g></g><g class="slice"><path class="surface" d="M1051.542860332082,818.1314641270222L1383.0857206641642,881.2629282540446A675,675 0,0,0 1383.151084364445,880.9191776746525L1051.5755421822225,817.9595888373262A337.5,337.5 0,0,1 1051.542860332082,818.1314641270222Z" style="pointer-events: none; stroke-width: 1; fill: rgb(25, 211, 243); fill-opacity: 1; stroke: rgb(255, 255, 255); stroke-opacity: 1; opacity: 0.7;"/><g class="slicetext"><text data-notex="1" class="slicetext" text-anchor="middle" x="0" y="0" style="font-family: 'Open Sans', verdana, arial, sans-serif; font-size: 22px; fill: rgb(68, 68, 68); fill-opacity: 1; white-space: pre;" transform="translate(1382.9465940362315,881.0020712472356)scale(0.0028366820551722445)"><tspan class="line" dy="0em" x="0" y="0">01</tspan><tspan class="line" dy="1.3em" x="0" y="0">0.00 ms</tspan><tspan class="line" dy="2.6em" x="0" y="0">1%</tspan></text></g></g><g class="slice"><path class="surface" d="M1051.5755421822225,817.9595888373262L1383.151084364445,880.9191776746525A675,675 0,0,0 1387.8546987399345,852.9545883100491L1053.9273493699673,803.9772941550245A337.5,337.5 0,0,1 1051.5755421822225,817.9595888373262Z" style="pointer-events: none; stroke-width: 1; fill: rgb(255, 102, 146); fill-opacity: 1; stroke: rgb(255, 255, 255); stroke-opacity: 1; opacity: 0.7;"/><g class="slicetext"><text data-notex="1" class="slicetext" text-anchor="middle" x="0" y="0" style="font-family: 'Open Sans', verdana, arial, sans-serif; font-size: 22px; fill: rgb(68, 68, 68); fill-opacity: 1; white-space: pre;" transform="translate(1371.9551278641288,860.1872099234757)scale(0.2252192256961066)"><tspan class="line" dy="0em" x="0" y="0">03</tspan><tspan class="line" dy="1.3em" x="0" y="0">0.17 ms</tspan><tspan class="line" dy="2.6em" x="0" y="0">67%</tspan></text></g></g><g class="slice"><path class="surface" d="M1053.9273493699673,803.9772941550245L1387.8546987399345,852.9545883100491A675,675 0,0,0 1389.511671897533,840.9018113485981L1054.7558359487666,797.9509056742991A337.5,337.5 0,0,1 1053.9273493699673,803.9772941550245Z" style="pointer-events: none; stroke-width: 1; fill: rgb(255, 102, 146); fill-opacity: 1; stroke: rgb(255, 255, 255); stroke-opacity: 1; opacity: 0.7;"/><g class="slicetext"><text data-notex="1" class="slicetext" text-anchor="middle" x="0" y="0" style="font-family: 'Open Sans', verdana, arial, sans-serif; font-size: 22px; fill: rgb(68, 68, 68); fill-opacity: 1; white-space: pre;" transform="translate(1382.7377766514321,844.1698782602757)scale(0.09777405726379533)"><tspan class="line" dy="0em" x="0" y="0">01</tspan><tspan class="line" dy="1.3em" x="0" y="0">0.07 ms</tspan><tspan class="line" dy="2.6em" x="0" y="0">29%</tspan></text></g></g><g class="slice"><path class="surface" d="M1054.7558359487666,797.9509056742991L1389.511671897533,840.9018113485981A675,675 0,0,0 1389.71064280144,839.3365574260794L1054.85532140072,797.1682787130396A337.5,337.5 0,0,1 1054.7558359487666,797.9509056742991Z" style="pointer-events: none; stroke-width: 1; fill: rgb(255, 102, 146); fill-opacity: 1; stroke: rgb(255, 255, 255); stroke-opacity: 1; opacity: 0.7;"/><g class="slicetext"><text data-notex="1" class="slicetext" text-anchor="middle" x="0" y="0" style="font-family: 'Open Sans', verdana, arial, sans-serif; font-size: 22px; fill: rgb(68, 68, 68); fill-opacity: 1; white-space: pre;" transform="translate(1388.829901395657,839.7661734347472)scale(0.012779839342419027)"><tspan class="line" dy="0em" x="0" y="0">02</tspan><tspan class="line" dy="1.3em" x="0" y="0">0.01 ms</tspan><tspan class="line" dy="2.6em" x="0" y="0">4%</tspan></text></g></g><g class="slice"><path class="surface" d="M1054.85532140072,797.1682787130396L1389.71064280144,839.3365574260794A675,675 0,0,0 1392.0785396677943,817.7330576172177L1056.0392698338972,786.3665288086089A337.5,337.5 0,0,1 1054.85532140072,797.1682787130396Z" style="pointer-events: none; stroke-width: 1; fill: rgb(182, 232, 128); fill-opacity: 1; stroke: rgb(255, 255, 255); stroke-opacity: 1; opacity: 0.7;"/><g class="slicetext"><text data-notex="1" class="slicetext" text-anchor="middle" x="0" y="0" style="font-family: 'Open Sans', verdana, arial, sans-serif; font-size: 22px; fill: rgb(68, 68, 68); fill-opacity: 1; white-space: pre;" transform="translate(1380.3509287742884,823.9360973538594)scale(0.17343974559891584)"><tspan class="line" dy="0em" x="0" y="0">03</tspan><tspan class="line" dy="1.3em" x="0" y="0">0.13 ms</tspan><tspan class="line" dy="2.6em" x="0" y="0">67%</tspan></text></g></g><g class="slice"><path class="surface" d="M1056.0392698338972,786.3665288086089L1392.0785396677943,817.7330576172177A675,675 0,0,0 1392.8383933557188,808.97681378606L1056.4191966778594,781.9884068930301A337.5,337.5 0,0,1 1056.0392698338972,786.3665288086089Z" style="pointer-events: none; stroke-width: 1; fill: rgb(182, 232, 128); fill-opacity: 1; stroke: rgb(255, 255, 255); stroke-opacity: 1; opacity: 0.7;"/><g class="slicetext"><text data-notex="1" class="slicetext" text-anchor="middle" x="0" y="0" style="font-family: 'Open Sans', verdana, arial, sans-serif; font-size: 22px; fill: rgb(68, 68, 68); fill-opacity: 1; white-space: pre;" transform="translate(1388.122915904461,811.5730102737759)scale(0.07081018726320637)"><tspan class="line" dy="0em" x="0" y="0">01</tspan><tspan class="line" dy="1.3em" x="0" y="0">0.05 ms</tspan><tspan class="line" dy="2.6em" x="0" y="0">27%</tspan></text></g></g><g class="slice"><path class="surface" d="M1056.4191966778594,781.9884068930301L1392.8383933557188,808.97681378606A675,675 0,0,0 1393.005735520706,806.8486254035115L1056.502867760353,780.9243127017558A337.5,337.5 0,0,1 1056.4191966778594,781.9884068930301Z" style="pointer-events: none; stroke-width: 1; fill: rgb(182, 232, 128); fill-opacity: 1; stroke: rgb(255, 255, 255); stroke-opacity: 1; opacity: 0.7;"/><g class="slicetext"><text data-notex="1" class="slicetext" text-anchor="middle" x="0" y="0" style="font-family: 'Open Sans', verdana, arial, sans-serif; font-size: 22px; fill: rgb(68, 68, 68); fill-opacity: 1; white-space: pre;" transform="translate(1391.8604915719454,807.4861440856619)scale(0.017283409385478815)"><tspan class="line" dy="0em" x="0" y="0">02</tspan><tspan class="line" dy="1.3em" x="0" y="0">0.01 ms</tspan><tspan class="line" dy="2.6em" x="0" y="0">7%</tspan></text></g></g><g class="slice"><path class="surface" d="M1056.502867760353,780.9243127017558L1393.005735520706,806.8486254035115A675,675 0,0,0 1393.9048817007929,793.4344951812863L1056.9524408503964,774.2172475906432A337.5,337.5 0,0,1 1056.502867760353,780.9243127017558Z" style="pointer-events: none; stroke-width: 1; fill: rgb(255, 151, 255); fill-opacity: 1; stroke: rgb(255, 255, 255); stroke-opacity: 1; opacity: 0.7;"/><g class="slicetext"><text data-notex="1" class="slicetext" text-anchor="middle" x="0" y="0" style="font-family: 'Open Sans', verdana, arial, sans-serif; font-size: 22px; fill: rgb(68, 68, 68); fill-opacity: 1; white-space: pre;" transform="translate(1386.847776081523,797.5557970904599)scale(0.10794423657240117)"><tspan class="line" dy="0em" x="0" y="0">01</tspan><tspan class="line" dy="1.3em" x="0" y="0">0.08 ms</tspan><tspan class="line" dy="2.6em" x="0" y="0">51%</tspan></text></g></g><g class="slice"><path class="surface" d="M1056.9524408503964,774.2172475906432L1393.9048817007929,793.4344951812863A675,675 0,0,0 1394.3650259862102,784.271346511869L1057.182512993105,769.6356732559345A337.5,337.5 0,0,1 1056.9524408503964,774.2172475906432Z" style="pointer-events: none; stroke-width: 1; fill: rgb(255, 151, 255); fill-opacity: 1; stroke: rgb(255, 255, 255); stroke-opacity: 1; opacity: 0.7;"/><g class="slicetext"><text data-notex="1" class="slicetext" text-anchor="middle" x="0" y="0" style="font-family: 'Open Sans', verdana, arial, sans-serif; font-size: 22px; fill: rgb(68, 68, 68); fill-opacity: 1; white-space: pre;" transform="translate(1389.5998745615516,787.1582450275661)scale(0.07389536770699176)"><tspan class="line" dy="0em" x="0" y="0">02</tspan><tspan class="line" dy="1.3em" x="0" y="0">0.05 ms</tspan><tspan class="line" dy="2.6em" x="0" y="0">35%</tspan></text></g></g><g class="slice"><path class="surface" d="M1057.182512993105,769.6356732559345L1394.3650259862102,784.271346511869A675,675 0,0,0 1394.5209477108995,780.4261892384616L1057.2604738554496,767.7130946192308A337.5,337.5 0,0,1 1057.182512993105,769.6356732559345Z" style="pointer-events: none; stroke-width: 1; fill: rgb(255, 151, 255); fill-opacity: 1; stroke: rgb(255, 255, 255); stroke-opacity: 1; opacity: 0.7;"/><g class="slicetext"><text data-notex="1" class="slicetext" text-anchor="middle" x="0" y="0" style="font-family: 'Open Sans', verdana, arial, sans-serif; font-size: 22px; fill: rgb(68, 68, 68); fill-opacity: 1; white-space: pre;" transform="translate(1392.5286134086325,781.6534129634593)scale(0.031117287184096714)"><tspan class="line" dy="0em" x="0" y="0">03</tspan><tspan class="line" dy="1.3em" x="0" y="0">0.02 ms</tspan><tspan class="line" dy="2.6em" x="0" y="0">15%</tspan></text></g></g><g class="slice"><path class="surface" d="M1057.2604738554496,767.7130946192306L1394.5209477108995,780.426189238461A675,675 0,0,0 1394.8527123139825,769.1002369647174L1057.4263561569912,762.0501184823587A337.5,337.5 0,0,1 1057.2604738554496,767.7130946192306Z" style="pointer-events: none; stroke-width: 1; fill: rgb(254, 203, 82); fill-opacity: 1; stroke: rgb(255, 255, 255); stroke-opacity: 1; opacity: 0.7;"/><g class="slicetext"><text data-notex="1" class="slicetext" text-anchor="middle" x="0" y="0" style="font-family: 'Open Sans', verdana, arial, sans-serif; font-size: 22px; fill: rgb(68, 68, 68); fill-opacity: 1; white-space: pre;" transform="translate(1389.0947543584325,772.7905980412662)scale(0.09111673732637376)"><tspan class="line" dy="0em" x="0" y="0">01</tspan><tspan class="line" dy="1.3em" x="0" y="0">0.07 ms</tspan><tspan class="line" dy="2.6em" x="0" y="0">45%</tspan></text></g></g><g class="slice"><path class="surface" d="M1057.4263561569912,762.0501184823587L1394.8527123139825,769.1002369647174A675,675 0,0,0 1394.991799687914,758.32721416066L1057.495899843957,756.6636070803299A337.5,337.5 0,0,1 1057.4263561569912,762.0501184823587Z" style="pointer-events: none; stroke-width: 1; fill: rgb(254, 203, 82); fill-opacity: 1; stroke: rgb(255, 255, 255); stroke-opacity: 1; opacity: 0.7;"/><g class="slicetext"><text data-notex="1" class="slicetext" text-anchor="middle" x="0" y="0" style="font-family: 'Open Sans', verdana, arial, sans-serif; font-size: 22px; fill: rgb(68, 68, 68); fill-opacity: 1; white-space: pre;" transform="translate(1389.599886635067,761.9243963840568)scale(0.0866739638704861)"><tspan class="line" dy="0em" x="0" y="0">03</tspan><tspan class="line" dy="1.3em" x="0" y="0">0.06 ms</tspan><tspan class="line" dy="2.6em" x="0" y="0">42%</tspan></text></g></g><g class="slice"><path class="surface" d="M1057.495899843957,756.6636070803299L1394.991799687914,758.32721416066A675,675 0,0,0 1395,755.0000000000001L1057.5,755.0000000000001A337.5,337.5 0,0,1 1057.495899843957,756.6636070803299Z" style="pointer-events: none; stroke-width: 1; fill: rgb(254, 203, 82); fill-opacity: 1; stroke: rgb(255, 255, 255); stroke-opacity: 1; opacity: 0.7;"/><g class="slicetext"><text data-notex="1" class="slicetext" text-anchor="middle" x="0" y="0" style="font-family: 'Open Sans', verdana, arial, sans-serif; font-size: 22px; fill: rgb(68, 68, 68); fill-opacity: 1; white-space: pre;" transform="translate(1393.3384329017126,756.1252348004213)scale(0.02691411605312835)"><tspan class="line" dy="0em" x="0" y="0">02</tspan><tspan class="line" dy="1.3em" x="0" y="0">0.02 ms</tspan><tspan class="line" dy="2.6em" x="0" y="0">13%</tspan></text></g></g></g></g><g class="glimages"/><defs id="topdefs-34bd44"><g class="clips"/></defs><g class="layer-above"><g class="imagelayer"/><g class="shapelayer"/></g><g class="infolayer"><g class="g-gtitle"><text class="gtitle" x="720" y="40" text-anchor="middle" dy="0em" style="opacity: 1; font-family: 'Open Sans', verdana, arial, sans-serif; font-size: 31px; fill: rgb(42, 63, 95); fill-opacity: 1; white-space: pre;">Total time: 25 ms</text></g></g></svg>